 <!DOCTYPE svg PUBLIC "-//W3C//DTD SVG 1.1//EN" "http://www.w3.org/Graphics/SVG/1.1/DTD/svg11.dtd">
<svg xmlns="http://www.w3.org/2000/svg" width="865.76" height="682.89" viewBox="0 0 865.76 682.89">
<defs>
<style xmlns="http://www.w3.org/1999/xhtml">*, ::after, ::before { box-sizing: border-box; }
img, svg { vertical-align: middle; }
</style>
<style xmlns="http://www.w3.org/1999/xhtml">*, body, html { -webkit-font-smoothing: antialiased; }
img, svg { max-width: 100%; }
</style>
</defs>
<rect x="31.17" y="560.06" width="803.43" height="0.4" fill="#ebebeb"/>
<rect x="700.87" y="585.91" width="53.22" height="0.4" fill="#ebebeb"/>
<rect x="549.43" y="590.28" width="13.96" height="0.4" fill="#ebebeb"/>
<rect x="668.43" y="571" width="30.84" height="0.4" fill="#ebebeb"/>
<rect x="115.46" y="573.7" width="69.4" height="0.4" fill="#ebebeb"/>
<rect x="199.18" y="573.7" width="10.17" height="0.4" fill="#ebebeb"/>
<rect x="242.42" y="580.48" width="150.53" height="0.4" fill="#ebebeb"/>
<path d="M412,488.39H101.72a9.17,9.17,0,0,1-9.15-9.18V43.07a9.17,9.17,0,0,1,9.15-9.1H412a9.18,9.18,0,0,1,9.18,9.18h0V479.21A9.18,9.18,0,0,1,412,488.39ZM101.72,34.29A8.78,8.78,0,0,0,93,43.07V479.21a8.78,8.78,0,0,0,8.75,8.78H412a8.8,8.8,0,0,0,8.78-8.78V43.07A8.8,8.8,0,0,0,412,34.29Z" fill="#ebebeb"/>
<path d="M759.57,488.39H449.29a9.19,9.19,0,0,1-9.18-9.18V43.07a9.2,9.2,0,0,1,9.18-9.1H759.57a9.18,9.18,0,0,1,9.15,9.1V479.21A9.18,9.18,0,0,1,759.57,488.39ZM449.29,34.29a8.8,8.8,0,0,0-8.78,8.78V479.21a8.8,8.8,0,0,0,8.78,8.78H759.57a8.8,8.8,0,0,0,8.78-8.78V43.07a8.8,8.8,0,0,0-8.78-8.78Z" fill="#ebebeb"/>
<polygon points="341.56 61 359.11 75.52 365.04 53.88 341.56 61" fill="#ebebeb"/>
<polygon points="372.88 51.66 391.44 63.92 393.26 43.64 372.88 51.66" fill="#ebebeb"/>
<polygon points="200.39 72.5 213.61 100.78 229.04 72.89 200.39 72.5" fill="#ebebeb"/>
<polygon points="231.17 73.05 252.37 96.53 264.68 71.14 231.17 73.05" fill="#ebebeb"/>
<polygon points="269.35 70.99 288.78 90.42 296.7 67.7 269.35 70.99" fill="#ebebeb"/>
<polygon points="304.74 67.15 328.74 85.6 334.93 62.65 304.74 67.15" fill="#ebebeb"/>
<path d="M299.61,68.81c-72.79,8.79-146.22,3.5-147.38,3.42l.24-3.21c1.93.14,193.63,13.93,263.3-40.58l2,2.54C390.54,52.26,345.18,63.3,299.61,68.81Z" fill="#e0e0e0"/>
<polygon points="522.46 61 504.9 75.52 498.99 53.88 522.46 61" fill="#ebebeb"/>
<polygon points="491.15 51.66 472.59 63.92 470.77 43.64 491.15 51.66" fill="#ebebeb"/>
<polygon points="663.64 72.5 650.4 100.78 634.99 72.89 663.64 72.5" fill="#ebebeb"/>
<polygon points="632.84 73.05 611.64 96.53 599.35 71.14 632.84 73.05" fill="#ebebeb"/>
<polygon points="594.68 70.99 575.25 90.42 567.33 67.7 594.68 70.99" fill="#ebebeb"/>
<polygon points="559.28 67.15 535.29 85.6 529.08 62.65 559.28 67.15" fill="#ebebeb"/>
<path d="M564.42,68.81c72.79,8.79,146.22,3.5,147.38,3.42L711.56,69c-1.93.14-193.63,13.93-263.3-40.58l-2,2.54C473.49,52.26,518.83,63.3,564.42,68.81Z" fill="#e0e0e0"/>
<polygon points="299.22 558.61 318.3 463.27 332.29 463.27 351.35 558.61 338.64 558.61 326.57 500.14 313.22 558.61 299.22 558.61" fill="#e0e0e0"/>
<polygon points="608.45 558.61 589.39 463.27 575.39 463.27 556.32 558.61 569.05 558.61 581.12 500.14 594.47 558.61 608.45 558.61" fill="#e0e0e0"/>
<path d="M626.46,492.63,295,525.85a13.36,13.36,0,0,1-14.6-12L265.77,367.14a13.34,13.34,0,0,1,11.93-14.61h0l331.43-33.2a13.36,13.36,0,0,1,14.63,11.94L638.48,478a13.37,13.37,0,0,1-12,14.6Z" fill="#e0e0e0"/>
<rect x="278.58" y="341.93" width="346.94" height="161.33" rx="6.93" transform="translate(-39.87 47.16) rotate(-5.72)" fill="#ebebeb" opacity="0.7" style="isolation:isolate"/>
<path d="M350.64,394.37a1,1,0,0,1,.1.77A28.16,28.16,0,0,1,345.16,406a13.33,13.33,0,0,1-8.91,4.4,9.38,9.38,0,0,1-7.46-2,10.31,10.31,0,0,1-3.21-7.07,20.28,20.28,0,0,1,.08-4.54c.19-1.61.51-3.55,1-5.66a11.25,11.25,0,0,1-6.43-2.76,9.19,9.19,0,0,1-2.81-5.93,14.27,14.27,0,0,1,.47-5.08,16.06,16.06,0,0,1,2.1-4.82,1,1,0,0,1,.74-.42,1,1,0,0,1,.77.23,1.09,1.09,0,0,1,.18,1.41,11.65,11.65,0,0,0-1.78,4,12.5,12.5,0,0,0-.44,4.39,7.08,7.08,0,0,0,2.36,4.82,9.73,9.73,0,0,0,5.37,2.17,43.25,43.25,0,0,1,5.24-12.78c2.31-3.74,5-5.75,8.16-6.07a5.7,5.7,0,0,1,4.82,1.44,7.3,7.3,0,0,1,2.11,4.82,10,10,0,0,1-2,7.12,17.2,17.2,0,0,1-6.35,5.19,23.62,23.62,0,0,1-8.26,2.41,15.43,15.43,0,0,1-2.15,0c-.47,2.25-.81,4.15-1,5.68a18.94,18.94,0,0,0-.1,4.19,8.19,8.19,0,0,0,2.61,5.72,7.56,7.56,0,0,0,5.81,1.48,11.57,11.57,0,0,0,7.85-3.92,25.85,25.85,0,0,0,4.82-9.82.93.93,0,0,1,.48-.63,1,1,0,0,1,.77-.09A1.07,1.07,0,0,1,350.64,394.37Zm-20.13-5.28a22.34,22.34,0,0,0,7.34-2.06,15.6,15.6,0,0,0,5.72-4.42,8.13,8.13,0,0,0,1.82-6,5.6,5.6,0,0,0-1.38-3.36,3.57,3.57,0,0,0-3.1-1,7.77,7.77,0,0,0-5,2.94,25.61,25.61,0,0,0-4,6.43,44.69,44.69,0,0,0-2.6,7.53A9,9,0,0,0,330.51,389.09Z" fill="#e0e0e0"/>
<path d="M367,399a5.51,5.51,0,0,1-3.79,2.13,5.67,5.67,0,0,1-3.84-.94,14.64,14.64,0,0,1-2.91,3.51,5.9,5.9,0,0,1-3.21,1.61c-2.83.27-4.41-1.22-4.82-4.51a25.09,25.09,0,0,1,2.84-13.44,12.66,12.66,0,0,1,2.89-4.16,6,6,0,0,1,3.47-1.61,4.68,4.68,0,0,1,3.76,1.13,5.45,5.45,0,0,1,1.61,3.6,18.85,18.85,0,0,1-.5,5.65,30.93,30.93,0,0,1-2.14,6.43,3,3,0,0,0,2.59.77,3.92,3.92,0,0,0,2.72-1.72,15.76,15.76,0,0,0,2.15-4.72,1,1,0,0,1,.32-.51,1.22,1.22,0,0,1,.55-.23,1.08,1.08,0,0,1,.79.24.93.93,0,0,1,.38.68,1.34,1.34,0,0,1,0,.4A17.23,17.23,0,0,1,367,399Zm-7.74-5.74a1,1,0,0,1,.24.9,2.34,2.34,0,0,0-.08.64,2.09,2.09,0,0,0,0,.5,25.83,25.83,0,0,0,1.31-4.82,14.93,14.93,0,0,0,.26-4.11,3.1,3.1,0,0,0-1-2.24,2.76,2.76,0,0,0-2.16-.59,4,4,0,0,0-2.49,1.38,12.26,12.26,0,0,0-2.12,3.21,23.5,23.5,0,0,0-2.67,12.25c.21,2,1,2.91,2.45,2.76a4.33,4.33,0,0,0,2.58-1.46,16,16,0,0,0,2.46-3.33,6.89,6.89,0,0,1-.62-2.31,9.92,9.92,0,0,1,0-2.31.89.89,0,0,1,.28-.6,1.11,1.11,0,0,1,1.53,0Z" fill="#e0e0e0"/>
<path d="M389.35,390.89a1.14,1.14,0,0,1,0,.45,35.34,35.34,0,0,1-3.73,8.38,5.82,5.82,0,0,1-4.17,2.77,3.26,3.26,0,0,1-2.74-.87,4.58,4.58,0,0,1-1.18-2.89,11.47,11.47,0,0,1,.17-3.36c.23-1.21.56-2.67,1-4.36s.82-3.21,1-4.24a9.87,9.87,0,0,0,.14-2.92,2.25,2.25,0,0,0-2.15-2.35,2,2,0,0,0-.64.07c-1.34.14-2.69,1.44-4.07,3.93a32.93,32.93,0,0,0-3.1,7.64l-2.44,10a1,1,0,0,1-.45.65,1.15,1.15,0,0,1-.81.15,1,1,0,0,1-.64-.45,1,1,0,0,1-.13-.8l2.81-11.36,2.59-10.48a1.07,1.07,0,0,1,1.31-.74,1.19,1.19,0,0,1,.51.32.94.94,0,0,1,.21.92l-.29,1a6.37,6.37,0,0,1,4.3-2.84,4.06,4.06,0,0,1,4.93,3,3.82,3.82,0,0,1,.12,1.17,11.54,11.54,0,0,1-.18,3.21c-.21,1.17-.56,2.75-1,4.74-.44,1.61-.76,3-.95,4.08a9.67,9.67,0,0,0-.19,2.84,3,3,0,0,0,.49,1.53,1.33,1.33,0,0,0,1.18.37,4.2,4.2,0,0,0,3-2.35,39.41,39.41,0,0,0,3.13-7.39,1,1,0,0,1,.87-.72,1.14,1.14,0,0,1,.45,0A1,1,0,0,1,389.35,390.89Z" fill="#e0e0e0"/>
<path d="M409.52,388.91a1.7,1.7,0,0,1,0,.45,27.63,27.63,0,0,1-4.82,9.48,19.51,19.51,0,0,1-8,5.7,23.32,23.32,0,0,1-3.31,8,6.56,6.56,0,0,1-4.66,3.05,4.56,4.56,0,0,1-3.56-.95,4.64,4.64,0,0,1-1.61-3.31q-.48-4.81,7.62-7.21c1.27-.33,2.53-.72,3.77-1.17l1-4.26a6.58,6.58,0,0,1-4.4,2.81,3.32,3.32,0,0,1-3.21-1.19,8.07,8.07,0,0,1-1.29-4,26.16,26.16,0,0,1,.87-7.68,23.45,23.45,0,0,1,3.21-7.44,6.84,6.84,0,0,1,4.82-3.43,4.64,4.64,0,0,1,4.82,2.24l.58-2.08a.84.84,0,0,1,.32-.54,1,1,0,0,1,.55-.24,1.4,1.4,0,0,1,.8.19.88.88,0,0,1,.42.67,1.69,1.69,0,0,1,0,.45q-.56,1.85-2.7,9.94l-1.86,7.53-1.45,6.16a15.91,15.91,0,0,0,6.32-5.11,27.71,27.71,0,0,0,3.93-8.18,1.1,1.1,0,0,1,.87-.74,1.7,1.7,0,0,1,.45,0A1,1,0,0,1,409.52,388.91ZM392,411.31a16.35,16.35,0,0,0,2.33-5.93c-1.33.43-2.2.69-2.62.8a13.79,13.79,0,0,0-4.82,2.08,3.51,3.51,0,0,0-1.41,2.87,2.74,2.74,0,0,0,.93,1.91,2.64,2.64,0,0,0,2,.57,4.94,4.94,0,0,0,3.57-2.3Zm3.55-15.76a57.35,57.35,0,0,0,3.22-9.26l.8-2.89a4.5,4.5,0,0,0-1.16-2.85,2.79,2.79,0,0,0-2.31-.8,5.55,5.55,0,0,0-3.81,3.21,25,25,0,0,0-2.59,6.77,21.1,21.1,0,0,0-.7,6.43,6.91,6.91,0,0,0,.53,2.57,1.5,1.5,0,0,0,1.6.72c1.82-.19,3.22-1.49,4.42-3.94Z" fill="#e0e0e0"/>
<path d="M427.47,387.06a1.69,1.69,0,0,1,0,.45,32.48,32.48,0,0,1-3.65,8.34,6,6,0,0,1-4.26,2.81h0a3.07,3.07,0,0,1-2.67-.86,4.55,4.55,0,0,1-1.2-2.88,12.34,12.34,0,0,1,.16-3.21c.13-.78.47-2.38,1-4.83s.9-4,1.07-4.57c-1.6-.34-2.71-.62-3.5-.82a17.87,17.87,0,0,1-2-.61,44.9,44.9,0,0,1-1.53,4.54l-2.1,5.67a.91.91,0,0,1-.82.68,1.4,1.4,0,0,1-.5,0,1,1,0,0,1-.67-.87,3.38,3.38,0,0,1,0-.45l3.07-8.88.43-1.51a5.09,5.09,0,0,1-2.91-3.86,3.08,3.08,0,0,1,.66-2.41,2.83,2.83,0,0,1,2-1.06,2.57,2.57,0,0,1,2.15.67,3.48,3.48,0,0,1,1,2.27,3.85,3.85,0,0,1,0,1c-.05.38-.11.76-.19,1.13s-.18.77-.25,1.11a38.47,38.47,0,0,0,4.62,1.27c.77.14,1.41.29,1.91.4a1.18,1.18,0,0,1,.72,1.35c-.24.88-.66,2.63-1.27,5.28s-.93,4.26-1,4.82a14,14,0,0,0-.18,2.74c.15,1.36.71,2,1.61,1.89a4.3,4.3,0,0,0,3.12-2.41,37.65,37.65,0,0,0,3-7.31,1,1,0,0,1,.85-.74,1.69,1.69,0,0,1,.45,0A.93.93,0,0,1,427.47,387.06ZM411,375a.64.64,0,0,0-.58-.21.82.82,0,0,0-.86.78,2,2,0,0,0,0,.23,2.61,2.61,0,0,0,.44,1.17,3.29,3.29,0,0,0,1,1,7.2,7.2,0,0,0,.32-2.11,1.27,1.27,0,0,0-.3-.83Z" fill="#e0e0e0"/>
<path d="M447.15,385.1a1.7,1.7,0,0,1,0,.45v.15c-.71,2.1-1.36,3.87-2,5.27a14.44,14.44,0,0,1-2.39,3.82,5.42,5.42,0,0,1-3.52,1.9,3.21,3.21,0,0,1-2.72-.86,4.61,4.61,0,0,1-1.2-2.89q-2.5,4.4-5.69,4.71a3.46,3.46,0,0,1-3.14-1.16,6.66,6.66,0,0,1-1.39-3.71,22.56,22.56,0,0,1,.77-7.71,24.22,24.22,0,0,1,3.31-7.67,7,7,0,0,1,4.92-3.51,4.57,4.57,0,0,1,4.7,2.13l.61-2.26a.9.9,0,0,1,.33-.52,1,1,0,0,1,1.68.65.91.91,0,0,1,0,.4l-1.88,6.76-.39,1.61q-1.05,4.29-1.51,6.55a11.73,11.73,0,0,0-.33,3.54,2.64,2.64,0,0,0,.49,1.61,1.27,1.27,0,0,0,1.18.38,4.44,4.44,0,0,0,3.34-2.78,50.76,50.76,0,0,0,2.75-6.81V385a1,1,0,0,1,.85-.72,1.14,1.14,0,0,1,.45,0A1,1,0,0,1,447.15,385.1Zm-14.61,8.29a19.11,19.11,0,0,0,2.35-4.64c.61-1.76,1.27-3.86,2-6.32l.86-3.21a3.88,3.88,0,0,0-1.18-2.52,2.91,2.91,0,0,0-2.3-.73,5.66,5.66,0,0,0-3.83,3.22,24.72,24.72,0,0,0-2.65,6.75,21.4,21.4,0,0,0-.72,6.42,6.3,6.3,0,0,0,.71,2.59,1.58,1.58,0,0,0,1.6.79,4.62,4.62,0,0,0,3.18-2.35Z" fill="#e0e0e0"/>
<path d="M457.29,384.07a1.14,1.14,0,0,1,0,.45,33.5,33.5,0,0,1-3.89,8.17,7,7,0,0,1-5.14,3.1,3.2,3.2,0,0,1-2.76-.89,4.33,4.33,0,0,1-1.26-2.86,17.05,17.05,0,0,1,.37-4.22,60.72,60.72,0,0,1,1.4-6.11l1.8-7.23-3.09.32a1,1,0,0,1-.75-.22,1.1,1.1,0,0,1-.37-.71,1.08,1.08,0,0,1,.22-.74,1,1,0,0,1,.71-.39l3.76-.38c.21-.8.51-2.06.92-3.76s.7-3,.88-3.76a1,1,0,0,1,.92-.77,1,1,0,0,1,.9.33,1,1,0,0,1,.21.92c-.12.55-.36,1.61-.71,3.05s-.68,2.77-.93,3.78l3.21-.34a1,1,0,0,1,.76.26,1.1,1.1,0,0,1,.37.67,1,1,0,0,1-.23.76,1,1,0,0,1-.69.37l-4,.4-.82,3.54c-.08.24-.45,1.72-1.14,4.45s-1.2,5.07-1.44,6.42a12,12,0,0,0-.25,3.22,2.38,2.38,0,0,0,.57,1.46,1.33,1.33,0,0,0,1.19.42A5.51,5.51,0,0,0,452,391a31.53,31.53,0,0,0,3.21-7.13,1.06,1.06,0,0,1,.92-.69,1.69,1.69,0,0,1,.45,0A1,1,0,0,1,457.29,384.07Z" fill="#e0e0e0"/>
<path d="M476.86,382.11a1.14,1.14,0,0,1,0,.45,32,32,0,0,1-3.63,8.33,5.88,5.88,0,0,1-4.23,2.82c-2,.2-3.29-.83-3.85-3.11a8.59,8.59,0,0,1-2.41,2.78,6.39,6.39,0,0,1-3.1,1.27h0a4.54,4.54,0,0,1-3.62-.94,5.43,5.43,0,0,1-1.61-3.66,14.31,14.31,0,0,1,.47-4.37q.64-2.74,3-11.51l.61-2.18a.89.89,0,0,1,.32-.5,1.14,1.14,0,0,1,.55-.24,1,1,0,0,1,.91.35.94.94,0,0,1,.2.92l-1.61,6.19c-1.19,4.53-1.91,7.31-2.15,8.37a8.54,8.54,0,0,0-.24,2.76c.21,2,1.2,2.94,3,2.75a4.51,4.51,0,0,0,2.86-1.61,11.51,11.51,0,0,0,2.25-4c.59-1.58,1.09-3.19,1.52-4.82.5-1.8,1.22-4.58,2.2-8.32l.77-3a.89.89,0,0,1,.33-.5,1.12,1.12,0,0,1,1.49.12.88.88,0,0,1,.21.91c-.45,1.72-.85,3.34-1.24,4.82l-.74,2.83c-.67,2.57-1.17,4.82-1.52,6.72a15.89,15.89,0,0,0-.42,3.89,2.61,2.61,0,0,0,.5,1.52,1.21,1.21,0,0,0,1.15.37,4.33,4.33,0,0,0,3.09-2.42,38.29,38.29,0,0,0,3.05-7.31.83.83,0,0,1,.31-.5,1,1,0,0,1,.54-.23,1.7,1.7,0,0,1,.45,0A1,1,0,0,1,476.86,382.11Z" fill="#e0e0e0"/>
<path d="M486.92,381.05a1.14,1.14,0,0,1,0,.45,33.36,33.36,0,0,1-3.89,8.15,7,7,0,0,1-5.14,3.1,3.21,3.21,0,0,1-2.78-.88,4.47,4.47,0,0,1-1.24-2.85,9.83,9.83,0,0,1,.12-2.54c.14-1,.43-2.55.88-4.66l2-8,1-4.36,1.79-7.66a1,1,0,0,1,.48-.63,1.38,1.38,0,0,1,.77-.14,1,1,0,0,1,.64.48.92.92,0,0,1,.13.77l-1.8,7.67c-.45,2-.82,3.42-1.07,4.4l-1.92,8a28.5,28.5,0,0,0-1,6.56,2.36,2.36,0,0,0,.58,1.46,1.37,1.37,0,0,0,1.19.44,5.52,5.52,0,0,0,4.05-2.75,32.54,32.54,0,0,0,3.21-7.15,1.08,1.08,0,0,1,.92-.69,1.7,1.7,0,0,1,.45,0A1,1,0,0,1,486.92,381.05Z" fill="#e0e0e0"/>
<path d="M506.59,379.14a1.14,1.14,0,0,1,0,.45v.14c-.71,2.13-1.37,3.88-2,5.29a14,14,0,0,1-2.41,3.81,5.32,5.32,0,0,1-3.51,1.91,3.2,3.2,0,0,1-2.71-.87,4.56,4.56,0,0,1-1.21-2.89c-1.68,2.94-3.58,4.5-5.68,4.73a3.5,3.5,0,0,1-3.14-1.18,6.46,6.46,0,0,1-1.4-3.69,22.91,22.91,0,0,1,.78-7.73,24.11,24.11,0,0,1,3.31-7.65,6.87,6.87,0,0,1,4.91-3.52,4.5,4.5,0,0,1,4.69,2.14l.62-2.28a.8.8,0,0,1,.32-.5,1.28,1.28,0,0,1,.59-.24,1,1,0,0,1,1.1.88.91.91,0,0,1,0,.4l-1.78,6.78-.39,1.61c-.69,2.88-1.2,5.06-1.51,6.57a13.18,13.18,0,0,0-.34,3.54,3.05,3.05,0,0,0,.5,1.52,1.33,1.33,0,0,0,1.18.37,4.41,4.41,0,0,0,3.34-2.78,47.53,47.53,0,0,0,2.75-6.79V379a1.06,1.06,0,0,1,.86-.73,1.7,1.7,0,0,1,.45,0A1,1,0,0,1,506.59,379.14ZM492,387.48a19.82,19.82,0,0,0,2.34-4.64c.61-1.74,1.27-3.84,2-6.32l.85-3.21A3.82,3.82,0,0,0,496,370.8a2.92,2.92,0,0,0-2.28-.74,5.59,5.59,0,0,0-3.82,3.21,24.21,24.21,0,0,0-2.65,6.75,20.64,20.64,0,0,0-.73,6.35,6.35,6.35,0,0,0,.71,2.6,1.5,1.5,0,0,0,1.61.78A4.57,4.57,0,0,0,492,387.48Z" fill="#e0e0e0"/>
<path d="M516.74,378.13a1.14,1.14,0,0,1,0,.45,32.74,32.74,0,0,1-3.88,8.14,7,7,0,0,1-5.15,3.11,3.35,3.35,0,0,1-2.78-.87,4.46,4.46,0,0,1-1.23-2.86,17.16,17.16,0,0,1,.35-4.23,57.38,57.38,0,0,1,1.41-6.1l1.79-7.24-3.07.31a1,1,0,0,1-.76-.23,1,1,0,0,1-.37-.69,1,1,0,0,1,.23-.74,1,1,0,0,1,.69-.4l3.76-.37c.22-.82.53-2.07.93-3.76l.88-3.77a1,1,0,0,1,1.8-.42.92.92,0,0,1,.23.92c-.11.53-.35,1.6-.71,3.05s-.67,2.75-.93,3.76l3.21-.32a1,1,0,0,1,.78.24,1,1,0,0,1,.14,1.44,1,1,0,0,1-.71.36l-4,.4-.82,3.53c-.08.25-.46,1.72-1.14,4.46s-1.2,5.09-1.44,6.42a12.74,12.74,0,0,0-.26,3.14,2.45,2.45,0,0,0,.56,1.46,1.4,1.4,0,0,0,1.21.43,5.51,5.51,0,0,0,4.05-2.75,32.59,32.59,0,0,0,3.21-7.15,1.1,1.1,0,0,1,.92-.69,3.23,3.23,0,0,1,.44,0A1,1,0,0,1,516.74,378.13Z" fill="#e0e0e0"/>
<path d="M525.5,376.68a1,1,0,0,1,.23.55,1.69,1.69,0,0,1,0,.45,41,41,0,0,1-3.44,8,5.92,5.92,0,0,1-4.52,3.22,3.19,3.19,0,0,1-2.68-.86,4,4,0,0,1-1.22-2.65,24.7,24.7,0,0,1,.87-7.26c.75-3.21,1.75-7.2,3-11.88a.86.86,0,0,1,.31-.54,1.09,1.09,0,0,1,.54-.23,1.21,1.21,0,0,1,.79.18.82.82,0,0,1,.39.64v.4l-.92,3.7q-2.1,8.58-2.57,10.88A12.21,12.21,0,0,0,516,385a2.78,2.78,0,0,0,.49,1.53,1.27,1.27,0,0,0,1.18.37,4.37,4.37,0,0,0,3.32-2.72,50.33,50.33,0,0,0,2.85-7,1.09,1.09,0,0,1,.91-.74h.41A.9.9,0,0,1,525.5,376.68Zm-6.43-14.32a1.67,1.67,0,0,1,.92-2.95,1.55,1.55,0,0,1,1.2.37,1.58,1.58,0,0,1,.62,1.12,1.66,1.66,0,0,1-1.5,1.82,1.61,1.61,0,0,1-1.17-.36Z" fill="#e0e0e0"/>
<path d="M541.91,381.5a5.67,5.67,0,0,1-7.65,1.17,14.49,14.49,0,0,1-2.91,3.52,5.9,5.9,0,0,1-3.21,1.61c-2.85.29-4.42-1.22-4.74-4.5a25.13,25.13,0,0,1,2.84-13.45,12.74,12.74,0,0,1,2.88-4.16,6.11,6.11,0,0,1,3.48-1.61,4.84,4.84,0,0,1,3.76,1.13,5.38,5.38,0,0,1,1.61,3.61,18.13,18.13,0,0,1-.5,5.64,29.59,29.59,0,0,1-2.13,6.43,3,3,0,0,0,2.58.79,4,4,0,0,0,2.72-1.74,15.12,15.12,0,0,0,2.17-4.72.8.8,0,0,1,.32-.5.93.93,0,0,1,.53-.22,1.09,1.09,0,0,1,1.19.91,2.67,2.67,0,0,1,0,.4A17.32,17.32,0,0,1,541.91,381.5Zm-7.8-5.73a.92.92,0,0,1,.23.88,2,2,0,0,1-.08.66v.48a25.13,25.13,0,0,0,1.33-4.82,15.89,15.89,0,0,0,.24-4.13,3.16,3.16,0,0,0-1-2.23,2.82,2.82,0,0,0-2.15-.6,4,4,0,0,0-2.5,1.38,11.64,11.64,0,0,0-2.11,3.22,23.25,23.25,0,0,0-2.67,12.24c.2,2,1,2.91,2.45,2.77a4.54,4.54,0,0,0,2.58-1.48,15.68,15.68,0,0,0,2.46-3.33,6.36,6.36,0,0,1-.63-2.3,9.09,9.09,0,0,1,0-2.33.85.85,0,0,1,.28-.59,1.2,1.2,0,0,1,.67-.29A1,1,0,0,1,534.11,375.77Z" fill="#e0e0e0"/>
<path d="M564.29,373.36a1.62,1.62,0,0,1,0,.44,35.57,35.57,0,0,1-3.71,8.39,5.75,5.75,0,0,1-4.19,2.77,3.21,3.21,0,0,1-2.72-.87,4.67,4.67,0,0,1-1.21-2.88,12.68,12.68,0,0,1,.18-3.37c.23-1.21.56-2.65,1-4.34s.8-3.21,1-4.24a11.08,11.08,0,0,0,.16-2.93,2.27,2.27,0,0,0-2.19-2.34,2.11,2.11,0,0,0-.61.06c-1.33.13-2.7,1.45-4.06,3.92a33.52,33.52,0,0,0-3.11,7.63l-2.45,10a1,1,0,0,1-.45.65,1.16,1.16,0,0,1-.81.16,1.09,1.09,0,0,1-.62-.45.88.88,0,0,1-.13-.8l2.79-11.38,2.61-10.46a.93.93,0,0,1,.9-.78,1,1,0,0,1,.9.35.94.94,0,0,1,.22.92l-.29,1a6.52,6.52,0,0,1,4.29-2.85,4.08,4.08,0,0,1,4.93,3,4.3,4.3,0,0,1,.12,1.13,12,12,0,0,1-.16,3.22c-.23,1.15-.57,2.75-1.06,4.72-.42,1.61-.74,3-.95,4.1a9.6,9.6,0,0,0-.18,2.83,2.59,2.59,0,0,0,.5,1.52,1.2,1.2,0,0,0,1.17.37,4.18,4.18,0,0,0,3-2.34,41,41,0,0,0,3.13-7.38,1.06,1.06,0,0,1,.86-.74,1.69,1.69,0,0,1,.45,0A1,1,0,0,1,564.29,373.36Z" fill="#e0e0e0"/>
<path d="M577,378.75a8.39,8.39,0,0,1-2.9,3.35,9.46,9.46,0,0,1-4.37,1.6,7.39,7.39,0,0,1-3.8-.59,7.25,7.25,0,0,1-2.94-2.32,6.89,6.89,0,0,1-1.35-3.48,8.66,8.66,0,0,1,1.47-5.5,5.94,5.94,0,0,1,4.43-2.44,4.26,4.26,0,0,1,3.39,1.11,5.38,5.38,0,0,1,1.8,3.36,1,1,0,0,1-.22.75,1.06,1.06,0,0,1-.71.37,1,1,0,0,1-1.12-.89v0a3.11,3.11,0,0,0-1-2,2.43,2.43,0,0,0-1.77-.66,4.06,4.06,0,0,0-3.07,1.8,6.23,6.23,0,0,0-1,3.89,4.84,4.84,0,0,0,1.93,3.49,5.48,5.48,0,0,0,3.91,1.06,6.93,6.93,0,0,0,4.72-2.3,6.57,6.57,0,0,0,1.5-5,9,9,0,0,0-1-2.94c-.53-.95-1.61-2.56-3.22-4.82a9.62,9.62,0,0,0-.87,1.22,1,1,0,0,1-.73.47,1,1,0,0,1-1.18-.86.37.37,0,0,1,0-.11,1.19,1.19,0,0,1,.17-.66c.53-.74,1-1.4,1.48-2a8.35,8.35,0,0,1-1-3.22,5.33,5.33,0,0,1,.72-3.4,3,3,0,0,1,2.36-1.61,2.06,2.06,0,0,1,1.72.55,3.21,3.21,0,0,1,.88,1.76,6.6,6.6,0,0,1-.46,3,13.34,13.34,0,0,1-1.69,3.1l1.38,2a38.85,38.85,0,0,1,2.56,4.05,9.82,9.82,0,0,1,1,3.21A9.12,9.12,0,0,1,577,378.75Zm-4.3-18a4.5,4.5,0,0,0,.26-1.82c0-.33-.15-.48-.34-.46s-.42.19-.69.51a3,3,0,0,0-.52,2.22,6.44,6.44,0,0,0,.4,1.61A9.64,9.64,0,0,0,572.68,360.71Z" fill="#e0e0e0"/>
<path d="M602.77,460.33,311.82,489.48a4.81,4.81,0,0,1-5.22-4.27l-4.93-49.33a4.81,4.81,0,0,1,4.25-5.22l291-29.15a4.81,4.81,0,0,1,5.22,4.27l4.95,49.33A4.82,4.82,0,0,1,602.77,460.33Z" fill="#f0f0f0"/>
<path d="M354.82,460.7a6.42,6.42,0,0,1-1.32,5.24,5.38,5.38,0,0,1-2.68,1.61l.11,1.88-3.21.32-.19-1.85a5.49,5.49,0,0,1-3.76-2.33,9.41,9.41,0,0,1-1.61-4.08l3.6-.63a5.49,5.49,0,0,0,1.44,3.06,2,2,0,0,0,1.61.53,2.37,2.37,0,0,0,1.87-1.42,3,3,0,0,0,.2-1.7,4.68,4.68,0,0,0-1.7-3l-3.71-2.84a14.17,14.17,0,0,1-2.83-2.8,7.38,7.38,0,0,1-1.35-3.64,6.8,6.8,0,0,1,.56-3.64,5.06,5.06,0,0,1,3.09-2.86l-.16-1.6,3.21-.32.16,1.6a5.41,5.41,0,0,1,2.65,1,6.43,6.43,0,0,1,2.4,4.12l-3.59,1a4.54,4.54,0,0,0-1.12-2.33,1.77,1.77,0,0,0-1.61-.45,1.73,1.73,0,0,0-1.49,1.07,3.75,3.75,0,0,0-.26,1.9A5.78,5.78,0,0,0,347,452a13.9,13.9,0,0,0,1.82,1.42c.66.42,1.29.88,1.91,1.36a14.54,14.54,0,0,1,2.42,2.54A7.7,7.7,0,0,1,354.82,460.7Z" fill="#e0e0e0"/>
<path d="M363.92,466.3,362,447l-3.22.32-.25-2.63a5.8,5.8,0,0,0,2.49-1.3,5.24,5.24,0,0,0,1.6-2.28l2.64-.28L367.77,466Z" fill="#e0e0e0"/>
<path d="M382.46,458.65a6,6,0,0,1-12,1.2h0l-1.37-13.7a5.76,5.76,0,0,1,1.33-4.42,6,6,0,0,1,10.66,3.21Zm-5.32-13.32a2.19,2.19,0,0,0-2.39-2h0a2.09,2.09,0,0,0-1.48.78,2.17,2.17,0,0,0-.47,1.61l1.37,13.72A2.15,2.15,0,0,0,375,461a2.19,2.19,0,0,0,3.57-1.91Z" fill="#e0e0e0"/>
<path d="M397.71,457.12a5.69,5.69,0,0,1-1.34,4.42,6,6,0,0,1-10.65-3.21l-1.38-13.71a6,6,0,0,1,5.36-6.6h.05a6,6,0,0,1,6.59,5.4Zm-5.3-13.38a2.18,2.18,0,1,0-4.34.43l1.36,13.72a2.16,2.16,0,0,0,.79,1.48,2.2,2.2,0,0,0,3.57-1.91Z" fill="#e0e0e0"/>
<path d="M413,455.59a6,6,0,1,1-12,1.21h0l-1.37-13.71a6,6,0,0,1,5.36-6.6H405a5.73,5.73,0,0,1,4.42,1.33,6,6,0,0,1,2.17,4.07Zm-5.3-13.38a2.2,2.2,0,0,0-2.41-2,2,2,0,0,0-1.46.79,2.15,2.15,0,0,0-.48,1.6l1.38,13.73a2.1,2.1,0,0,0,.79,1.47,2,2,0,0,0,1.6.49,2.19,2.19,0,0,0,2-2.39h0Z" fill="#e0e0e0"/>
<path d="M415.77,457.3l3.79-.39.37,3.79-3.78.37Z" fill="#e0e0e0"/>
<path d="M434,453.49a5.7,5.7,0,0,1-1.34,4.42A6,6,0,0,1,422,454.69L420.59,441a6,6,0,0,1,5.36-6.6H426a6,6,0,0,1,6.59,5.4Zm-5.3-13.39a2.17,2.17,0,0,0-3.81-1.2,2.13,2.13,0,0,0-.47,1.61l1.37,13.72a2.15,2.15,0,0,0,.78,1.48,2.19,2.19,0,0,0,3.07-.31,2.14,2.14,0,0,0,.5-1.61Z" fill="#e0e0e0"/>
<path d="M449.22,452a6,6,0,1,1-12,1.21h0l-1.37-13.71a6,6,0,0,1,5.36-6.6h.06a5.73,5.73,0,0,1,4.42,1.33,6,6,0,0,1,2.17,4.07Zm-5.3-13.38a2.2,2.2,0,0,0-2.41-2,2,2,0,0,0-1.46.78,2.24,2.24,0,0,0-.48,1.61L441,452.73a2.1,2.1,0,0,0,.79,1.48,2,2,0,0,0,1.6.48,2.17,2.17,0,0,0,2-2.38h0Z" fill="#e0e0e0"/>
<path d="M464.49,450.44a6,6,0,1,1-12,1.2h0l-1.37-13.71a6,6,0,0,1,9.83-5.27,5.89,5.89,0,0,1,2.16,4.07Zm-5.3-13.39a2.25,2.25,0,0,0-2.41-2,2.14,2.14,0,0,0-1.47.81,2.07,2.07,0,0,0-.48,1.6l1.38,13.73a2.12,2.12,0,0,0,.79,1.48,2.08,2.08,0,0,0,1.61.48,2.16,2.16,0,0,0,1.48-.79,2.14,2.14,0,0,0,.48-1.61Z" fill="#e0e0e0"/>
<path d="M467.28,452.14l3.8-.39.37,3.8-3.78.37Z" fill="#e0e0e0"/>
<path d="M485.47,448.33a5.68,5.68,0,0,1-1.33,4.42,6,6,0,0,1-8.48.84,5.7,5.7,0,0,1-2.17-4l-1.38-13.71a6,6,0,0,1,5.35-6.6h.06a5.72,5.72,0,0,1,4.42,1.33,6,6,0,0,1,2.17,4.06ZM480.17,435a2.19,2.19,0,0,0-2.41-2,2.05,2.05,0,0,0-1.46.78,2.24,2.24,0,0,0-.48,1.61l1.38,13.72a2.16,2.16,0,0,0,.79,1.48,2,2,0,0,0,1.6.48,2.18,2.18,0,0,0,2-2.39h0Z" fill="#e0e0e0"/>
<path d="M500.74,446.8a6,6,0,1,1-12,1.21h0l-1.37-13.71A6,6,0,0,1,497.2,429a5.85,5.85,0,0,1,2.16,4.07Zm-5.3-13.38a2.25,2.25,0,0,0-2.41-2,2.14,2.14,0,0,0-1.47.81,2.06,2.06,0,0,0-.48,1.6l1.38,13.73a2.08,2.08,0,0,0,.79,1.47,2.05,2.05,0,0,0,1.61.49,2.2,2.2,0,0,0,1.48-.79,2.14,2.14,0,0,0,.48-1.61Z" fill="#e0e0e0"/>
<path d="M516,445.33a6,6,0,0,1-12,1.19h0l-1.36-13.7a5.71,5.71,0,0,1,1.33-4.43A5.92,5.92,0,0,1,508,426.2a6,6,0,0,1,6.59,5.42Zm-5.31-13.39a2.07,2.07,0,0,0-.79-1.48,2.24,2.24,0,0,0-1.61-.5,2.12,2.12,0,0,0-1.46.81,2,2,0,0,0-.48,1.6l1.36,13.71a2.27,2.27,0,0,0,.79,1.5,2.18,2.18,0,0,0,1.61.48,2.09,2.09,0,0,0,1.48-.81,2.06,2.06,0,0,0,.48-1.6Z" fill="#e0e0e0"/>
<path d="M518.8,446.93l3.78-.38.38,3.79-3.77.37Z" fill="#e0e0e0"/>
<path d="M537,443.17a6,6,0,1,1-12,1.21h0l-1.37-13.71a6,6,0,0,1,9.84-5.27,5.85,5.85,0,0,1,2.15,4.07Zm-5.3-13.38a2.24,2.24,0,0,0-2.41-2,2.13,2.13,0,0,0-1.46.8,2.1,2.1,0,0,0-.49,1.61l1.38,13.72a2.12,2.12,0,0,0,.79,1.48,2,2,0,0,0,1.61.48,2.16,2.16,0,0,0,2-2.39Z" fill="#e0e0e0"/>
<path d="M552.26,441.65a6,6,0,0,1-12,1.19h0l-1.36-13.69a5.74,5.74,0,0,1,1.33-4.44,5.92,5.92,0,0,1,4.07-2.19,6,6,0,0,1,6.58,5.42ZM547,428.26a2,2,0,0,0-.79-1.48,2.22,2.22,0,0,0-1.61-.5,2.14,2.14,0,0,0-1.46.81,2.08,2.08,0,0,0-.48,1.61L544,442.4a2.21,2.21,0,0,0,.78,1.5,2.18,2.18,0,0,0,1.61.48,2.09,2.09,0,0,0,1.48-.81,2.06,2.06,0,0,0,.48-1.6Z" fill="#e0e0e0"/>
<path d="M567.5,440.1a5.74,5.74,0,0,1-1.33,4.44,6,6,0,0,1-8.48.83,5.71,5.71,0,0,1-2.17-4.06l-1.38-13.69a6,6,0,0,1,9.83-5.27,5.76,5.76,0,0,1,2.17,4.06Zm-5.3-13.38a2.12,2.12,0,0,0-.79-1.48,2.15,2.15,0,0,0-1.6-.48,2.1,2.1,0,0,0-1.48.8,2.13,2.13,0,0,0-.47,1.61l1.37,13.72a2.19,2.19,0,0,0,4.35-.43Z" fill="#e0e0e0"/>
<path d="M163.38,196.36c-5.83,0-12.07-1.61-16.21-7.36-4.36-6-4.17-11.75-2.27-15.83a21.18,21.18,0,0,1-3.21-3.21,12.75,12.75,0,0,1-2.27-13.29,14,14,0,0,1,1.61-2.88c-6.62-4.93-9.45-12-7.67-19.55a15,15,0,0,1,2.56-5.74c-6.43-13.21.54-36.14.85-37.16l3.09.93c0,.24-6.43,21.61-1.5,33.84a11.78,11.78,0,0,1,9.19-1.61c5.61,1.08,11.89,5.58,11.25,9.53-.3,2-2.31,4.29-10.11,3.44a15.22,15.22,0,0,1-11-5.95,14.08,14.08,0,0,0-1.27,3.46c-1.91,8.13,2.64,13.42,6.67,16.37a13.71,13.71,0,0,1,7.47-3.68,9.65,9.65,0,0,1,9.34,4.23c2.17,3,1.27,4.82.55,5.7-2.54,3-9.76,1.61-15.27-1.2-.53-.26-1-.55-1.61-.84a13.1,13.1,0,0,0-1.25,2.3,9.63,9.63,0,0,0,1.77,10.06,19.39,19.39,0,0,0,2.42,2.46l.36-.44c3.42-3.84,8.53-5,12.45-2.84,2.91,1.61,3.21,3.65,3,4.71a5.91,5.91,0,0,1-4.63,4.48,13.76,13.76,0,0,1-10.22-1.38c-1.33,3.21-1.24,7.49,2.15,12.15,8,11.12,27.13,3.35,27.32,3.21l1.24,3A43.06,43.06,0,0,1,163.38,196.36Zm-14.08-24.1a10.49,10.49,0,0,0,7.62,1c1.46-.44,2.28-1.23,2.35-1.76s-.5-1-1.42-1.6c-2.62-1.47-6-.58-8.47,2.17Zm-3.37-19,.75.39c5.64,2.86,10.56,2.91,11.37,2,.09-.11,0-.69-.71-1.75a6.56,6.56,0,0,0-6.43-2.89,10,10,0,0,0-5,2.25Zm-6.07-24.1a12,12,0,0,0,9.2,5.32c5.24.56,6.56-.45,6.59-.73.18-1.18-3.42-4.82-8.72-5.89a8.48,8.48,0,0,0-7.07,1.19Z" fill="#e0e0e0"/>
<path d="M113.65,199.75c-8.42-2.72-12.39-12.2-12.52-19.86a20.41,20.41,0,0,1,1-6.81,18,18,0,0,1-2.85-14.77,20,20,0,0,1,2.64-6.62,26.52,26.52,0,0,1,.22-14.14,17.88,17.88,0,0,1,3.09-6.22c-.26-13.14,17.14-28.92,18-29.66l2.14,2.39c-.18.18-14.78,13.4-16.74,24.52A8.64,8.64,0,0,1,120,133a8.53,8.53,0,0,1,.65,2.32,7.33,7.33,0,0,1-4.29,7.64c-1.77.59-5.27.77-9-4.82a13.3,13.3,0,0,1-1.14-2.14,18.15,18.15,0,0,0-.93,2.49,25.16,25.16,0,0,0-.71,10.25,8.33,8.33,0,0,1,4.83-2.09,7.06,7.06,0,0,1,7.07,4.08,6.82,6.82,0,0,1-1,7.43c-1.82,1.88-4.68,2.21-7.87.91a8.71,8.71,0,0,1-4-3.68,17.76,17.76,0,0,0-1.16,3.55,15.22,15.22,0,0,0,1.27,10.72,10.52,10.52,0,0,1,5.29-4.35c3.56-1.29,6.74-.5,8.5,2.09a7.33,7.33,0,0,1-.52,8.75c-1.08,1.21-4.24,3.72-10.3.58a14.15,14.15,0,0,1-1.89-1.17,18.86,18.86,0,0,0-.39,4.24c.11,6.56,3.37,14.62,10.28,16.86Zm-7.83-27.32A11.32,11.32,0,0,0,108.1,174c2.9,1.49,5.18,1.61,6.43.15a4.15,4.15,0,0,0,.24-4.83c-.9-1.33-2.58-1.6-4.82-.86a7.63,7.63,0,0,0-4.13,3.87Zm-.34-20.1a6.66,6.66,0,0,0,3.33,3.76c2,.79,3.49.72,4.36-.16a3.68,3.68,0,0,0,.38-3.89,3.85,3.85,0,0,0-4-2.18,6,6,0,0,0-4.09,2.41Zm3-19.76a9.23,9.23,0,0,0,1.45,3.81c1.86,2.78,3.85,4.14,5.33,3.64a4.32,4.32,0,0,0,2.17-4.35,4.82,4.82,0,0,0-4.47-4.45,5,5,0,0,0-4.48,1.28Z" fill="#e0e0e0"/>
<path d="M187.16,102.15c-30.11,32.51-74-22.59-54.76-48.38S217.72,69.14,187.16,102.15Z" fill="#e0e0e0"/>
<path d="M128.38,125.56c-44-5.38-25.08-73.3,7.14-72.79S173,131,128.38,125.56Z" fill="#ebebeb"/>
<path d="M466.21,60.76c-18.87,20.39-46.47-14.16-34.39-30.32S485.36,40.08,466.21,60.76Z" fill="#e0e0e0"/>
<path d="M400.29,60.76c18.89,20.39,46.48-14.16,34.39-30.32S381.14,40.08,400.29,60.76Z" fill="#e0e0e0"/>
<path d="M438.22,74.33c27.57-3.37,15.71-45.95-4.47-45.61S410.23,77.76,438.22,74.33Z" fill="#ebebeb"/>
<path d="M699.12,196.36a43,43,0,0,1-14.94-3l1.22-3c.19,0,19.28,7.84,27.32-3.21,3.37-4.66,3.48-9,2.15-12.15a13.71,13.71,0,0,1-10.22,1.38,5.9,5.9,0,0,1-4.63-4.48c-.11-1.06.13-3.09,3-4.71,3.92-2.17,9-1,12.45,2.85l.36.43a20,20,0,0,0,2.41-2.46A9.65,9.65,0,0,0,720,158a11.83,11.83,0,0,0-1.23-2.3,16.11,16.11,0,0,1-1.61.84c-5.51,2.8-12.73,4.18-15.27,1.2-.72-.83-1.6-2.71.55-5.7a9.67,9.67,0,0,1,9.34-4.23,13.78,13.78,0,0,1,7.47,3.68c4-3,8.58-8.24,6.65-16.37a13.71,13.71,0,0,0-1.25-3.45,15.26,15.26,0,0,1-11,5.94c-7.81.87-9.81-1.4-10.11-3.44-.6-3.95,5.69-8.45,11.25-9.53a11.82,11.82,0,0,1,9.19,1.61c5-12.23-1.42-33.6-1.5-33.84l3.07-.93c.32,1,7.22,24,.87,37.16a15.09,15.09,0,0,1,2.56,5.74c1.78,7.57-1.06,14.62-7.67,19.56a14,14,0,0,1,1.61,2.87,12.74,12.74,0,0,1-2.27,13.29,21.25,21.25,0,0,1-3.21,3.22c1.91,4.08,2.1,9.8-2.25,15.82C711.19,194.66,704.94,196.36,699.12,196.36Zm8.26-27.09a5.64,5.64,0,0,0-2.75.69c-.9.51-1.44,1.09-1.39,1.61s.88,1.31,2.34,1.75a10.44,10.44,0,0,0,7.62-1l-.08-.1a7.87,7.87,0,0,0-5.74-2.92Zm3.22-18.42a6.54,6.54,0,0,0-5.45,3c-.76,1.06-.81,1.61-.71,1.75.79.93,5.72.89,11.36-2l.76-.39a10.07,10.07,0,0,0-5.07-2.28,8.47,8.47,0,0,0-.88-.07Zm7.24-23.38a12.52,12.52,0,0,0-2.28.24c-5.3,1-8.92,4.71-8.72,5.9,0,.28,1.33,1.29,6.58.73a12,12,0,0,0,9.21-5.32,7.6,7.6,0,0,0-4.77-1.55Z" fill="#e0e0e0"/>
<path d="M748.85,199.75l-1-3.05c6.92-2.24,10.19-10.3,10.3-16.86a18.86,18.86,0,0,0-.39-4.24,15.26,15.26,0,0,1-1.89,1.17c-6.06,3.14-9.23.63-10.3-.58a7.3,7.3,0,0,1-.52-8.75c1.75-2.59,4.94-3.38,8.5-2.09a10.52,10.52,0,0,1,5.29,4.35A15.33,15.33,0,0,0,760.12,159a17.17,17.17,0,0,0-1.17-3.55,8.69,8.69,0,0,1-4.05,3.6c-3.22,1.3-6.06,1-7.88-.91a6.8,6.8,0,0,1-1-7.43,7.05,7.05,0,0,1,7.07-4.08,8.31,8.31,0,0,1,4.82,2.07,24.71,24.71,0,0,0-.69-10.23,20.2,20.2,0,0,0-.94-2.49,12.55,12.55,0,0,1-1.14,2.14c-3.77,5.67-7.28,5.51-9,4.82a7.34,7.34,0,0,1-4.33-7.64,8.65,8.65,0,0,1,9.71-7.43,9,9,0,0,1,2.33.65c-2-11.12-16.57-24.34-16.76-24.52l2.15-2.39c.87.78,18.26,16.52,18,29.66a17.86,17.86,0,0,1,3.08,6.22,26.62,26.62,0,0,1,.23,14.14,20.11,20.11,0,0,1,2.68,6.62A18,18,0,0,1,760.38,173a20.66,20.66,0,0,1,.94,6.81C761.24,187.55,757.27,197,748.85,199.75Zm1.48-31.8a2.93,2.93,0,0,0-2.6,1.29,4.15,4.15,0,0,0,.24,4.82c1.25,1.39,3.54,1.35,6.43-.15a11.69,11.69,0,0,0,2.28-1.6,7.66,7.66,0,0,0-4.21-4,6.76,6.76,0,0,0-2.14-.35Zm2.32-18.14A3.74,3.74,0,0,0,749,152a3.64,3.64,0,0,0,.38,3.89c.87.88,2.41.95,4.34.16a6.55,6.55,0,0,0,3.33-3.79,5.94,5.94,0,0,0-4.07-2.44Zm-2.14-18.75a5.63,5.63,0,0,0-1,.09,4.82,4.82,0,0,0-4.46,4.45,4.33,4.33,0,0,0,2.17,4.36c1.47.5,3.47-.87,5.33-3.65A9.32,9.32,0,0,0,754,132.5a5.11,5.11,0,0,0-3.51-1.44Z" fill="#e0e0e0"/>
<path d="M677.73,102.15c30.12,32.51,74.11-22.59,54.85-48.38S647.17,69.14,677.73,102.15Z" fill="#e0e0e0"/>
<path d="M736.58,125.56c44-5.38,25.08-73.3-7.14-72.79S691.88,131,736.58,125.56Z" fill="#ebebeb"/>
<polygon points="467.24 166.18 460.86 174.46 473.6 180.19 467.24 166.18" fill="#f0f0f0"/>
<polygon points="508.55 339.02 516.74 332.54 505.8 323.86 508.55 339.02" fill="#f0f0f0"/>
<polygon points="405.53 156.17 404.92 145.74 391.54 149.76 405.53 156.17" fill="#f0f0f0"/>
<polygon points="444.29 327.45 437.91 335.72 450.65 341.46 444.29 327.45" fill="#f0f0f0"/>
<polygon points="435.36 215.9 445.56 216.53 444.29 228 432.18 224.82 435.36 215.9" fill="#f0f0f0"/>
<polygon points="468.78 284.4 463.94 293.4 454.04 287.45 462 277.78 468.78 284.4" fill="#f0f0f0"/>
<polygon points="405.42 352.66 415.62 353.3 414.36 364.77 402.24 361.58 405.42 352.66" fill="#f0f0f0"/>
<path d="M490.81,232.47l6.43,1.27s-9.56,6.42-5.1,11.48-3.21,9.57-3.21,9.57l-5.77-3.89s5.11-3.83,2.56-8.94S490.81,232.47,490.81,232.47Z" fill="#f0f0f0"/>
<polygon points="503.84 149.31 497.99 157.97 511.07 162.92 503.84 149.31" fill="#f0f0f0"/>
<polygon points="550.79 126.41 554.34 116.59 540.46 114.99 550.79 126.41" fill="#f0f0f0"/>
<polygon points="548.14 165.56 550.02 155.5 561.25 158.16 556.63 169.8 548.14 165.56" fill="#f0f0f0"/>
<path d="M559,220l-6.43.71s7.19-9,1.38-12.47.13-10.08.13-10.08l6.62,1.9s-3.69,5.19.29,9.27S559,220,559,220Z" fill="#f0f0f0"/>
<path d="M452.45,382.29l6.43,1.27S449.32,390,453.79,395s-3.22,9.56-3.22,9.56l-5.73-3.82s5.11-3.83,2.55-8.92S452.45,382.29,452.45,382.29Z" fill="#f0f0f0"/>
<polygon points="544.3 360.5 537.92 368.79 550.68 374.53 544.3 360.5" fill="#f0f0f0"/>
<polygon points="566.86 288.59 577.05 289.24 575.78 300.71 563.66 297.53 566.86 288.59" fill="#f0f0f0"/>
<path d="M500.37,378.69,506.8,380s-9.56,6.42-5.1,11.47-3.21,9.56-3.21,9.56l-5.77-3.89s5.1-3.82,2.54-8.93S500.37,378.69,500.37,378.69Z" fill="#f0f0f0"/>
<path d="M453.26,137.4l-4,.95s1.7-8.5-3.22-11.44-3.21-9.19-3.21-9.19l5,1.45a10.19,10.19,0,0,0,3.29,8.45C455,131.17,453.26,137.4,453.26,137.4Z" fill="#f0f0f0"/>
<path d="M409.81,292.16l-6,2.44s4.46-10.59-2.06-12.39-2.6-9.73-2.6-9.73H406s-2.07,6,2.75,8.95S409.81,292.16,409.81,292.16Z" fill="#f0f0f0"/>
<path d="M383.73,230.23a4.82,4.82,0,1,1-4.82-4.82A4.82,4.82,0,0,1,383.73,230.23Z" fill="#f0f0f0"/>
<path d="M506,113.33a4.82,4.82,0,1,1-4.82-4.82A4.82,4.82,0,0,1,506,113.33Z" fill="#f0f0f0"/>
<polygon points="354.9 153.2 347.29 160.37 358.97 168.06 354.9 153.2" fill="#f0f0f0"/>
<polygon points="331.73 328.68 336.79 319.54 323.33 315.76 331.73 328.68" fill="#f0f0f0"/>
<polygon points="267.99 342.84 265.3 352.93 279.28 353.3 267.99 342.84" fill="#f0f0f0"/>
<polygon points="273.95 293.65 272.97 303.83 261.54 302.17 265.13 290.18 273.95 293.65" fill="#f0f0f0"/>
<path d="M321.67,239.79l6.43-1.28s-6.35,9.64-.26,12.55.76,10.06.76,10.06l-6.78-1.32s3.21-5.5-1.1-9.21S321.67,239.79,321.67,239.79Z" fill="#f0f0f0"/>
<polygon points="270.98 233.49 276.6 224.67 263.39 220.08 270.98 233.49" fill="#f0f0f0"/>
<polygon points="308.13 195.2 297.91 195.46 298.16 183.92 310.5 186.03 308.13 195.2" fill="#f0f0f0"/>
<path d="M298.73,127.73,292.3,127s8.95-7.18,4.06-11.87,2.33-9.8,2.33-9.8l6.06,3.21s-4.82,4.26-1.77,9.13S298.73,127.73,298.73,127.73Z" fill="#f0f0f0"/>
<path d="M352.09,365.37a4.82,4.82,0,1,1,5.26,4.33h-.09A4.82,4.82,0,0,1,352.09,365.37Z" fill="#f0f0f0"/>
<path d="M135.44,309.11a15.63,15.63,0,0,1-18.18-8l-8.48-16.79,4.34-2.17,8.48,16.74a10.86,10.86,0,0,0,14.46,4.92l14.66-7a10.92,10.92,0,0,0,5.43-13.94l-3.21-8,4.46-1.8,3.22,8a15.74,15.74,0,0,1-7.83,20.11l-14.67,7A18.2,18.2,0,0,1,135.44,309.11Z" fill="#e6e6e6"/>
<polygon points="192.59 258.95 184.04 262.8 180.96 264.22 171.51 268.49 168.41 269.89 159.43 273.95 156.31 275.37 148 279.13 144.85 280.56 136.88 284.16 133.76 285.57 125.78 289.17 122.68 290.59 114.66 294.22 111.59 295.6 109.37 296.6 100.45 285.88 107.01 272.75 109.36 268.07 115.64 255.49 117.99 250.82 124.28 238.25 126.61 233.57 132.9 220.98 135.26 216.3 140.32 206.18 142.97 208.86 147.09 213.01 159.51 225.57 163.65 229.73 176.69 242.91 180.86 247.12 192.59 258.95" fill="#f0f0f0"/>
<polygon points="100.45 285.88 91.92 290.01 104.14 304.65 109.37 296.6 100.45 285.88" fill="#e6e6e6"/>
<polygon points="109.36 268.07 114.66 294.22 111.59 295.6 107.01 272.75 109.36 268.07" fill="#e6e6e6"/>
<polygon points="117.99 250.82 125.78 289.17 122.68 290.59 115.64 255.49 117.99 250.82" fill="#e6e6e6"/>
<polygon points="126.61 233.57 136.88 284.16 133.76 285.57 124.28 238.25 126.61 233.57" fill="#e6e6e6"/>
<polygon points="135.26 216.3 148 279.13 144.85 280.56 132.9 220.98 135.26 216.3" fill="#e6e6e6"/>
<polygon points="147.09 213.01 159.43 273.95 156.31 275.37 142.97 208.86 147.09 213.01" fill="#e6e6e6"/>
<polygon points="163.65 229.73 171.51 268.49 168.41 269.89 159.51 225.57 163.65 229.73" fill="#e6e6e6"/>
<polygon points="180.86 247.12 184.04 262.8 180.96 264.22 176.69 242.91 180.86 247.12" fill="#e6e6e6"/>
<polygon points="153.14 199.32 157.48 170.62 163.19 172.11 153.14 199.32" fill="#e6e6e6"/>
<polygon points="173.04 206.77 197.38 168.54 204.64 174.89 173.04 206.77" fill="#e6e6e6"/>
<polygon points="190.52 223.02 227.08 199.44 230.45 208.41 190.52 223.02" fill="#e6e6e6"/>
<polygon points="194.91 237.19 235.98 233.04 236.11 243.78 194.91 237.19" fill="#e6e6e6"/>
<path d="M138.65,445.33a15.61,15.61,0,0,1-11.94-15.9l.74-18.76,4.82.19-.74,18.77a10.89,10.89,0,0,0,10.21,11.25l16.19,1a10.92,10.92,0,0,0,11.52-9.45l1.06-8.63,4.82.6-1.15,8.61a15.73,15.73,0,0,1-16.63,13.77l-16.2-1A17.69,17.69,0,0,1,138.65,445.33Z" fill="#e6e6e6"/>
<polygon points="213 429.37 203.65 428.58 200.27 428.31 189.94 427.44 186.55 427.15 176.73 426.33 173.31 426.06 164.22 425.29 160.78 425 152.07 424.26 148.65 423.99 139.92 423.25 136.53 422.98 127.76 422.24 124.4 421.96 121.97 421.75 119.42 408.03 131.53 399.77 135.84 396.81 147.47 388.89 151.79 385.95 163.4 378.05 167.72 375.09 179.35 367.15 183.67 364.2 193.03 357.83 194.04 361.46 195.61 367.09 200.35 384.11 201.94 389.76 206.93 407.61 208.52 413.33 213 429.37" fill="#f0f0f0"/>
<polygon points="119.4 408.03 109.95 407.49 113.49 426.22 121.97 421.74 119.4 408.03" fill="#e6e6e6"/>
<polygon points="135.84 396.81 127.76 422.24 124.4 421.96 131.53 399.77 135.84 396.81" fill="#e6e6e6"/>
<polygon points="151.79 385.95 139.92 423.25 136.53 422.98 147.47 388.89 151.79 385.95" fill="#e6e6e6"/>
<polygon points="167.72 375.09 152.07 424.26 148.65 423.99 163.4 378.05 167.72 375.09" fill="#e6e6e6"/>
<polygon points="183.67 364.2 164.22 425.29 160.78 425 179.35 367.15 183.67 364.2" fill="#e6e6e6"/>
<polygon points="195.61 367.09 176.73 426.33 173.31 426.06 194.04 361.46 195.61 367.09" fill="#e6e6e6"/>
<polygon points="201.94 389.76 189.94 427.44 186.55 427.15 200.35 384.11 201.94 389.76" fill="#e6e6e6"/>
<polygon points="208.52 413.33 203.65 428.58 200.27 428.31 206.93 407.61 208.52 413.33" fill="#e6e6e6"/>
<polygon points="207.59 358.09 225.34 335.13 229.58 339.21 207.59 358.09" fill="#e6e6e6"/>
<polygon points="221.32 374.27 261.19 352.75 264.45 361.82 221.32 374.27" fill="#e6e6e6"/>
<polygon points="228.68 396.99 272.1 394.2 270.67 403.66 228.68 396.99" fill="#e6e6e6"/>
<polygon points="225.61 411.5 263.5 427.86 258.39 437.31 225.61 411.5" fill="#e6e6e6"/>
<path d="M721.88,309.11a15.63,15.63,0,0,0,18.18-8l8.49-16.74-4.31-2.17-8.48,16.74a10.85,10.85,0,0,1-14.46,4.92l-14.66-7a10.91,10.91,0,0,1-5.43-13.94l3.21-8-4.46-1.8-3.22,8a15.72,15.72,0,0,0,7.83,20.11l14.65,7A17.75,17.75,0,0,0,721.88,309.11Z" fill="#e6e6e6"/>
<polygon points="664.74 258.95 673.28 262.8 676.37 264.22 685.82 268.49 688.92 269.89 697.88 273.95 701.02 275.37 709.33 279.13 712.46 280.56 720.43 284.16 723.56 285.57 731.55 289.17 734.65 290.59 742.65 294.22 745.72 295.6 747.95 296.6 756.87 285.88 750.3 272.75 747.97 268.07 741.67 255.49 739.33 250.82 733.04 238.25 730.71 233.57 724.41 220.98 722.07 216.3 717.01 206.18 714.34 208.86 710.24 213.01 697.8 225.57 693.67 229.73 680.63 242.91 676.47 247.12 664.74 258.95" fill="#f0f0f0"/>
<polygon points="756.87 285.88 765.4 290.01 753.19 304.65 747.95 296.6 756.87 285.88" fill="#e6e6e6"/>
<polygon points="747.97 268.07 742.65 294.22 745.72 295.6 750.3 272.75 747.97 268.07" fill="#e6e6e6"/>
<polygon points="739.33 250.82 731.55 289.17 734.65 290.59 741.67 255.49 739.33 250.82" fill="#e6e6e6"/>
<polygon points="730.71 233.57 720.43 284.16 723.56 285.57 733.04 238.25 730.71 233.57" fill="#e6e6e6"/>
<polygon points="722.07 216.3 709.33 279.13 712.46 280.56 724.41 220.98 722.07 216.3" fill="#e6e6e6"/>
<polygon points="710.24 213.01 697.88 273.95 701.02 275.37 714.34 208.86 710.24 213.01" fill="#e6e6e6"/>
<polygon points="693.67 229.73 685.82 268.49 688.92 269.89 697.8 225.57 693.67 229.73" fill="#e6e6e6"/>
<polygon points="676.47 247.12 673.28 262.8 676.37 264.22 680.63 242.91 676.47 247.12" fill="#e6e6e6"/>
<polygon points="704.17 199.32 699.83 170.62 694.14 172.11 704.17 199.32" fill="#e6e6e6"/>
<polygon points="684.29 206.77 659.95 168.54 652.68 174.89 684.29 206.77" fill="#e6e6e6"/>
<polygon points="666.79 223.02 630.24 199.44 626.88 208.41 666.79 223.02" fill="#e6e6e6"/>
<polygon points="662.42 237.19 621.35 233.04 621.22 243.78 662.42 237.19" fill="#e6e6e6"/>
<path d="M718.66,445.33a15.64,15.64,0,0,0,12-15.9l-.74-18.76-4.82.19.74,18.77a10.86,10.86,0,0,1-10.19,11.25l-16.21,1a10.92,10.92,0,0,1-11.53-9.55l-1.07-8.62-4.82.59L683,433a15.7,15.7,0,0,0,16.63,13.77l16.2-1A15.43,15.43,0,0,0,718.66,445.33Z" fill="#e6e6e6"/>
<polygon points="644.33 429.37 653.68 428.58 657.05 428.31 667.39 427.44 670.78 427.15 680.6 426.33 684.02 426.06 693.1 425.29 696.53 425 705.26 424.26 708.67 423.99 717.41 423.25 720.8 422.98 729.56 422.24 732.91 421.96 735.34 421.75 737.91 408.03 725.8 399.77 721.47 396.81 709.86 388.89 705.52 385.95 693.92 378.05 689.59 375.09 677.98 367.15 673.64 364.2 664.3 357.83 663.27 361.46 661.71 367.09 656.96 384.11 655.37 389.76 650.4 407.61 648.81 413.33 644.33 429.37" fill="#f0f0f0"/>
<polygon points="737.91 408.03 747.38 407.49 743.84 426.22 735.34 421.74 737.91 408.03" fill="#e6e6e6"/>
<polygon points="721.47 396.81 729.56 422.24 732.91 421.96 725.8 399.77 721.47 396.81" fill="#e6e6e6"/>
<polygon points="705.52 385.95 717.41 423.25 720.8 422.98 709.86 388.89 705.52 385.95" fill="#e6e6e6"/>
<polygon points="689.59 375.09 705.26 424.26 708.67 423.99 693.92 378.05 689.59 375.09" fill="#e6e6e6"/>
<polygon points="673.64 364.2 693.1 425.29 696.53 425 677.98 367.15 673.64 364.2" fill="#e6e6e6"/>
<polygon points="661.71 367.09 680.6 426.33 684.02 426.06 663.27 361.46 661.71 367.09" fill="#e6e6e6"/>
<polygon points="655.37 389.76 667.39 427.44 670.78 427.15 656.96 384.11 655.37 389.76" fill="#e6e6e6"/>
<polygon points="648.81 413.33 653.68 428.58 657.05 428.31 650.4 407.61 648.81 413.33" fill="#e6e6e6"/>
<polygon points="649.74 358.09 631.97 335.13 627.73 339.21 649.74 358.09" fill="#e6e6e6"/>
<polygon points="636 374.27 596.12 352.75 592.88 361.82 636 374.27" fill="#e6e6e6"/>
<polygon points="628.63 396.99 585.23 394.2 586.64 403.66 628.63 396.99" fill="#e6e6e6"/>
<polygon points="631.71 411.5 593.81 427.86 598.93 437.31 631.71 411.5" fill="#e6e6e6"/>
<path d="M425.22,129.17c-2.92,2-5.37,5.66-7.06,8.7a24.33,24.33,0,0,0,4.56,29.53,37.06,37.06,0,0,1,1.51-5s-7.68-8.57-4.64-16.8c0,0,6.93-16.46,10-12.57l3.69,5-9,24.41,10.92-29.59C430.78,124,425.22,129.17,425.22,129.17Z" fill="#0071f2" data-primary="true"/>
<path d="M425.22,129.17c-2.92,2-5.37,5.66-7.06,8.7a24.33,24.33,0,0,0,4.56,29.53,37.06,37.06,0,0,1,1.51-5s-7.68-8.57-4.64-16.8c0,0,6.93-16.46,10-12.57l3.69,5-9,24.41,10.92-29.59C430.78,124,425.22,129.17,425.22,129.17Z" opacity="0.2"/>
<path d="M472.64,153.75s7.16-3.79,7.59-1.19c0,0,2.15,9.51-3.89,17.69a17.08,17.08,0,0,1-8.13,5.94c-1.25.43-2.79.91-4.61,1.38a45.32,45.32,0,0,1-2.38,4.93s16.92-2.45,20.78-13.82c0,0,8.19-21-3.29-21.16l-3.93.59Z" fill="#0071f2" data-primary="true"/>
<path d="M472.64,153.75s7.16-3.79,7.59-1.19c0,0,2.15,9.51-3.89,17.69a17.08,17.08,0,0,1-8.13,5.94c-1.25.43-2.79.91-4.61,1.38a45.32,45.32,0,0,1-2.38,4.93s16.92-2.45,20.78-13.82c0,0,8.19-21-3.29-21.16l-3.93.59Z" opacity="0.2"/>
<path d="M480.23,230.53s-16-18.63-8.85-26c0,0,14.48-20.79,30.94-34.66,0,0,3.9-4.33,11.26,3.47,0,0,18.2-6.5,22.1,11.26l5.63,37.69s0,26,22.09,33.78A46.39,46.39,0,0,1,546.07,250s10,14.73,22.53,24.26c0,0-15.88,24.94-49.53,24.6Z" fill="#2f2e41" data-secondary="true"/>
<path d="M492.85,190.24s-8,20.38,4.64,36.83l-3.4,5.41s-10.39-2.39-13.86-1.95c0,0-2.6-17,6.06-28.45Z" opacity="0.2"/>
<path d="M526.36,214.5s-6.89,20.5,6.19,36.24l31.57,29.06s-17.46,20.29-45,19.08l-6.35-59.26,3.69-10.89s5.8-4.83,7.77-15.38A5,5,0,0,0,526.36,214.5Z" opacity="0.2"/>
<path d="M473.3,563.63c-8.23,6.07-22.53,3.9-22.53,3.9-13.42-48.08-33.63-166.46-33.63-166.46,20.45,3,45.75-4.31,55.73,2.29C464.2,435.42,473.3,563.63,473.3,563.63Z" fill="#2f2e41" data-secondary="true"/>
<path d="M473.3,563.63c-8.23,6.07-22.53,3.9-22.53,3.9-13.42-48.08-33.63-166.46-33.63-166.46,20.45,3,45.75-4.31,55.73,2.29C464.2,435.42,473.3,563.63,473.3,563.63Z" opacity="0.2"/>
<path d="M527.88,252.62c-10,8.66-29,2.68-29,2.68-23-8.15-18.63-24.77-18.63-24.77,3.47-.44,13.86,1.95,13.86,1.95l4.77-7.58,17.55,3.83-3.69,10.89Z" fill="#f9b499"/>
<path d="M494.09,245.6a.43.43,0,0,1-.43-.43c0-4.58-7.55-10.21-7.62-10.27a.43.43,0,0,1,.51-.69c.33.24,8,5.94,8,11A.43.43,0,0,1,494.09,245.6Z" fill="#f7a48b"/>
<path d="M516.18,253.92a.42.42,0,0,1-.29-.12c-7.51-7.09-14.68-5.12-14.75-5.1a.42.42,0,0,1-.53-.29.43.43,0,0,1,.29-.54c.31-.09,7.69-2.15,15.58,5.3a.44.44,0,0,1,0,.61A.45.45,0,0,1,516.18,253.92Z" fill="#f7a48b"/>
<path d="M512.72,239.62s-6.5,2.17-10-3l-5.26-9.52s8.32,10.69,18.92,1.66Z" fill="#f7a48b"/>
<path d="M529.61,291.6l-32.05,27.73-2.17,16.46c-.87,6.93-7.36,10.39-7.36,10.39l-10-6.49c-13.86-10.4-39.85-9.1-39.85-9.1-4.76-3.9-3-8.23-3-8.23l5.2-21.66a15.43,15.43,0,0,0-.87-10.83c-4.33-10.83,6.28-20.45,6.28-20.45l-28.37,7c5.63-18.62-7.24-26.6-7.24-26.6l50.88-17.36c12-4.12,19.17-1.95,19.17-1.95s-4.33,16.62,18.63,24.77c0,0,19.06,6,29-2.68l3.25,3.64a26.58,26.58,0,0,1,6.89,17C538.34,286.05,529.61,291.6,529.61,291.6Z" fill="#0071f2" data-primary="true"/>
<path d="M488,346.18l-.44,2.6-18-9.37c-9.81-5.48-32.64-4.06-32.64-4.06l1.3-4.76s26-1.3,39.85,9.1Z" fill="#0071f2" data-primary="true"/>
<path d="M488,346.18l-.44,2.6-18-9.37c-9.81-5.48-32.64-4.06-32.64-4.06l1.3-4.76s26-1.3,39.85,9.1Z" fill="#fff" opacity="0.2"/>
<path d="M472.87,403.36c-10.85,3.23-35.28.75-55.73-2.29-17.93-2.65-32.8-5.72-32.8-5.72,6.35,11.48,12.72,43.53,12.72,43.53-9.53,11.26-27.29,10-27.29,10l-26-50.24c-15.59-22.09-4.33-34.22-4.33-34.22,3.44-13,71.37-19.9,87.54-21.36a7.53,7.53,0,0,0,5.31-3c3.08-4.08,4.61-4.7,4.61-4.7s22.83-1.42,32.64,4.06l18,9.37C503.19,395.56,472.87,403.36,472.87,403.36Z" fill="#2f2e41" data-secondary="true"/>
<path d="M401.83,454.91a10.3,10.3,0,0,1-.56,1.62c-3.93,8.87-19.8,9.64-19.8,9.64a9.35,9.35,0,0,1-2.13,0c-2.51-.31-3.07-1.72-3.07-1.72l-6.5-9.61c-2.6-4,0-6,0-6,23.12-2.82,27.29-10,27.29-10,3.47,1.3,3,5.63,3,5.63Z" fill="#0071f2" data-primary="true"/>
<path d="M410.06,505.16c-6.5-3.47-14.3.86-14.3.86,0-9.53-16.42-39.85-16.42-39.85h0a9.35,9.35,0,0,0,2.13,0s15.87-.77,19.8-9.64l6.19,19.6,0,.09a11.48,11.48,0,0,0,4.66,5.25l2.66,1.59C415.69,494.33,410.06,505.16,410.06,505.16Z" fill="#f9b499"/>
<path d="M414,520.75C409.19,540.24,396.2,545,396.2,545c-4.77.43-2.17-8.23-2.17-8.23,2.17-6.93,1.73-30.76,1.73-30.76,9.53-4.33,14.3-.86,14.3-.86,6.06-13,4.76-22.1,4.76-22.1a9.75,9.75,0,0,1,4.33,3.47C419.59,493,414,520.75,414,520.75Z" fill="#0071f2" data-primary="true"/>
<path d="M395.8,511.47a.43.43,0,0,1-.21-.81c.42-.23,10.27-5.56,14.35-1a.43.43,0,0,1-.64.58c-3.62-4-13.2,1.15-13.3,1.2A.36.36,0,0,1,395.8,511.47Z" fill="#fff"/>
<path d="M395.8,515.83a.43.43,0,0,1-.18-.83c.38-.17,9.36-4.25,13.42-.64a.43.43,0,1,1-.57.65c-3.64-3.24-12.4.74-12.49.78A.39.39,0,0,1,395.8,515.83Z" fill="#fff"/>
<path d="M420.73,489.42l-4.61,34.8c-2.82,14.46-12.83,20.31-16.45,22a2.25,2.25,0,0,1-2.36-.3L396.2,545s13-4.77,17.76-24.26c0,0,5.63-27.72,5.19-34.22l.91.91A2.35,2.35,0,0,1,420.73,489.42Z" fill="#2f2e41" data-secondary="true"/>
<path d="M450,564.77s-3.58,2.33-1.41,7.53l3.64,9.82a5.84,5.84,0,0,0,4.08,3.67c2.16.52,5.6.68,10.9-.5,0,0,10.4-1.73,10-7.79V564.1a3,3,0,0,0-3.91-2.41v1.94s-6.93,5.64-22.53,3.9Z" fill="#0071f2" data-primary="true"/>
<path d="M480.23,606.52c-4.33,8.23-9.1,5.2-9.1,5.2-4.33-4.34-11.26-2.6-11.26-2.6a18.26,18.26,0,0,0,.43-8.23l-4-15.1C468.81,587.15,475,582,475,582l1.31,8.45c.43,4.77,2.6,6.93,2.6,6.93a8.6,8.6,0,0,1,2.24,4.3A7,7,0,0,1,480.23,606.52Z" fill="#f9b499"/>
<path d="M470.39,634.21a10.57,10.57,0,0,1-2.64,2.57c-10.28,6.84-27.16,3.33-30.94,2.42a.94.94,0,0,1-.71-.82v-.23c.79-5.91,9.48-8.67,9.48-8.67,10.39-6.07,14.29-20.36,14.29-20.36s6.93-1.74,11.26,2.6c0,0,4.77,3,9.1-5.2a7,7,0,0,0,.94-4.8l.09,0a9.49,9.49,0,0,1,2.44,4.82C485.54,612.78,473.91,629.38,470.39,634.21Z" fill="#0071f2" data-primary="true"/>
<path d="M436.1,638.15v.23A.89.89,0,0,1,436.1,638.15Z" fill="none" stroke="red" stroke-miterlimit="10"/>
<path d="M481.26,623.46a35,35,0,0,1-14.34,17.45c-12,7.32-26.52,2.3-30,.89a1.25,1.25,0,0,1-.79-1.16v-2.26a.94.94,0,0,0,.71.82c3.78.91,20.66,4.42,30.94-2.42a10.57,10.57,0,0,0,2.64-2.57c3.52-4.83,15.15-21.43,13.31-27.69C488,612.58,481.26,623.46,481.26,623.46Z" fill="#2f2e41" data-secondary="true"/>
<path d="M468.79,622.27a.43.43,0,0,1-.3-.13C465,618.56,456.39,618,456.3,618a.43.43,0,0,1,.05-.86c.37,0,9,.58,12.75,4.39a.44.44,0,0,1,0,.62A.47.47,0,0,1,468.79,622.27Z" fill="#fff"/>
<path d="M471.8,618a.41.41,0,0,1-.36-.19c-2.65-3.88-12.86-4.36-13-4.37a.43.43,0,0,1-.41-.45.4.4,0,0,1,.45-.41c.44,0,10.75.51,13.64,4.75a.43.43,0,0,1-.11.6A.44.44,0,0,1,471.8,618Z" fill="#fff"/>
<path d="M447.74,410.29c-.12,9.1.17,18.21.85,27.28a78.56,78.56,0,0,0,3.87,20c.82,2,1.76,5.6-1.14,6.41-.75.37-2.29,1-2.47,2,0,.24.18.49.44.73l-.08-.05c1.63.77,3.6-.19,5.25.53,2.48,1,2.93,4,2.16,6.23-2.33,11.78-.85,23.95.22,35.81,1.2,9.68,3.33,27.33,4.49,37.16-1.41-9.91-3.88-27.36-5.17-37.08-1.23-12.35-2.81-25.1-.1-37.36a3.41,3.41,0,0,0-3.07-4.24,8.41,8.41,0,0,1-4.16-.33,1.85,1.85,0,0,1-.78-1.43c.24-1.56,1.82-2.16,3-2.76a2,2,0,0,0,1.46-2.23,11.15,11.15,0,0,0-.8-3.19c-.71-2.18-1.34-4.38-1.85-6.61A80.69,80.69,0,0,1,448,437.61c-.58-9.1-.63-18.22-.3-27.32Z" opacity="0.2"/>
<path d="M430.28,341.91c10.27-3.19,23.73,1,27,12.07-5.75-9.72-16.31-12.52-27-12.07Z" opacity="0.2"/>
<path d="M464.75,341.47,469,344s-5.63,13.86,6.5,19.06c0,0-9.75-.25-10.72-10.09C464.75,353,464.86,341.53,464.75,341.47Z" opacity="0.2"/>
<path d="M360.24,375.2a50.24,50.24,0,0,1,23,19c2.71,4.29,4.24,9.2,5.73,14a127,127,0,0,1,3.38,14.63c-2.28-7.13-4.48-14.25-7.3-21.16-4.51-11.59-14.32-20.2-24.82-26.47Z" opacity="0.2"/>
<path d="M392.56,257.31s-9.58,1.19-8.15,13.86a12.22,12.22,0,0,0,4.1,8c2.6,2.22,6.82,4,13.32,2l15.59-4.77s6.06-15.59-6.06-27.29Z" fill="#0071f2" data-primary="true"/>
<path d="M392.56,257.31s-9.58,1.19-8.15,13.86a12.22,12.22,0,0,0,4.1,8c2.6,2.22,6.82,4,13.32,2l15.59-4.77s6.06-15.59-6.06-27.29Z" opacity="0.2"/>
<path d="M393.6,277.74s-10.4-3.9-3.47-16.89l26-39.85,12.13,5.2L414,260S408.32,283.81,393.6,277.74Z" fill="#f9b499"/>
<polygon points="403.99 217.53 407.57 208.65 445.22 222.73 442.54 231.83 403.99 217.53" fill="#0071f2" data-primary="true"/>
<polygon points="403.99 217.53 404.99 222.73 443.84 236.4 442.54 231.83 403.99 217.53" fill="#0071f2" data-primary="true"/>
<polygon points="403.99 217.53 404.99 222.73 443.84 236.4 442.54 231.83 403.99 217.53" opacity="0.2"/>
<path d="M431.65,200.72s5.5-2.65,7.18-.39a1.93,1.93,0,0,1,.33.81c.22,1.18.38,4.47-4.92,3.4Z" fill="#f7a48b"/>
<path d="M432.81,211.81s6.68,5.94,6.91,8.86l-10.52-3.93Z" fill="#2f2e41" data-secondary="true"/>
<polygon points="429.2 197.46 434.31 186.31 439.24 189.16 433.37 203.26 429.2 197.46" fill="#2f2e41" data-secondary="true"/>
<path d="M477.2,141.73l-1.27,3.35-13,34.33a19.92,19.92,0,0,1-16.73,11.94,22.86,22.86,0,0,1-19.3-7.85c-3.79-4.47-6.59-11.37-2.64-21.07l12.16-33,1.39-3.77S465.5,126.57,477.2,141.73Z" fill="#0071f2" data-primary="true"/>
<path d="M477.2,141.73l-1.27,3.35c-14.7-15.28-39.54-15.61-39.54-15.61l1.39-3.77S465.5,126.57,477.2,141.73Z" opacity="0.2"/>
<path d="M442.19,130s-13.94,28.66-8.74,30.39c0,0,2.6.87,9.53-16l5.57-13.27S444.86,130.31,442.19,130Z" fill="#fff" opacity="0.2"/>
<ellipse cx="441.67" cy="156.71" rx="8.59" ry="2.17" transform="translate(117.41 495.07) rotate(-65.75)" fill="#fff" opacity="0.2"/>
<path d="M442.23,182.73a2.3,2.3,0,0,0-1.43.84c-.42.57-.56,1.38.87,2.18,0,0,2.22,1.58,7.17-.78a19.88,19.88,0,0,0,7-5.48c1.3-1.62,2.46-3.59,2-5.09a.32.32,0,0,0-.32-.23c-.41,0-1.34.36-2.95,2.5a11.49,11.49,0,0,1-5,3.74A43.54,43.54,0,0,1,442.23,182.73Z" fill="#fff" opacity="0.2"/>
<g opacity="0.2">
<path d="M533.51,202.8h-.06a.43.43,0,0,1-.37-.48c2.95-22.72-10-26.78-10.09-26.82a.43.43,0,0,1-.29-.54.42.42,0,0,1,.53-.29c.14,0,13.75,4.27,10.71,27.76A.43.43,0,0,1,533.51,202.8Z"/>
</g>
<g opacity="0.2">
<path d="M478.9,225.33a.42.42,0,0,1-.36-.2c-.31-.46-7.54-11.49-5.92-16.61a.43.43,0,1,1,.82.26c-1.49,4.73,5.75,15.77,5.82,15.88a.43.43,0,0,1-.12.6A.44.44,0,0,1,478.9,225.33Z"/>
</g>
<g opacity="0.2">
<path d="M530,243.68a.44.44,0,0,1-.33-.16c-4.82-6-3.82-22.19-3.78-22.87a.46.46,0,0,1,.46-.41.43.43,0,0,1,.4.46c0,.17-1,16.56,3.59,22.27a.44.44,0,0,1-.06.61A.42.42,0,0,1,530,243.68Z"/>
</g>
<g opacity="0.2">
<path d="M531.37,236.83a.43.43,0,0,1-.31-.13c-3.73-3.92-2.26-6.89-1.63-8.16a3.43,3.43,0,0,0,.18-.42.43.43,0,0,1,.44-.41.44.44,0,0,1,.43.44,1.89,1.89,0,0,1-.28.78c-.59,1.19-1.83,3.69,1.49,7.17a.43.43,0,0,1,0,.61A.42.42,0,0,1,531.37,236.83Z"/>
</g>
<path d="M455.76,315.75c-.65,1-.22,13.54,8.88,17.87,0,0,6.21,4.27,15.69-.78a31.91,31.91,0,0,1,3.07-1.46l.34-.15a17.49,17.49,0,0,0,10.32-17.62c-.54-6.23-1.77-15.45-11.66-19.41L476,297Z" fill="#0071f2" data-primary="true"/>
<path d="M455.76,315.75c-.65,1-.22,13.54,8.88,17.87,0,0,6.21,4.27,15.69-.78a31.91,31.91,0,0,1,3.07-1.46l.34-.15a17.49,17.49,0,0,0,10.32-17.62c-.54-6.23-1.77-15.45-11.66-19.41L476,297Z" opacity="0.2"/>
<path d="M482.4,294.2c10.29-9.09,21-17.8,32.05-26-10.29,9.1-21,17.8-32.05,26Z" opacity="0.2"/>
<path d="M445.79,269.42A238.24,238.24,0,0,1,464.2,247a236.69,236.69,0,0,1-18.41,22.43Z" opacity="0.2"/>
<path d="M491.51,324.47a17.85,17.85,0,0,1,6.05-5.14,18,18,0,0,1-6.05,5.14Z" opacity="0.2"/>
<path d="M433.33,248.15l-16.78-10.26L407,222.3c-1.73-2.6,2.68-1.3,2.68-1.3s2.52-6.5,9.24,3.9l2.84,5.06L435,233.57s3.69-11.71,8.88-10.84l-.85,6.11a4.07,4.07,0,0,0,.26,2.1c1,2.36,3.18,8.43,2.65,12.75a5,5,0,0,0,.64,3.13l28.15,48.36s19.4,24.58,1.64,32.81c0,0-13.86,7.8-21.66-15.16L435.53,251A5.11,5.11,0,0,0,433.33,248.15Z" fill="#f9b499"/>
<path d="M409.7,221c-.83-.13-3.67-.61-2.51.93,3.54,5.06,6.87,10.26,10.1,15.51l-.29-.28c5,3,9.88,6.18,14.68,9.48l1.2.84a6.45,6.45,0,0,1,2.65,3.51,7.28,7.28,0,0,0-2.36-2.59l-1.94-1c-5.19-2.8-10.27-5.78-15.3-8.85l-.11-.18c-3-4.87-5.83-9.79-8.53-14.81l-.67-1.28c-1.19-2.36,1.82-1.81,3.08-1.25Z" fill="#f7a48b"/>
<path d="M421.78,230a100.36,100.36,0,0,1,13.41,2.78l-1.06.61c1.31-4.36,4.29-11,9.71-10.62-4.84,1-6.67,6.92-8,11.06l-.24.84A107.78,107.78,0,0,1,421.78,230Z" fill="#f7a48b"/>
<ellipse cx="507.74" cy="204.54" rx="17.33" ry="27.94" fill="#f9b499"/>
<ellipse cx="490.19" cy="208.65" rx="3.9" ry="5.85" fill="#f9b499"/>
<ellipse cx="526.36" cy="208.65" rx="3.68" ry="5.85" fill="#f9b499"/>
<path d="M490.55,191.07l14.6-6.88a7,7,0,0,1,6.72.33l14.11,10,2.63-12-10.4-8.33-7.48.48h-6.84S488.53,183.33,490.55,191.07Z" fill="#2f2e41" data-secondary="true"/>
<g opacity="0.2">
<path d="M484.83,195.22a.39.39,0,0,1-.18,0,.44.44,0,0,1-.21-.58,41.87,41.87,0,0,1,16.38-18.38.43.43,0,1,1,.4.76,40.92,40.92,0,0,0-16,18A.46.46,0,0,1,484.83,195.22Z"/>
</g>
<path d="M429.55,221s.43,2.16-6.07-1.3l-5.19-2.17s-11.7-6.49-6.93-13c0,0,5.19-10.83,13.24-11a3.83,3.83,0,0,1,2.81,1.64c3.25,4,14,17.7,9.94,21,0,0-1.3,2.6-3,2.17C434.31,218.4,433,221.86,429.55,221Z" fill="#f9b499"/>
<path d="M415,208.65a113.36,113.36,0,0,1,16,12,112,112,0,0,1-16-12Z" fill="#f7a48b"/>
<path d="M419.44,202.8a129.73,129.73,0,0,1,14.87,15.6,131.31,131.31,0,0,1-14.87-15.6Z" fill="#f7a48b"/>
<path d="M424.23,198.22a141.17,141.17,0,0,1,13.12,18,140.47,140.47,0,0,1-13.12-18Z" fill="#f7a48b"/>
<rect x="110.54" y="376.19" width="8.56" height="229.46" transform="translate(-82.53 26.98) rotate(-9.88)" fill="#2f2e41" data-secondary="true"/>
<rect x="110.54" y="376.19" width="8.56" height="229.46" transform="translate(-82.53 26.98) rotate(-9.88)" fill="#fff" opacity="0.2" style="isolation:isolate"/>
<circle cx="90.2" cy="352.36" r="47.03" transform="translate(-222.73 166.99) rotate(-45)" fill="#0071f2" data-primary="true"/>
<circle cx="90.2" cy="352.36" r="47.03" transform="translate(-222.73 166.99) rotate(-45)" fill="#fff" opacity="0.6" style="isolation:isolate"/>
<circle cx="90.19" cy="352.36" r="43.5" transform="translate(-222.74 166.98) rotate(-45)" fill="#0071f2" data-primary="true"/>
<path d="M64.8,356.47,77,353.25S77.8,344,73.2,325a23.26,23.26,0,0,1,6.43-1.4c2.2.11,8,21.11,8,21.11s21.74-6.76,23.15-6.1c.9.41,1.86,3.66,2.44,6a2.83,2.83,0,0,1-1.6,3.31l-.73.33,4,21.34a3.21,3.21,0,0,1-2.35,3.65L92,378.29a10.35,10.35,0,0,1-6.13-.36l-2.61-1-12.48,4Z" fill="#0071f2" data-primary="true"/>
<path d="M64.8,356.47,77,353.25S77.8,344,73.2,325a23.26,23.26,0,0,1,6.43-1.4c2.2.11,8,21.11,8,21.11s21.74-6.76,23.15-6.1c.9.41,1.86,3.66,2.44,6a2.83,2.83,0,0,1-1.6,3.31l-.73.33,4,21.34a3.21,3.21,0,0,1-2.35,3.65L92,378.29a10.35,10.35,0,0,1-6.13-.36l-2.61-1-12.48,4Z" fill="#fff" opacity="0.7" style="isolation:isolate"/>
<path d="M251.36,521.35l-3.65-9.65c-48.79,2.25-54.25-16.06-54.76-22-.92-10.84,8.88-20.73,21.87-22,17.88-1.83,29.8,14.19,35.88,24.75,9.2-11.09,27-20.25,40.46-20.25h0c10.28,0,17.59,4.82,20,14.62,2,7.86-.82,12.73-3.51,15.75-11.34,12.86-44.07,10.32-53.91,9.31Zm5.78-19.45c14.82,1.3,36.36.34,42.42-6.42,1-1.1,2-2.22,1.09-5.71-1.23-5-4.17-6.6-9.49-6.6h0C279.27,483.1,262.56,493.23,257.14,501.9Zm-39.56-23.44a14.48,14.48,0,0,0-1.61.09c-7.36.74-12.47,6.05-12.11,10.3.42,4.83,9.4,12.94,39.56,12.18-3.79-7.52-12.86-22.57-25.84-22.57Z" fill="#2f2e41" data-secondary="true"/>
<rect x="144.42" y="506.05" width="211.77" height="145.47" fill="#0071f2" data-primary="true"/>
<rect x="144.42" y="506.05" width="211.77" height="145.47" fill="#fff" opacity="0.2" style="isolation:isolate"/>
<rect x="144.42" y="556.31" width="211.77" height="95.21" opacity="0.2" style="isolation:isolate"/>
<rect x="285.55" y="506.05" width="17.21" height="145.47" fill="#2f2e41" data-secondary="true"/>
<rect x="174.15" y="506.05" width="12.63" height="145.47" fill="#2f2e41" data-secondary="true"/>
<rect x="144.42" y="506.05" width="84.14" height="145.47" opacity="0.2" style="isolation:isolate"/>
<path d="M122.1,557.07c-6.67.69-28.79,2.37-36.47-6.29a10.93,10.93,0,0,1-2.37-10.67c1.61-6.62,6.59-9.91,13.55-9.91h0c9.09,0,21.15,6.22,27.32,13.72,4.11-7.15,12.16-18,24.26-16.74,8.79.88,15.42,7.57,14.8,14.91-.34,3.95-4.05,16.39-37.06,14.86l-2.45,6.51ZM96.82,537.45h0c-3.59,0-5.57,1.17-6.42,4.53a3.57,3.57,0,0,0,.74,3.89c4.09,4.62,18.67,5.23,28.71,4.35C116.17,544.34,104.86,537.45,96.82,537.45Zm32.33,12.26c20.41.51,26.5-5,26.78-8.25.24-2.87-3.22-6.42-8.2-7a7.23,7.23,0,0,0-1.14,0c-8.77-.07-14.91,10.12-17.44,15.2Z" fill="#0071f2" data-primary="true"/>
<rect x="52.83" y="553.1" width="143.27" height="98.42" fill="#0071f2" data-primary="true"/>
<rect x="52.83" y="553.1" width="143.27" height="98.42" fill="#fff" opacity="0.6" style="isolation:isolate"/>
<rect x="52.83" y="587.1" width="143.27" height="64.42" opacity="0.1" style="isolation:isolate"/>
<rect x="139.15" y="553.1" width="56.93" height="98.42" fill="#fff" opacity="0.2" style="isolation:isolate"/>
<rect x="88.97" y="553.1" width="11.63" height="98.42" fill="#0071f2" data-primary="true"/>
<rect x="167.43" y="553.1" width="8.55" height="98.42" fill="#0071f2" data-primary="true"/>
<path d="M646.77,604c0-.58-2-58-11.37-67.15-9.19-8.95-19.77-.34-20.21,0l-.65-.77c.12-.1,11.71-9.56,21.56,0,9.68,9.41,11.6,65.45,11.67,67.83Z" fill="#2f2e41" data-secondary="true"/>
<path d="M647.66,615.29c-.07-.69-6.37-68.8,18.47-97.32l.76.66c-24.56,28.19-18.3,95.88-18.23,96.56Z" fill="#2f2e41" data-secondary="true"/>
<path d="M646.22,608.08l-1-.07c0-.78,4.88-77.68-13.47-94.55l.68-.74C651.13,529.91,646.42,604.89,646.22,608.08Z" fill="#2f2e41" data-secondary="true"/>
<path d="M648.66,608.05h-1c0-2.11.6-51.8,14.62-59.76a9.78,9.78,0,0,1,8.94-.84C679.64,551,683.82,566,684,566.63l-1,.26c0-.15-4.22-15.21-12.2-18.53a8.84,8.84,0,0,0-8.06.79C649.25,556.83,648.66,607.53,648.66,608.05Z" fill="#2f2e41" data-secondary="true"/>
<path d="M643.08,608.07l-1-.06c0-.39,2.15-39.39-8.41-53.17-2.6-3.39-5.44-5-8.43-4.79-7,.49-12.82,10.67-12.88,10.77l-.87-.49c.25-.44,6.14-10.75,13.68-11.28,3.36-.24,6.48,1.5,9.29,5.18C645.25,568.31,643.18,606.45,643.08,608.07Z" fill="#2f2e41" data-secondary="true"/>
<path d="M645.86,613.37c-.29-3.78-6.87-92.57,4.66-108.16l.8.6c-11.31,15.29-4.53,106.56-4.46,107.48Z" fill="#2f2e41" data-secondary="true"/>
<path d="M674.38,556.19s-6.94,2.57-4.82,8.61,24.1,16.07,24.1,16.07,9.2-8.44.76-22.14S674.58,551.87,674.38,556.19Z" fill="#0071f2" data-primary="true"/>
<path d="M644.19,544.68s7.39-.3,7.82,6.08-16.06,24-16.06,24-11.73-4.24-9.21-20.15S642.36,540.76,644.19,544.68Z" fill="#0071f2" data-primary="true"/>
<path d="M637.92,514.25s4.94-.53,4.55-3.54S623.3,500,612.21,512.48c0,0,7.11,12.18,17.36,12.34S637.92,514.25,637.92,514.25Z" fill="#0071f2" data-primary="true"/>
<path d="M647.11,506.87s-4.46,2.17-5.7-.59S652,487,668,491.82c0,0,.42,14.09-8.19,19.63S647.11,506.87,647.11,506.87Z" fill="#0071f2" data-primary="true"/>
<path d="M623.77,553.76s3.4-2.75-.26-4.08-21.69-1-21.89,16.89c0,0,21,3.49,23.59-3.31S623.77,553.76,623.77,553.76Z" fill="#0071f2" data-primary="true"/>
<path d="M666.57,513.72s-3.4-2.75.28-4.08,21.69-1,21.87,16.89c0,0-21,3.48-23.58-3.31S666.57,513.72,666.57,513.72Z" fill="#0071f2" data-primary="true"/>
<path d="M655.47,528.1s-.29-3.34,2.41-2,12.08,11.44,2.35,21.06c0,0-13.12-9.72-10.75-14.77S655.47,528.1,655.47,528.1Z" fill="#0071f2" data-primary="true"/>
<path d="M620.73,532.87s2-2.66-1-3-16.32,3.21-13.22,16.56c0,0,16.27-1.22,17-6.76S620.73,532.87,620.73,532.87Z" fill="#0071f2" data-primary="true"/>
<path d="M674.38,556.19s-6.94,2.57-4.82,8.61,24.1,16.07,24.1,16.07,9.2-8.44.76-22.14S674.58,551.87,674.38,556.19Z" fill="#fff" opacity="0.2" style="isolation:isolate"/>
<path d="M644.19,544.68s7.39-.3,7.82,6.08-16.06,24-16.06,24-11.73-4.24-9.21-20.15S642.36,540.76,644.19,544.68Z" fill="#fff" opacity="0.2" style="isolation:isolate"/>
<path d="M637.92,514.25s4.94-.53,4.55-3.54S623.3,500,612.21,512.48c0,0,7.11,12.18,17.36,12.34S637.92,514.25,637.92,514.25Z" fill="#fff" opacity="0.2" style="isolation:isolate"/>
<path d="M647.11,506.87s-4.46,2.17-5.7-.59S652,487,668,491.82c0,0,.42,14.09-8.19,19.63S647.11,506.87,647.11,506.87Z" fill="#fff" opacity="0.2" style="isolation:isolate"/>
<path d="M623.77,553.76s3.4-2.75-.26-4.08-21.69-1-21.89,16.89c0,0,21,3.49,23.59-3.31S623.77,553.76,623.77,553.76Z" fill="#fff" opacity="0.2" style="isolation:isolate"/>
<path d="M666.57,513.72s-3.4-2.75.28-4.08,21.69-1,21.87,16.89c0,0-21,3.48-23.58-3.31S666.57,513.72,666.57,513.72Z" fill="#fff" opacity="0.2" style="isolation:isolate"/>
<path d="M655.47,528.1s-.29-3.34,2.41-2,12.08,11.44,2.35,21.06c0,0-13.12-9.72-10.75-14.77S655.47,528.1,655.47,528.1Z" fill="#fff" opacity="0.2" style="isolation:isolate"/>
<path d="M620.73,532.87s2-2.66-1-3-16.32,3.21-13.22,16.56c0,0,16.27-1.22,17-6.76S620.73,532.87,620.73,532.87Z" fill="#fff" opacity="0.2" style="isolation:isolate"/>
<polygon points="675.68 657.53 619.88 657.53 613.85 596.42 681.71 596.42 675.68 657.53" fill="#407bff"/>
<polygon points="675.68 657.53 619.88 657.53 613.85 596.42 681.71 596.42 675.68 657.53" fill="#2f2e41" data-secondary="true"/>
<rect x="610.86" y="589.68" width="73.82" height="13.48" fill="#2f2e41" data-secondary="true"/>
<rect x="610.86" y="589.68" width="73.82" height="13.48" fill="#fff" opacity="0.2" style="isolation:isolate"/>
</svg>