<svg xmlns="http://www.w3.org/2000/svg" xmlns:xlink="http://www.w3.org/1999/xlink" width="500" zoomAndPan="magnify" viewBox="0 0 375 374.999991" height="500" preserveAspectRatio="xMidYMid meet" version="1.0"><defs><g/></defs><g fill="#000000" fill-opacity="1"><g transform="translate(95.522042, 174.621404)"><g><path d="M 25.03125 -7.9375 L 9.46875 -7.9375 L 6.609375 0 L 1.6875 0 L 14.59375 -35.484375 L 19.96875 -35.484375 L 32.828125 0 L 27.90625 0 Z M 23.703125 -11.71875 L 17.25 -29.75 L 10.796875 -11.71875 Z M 23.703125 -11.71875 "/></g></g></g><g fill="#000000" fill-opacity="1"><g transform="translate(125.216202, 174.621404)"><g><path d="M 8.609375 -37.890625 L 8.609375 0 L 3.9375 0 L 3.9375 -37.890625 Z M 8.609375 -37.890625 "/></g></g></g><g fill="#000000" fill-opacity="1"><g transform="translate(132.997079, 174.621404)"><g><path d="M 8.609375 -37.890625 L 8.609375 0 L 3.9375 0 L 3.9375 -37.890625 Z M 8.609375 -37.890625 "/></g></g></g><g fill="#000000" fill-opacity="1"><g transform="translate(140.777957, 174.621404)"><g><path d="M 8.609375 -23.5 C 9.421875 -25.101562 10.585938 -26.347656 12.109375 -27.234375 C 13.628906 -28.128906 15.484375 -28.578125 17.671875 -28.578125 L 17.671875 -23.765625 L 16.4375 -23.765625 C 11.21875 -23.765625 8.609375 -20.929688 8.609375 -15.265625 L 8.609375 0 L 3.9375 0 L 3.9375 -28.0625 L 8.609375 -28.0625 Z M 8.609375 -23.5 "/></g></g></g><g fill="#000000" fill-opacity="1"><g transform="translate(155.061149, 174.621404)"><g><path d="M 16.1875 0.453125 C 13.550781 0.453125 11.164062 -0.140625 9.03125 -1.328125 C 6.90625 -2.523438 5.234375 -4.222656 4.015625 -6.421875 C 2.804688 -8.628906 2.203125 -11.179688 2.203125 -14.078125 C 2.203125 -16.941406 2.820312 -19.472656 4.0625 -21.671875 C 5.3125 -23.878906 7.007812 -25.570312 9.15625 -26.75 C 11.3125 -27.925781 13.722656 -28.515625 16.390625 -28.515625 C 19.046875 -28.515625 21.445312 -27.925781 23.59375 -26.75 C 25.75 -25.570312 27.445312 -23.890625 28.6875 -21.703125 C 29.9375 -19.523438 30.5625 -16.984375 30.5625 -14.078125 C 30.5625 -11.179688 29.921875 -8.628906 28.640625 -6.421875 C 27.367188 -4.222656 25.640625 -2.523438 23.453125 -1.328125 C 21.265625 -0.140625 18.84375 0.453125 16.1875 0.453125 Z M 16.1875 -3.640625 C 17.851562 -3.640625 19.421875 -4.03125 20.890625 -4.8125 C 22.359375 -5.59375 23.546875 -6.769531 24.453125 -8.34375 C 25.359375 -9.914062 25.8125 -11.828125 25.8125 -14.078125 C 25.8125 -16.328125 25.363281 -18.238281 24.46875 -19.8125 C 23.582031 -21.382812 22.421875 -22.550781 20.984375 -23.3125 C 19.554688 -24.082031 18.003906 -24.46875 16.328125 -24.46875 C 14.628906 -24.46875 13.070312 -24.082031 11.65625 -23.3125 C 10.238281 -22.550781 9.101562 -21.382812 8.25 -19.8125 C 7.394531 -18.238281 6.96875 -16.328125 6.96875 -14.078125 C 6.96875 -11.796875 7.382812 -9.867188 8.21875 -8.296875 C 9.050781 -6.722656 10.164062 -5.550781 11.5625 -4.78125 C 12.96875 -4.019531 14.507812 -3.640625 16.1875 -3.640625 Z M 16.1875 -3.640625 "/></g></g></g><g fill="#000000" fill-opacity="1"><g transform="translate(183.014538, 174.621404)"><g><path d="M 28.828125 -28.0625 L 28.828125 0 L 24.171875 0 L 24.171875 -4.140625 C 23.285156 -2.710938 22.046875 -1.597656 20.453125 -0.796875 C 18.867188 0.00390625 17.117188 0.40625 15.203125 0.40625 C 13.023438 0.40625 11.0625 -0.0390625 9.3125 -0.9375 C 7.570312 -1.84375 6.195312 -3.203125 5.1875 -5.015625 C 4.1875 -6.828125 3.6875 -9.03125 3.6875 -11.625 L 3.6875 -28.0625 L 8.296875 -28.0625 L 8.296875 -12.234375 C 8.296875 -9.472656 8.992188 -7.347656 10.390625 -5.859375 C 11.796875 -4.378906 13.707031 -3.640625 16.125 -3.640625 C 18.613281 -3.640625 20.578125 -4.40625 22.015625 -5.9375 C 23.453125 -7.476562 24.171875 -9.710938 24.171875 -12.640625 L 24.171875 -28.0625 Z M 28.828125 -28.0625 "/></g></g></g><g fill="#000000" fill-opacity="1"><g transform="translate(210.967926, 174.621404)"><g><path d="M 17.609375 -28.578125 C 21.023438 -28.578125 23.789062 -27.539062 25.90625 -25.46875 C 28.019531 -23.40625 29.078125 -20.425781 29.078125 -16.53125 L 29.078125 0 L 24.46875 0 L 24.46875 -15.875 C 24.46875 -18.675781 23.769531 -20.816406 22.375 -22.296875 C 20.976562 -23.785156 19.066406 -24.53125 16.640625 -24.53125 C 14.179688 -24.53125 12.226562 -23.757812 10.78125 -22.21875 C 9.332031 -20.6875 8.609375 -18.453125 8.609375 -15.515625 L 8.609375 0 L 3.9375 0 L 3.9375 -28.0625 L 8.609375 -28.0625 L 8.609375 -24.0625 C 9.523438 -25.5 10.773438 -26.609375 12.359375 -27.390625 C 13.953125 -28.179688 15.703125 -28.578125 17.609375 -28.578125 Z M 17.609375 -28.578125 "/></g></g></g><g fill="#000000" fill-opacity="1"><g transform="translate(238.921309, 174.621404)"><g><path d="M 2.203125 -14.125 C 2.203125 -17 2.78125 -19.519531 3.9375 -21.6875 C 5.101562 -23.851562 6.703125 -25.53125 8.734375 -26.71875 C 10.765625 -27.914062 13.039062 -28.515625 15.5625 -28.515625 C 17.75 -28.515625 19.78125 -28.007812 21.65625 -27 C 23.53125 -26 24.960938 -24.679688 25.953125 -23.046875 L 25.953125 -37.890625 L 30.671875 -37.890625 L 30.671875 0 L 25.953125 0 L 25.953125 -5.28125 C 25.035156 -3.601562 23.671875 -2.226562 21.859375 -1.15625 C 20.054688 -0.0820312 17.941406 0.453125 15.515625 0.453125 C 13.023438 0.453125 10.765625 -0.15625 8.734375 -1.375 C 6.703125 -2.601562 5.101562 -4.328125 3.9375 -6.546875 C 2.78125 -8.765625 2.203125 -11.289062 2.203125 -14.125 Z M 25.953125 -14.078125 C 25.953125 -16.191406 25.523438 -18.035156 24.671875 -19.609375 C 23.828125 -21.179688 22.675781 -22.382812 21.21875 -23.21875 C 19.769531 -24.050781 18.175781 -24.46875 16.4375 -24.46875 C 14.695312 -24.46875 13.109375 -24.054688 11.671875 -23.234375 C 10.242188 -22.421875 9.101562 -21.226562 8.25 -19.65625 C 7.394531 -18.09375 6.96875 -16.25 6.96875 -14.125 C 6.96875 -11.976562 7.394531 -10.109375 8.25 -8.515625 C 9.101562 -6.929688 10.242188 -5.722656 11.671875 -4.890625 C 13.109375 -4.054688 14.695312 -3.640625 16.4375 -3.640625 C 18.175781 -3.640625 19.769531 -4.054688 21.21875 -4.890625 C 22.675781 -5.722656 23.828125 -6.929688 24.671875 -8.515625 C 25.523438 -10.109375 25.953125 -11.960938 25.953125 -14.078125 Z M 25.953125 -14.078125 "/></g></g></g><g fill="#000000" fill-opacity="1"><g transform="translate(268.717877, 174.621404)"><g><path d="M 5.421875 0.3125 C 4.535156 0.3125 3.785156 0.00390625 3.171875 -0.609375 C 2.554688 -1.222656 2.25 -1.976562 2.25 -2.875 C 2.25 -3.757812 2.554688 -4.507812 3.171875 -5.125 C 3.785156 -5.738281 4.535156 -6.046875 5.421875 -6.046875 C 6.273438 -6.046875 7 -5.738281 7.59375 -5.125 C 8.195312 -4.507812 8.5 -3.757812 8.5 -2.875 C 8.5 -1.976562 8.195312 -1.222656 7.59375 -0.609375 C 7 0.00390625 6.273438 0.3125 5.421875 0.3125 Z M 5.421875 0.3125 "/></g></g></g><g fill="#000000" fill-opacity="1"><g transform="translate(91.134389, 199.669278)"><g><path d="M 4.421875 -7.09375 C 5.984375 -7.09375 6.765625 -6.125 6.765625 -4.1875 L 6.765625 -0.640625 C 6.765625 -0.460938 6.703125 -0.3125 6.578125 -0.1875 C 6.460938 -0.0625 6.3125 0 6.125 0 C 5.945312 0 5.796875 -0.0625 5.671875 -0.1875 C 5.554688 -0.3125 5.5 -0.460938 5.5 -0.640625 L 5.5 -4.1875 C 5.5 -5.34375 5.007812 -5.921875 4.03125 -5.921875 C 3.507812 -5.921875 3.070312 -5.753906 2.71875 -5.421875 C 2.375 -5.085938 2.203125 -4.675781 2.203125 -4.1875 L 2.203125 -0.640625 C 2.203125 -0.460938 2.140625 -0.3125 2.015625 -0.1875 C 1.898438 -0.0625 1.753906 0 1.578125 0 C 1.390625 0 1.234375 -0.0546875 1.109375 -0.171875 C 0.992188 -0.296875 0.9375 -0.453125 0.9375 -0.640625 L 0.9375 -9.21875 C 0.9375 -9.394531 0.992188 -9.539062 1.109375 -9.65625 C 1.234375 -9.78125 1.390625 -9.84375 1.578125 -9.84375 C 1.753906 -9.84375 1.898438 -9.78125 2.015625 -9.65625 C 2.140625 -9.539062 2.203125 -9.394531 2.203125 -9.21875 L 2.203125 -5.84375 C 2.429688 -6.1875 2.742188 -6.476562 3.140625 -6.71875 C 3.535156 -6.96875 3.960938 -7.09375 4.421875 -7.09375 Z M 4.421875 -7.09375 "/></g></g></g><g fill="#000000" fill-opacity="1"><g transform="translate(107.511687, 199.669278)"><g><path d="M 7.546875 -3.484375 C 7.546875 -2.796875 7.390625 -2.175781 7.078125 -1.625 C 6.765625 -1.070312 6.335938 -0.640625 5.796875 -0.328125 C 5.265625 -0.015625 4.675781 0.140625 4.03125 0.140625 C 3.382812 0.140625 2.789062 -0.015625 2.25 -0.328125 C 1.71875 -0.640625 1.296875 -1.070312 0.984375 -1.625 C 0.671875 -2.175781 0.515625 -2.796875 0.515625 -3.484375 C 0.515625 -4.179688 0.671875 -4.804688 0.984375 -5.359375 C 1.296875 -5.921875 1.71875 -6.359375 2.25 -6.671875 C 2.789062 -6.984375 3.382812 -7.140625 4.03125 -7.140625 C 4.675781 -7.140625 5.265625 -6.984375 5.796875 -6.671875 C 6.335938 -6.359375 6.765625 -5.921875 7.078125 -5.359375 C 7.390625 -4.804688 7.546875 -4.179688 7.546875 -3.484375 Z M 6.28125 -3.484375 C 6.28125 -3.960938 6.179688 -4.390625 5.984375 -4.765625 C 5.785156 -5.148438 5.515625 -5.445312 5.171875 -5.65625 C 4.828125 -5.863281 4.445312 -5.96875 4.03125 -5.96875 C 3.613281 -5.96875 3.234375 -5.863281 2.890625 -5.65625 C 2.554688 -5.445312 2.285156 -5.148438 2.078125 -4.765625 C 1.878906 -4.390625 1.78125 -3.960938 1.78125 -3.484375 C 1.78125 -3.015625 1.878906 -2.59375 2.078125 -2.21875 C 2.285156 -1.851562 2.554688 -1.5625 2.890625 -1.34375 C 3.234375 -1.132812 3.613281 -1.03125 4.03125 -1.03125 C 4.445312 -1.03125 4.828125 -1.132812 5.171875 -1.34375 C 5.515625 -1.5625 5.785156 -1.851562 5.984375 -2.21875 C 6.179688 -2.59375 6.28125 -3.015625 6.28125 -3.484375 Z M 6.28125 -3.484375 "/></g></g></g><g fill="#000000" fill-opacity="1"><g transform="translate(124.248101, 199.669278)"><g><path d="M 8.953125 -7.09375 C 10.503906 -7.09375 11.28125 -6.125 11.28125 -4.1875 L 11.28125 -0.640625 C 11.28125 -0.453125 11.21875 -0.296875 11.09375 -0.171875 C 10.976562 -0.0546875 10.832031 0 10.65625 0 C 10.46875 0 10.3125 -0.0625 10.1875 -0.1875 C 10.070312 -0.3125 10.015625 -0.460938 10.015625 -0.640625 L 10.015625 -4.1875 C 10.015625 -5.34375 9.523438 -5.921875 8.546875 -5.921875 C 8.203125 -5.921875 7.890625 -5.84375 7.609375 -5.6875 C 7.328125 -5.53125 7.109375 -5.316406 6.953125 -5.046875 C 6.796875 -4.785156 6.71875 -4.5 6.71875 -4.1875 L 6.71875 -0.640625 C 6.71875 -0.460938 6.65625 -0.3125 6.53125 -0.1875 C 6.414062 -0.0625 6.265625 0 6.078125 0 C 5.890625 0 5.738281 -0.0546875 5.625 -0.171875 C 5.507812 -0.296875 5.453125 -0.453125 5.453125 -0.640625 L 5.453125 -4.1875 C 5.453125 -4.71875 5.34375 -5.140625 5.125 -5.453125 C 4.90625 -5.765625 4.535156 -5.921875 4.015625 -5.921875 C 3.492188 -5.921875 3.0625 -5.753906 2.71875 -5.421875 C 2.375 -5.085938 2.203125 -4.675781 2.203125 -4.1875 L 2.203125 -0.640625 C 2.203125 -0.460938 2.140625 -0.3125 2.015625 -0.1875 C 1.898438 -0.0625 1.753906 0 1.578125 0 C 1.390625 0 1.234375 -0.0546875 1.109375 -0.171875 C 0.992188 -0.296875 0.9375 -0.453125 0.9375 -0.640625 L 0.9375 -6.34375 C 0.9375 -6.519531 0.992188 -6.664062 1.109375 -6.78125 C 1.234375 -6.90625 1.390625 -6.96875 1.578125 -6.96875 C 1.753906 -6.96875 1.898438 -6.90625 2.015625 -6.78125 C 2.140625 -6.664062 2.203125 -6.519531 2.203125 -6.34375 L 2.203125 -5.875 C 2.441406 -6.21875 2.753906 -6.503906 3.140625 -6.734375 C 3.523438 -6.972656 3.941406 -7.09375 4.390625 -7.09375 C 5.492188 -7.09375 6.207031 -6.601562 6.53125 -5.625 C 6.726562 -6 7.050781 -6.335938 7.5 -6.640625 C 7.957031 -6.941406 8.441406 -7.09375 8.953125 -7.09375 Z M 8.953125 -7.09375 "/></g></g></g><g fill="#000000" fill-opacity="1"><g transform="translate(145.134339, 199.669278)"><g><path d="M 7.0625 -3.75 C 7.0625 -3.59375 7 -3.457031 6.875 -3.34375 C 6.75 -3.238281 6.601562 -3.1875 6.4375 -3.1875 L 1.75 -3.1875 C 1.8125 -2.53125 2.054688 -2.003906 2.484375 -1.609375 C 2.910156 -1.222656 3.4375 -1.03125 4.0625 -1.03125 C 4.488281 -1.03125 4.832031 -1.09375 5.09375 -1.21875 C 5.363281 -1.34375 5.597656 -1.503906 5.796875 -1.703125 C 5.929688 -1.785156 6.0625 -1.828125 6.1875 -1.828125 C 6.34375 -1.828125 6.46875 -1.769531 6.5625 -1.65625 C 6.664062 -1.550781 6.71875 -1.429688 6.71875 -1.296875 C 6.71875 -1.109375 6.628906 -0.9375 6.453125 -0.78125 C 6.203125 -0.53125 5.863281 -0.3125 5.4375 -0.125 C 5.007812 0.0507812 4.570312 0.140625 4.125 0.140625 C 3.40625 0.140625 2.769531 -0.0078125 2.21875 -0.3125 C 1.675781 -0.613281 1.253906 -1.035156 0.953125 -1.578125 C 0.660156 -2.117188 0.515625 -2.734375 0.515625 -3.421875 C 0.515625 -4.171875 0.664062 -4.828125 0.96875 -5.390625 C 1.28125 -5.953125 1.6875 -6.382812 2.1875 -6.6875 C 2.6875 -6.988281 3.226562 -7.140625 3.8125 -7.140625 C 4.375 -7.140625 4.90625 -6.988281 5.40625 -6.6875 C 5.90625 -6.394531 6.304688 -5.992188 6.609375 -5.484375 C 6.910156 -4.972656 7.0625 -4.394531 7.0625 -3.75 Z M 3.8125 -5.96875 C 3.3125 -5.96875 2.878906 -5.828125 2.515625 -5.546875 C 2.148438 -5.265625 1.910156 -4.832031 1.796875 -4.25 L 5.71875 -4.25 L 5.71875 -4.359375 C 5.675781 -4.828125 5.46875 -5.210938 5.09375 -5.515625 C 4.71875 -5.816406 4.289062 -5.96875 3.8125 -5.96875 Z M 3.8125 -5.96875 "/></g></g></g><g fill="#000000" fill-opacity="1"><g transform="translate(161.391929, 199.669278)"><g/></g></g><g fill="#000000" fill-opacity="1"><g transform="translate(173.752406, 199.669278)"><g><path d="M 0.546875 -1.09375 C 0.460938 -1.21875 0.421875 -1.335938 0.421875 -1.453125 C 0.421875 -1.628906 0.515625 -1.78125 0.703125 -1.90625 C 0.796875 -1.96875 0.898438 -2 1.015625 -2 C 1.171875 -2 1.316406 -1.929688 1.453125 -1.796875 C 1.710938 -1.492188 1.992188 -1.265625 2.296875 -1.109375 C 2.609375 -0.960938 2.976562 -0.890625 3.40625 -0.890625 C 3.738281 -0.898438 4.035156 -0.976562 4.296875 -1.125 C 4.554688 -1.269531 4.6875 -1.507812 4.6875 -1.84375 C 4.6875 -2.144531 4.554688 -2.375 4.296875 -2.53125 C 4.035156 -2.6875 3.648438 -2.832031 3.140625 -2.96875 C 2.640625 -3.101562 2.222656 -3.242188 1.890625 -3.390625 C 1.566406 -3.535156 1.289062 -3.75 1.0625 -4.03125 C 0.84375 -4.3125 0.734375 -4.675781 0.734375 -5.125 C 0.734375 -5.519531 0.84375 -5.867188 1.0625 -6.171875 C 1.289062 -6.472656 1.59375 -6.707031 1.96875 -6.875 C 2.351562 -7.050781 2.765625 -7.140625 3.203125 -7.140625 C 3.628906 -7.140625 4.050781 -7.054688 4.46875 -6.890625 C 4.894531 -6.734375 5.242188 -6.488281 5.515625 -6.15625 C 5.617188 -6.039062 5.671875 -5.914062 5.671875 -5.78125 C 5.671875 -5.632812 5.597656 -5.492188 5.453125 -5.359375 C 5.367188 -5.285156 5.257812 -5.25 5.125 -5.25 C 4.96875 -5.25 4.835938 -5.300781 4.734375 -5.40625 C 4.546875 -5.613281 4.316406 -5.773438 4.046875 -5.890625 C 3.773438 -6.015625 3.476562 -6.078125 3.15625 -6.078125 C 2.820312 -6.078125 2.535156 -6.003906 2.296875 -5.859375 C 2.054688 -5.722656 1.9375 -5.492188 1.9375 -5.171875 C 1.945312 -4.859375 2.082031 -4.625 2.34375 -4.46875 C 2.613281 -4.320312 3.015625 -4.175781 3.546875 -4.03125 C 4.023438 -3.90625 4.414062 -3.769531 4.71875 -3.625 C 5.03125 -3.488281 5.289062 -3.28125 5.5 -3 C 5.71875 -2.71875 5.828125 -2.351562 5.828125 -1.90625 C 5.828125 -1.488281 5.707031 -1.125 5.46875 -0.8125 C 5.226562 -0.507812 4.914062 -0.273438 4.53125 -0.109375 C 4.144531 0.0546875 3.734375 0.140625 3.296875 0.140625 C 2.742188 0.140625 2.226562 0.0390625 1.75 -0.15625 C 1.269531 -0.351562 0.867188 -0.664062 0.546875 -1.09375 Z M 0.546875 -1.09375 "/></g></g></g><g fill="#000000" fill-opacity="1"><g transform="translate(188.773027, 199.669278)"><g><path d="M 7.0625 -3.75 C 7.0625 -3.59375 7 -3.457031 6.875 -3.34375 C 6.75 -3.238281 6.601562 -3.1875 6.4375 -3.1875 L 1.75 -3.1875 C 1.8125 -2.53125 2.054688 -2.003906 2.484375 -1.609375 C 2.910156 -1.222656 3.4375 -1.03125 4.0625 -1.03125 C 4.488281 -1.03125 4.832031 -1.09375 5.09375 -1.21875 C 5.363281 -1.34375 5.597656 -1.503906 5.796875 -1.703125 C 5.929688 -1.785156 6.0625 -1.828125 6.1875 -1.828125 C 6.34375 -1.828125 6.46875 -1.769531 6.5625 -1.65625 C 6.664062 -1.550781 6.71875 -1.429688 6.71875 -1.296875 C 6.71875 -1.109375 6.628906 -0.9375 6.453125 -0.78125 C 6.203125 -0.53125 5.863281 -0.3125 5.4375 -0.125 C 5.007812 0.0507812 4.570312 0.140625 4.125 0.140625 C 3.40625 0.140625 2.769531 -0.0078125 2.21875 -0.3125 C 1.675781 -0.613281 1.253906 -1.035156 0.953125 -1.578125 C 0.660156 -2.117188 0.515625 -2.734375 0.515625 -3.421875 C 0.515625 -4.171875 0.664062 -4.828125 0.96875 -5.390625 C 1.28125 -5.953125 1.6875 -6.382812 2.1875 -6.6875 C 2.6875 -6.988281 3.226562 -7.140625 3.8125 -7.140625 C 4.375 -7.140625 4.90625 -6.988281 5.40625 -6.6875 C 5.90625 -6.394531 6.304688 -5.992188 6.609375 -5.484375 C 6.910156 -4.972656 7.0625 -4.394531 7.0625 -3.75 Z M 3.8125 -5.96875 C 3.3125 -5.96875 2.878906 -5.828125 2.515625 -5.546875 C 2.148438 -5.265625 1.910156 -4.832031 1.796875 -4.25 L 5.71875 -4.25 L 5.71875 -4.359375 C 5.675781 -4.828125 5.46875 -5.210938 5.09375 -5.515625 C 4.71875 -5.816406 4.289062 -5.96875 3.8125 -5.96875 Z M 3.8125 -5.96875 "/></g></g></g><g fill="#000000" fill-opacity="1"><g transform="translate(205.030617, 199.669278)"><g><path d="M 4.421875 -7.140625 C 4.648438 -7.140625 4.847656 -7.078125 5.015625 -6.953125 C 5.179688 -6.835938 5.265625 -6.691406 5.265625 -6.515625 C 5.265625 -6.296875 5.207031 -6.128906 5.09375 -6.015625 C 4.988281 -5.910156 4.859375 -5.859375 4.703125 -5.859375 C 4.617188 -5.859375 4.5 -5.882812 4.34375 -5.9375 C 4.15625 -6 4.007812 -6.03125 3.90625 -6.03125 C 3.625 -6.03125 3.351562 -5.929688 3.09375 -5.734375 C 2.832031 -5.546875 2.617188 -5.285156 2.453125 -4.953125 C 2.285156 -4.617188 2.203125 -4.25 2.203125 -3.84375 L 2.203125 -0.640625 C 2.203125 -0.460938 2.140625 -0.3125 2.015625 -0.1875 C 1.898438 -0.0625 1.753906 0 1.578125 0 C 1.390625 0 1.234375 -0.0546875 1.109375 -0.171875 C 0.992188 -0.296875 0.9375 -0.453125 0.9375 -0.640625 L 0.9375 -6.34375 C 0.9375 -6.519531 0.992188 -6.664062 1.109375 -6.78125 C 1.234375 -6.90625 1.390625 -6.96875 1.578125 -6.96875 C 1.753906 -6.96875 1.898438 -6.90625 2.015625 -6.78125 C 2.140625 -6.664062 2.203125 -6.519531 2.203125 -6.34375 L 2.203125 -5.65625 C 2.398438 -6.09375 2.691406 -6.445312 3.078125 -6.71875 C 3.472656 -6.988281 3.921875 -7.128906 4.421875 -7.140625 Z M 4.421875 -7.140625 "/></g></g></g><g fill="#000000" fill-opacity="1"><g transform="translate(219.199992, 199.669278)"><g><path d="M 6.265625 -7.046875 C 6.429688 -7.046875 6.570312 -6.988281 6.6875 -6.875 C 6.8125 -6.757812 6.875 -6.628906 6.875 -6.484375 C 6.875 -6.398438 6.84375 -6.289062 6.78125 -6.15625 L 4.25 -0.40625 C 4.195312 -0.28125 4.117188 -0.179688 4.015625 -0.109375 C 3.921875 -0.046875 3.816406 -0.0078125 3.703125 0 C 3.554688 0.0195312 3.421875 -0.00390625 3.296875 -0.078125 C 3.179688 -0.148438 3.09375 -0.257812 3.03125 -0.40625 L 0.5 -6.15625 C 0.457031 -6.28125 0.4375 -6.390625 0.4375 -6.484375 C 0.4375 -6.628906 0.492188 -6.757812 0.609375 -6.875 C 0.722656 -6.988281 0.875 -7.046875 1.0625 -7.046875 C 1.195312 -7.046875 1.316406 -7.007812 1.421875 -6.9375 C 1.523438 -6.875 1.609375 -6.773438 1.671875 -6.640625 L 3.6875 -1.96875 L 5.703125 -6.640625 C 5.828125 -6.910156 6.015625 -7.046875 6.265625 -7.046875 Z M 6.265625 -7.046875 "/></g></g></g><g fill="#000000" fill-opacity="1"><g transform="translate(235.164957, 199.669278)"><g><path d="M 2.140625 -0.640625 C 2.140625 -0.460938 2.078125 -0.3125 1.953125 -0.1875 C 1.835938 -0.0625 1.6875 0 1.5 0 C 1.320312 0 1.171875 -0.0625 1.046875 -0.1875 C 0.929688 -0.3125 0.875 -0.460938 0.875 -0.640625 L 0.875 -6.40625 C 0.875 -6.582031 0.929688 -6.734375 1.046875 -6.859375 C 1.171875 -6.984375 1.320312 -7.046875 1.5 -7.046875 C 1.6875 -7.046875 1.835938 -6.984375 1.953125 -6.859375 C 2.078125 -6.734375 2.140625 -6.582031 2.140625 -6.40625 Z M 1.5 -7.921875 C 1.25 -7.921875 1.066406 -7.96875 0.953125 -8.0625 C 0.835938 -8.15625 0.78125 -8.300781 0.78125 -8.5 L 0.78125 -8.71875 C 0.78125 -8.9375 0.835938 -9.085938 0.953125 -9.171875 C 1.078125 -9.265625 1.265625 -9.3125 1.515625 -9.3125 C 1.765625 -9.3125 1.941406 -9.265625 2.046875 -9.171875 C 2.160156 -9.078125 2.21875 -8.925781 2.21875 -8.71875 L 2.21875 -8.5 C 2.21875 -8.289062 2.160156 -8.140625 2.046875 -8.046875 C 1.929688 -7.960938 1.75 -7.921875 1.5 -7.921875 Z M 1.5 -7.921875 "/></g></g></g><g fill="#000000" fill-opacity="1"><g transform="translate(246.860395, 199.669278)"><g><path d="M 3.984375 -7.140625 C 4.679688 -7.140625 5.265625 -7.023438 5.734375 -6.796875 C 6.203125 -6.578125 6.4375 -6.296875 6.4375 -5.953125 C 6.4375 -5.796875 6.382812 -5.65625 6.28125 -5.53125 C 6.1875 -5.414062 6.0625 -5.359375 5.90625 -5.359375 C 5.789062 -5.359375 5.695312 -5.375 5.625 -5.40625 C 5.5625 -5.445312 5.472656 -5.507812 5.359375 -5.59375 C 5.304688 -5.644531 5.222656 -5.707031 5.109375 -5.78125 C 5.003906 -5.832031 4.851562 -5.875 4.65625 -5.90625 C 4.457031 -5.945312 4.28125 -5.96875 4.125 -5.96875 C 3.664062 -5.96875 3.257812 -5.859375 2.90625 -5.640625 C 2.550781 -5.429688 2.273438 -5.132812 2.078125 -4.75 C 1.878906 -4.375 1.78125 -3.957031 1.78125 -3.5 C 1.78125 -3.03125 1.875 -2.609375 2.0625 -2.234375 C 2.257812 -1.859375 2.53125 -1.5625 2.875 -1.34375 C 3.21875 -1.132812 3.613281 -1.03125 4.0625 -1.03125 C 4.519531 -1.03125 4.890625 -1.101562 5.171875 -1.25 C 5.234375 -1.28125 5.320312 -1.335938 5.4375 -1.421875 C 5.519531 -1.492188 5.59375 -1.546875 5.65625 -1.578125 C 5.726562 -1.617188 5.8125 -1.640625 5.90625 -1.640625 C 6.082031 -1.640625 6.222656 -1.582031 6.328125 -1.46875 C 6.429688 -1.351562 6.484375 -1.207031 6.484375 -1.03125 C 6.484375 -0.851562 6.363281 -0.671875 6.125 -0.484375 C 5.894531 -0.304688 5.582031 -0.15625 5.1875 -0.03125 C 4.789062 0.0820312 4.363281 0.140625 3.90625 0.140625 C 3.238281 0.140625 2.644531 -0.015625 2.125 -0.328125 C 1.613281 -0.648438 1.21875 -1.085938 0.9375 -1.640625 C 0.65625 -2.191406 0.515625 -2.8125 0.515625 -3.5 C 0.515625 -4.1875 0.660156 -4.804688 0.953125 -5.359375 C 1.242188 -5.910156 1.648438 -6.34375 2.171875 -6.65625 C 2.703125 -6.976562 3.304688 -7.140625 3.984375 -7.140625 Z M 3.984375 -7.140625 "/></g></g></g><g fill="#000000" fill-opacity="1"><g transform="translate(262.373135, 199.669278)"><g><path d="M 7.0625 -3.75 C 7.0625 -3.59375 7 -3.457031 6.875 -3.34375 C 6.75 -3.238281 6.601562 -3.1875 6.4375 -3.1875 L 1.75 -3.1875 C 1.8125 -2.53125 2.054688 -2.003906 2.484375 -1.609375 C 2.910156 -1.222656 3.4375 -1.03125 4.0625 -1.03125 C 4.488281 -1.03125 4.832031 -1.09375 5.09375 -1.21875 C 5.363281 -1.34375 5.597656 -1.503906 5.796875 -1.703125 C 5.929688 -1.785156 6.0625 -1.828125 6.1875 -1.828125 C 6.34375 -1.828125 6.46875 -1.769531 6.5625 -1.65625 C 6.664062 -1.550781 6.71875 -1.429688 6.71875 -1.296875 C 6.71875 -1.109375 6.628906 -0.9375 6.453125 -0.78125 C 6.203125 -0.53125 5.863281 -0.3125 5.4375 -0.125 C 5.007812 0.0507812 4.570312 0.140625 4.125 0.140625 C 3.40625 0.140625 2.769531 -0.0078125 2.21875 -0.3125 C 1.675781 -0.613281 1.253906 -1.035156 0.953125 -1.578125 C 0.660156 -2.117188 0.515625 -2.734375 0.515625 -3.421875 C 0.515625 -4.171875 0.664062 -4.828125 0.96875 -5.390625 C 1.28125 -5.953125 1.6875 -6.382812 2.1875 -6.6875 C 2.6875 -6.988281 3.226562 -7.140625 3.8125 -7.140625 C 4.375 -7.140625 4.90625 -6.988281 5.40625 -6.6875 C 5.90625 -6.394531 6.304688 -5.992188 6.609375 -5.484375 C 6.910156 -4.972656 7.0625 -4.394531 7.0625 -3.75 Z M 3.8125 -5.96875 C 3.3125 -5.96875 2.878906 -5.828125 2.515625 -5.546875 C 2.148438 -5.265625 1.910156 -4.832031 1.796875 -4.25 L 5.71875 -4.25 L 5.71875 -4.359375 C 5.675781 -4.828125 5.46875 -5.210938 5.09375 -5.515625 C 4.71875 -5.816406 4.289062 -5.96875 3.8125 -5.96875 Z M 3.8125 -5.96875 "/></g></g></g><g fill="#000000" fill-opacity="1"><g transform="translate(278.630725, 199.669278)"><g><path d="M 0.546875 -1.09375 C 0.460938 -1.21875 0.421875 -1.335938 0.421875 -1.453125 C 0.421875 -1.628906 0.515625 -1.78125 0.703125 -1.90625 C 0.796875 -1.96875 0.898438 -2 1.015625 -2 C 1.171875 -2 1.316406 -1.929688 1.453125 -1.796875 C 1.710938 -1.492188 1.992188 -1.265625 2.296875 -1.109375 C 2.609375 -0.960938 2.976562 -0.890625 3.40625 -0.890625 C 3.738281 -0.898438 4.035156 -0.976562 4.296875 -1.125 C 4.554688 -1.269531 4.6875 -1.507812 4.6875 -1.84375 C 4.6875 -2.144531 4.554688 -2.375 4.296875 -2.53125 C 4.035156 -2.6875 3.648438 -2.832031 3.140625 -2.96875 C 2.640625 -3.101562 2.222656 -3.242188 1.890625 -3.390625 C 1.566406 -3.535156 1.289062 -3.75 1.0625 -4.03125 C 0.84375 -4.3125 0.734375 -4.675781 0.734375 -5.125 C 0.734375 -5.519531 0.84375 -5.867188 1.0625 -6.171875 C 1.289062 -6.472656 1.59375 -6.707031 1.96875 -6.875 C 2.351562 -7.050781 2.765625 -7.140625 3.203125 -7.140625 C 3.628906 -7.140625 4.050781 -7.054688 4.46875 -6.890625 C 4.894531 -6.734375 5.242188 -6.488281 5.515625 -6.15625 C 5.617188 -6.039062 5.671875 -5.914062 5.671875 -5.78125 C 5.671875 -5.632812 5.597656 -5.492188 5.453125 -5.359375 C 5.367188 -5.285156 5.257812 -5.25 5.125 -5.25 C 4.96875 -5.25 4.835938 -5.300781 4.734375 -5.40625 C 4.546875 -5.613281 4.316406 -5.773438 4.046875 -5.890625 C 3.773438 -6.015625 3.476562 -6.078125 3.15625 -6.078125 C 2.820312 -6.078125 2.535156 -6.003906 2.296875 -5.859375 C 2.054688 -5.722656 1.9375 -5.492188 1.9375 -5.171875 C 1.945312 -4.859375 2.082031 -4.625 2.34375 -4.46875 C 2.613281 -4.320312 3.015625 -4.175781 3.546875 -4.03125 C 4.023438 -3.90625 4.414062 -3.769531 4.71875 -3.625 C 5.03125 -3.488281 5.289062 -3.28125 5.5 -3 C 5.71875 -2.71875 5.828125 -2.351562 5.828125 -1.90625 C 5.828125 -1.488281 5.707031 -1.125 5.46875 -0.8125 C 5.226562 -0.507812 4.914062 -0.273438 4.53125 -0.109375 C 4.144531 0.0546875 3.734375 0.140625 3.296875 0.140625 C 2.742188 0.140625 2.226562 0.0390625 1.75 -0.15625 C 1.269531 -0.351562 0.867188 -0.664062 0.546875 -1.09375 Z M 0.546875 -1.09375 "/></g></g></g><g fill="#000000" fill-opacity="1"><g transform="translate(174.013294, 325.064657)"><g><path d="M 0.421875 -0.84375 C 0.359375 -0.9375 0.328125 -1.03125 0.328125 -1.125 C 0.328125 -1.257812 0.398438 -1.375 0.546875 -1.46875 C 0.617188 -1.519531 0.695312 -1.546875 0.78125 -1.546875 C 0.90625 -1.546875 1.019531 -1.492188 1.125 -1.390625 C 1.332031 -1.160156 1.550781 -0.984375 1.78125 -0.859375 C 2.019531 -0.742188 2.304688 -0.6875 2.640625 -0.6875 C 2.898438 -0.695312 3.128906 -0.757812 3.328125 -0.875 C 3.523438 -0.988281 3.625 -1.171875 3.625 -1.421875 C 3.625 -1.660156 3.519531 -1.835938 3.3125 -1.953125 C 3.113281 -2.078125 2.820312 -2.191406 2.4375 -2.296875 C 2.050781 -2.398438 1.726562 -2.507812 1.46875 -2.625 C 1.21875 -2.738281 1.003906 -2.898438 0.828125 -3.109375 C 0.648438 -3.328125 0.5625 -3.613281 0.5625 -3.96875 C 0.5625 -4.28125 0.648438 -4.550781 0.828125 -4.78125 C 1.003906 -5.019531 1.238281 -5.203125 1.53125 -5.328125 C 1.820312 -5.460938 2.140625 -5.53125 2.484375 -5.53125 C 2.816406 -5.53125 3.144531 -5.46875 3.46875 -5.34375 C 3.789062 -5.21875 4.054688 -5.03125 4.265625 -4.78125 C 4.347656 -4.675781 4.390625 -4.570312 4.390625 -4.46875 C 4.390625 -4.363281 4.335938 -4.257812 4.234375 -4.15625 C 4.160156 -4.09375 4.070312 -4.0625 3.96875 -4.0625 C 3.84375 -4.0625 3.742188 -4.101562 3.671875 -4.1875 C 3.523438 -4.351562 3.347656 -4.476562 3.140625 -4.5625 C 2.929688 -4.65625 2.695312 -4.703125 2.4375 -4.703125 C 2.175781 -4.703125 1.953125 -4.648438 1.765625 -4.546875 C 1.585938 -4.441406 1.5 -4.257812 1.5 -4 C 1.507812 -3.757812 1.613281 -3.582031 1.8125 -3.46875 C 2.019531 -3.351562 2.332031 -3.238281 2.75 -3.125 C 3.113281 -3.03125 3.414062 -2.925781 3.65625 -2.8125 C 3.894531 -2.707031 4.097656 -2.546875 4.265625 -2.328125 C 4.429688 -2.109375 4.515625 -1.820312 4.515625 -1.46875 C 4.515625 -1.144531 4.421875 -0.863281 4.234375 -0.625 C 4.046875 -0.394531 3.800781 -0.210938 3.5 -0.078125 C 3.207031 0.046875 2.894531 0.109375 2.5625 0.109375 C 2.125 0.109375 1.71875 0.0351562 1.34375 -0.109375 C 0.976562 -0.265625 0.671875 -0.507812 0.421875 -0.84375 Z M 0.421875 -0.84375 "/></g></g></g><g fill="#000000" fill-opacity="1"><g transform="translate(179.545183, 325.064657)"><g><path d="M 1.65625 -0.5 C 1.65625 -0.351562 1.609375 -0.234375 1.515625 -0.140625 C 1.421875 -0.046875 1.304688 0 1.171875 0 C 1.023438 0 0.90625 -0.046875 0.8125 -0.140625 C 0.726562 -0.234375 0.6875 -0.351562 0.6875 -0.5 L 0.6875 -4.953125 C 0.6875 -5.097656 0.726562 -5.21875 0.8125 -5.3125 C 0.90625 -5.40625 1.023438 -5.453125 1.171875 -5.453125 C 1.304688 -5.453125 1.421875 -5.40625 1.515625 -5.3125 C 1.609375 -5.21875 1.65625 -5.097656 1.65625 -4.953125 Z M 1.15625 -6.140625 C 0.957031 -6.140625 0.816406 -6.175781 0.734375 -6.25 C 0.648438 -6.320312 0.609375 -6.4375 0.609375 -6.59375 L 0.609375 -6.75 C 0.609375 -6.914062 0.65625 -7.03125 0.75 -7.09375 C 0.84375 -7.164062 0.984375 -7.203125 1.171875 -7.203125 C 1.359375 -7.203125 1.492188 -7.164062 1.578125 -7.09375 C 1.671875 -7.019531 1.71875 -6.90625 1.71875 -6.75 L 1.71875 -6.59375 C 1.71875 -6.425781 1.671875 -6.304688 1.578125 -6.234375 C 1.492188 -6.171875 1.351562 -6.140625 1.15625 -6.140625 Z M 1.15625 -6.140625 "/></g></g></g><g fill="#000000" fill-opacity="1"><g transform="translate(182.501877, 325.064657)"><g><path d="M 3.484375 -5.53125 C 4.722656 -5.53125 5.34375 -4.785156 5.34375 -3.296875 L 5.34375 -0.5 C 5.34375 -0.351562 5.296875 -0.234375 5.203125 -0.140625 C 5.109375 -0.046875 4.988281 0 4.84375 0 C 4.707031 0 4.59375 -0.046875 4.5 -0.140625 C 4.40625 -0.234375 4.359375 -0.351562 4.359375 -0.5 L 4.359375 -3.296875 C 4.359375 -3.691406 4.265625 -4.007812 4.078125 -4.25 C 3.898438 -4.5 3.597656 -4.625 3.171875 -4.625 C 2.898438 -4.625 2.648438 -4.5625 2.421875 -4.4375 C 2.203125 -4.320312 2.03125 -4.160156 1.90625 -3.953125 C 1.78125 -3.753906 1.71875 -3.535156 1.71875 -3.296875 L 1.71875 -0.5 C 1.71875 -0.351562 1.671875 -0.234375 1.578125 -0.140625 C 1.484375 -0.046875 1.363281 0 1.21875 0 C 1.070312 0 0.953125 -0.046875 0.859375 -0.140625 C 0.773438 -0.234375 0.734375 -0.351562 0.734375 -0.5 L 0.734375 -4.90625 C 0.734375 -5.039062 0.78125 -5.15625 0.875 -5.25 C 0.96875 -5.351562 1.082031 -5.40625 1.21875 -5.40625 C 1.363281 -5.40625 1.484375 -5.351562 1.578125 -5.25 C 1.671875 -5.15625 1.71875 -5.039062 1.71875 -4.90625 L 1.71875 -4.546875 C 1.894531 -4.816406 2.140625 -5.046875 2.453125 -5.234375 C 2.773438 -5.429688 3.117188 -5.53125 3.484375 -5.53125 Z M 3.484375 -5.53125 "/></g></g></g><g fill="#000000" fill-opacity="1"><g transform="translate(189.187445, 325.064657)"><g><path d="M 3.078125 -5.53125 C 3.617188 -5.53125 4.070312 -5.441406 4.4375 -5.265625 C 4.800781 -5.097656 4.984375 -4.878906 4.984375 -4.609375 C 4.984375 -4.492188 4.941406 -4.390625 4.859375 -4.296875 C 4.785156 -4.203125 4.691406 -4.15625 4.578125 -4.15625 C 4.484375 -4.15625 4.410156 -4.164062 4.359375 -4.1875 C 4.316406 -4.21875 4.25 -4.265625 4.15625 -4.328125 C 4.113281 -4.367188 4.046875 -4.414062 3.953125 -4.46875 C 3.878906 -4.507812 3.765625 -4.546875 3.609375 -4.578125 C 3.453125 -4.609375 3.316406 -4.625 3.203125 -4.625 C 2.835938 -4.625 2.515625 -4.539062 2.234375 -4.375 C 1.960938 -4.207031 1.75 -3.976562 1.59375 -3.6875 C 1.445312 -3.394531 1.375 -3.070312 1.375 -2.71875 C 1.375 -2.351562 1.445312 -2.023438 1.59375 -1.734375 C 1.75 -1.441406 1.957031 -1.210938 2.21875 -1.046875 C 2.488281 -0.878906 2.796875 -0.796875 3.140625 -0.796875 C 3.503906 -0.796875 3.796875 -0.851562 4.015625 -0.96875 C 4.054688 -1 4.117188 -1.046875 4.203125 -1.109375 C 4.273438 -1.160156 4.335938 -1.195312 4.390625 -1.21875 C 4.441406 -1.25 4.503906 -1.265625 4.578125 -1.265625 C 4.710938 -1.265625 4.816406 -1.222656 4.890625 -1.140625 C 4.972656 -1.054688 5.015625 -0.941406 5.015625 -0.796875 C 5.015625 -0.660156 4.921875 -0.519531 4.734375 -0.375 C 4.554688 -0.238281 4.316406 -0.125 4.015625 -0.03125 C 3.710938 0.0625 3.382812 0.109375 3.03125 0.109375 C 2.507812 0.109375 2.046875 -0.0078125 1.640625 -0.25 C 1.242188 -0.5 0.9375 -0.835938 0.71875 -1.265625 C 0.507812 -1.703125 0.40625 -2.1875 0.40625 -2.71875 C 0.40625 -3.238281 0.515625 -3.710938 0.734375 -4.140625 C 0.960938 -4.578125 1.28125 -4.914062 1.6875 -5.15625 C 2.09375 -5.40625 2.554688 -5.53125 3.078125 -5.53125 Z M 3.078125 -5.53125 "/></g></g></g><g fill="#000000" fill-opacity="1"><g transform="translate(195.100457, 325.064657)"><g><path d="M 5.46875 -2.90625 C 5.46875 -2.78125 5.414062 -2.675781 5.3125 -2.59375 C 5.21875 -2.507812 5.109375 -2.46875 4.984375 -2.46875 L 1.34375 -2.46875 C 1.394531 -1.96875 1.585938 -1.5625 1.921875 -1.25 C 2.253906 -0.945312 2.660156 -0.796875 3.140625 -0.796875 C 3.472656 -0.796875 3.742188 -0.84375 3.953125 -0.9375 C 4.160156 -1.039062 4.34375 -1.164062 4.5 -1.3125 C 4.601562 -1.375 4.703125 -1.40625 4.796875 -1.40625 C 4.910156 -1.40625 5.003906 -1.363281 5.078125 -1.28125 C 5.160156 -1.207031 5.203125 -1.113281 5.203125 -1 C 5.203125 -0.851562 5.132812 -0.722656 5 -0.609375 C 4.800781 -0.410156 4.535156 -0.238281 4.203125 -0.09375 C 3.878906 0.0390625 3.546875 0.109375 3.203125 0.109375 C 2.640625 0.109375 2.144531 -0.00390625 1.71875 -0.234375 C 1.300781 -0.472656 0.976562 -0.800781 0.75 -1.21875 C 0.519531 -1.644531 0.40625 -2.125 0.40625 -2.65625 C 0.40625 -3.226562 0.519531 -3.734375 0.75 -4.171875 C 0.988281 -4.609375 1.300781 -4.941406 1.6875 -5.171875 C 2.082031 -5.410156 2.503906 -5.53125 2.953125 -5.53125 C 3.390625 -5.53125 3.800781 -5.414062 4.1875 -5.1875 C 4.570312 -4.957031 4.878906 -4.644531 5.109375 -4.25 C 5.347656 -3.851562 5.46875 -3.40625 5.46875 -2.90625 Z M 2.953125 -4.625 C 2.566406 -4.625 2.234375 -4.515625 1.953125 -4.296875 C 1.671875 -4.078125 1.484375 -3.742188 1.390625 -3.296875 L 4.4375 -3.296875 L 4.4375 -3.375 C 4.40625 -3.738281 4.238281 -4.035156 3.9375 -4.265625 C 3.644531 -4.503906 3.316406 -4.625 2.953125 -4.625 Z M 2.953125 -4.625 "/></g></g></g><g fill="#000000" fill-opacity="1"><g transform="translate(175.114856, 334.814656)"><g><path d="M 4.828125 -0.90625 C 4.953125 -0.90625 5.0625 -0.859375 5.15625 -0.765625 C 5.25 -0.679688 5.296875 -0.570312 5.296875 -0.4375 C 5.296875 -0.3125 5.25 -0.207031 5.15625 -0.125 C 5.0625 -0.0390625 4.953125 0 4.828125 0 L 1.171875 0 C 1.023438 0 0.90625 -0.0390625 0.8125 -0.125 C 0.726562 -0.21875 0.6875 -0.332031 0.6875 -0.46875 C 0.6875 -0.59375 0.734375 -0.710938 0.828125 -0.828125 L 3.140625 -3.328125 C 3.773438 -4.003906 4.09375 -4.601562 4.09375 -5.125 C 4.09375 -5.5 3.96875 -5.804688 3.71875 -6.046875 C 3.476562 -6.296875 3.171875 -6.421875 2.796875 -6.421875 C 2.535156 -6.421875 2.289062 -6.347656 2.0625 -6.203125 C 1.832031 -6.054688 1.644531 -5.847656 1.5 -5.578125 C 1.382812 -5.429688 1.253906 -5.359375 1.109375 -5.359375 C 0.984375 -5.359375 0.867188 -5.398438 0.765625 -5.484375 C 0.671875 -5.578125 0.625 -5.6875 0.625 -5.8125 C 0.625 -5.882812 0.648438 -5.960938 0.703125 -6.046875 C 0.753906 -6.128906 0.828125 -6.222656 0.921875 -6.328125 C 1.148438 -6.628906 1.4375 -6.867188 1.78125 -7.046875 C 2.132812 -7.234375 2.488281 -7.328125 2.84375 -7.328125 C 3.300781 -7.328125 3.695312 -7.234375 4.03125 -7.046875 C 4.375 -6.859375 4.632812 -6.601562 4.8125 -6.28125 C 5 -5.957031 5.09375 -5.585938 5.09375 -5.171875 C 5.09375 -4.378906 4.664062 -3.523438 3.8125 -2.609375 L 2.265625 -0.90625 Z M 4.828125 -0.90625 "/></g></g></g><g fill="#000000" fill-opacity="1"><g transform="translate(181.388391, 334.814656)"><g><path d="M 3.125 0.109375 C 2.5625 0.109375 2.078125 -0.046875 1.671875 -0.359375 C 1.273438 -0.679688 0.972656 -1.117188 0.765625 -1.671875 C 0.566406 -2.234375 0.46875 -2.878906 0.46875 -3.609375 C 0.46875 -4.335938 0.566406 -4.976562 0.765625 -5.53125 C 0.972656 -6.09375 1.273438 -6.53125 1.671875 -6.84375 C 2.078125 -7.164062 2.5625 -7.328125 3.125 -7.328125 C 3.6875 -7.328125 4.164062 -7.164062 4.5625 -6.84375 C 4.96875 -6.53125 5.269531 -6.09375 5.46875 -5.53125 C 5.675781 -4.976562 5.78125 -4.335938 5.78125 -3.609375 C 5.78125 -2.878906 5.675781 -2.234375 5.46875 -1.671875 C 5.269531 -1.117188 4.96875 -0.679688 4.5625 -0.359375 C 4.164062 -0.046875 3.6875 0.109375 3.125 0.109375 Z M 3.125 -0.890625 C 3.625 -0.890625 4.015625 -1.125 4.296875 -1.59375 C 4.578125 -2.070312 4.71875 -2.742188 4.71875 -3.609375 C 4.71875 -4.472656 4.578125 -5.140625 4.296875 -5.609375 C 4.015625 -6.085938 3.625 -6.328125 3.125 -6.328125 C 2.625 -6.328125 2.234375 -6.085938 1.953125 -5.609375 C 1.671875 -5.140625 1.53125 -4.472656 1.53125 -3.609375 C 1.53125 -2.742188 1.671875 -2.070312 1.953125 -1.59375 C 2.234375 -1.125 2.625 -0.890625 3.125 -0.890625 Z M 3.125 -0.890625 "/></g></g></g><g fill="#000000" fill-opacity="1"><g transform="translate(188.249077, 334.814656)"><g><path d="M 4.828125 -0.90625 C 4.953125 -0.90625 5.0625 -0.859375 5.15625 -0.765625 C 5.25 -0.679688 5.296875 -0.570312 5.296875 -0.4375 C 5.296875 -0.3125 5.25 -0.207031 5.15625 -0.125 C 5.0625 -0.0390625 4.953125 0 4.828125 0 L 1.171875 0 C 1.023438 0 0.90625 -0.0390625 0.8125 -0.125 C 0.726562 -0.21875 0.6875 -0.332031 0.6875 -0.46875 C 0.6875 -0.59375 0.734375 -0.710938 0.828125 -0.828125 L 3.140625 -3.328125 C 3.773438 -4.003906 4.09375 -4.601562 4.09375 -5.125 C 4.09375 -5.5 3.96875 -5.804688 3.71875 -6.046875 C 3.476562 -6.296875 3.171875 -6.421875 2.796875 -6.421875 C 2.535156 -6.421875 2.289062 -6.347656 2.0625 -6.203125 C 1.832031 -6.054688 1.644531 -5.847656 1.5 -5.578125 C 1.382812 -5.429688 1.253906 -5.359375 1.109375 -5.359375 C 0.984375 -5.359375 0.867188 -5.398438 0.765625 -5.484375 C 0.671875 -5.578125 0.625 -5.6875 0.625 -5.8125 C 0.625 -5.882812 0.648438 -5.960938 0.703125 -6.046875 C 0.753906 -6.128906 0.828125 -6.222656 0.921875 -6.328125 C 1.148438 -6.628906 1.4375 -6.867188 1.78125 -7.046875 C 2.132812 -7.234375 2.488281 -7.328125 2.84375 -7.328125 C 3.300781 -7.328125 3.695312 -7.234375 4.03125 -7.046875 C 4.375 -6.859375 4.632812 -6.601562 4.8125 -6.28125 C 5 -5.957031 5.09375 -5.585938 5.09375 -5.171875 C 5.09375 -4.378906 4.664062 -3.523438 3.8125 -2.609375 L 2.265625 -0.90625 Z M 4.828125 -0.90625 "/></g></g></g><g fill="#000000" fill-opacity="1"><g transform="translate(194.522612, 334.814656)"><g><path d="M 2.84375 -4.5625 C 3.226562 -4.5625 3.578125 -4.460938 3.890625 -4.265625 C 4.203125 -4.078125 4.445312 -3.8125 4.625 -3.46875 C 4.8125 -3.132812 4.90625 -2.757812 4.90625 -2.34375 C 4.90625 -1.851562 4.789062 -1.421875 4.5625 -1.046875 C 4.332031 -0.679688 4.015625 -0.394531 3.609375 -0.1875 C 3.210938 0.0078125 2.757812 0.109375 2.25 0.109375 C 1.96875 0.109375 1.695312 0.0703125 1.4375 0 C 1.1875 -0.0820312 0.96875 -0.195312 0.78125 -0.34375 C 0.59375 -0.445312 0.5 -0.585938 0.5 -0.765625 C 0.5 -0.890625 0.546875 -1.007812 0.640625 -1.125 C 0.734375 -1.238281 0.847656 -1.296875 0.984375 -1.296875 C 1.109375 -1.296875 1.226562 -1.25 1.34375 -1.15625 C 1.632812 -0.894531 1.988281 -0.765625 2.40625 -0.765625 C 2.675781 -0.765625 2.925781 -0.828125 3.15625 -0.953125 C 3.382812 -1.078125 3.566406 -1.253906 3.703125 -1.484375 C 3.847656 -1.710938 3.921875 -1.976562 3.921875 -2.28125 C 3.921875 -2.726562 3.78125 -3.070312 3.5 -3.3125 C 3.226562 -3.550781 2.898438 -3.671875 2.515625 -3.671875 C 2.398438 -3.671875 2.242188 -3.644531 2.046875 -3.59375 C 1.890625 -3.550781 1.773438 -3.53125 1.703125 -3.53125 C 1.578125 -3.53125 1.476562 -3.570312 1.40625 -3.65625 C 1.332031 -3.75 1.296875 -3.859375 1.296875 -3.984375 C 1.296875 -4.066406 1.304688 -4.132812 1.328125 -4.1875 C 1.359375 -4.238281 1.40625 -4.304688 1.46875 -4.390625 L 3.21875 -6.3125 L 0.828125 -6.3125 C 0.703125 -6.3125 0.59375 -6.351562 0.5 -6.4375 C 0.414062 -6.53125 0.375 -6.644531 0.375 -6.78125 C 0.375 -6.90625 0.414062 -7.007812 0.5 -7.09375 C 0.59375 -7.175781 0.703125 -7.21875 0.828125 -7.21875 L 4.125 -7.21875 C 4.28125 -7.21875 4.398438 -7.171875 4.484375 -7.078125 C 4.578125 -6.984375 4.625 -6.863281 4.625 -6.71875 C 4.625 -6.59375 4.5625 -6.46875 4.4375 -6.34375 Z M 2.84375 -4.5625 "/></g></g></g></svg>