<svg xmlns="http://www.w3.org/2000/svg" xmlns:xlink="http://www.w3.org/1999/xlink" width="500" zoomAndPan="magnify" viewBox="0 0 375 374.999991" height="500" preserveAspectRatio="xMidYMid meet" version="1.0"><defs><g/><linearGradient x1="0" gradientTransform="matrix(0.75, 0, 0, 0.75, 0.0000045, 0)" y1="0" x2="499.999979" gradientUnits="userSpaceOnUse" y2="0" id="42dc334f7c"><stop stop-opacity="1" stop-color="rgb(0%, 0%, 0%)" offset="0"/><stop stop-opacity="1" stop-color="rgb(0.0808716%, 0.0778198%, 0.312805%)" offset="0.00390625"/><stop stop-opacity="1" stop-color="rgb(0.161743%, 0.15564%, 0.627136%)" offset="0.0078125"/><stop stop-opacity="1" stop-color="rgb(0.242615%, 0.233459%, 0.941467%)" offset="0.0117187"/><stop stop-opacity="1" stop-color="rgb(0.323486%, 0.311279%, 1.255798%)" offset="0.015625"/><stop stop-opacity="1" stop-color="rgb(0.404358%, 0.389099%, 1.568604%)" offset="0.0195312"/><stop stop-opacity="1" stop-color="rgb(0.486755%, 0.468445%, 1.882935%)" offset="0.0234375"/><stop stop-opacity="1" stop-color="rgb(0.567627%, 0.546265%, 2.197266%)" offset="0.0273438"/><stop stop-opacity="1" stop-color="rgb(0.648499%, 0.624084%, 2.511597%)" offset="0.03125"/><stop stop-opacity="1" stop-color="rgb(0.72937%, 0.701904%, 2.825928%)" offset="0.0351562"/><stop stop-opacity="1" stop-color="rgb(0.811768%, 0.779724%, 3.140259%)" offset="0.0390625"/><stop stop-opacity="1" stop-color="rgb(0.892639%, 0.857544%, 3.453064%)" offset="0.0429687"/><stop stop-opacity="1" stop-color="rgb(0.973511%, 0.93689%, 3.767395%)" offset="0.046875"/><stop stop-opacity="1" stop-color="rgb(1.054382%, 1.014709%, 4.081726%)" offset="0.0507812"/><stop stop-opacity="1" stop-color="rgb(1.13678%, 1.092529%, 4.396057%)" offset="0.0546875"/><stop stop-opacity="1" stop-color="rgb(1.217651%, 1.170349%, 4.710388%)" offset="0.0585938"/><stop stop-opacity="1" stop-color="rgb(1.298523%, 1.249695%, 5.024719%)" offset="0.0625"/><stop stop-opacity="1" stop-color="rgb(1.379395%, 1.327515%, 5.337524%)" offset="0.0664062"/><stop stop-opacity="1" stop-color="rgb(1.461792%, 1.405334%, 5.651855%)" offset="0.0703125"/><stop stop-opacity="1" stop-color="rgb(1.542664%, 1.483154%, 5.966187%)" offset="0.0742187"/><stop stop-opacity="1" stop-color="rgb(1.623535%, 1.560974%, 6.280518%)" offset="0.078125"/><stop stop-opacity="1" stop-color="rgb(1.704407%, 1.638794%, 6.594849%)" offset="0.0820312"/><stop stop-opacity="1" stop-color="rgb(1.786804%, 1.71814%, 6.90918%)" offset="0.0859375"/><stop stop-opacity="1" stop-color="rgb(1.867676%, 1.795959%, 7.221985%)" offset="0.0898437"/><stop stop-opacity="1" stop-color="rgb(1.948547%, 1.873779%, 7.536316%)" offset="0.09375"/><stop stop-opacity="1" stop-color="rgb(2.029419%, 1.951599%, 7.850647%)" offset="0.0976562"/><stop stop-opacity="1" stop-color="rgb(2.111816%, 2.030945%, 8.164978%)" offset="0.101562"/><stop stop-opacity="1" stop-color="rgb(2.192688%, 2.108765%, 8.479309%)" offset="0.105469"/><stop stop-opacity="1" stop-color="rgb(2.27356%, 2.186584%, 8.79364%)" offset="0.109375"/><stop stop-opacity="1" stop-color="rgb(2.354431%, 2.264404%, 9.106445%)" offset="0.113281"/><stop stop-opacity="1" stop-color="rgb(2.436829%, 2.342224%, 9.420776%)" offset="0.117188"/><stop stop-opacity="1" stop-color="rgb(2.5177%, 2.420044%, 9.735107%)" offset="0.121094"/><stop stop-opacity="1" stop-color="rgb(2.598572%, 2.49939%, 10.049438%)" offset="0.125"/><stop stop-opacity="1" stop-color="rgb(2.679443%, 2.577209%, 10.36377%)" offset="0.128906"/><stop stop-opacity="1" stop-color="rgb(2.761841%, 2.655029%, 10.678101%)" offset="0.132812"/><stop stop-opacity="1" stop-color="rgb(2.842712%, 2.732849%, 10.990906%)" offset="0.136719"/><stop stop-opacity="1" stop-color="rgb(2.923584%, 2.812195%, 11.305237%)" offset="0.140625"/><stop stop-opacity="1" stop-color="rgb(3.004456%, 2.890015%, 11.619568%)" offset="0.144531"/><stop stop-opacity="1" stop-color="rgb(3.086853%, 2.967834%, 11.933899%)" offset="0.148437"/><stop stop-opacity="1" stop-color="rgb(3.167725%, 3.045654%, 12.246704%)" offset="0.152344"/><stop stop-opacity="1" stop-color="rgb(3.248596%, 3.123474%, 12.561035%)" offset="0.15625"/><stop stop-opacity="1" stop-color="rgb(3.329468%, 3.201294%, 12.875366%)" offset="0.160156"/><stop stop-opacity="1" stop-color="rgb(3.411865%, 3.28064%, 13.189697%)" offset="0.164062"/><stop stop-opacity="1" stop-color="rgb(3.492737%, 3.358459%, 13.504028%)" offset="0.167969"/><stop stop-opacity="1" stop-color="rgb(3.573608%, 3.436279%, 13.818359%)" offset="0.171875"/><stop stop-opacity="1" stop-color="rgb(3.65448%, 3.514099%, 14.131165%)" offset="0.175781"/><stop stop-opacity="1" stop-color="rgb(3.736877%, 3.593445%, 14.445496%)" offset="0.179687"/><stop stop-opacity="1" stop-color="rgb(3.817749%, 3.671265%, 14.759827%)" offset="0.183594"/><stop stop-opacity="1" stop-color="rgb(3.898621%, 3.749084%, 15.074158%)" offset="0.1875"/><stop stop-opacity="1" stop-color="rgb(3.979492%, 3.826904%, 15.388489%)" offset="0.191406"/><stop stop-opacity="1" stop-color="rgb(4.06189%, 3.904724%, 15.70282%)" offset="0.195312"/><stop stop-opacity="1" stop-color="rgb(4.142761%, 3.982544%, 16.015625%)" offset="0.199219"/><stop stop-opacity="1" stop-color="rgb(4.223633%, 4.06189%, 16.329956%)" offset="0.203125"/><stop stop-opacity="1" stop-color="rgb(4.304504%, 4.139709%, 16.644287%)" offset="0.207031"/><stop stop-opacity="1" stop-color="rgb(4.386902%, 4.217529%, 16.958618%)" offset="0.210938"/><stop stop-opacity="1" stop-color="rgb(4.467773%, 4.295349%, 17.272949%)" offset="0.214844"/><stop stop-opacity="1" stop-color="rgb(4.548645%, 4.374695%, 17.58728%)" offset="0.21875"/><stop stop-opacity="1" stop-color="rgb(4.629517%, 4.452515%, 17.900085%)" offset="0.222656"/><stop stop-opacity="1" stop-color="rgb(4.711914%, 4.530334%, 18.214417%)" offset="0.226562"/><stop stop-opacity="1" stop-color="rgb(4.792786%, 4.608154%, 18.528748%)" offset="0.230469"/><stop stop-opacity="1" stop-color="rgb(4.873657%, 4.685974%, 18.843079%)" offset="0.234375"/><stop stop-opacity="1" stop-color="rgb(4.954529%, 4.763794%, 19.15741%)" offset="0.238281"/><stop stop-opacity="1" stop-color="rgb(5.036926%, 4.84314%, 19.471741%)" offset="0.242188"/><stop stop-opacity="1" stop-color="rgb(5.117798%, 4.920959%, 19.784546%)" offset="0.246094"/><stop stop-opacity="1" stop-color="rgb(5.198669%, 4.998779%, 20.098877%)" offset="0.25"/><stop stop-opacity="1" stop-color="rgb(5.279541%, 5.076599%, 20.413208%)" offset="0.253906"/><stop stop-opacity="1" stop-color="rgb(5.361938%, 5.155945%, 20.727539%)" offset="0.257812"/><stop stop-opacity="1" stop-color="rgb(5.44281%, 5.233765%, 21.04187%)" offset="0.261719"/><stop stop-opacity="1" stop-color="rgb(5.523682%, 5.311584%, 21.356201%)" offset="0.265625"/><stop stop-opacity="1" stop-color="rgb(5.604553%, 5.389404%, 21.669006%)" offset="0.269531"/><stop stop-opacity="1" stop-color="rgb(5.686951%, 5.467224%, 21.983337%)" offset="0.273437"/><stop stop-opacity="1" stop-color="rgb(5.767822%, 5.545044%, 22.297668%)" offset="0.277344"/><stop stop-opacity="1" stop-color="rgb(5.848694%, 5.62439%, 22.612%)" offset="0.28125"/><stop stop-opacity="1" stop-color="rgb(5.929565%, 5.702209%, 22.924805%)" offset="0.285156"/><stop stop-opacity="1" stop-color="rgb(6.011963%, 5.780029%, 23.239136%)" offset="0.289062"/><stop stop-opacity="1" stop-color="rgb(6.092834%, 5.857849%, 23.553467%)" offset="0.292969"/><stop stop-opacity="1" stop-color="rgb(6.173706%, 5.937195%, 23.867798%)" offset="0.296875"/><stop stop-opacity="1" stop-color="rgb(6.254578%, 6.015015%, 24.182129%)" offset="0.300781"/><stop stop-opacity="1" stop-color="rgb(6.336975%, 6.092834%, 24.49646%)" offset="0.304687"/><stop stop-opacity="1" stop-color="rgb(6.417847%, 6.170654%, 24.809265%)" offset="0.308594"/><stop stop-opacity="1" stop-color="rgb(6.498718%, 6.248474%, 25.123596%)" offset="0.3125"/><stop stop-opacity="1" stop-color="rgb(6.57959%, 6.326294%, 25.437927%)" offset="0.316406"/><stop stop-opacity="1" stop-color="rgb(6.661987%, 6.40564%, 25.752258%)" offset="0.320312"/><stop stop-opacity="1" stop-color="rgb(6.742859%, 6.483459%, 26.066589%)" offset="0.324219"/><stop stop-opacity="1" stop-color="rgb(6.82373%, 6.561279%, 26.38092%)" offset="0.328125"/><stop stop-opacity="1" stop-color="rgb(6.904602%, 6.639099%, 26.693726%)" offset="0.332031"/><stop stop-opacity="1" stop-color="rgb(6.987%, 6.718445%, 27.008057%)" offset="0.335937"/><stop stop-opacity="1" stop-color="rgb(7.067871%, 6.796265%, 27.322388%)" offset="0.339844"/><stop stop-opacity="1" stop-color="rgb(7.148743%, 6.874084%, 27.636719%)" offset="0.34375"/><stop stop-opacity="1" stop-color="rgb(7.229614%, 6.951904%, 27.95105%)" offset="0.347656"/><stop stop-opacity="1" stop-color="rgb(7.312012%, 7.029724%, 28.265381%)" offset="0.351562"/><stop stop-opacity="1" stop-color="rgb(7.392883%, 7.107544%, 28.578186%)" offset="0.355469"/><stop stop-opacity="1" stop-color="rgb(7.473755%, 7.18689%, 28.892517%)" offset="0.359375"/><stop stop-opacity="1" stop-color="rgb(7.554626%, 7.264709%, 29.206848%)" offset="0.363281"/><stop stop-opacity="1" stop-color="rgb(7.637024%, 7.342529%, 29.521179%)" offset="0.367187"/><stop stop-opacity="1" stop-color="rgb(7.717896%, 7.420349%, 29.83551%)" offset="0.371094"/><stop stop-opacity="1" stop-color="rgb(7.798767%, 7.499695%, 30.149841%)" offset="0.375"/><stop stop-opacity="1" stop-color="rgb(7.879639%, 7.577515%, 30.462646%)" offset="0.378906"/><stop stop-opacity="1" stop-color="rgb(7.962036%, 7.655334%, 30.776978%)" offset="0.382812"/><stop stop-opacity="1" stop-color="rgb(8.042908%, 7.733154%, 31.091309%)" offset="0.386719"/><stop stop-opacity="1" stop-color="rgb(8.123779%, 7.810974%, 31.40564%)" offset="0.390625"/><stop stop-opacity="1" stop-color="rgb(8.204651%, 7.888794%, 31.719971%)" offset="0.394531"/><stop stop-opacity="1" stop-color="rgb(8.287048%, 7.96814%, 32.034302%)" offset="0.398438"/><stop stop-opacity="1" stop-color="rgb(8.36792%, 8.045959%, 32.347107%)" offset="0.402344"/><stop stop-opacity="1" stop-color="rgb(8.448792%, 8.123779%, 32.661438%)" offset="0.40625"/><stop stop-opacity="1" stop-color="rgb(8.529663%, 8.201599%, 32.975769%)" offset="0.410156"/><stop stop-opacity="1" stop-color="rgb(8.612061%, 8.280945%, 33.2901%)" offset="0.414062"/><stop stop-opacity="1" stop-color="rgb(8.692932%, 8.358765%, 33.602905%)" offset="0.417969"/><stop stop-opacity="1" stop-color="rgb(8.773804%, 8.436584%, 33.917236%)" offset="0.421875"/><stop stop-opacity="1" stop-color="rgb(8.854675%, 8.514404%, 34.231567%)" offset="0.425781"/><stop stop-opacity="1" stop-color="rgb(8.937073%, 8.592224%, 34.545898%)" offset="0.429688"/><stop stop-opacity="1" stop-color="rgb(9.017944%, 8.670044%, 34.860229%)" offset="0.433594"/><stop stop-opacity="1" stop-color="rgb(9.098816%, 8.74939%, 35.174561%)" offset="0.4375"/><stop stop-opacity="1" stop-color="rgb(9.179688%, 8.827209%, 35.487366%)" offset="0.441406"/><stop stop-opacity="1" stop-color="rgb(9.262085%, 8.905029%, 35.801697%)" offset="0.445312"/><stop stop-opacity="1" stop-color="rgb(9.342957%, 8.982849%, 36.116028%)" offset="0.449219"/><stop stop-opacity="1" stop-color="rgb(9.423828%, 9.062195%, 36.430359%)" offset="0.453125"/><stop stop-opacity="1" stop-color="rgb(9.5047%, 9.140015%, 36.74469%)" offset="0.457031"/><stop stop-opacity="1" stop-color="rgb(9.587097%, 9.217834%, 37.059021%)" offset="0.460938"/><stop stop-opacity="1" stop-color="rgb(9.667969%, 9.295654%, 37.371826%)" offset="0.464844"/><stop stop-opacity="1" stop-color="rgb(9.74884%, 9.373474%, 37.686157%)" offset="0.46875"/><stop stop-opacity="1" stop-color="rgb(9.829712%, 9.451294%, 38.000488%)" offset="0.472656"/><stop stop-opacity="1" stop-color="rgb(9.912109%, 9.53064%, 38.314819%)" offset="0.476562"/><stop stop-opacity="1" stop-color="rgb(9.992981%, 9.608459%, 38.62915%)" offset="0.480469"/><stop stop-opacity="1" stop-color="rgb(10.073853%, 9.686279%, 38.943481%)" offset="0.484375"/><stop stop-opacity="1" stop-color="rgb(10.154724%, 9.764099%, 39.256287%)" offset="0.488281"/><stop stop-opacity="1" stop-color="rgb(10.237122%, 9.843445%, 39.570618%)" offset="0.492188"/><stop stop-opacity="1" stop-color="rgb(10.317993%, 9.921265%, 39.884949%)" offset="0.496094"/><stop stop-opacity="1" stop-color="rgb(10.398865%, 9.999084%, 40.19928%)" offset="0.5"/><stop stop-opacity="1" stop-color="rgb(10.479736%, 10.076904%, 40.513611%)" offset="0.503906"/><stop stop-opacity="1" stop-color="rgb(10.562134%, 10.154724%, 40.827942%)" offset="0.507812"/><stop stop-opacity="1" stop-color="rgb(10.643005%, 10.232544%, 41.140747%)" offset="0.511719"/><stop stop-opacity="1" stop-color="rgb(10.723877%, 10.31189%, 41.455078%)" offset="0.515625"/><stop stop-opacity="1" stop-color="rgb(10.804749%, 10.389709%, 41.769409%)" offset="0.519531"/><stop stop-opacity="1" stop-color="rgb(10.887146%, 10.467529%, 42.08374%)" offset="0.523437"/><stop stop-opacity="1" stop-color="rgb(10.968018%, 10.545349%, 42.398071%)" offset="0.527344"/><stop stop-opacity="1" stop-color="rgb(11.048889%, 10.624695%, 42.712402%)" offset="0.53125"/><stop stop-opacity="1" stop-color="rgb(11.129761%, 10.702515%, 43.025208%)" offset="0.535156"/><stop stop-opacity="1" stop-color="rgb(11.212158%, 10.780334%, 43.339539%)" offset="0.539062"/><stop stop-opacity="1" stop-color="rgb(11.29303%, 10.858154%, 43.65387%)" offset="0.542969"/><stop stop-opacity="1" stop-color="rgb(11.373901%, 10.935974%, 43.968201%)" offset="0.546875"/><stop stop-opacity="1" stop-color="rgb(11.454773%, 11.013794%, 44.282532%)" offset="0.550781"/><stop stop-opacity="1" stop-color="rgb(11.53717%, 11.09314%, 44.596863%)" offset="0.554687"/><stop stop-opacity="1" stop-color="rgb(11.618042%, 11.170959%, 44.909668%)" offset="0.558594"/><stop stop-opacity="1" stop-color="rgb(11.698914%, 11.248779%, 45.223999%)" offset="0.5625"/><stop stop-opacity="1" stop-color="rgb(11.779785%, 11.326599%, 45.53833%)" offset="0.566406"/><stop stop-opacity="1" stop-color="rgb(11.862183%, 11.405945%, 45.852661%)" offset="0.570312"/><stop stop-opacity="1" stop-color="rgb(11.943054%, 11.483765%, 46.165466%)" offset="0.574219"/><stop stop-opacity="1" stop-color="rgb(12.023926%, 11.561584%, 46.479797%)" offset="0.578125"/><stop stop-opacity="1" stop-color="rgb(12.104797%, 11.639404%, 46.794128%)" offset="0.582031"/><stop stop-opacity="1" stop-color="rgb(12.187195%, 11.717224%, 47.108459%)" offset="0.585937"/><stop stop-opacity="1" stop-color="rgb(12.268066%, 11.795044%, 47.422791%)" offset="0.589844"/><stop stop-opacity="1" stop-color="rgb(12.348938%, 11.87439%, 47.737122%)" offset="0.59375"/><stop stop-opacity="1" stop-color="rgb(12.42981%, 11.952209%, 48.049927%)" offset="0.597656"/><stop stop-opacity="1" stop-color="rgb(12.512207%, 12.030029%, 48.364258%)" offset="0.601562"/><stop stop-opacity="1" stop-color="rgb(12.593079%, 12.107849%, 48.678589%)" offset="0.605469"/><stop stop-opacity="1" stop-color="rgb(12.67395%, 12.187195%, 48.99292%)" offset="0.609375"/><stop stop-opacity="1" stop-color="rgb(12.754822%, 12.265015%, 49.307251%)" offset="0.613281"/><stop stop-opacity="1" stop-color="rgb(12.837219%, 12.342834%, 49.621582%)" offset="0.617187"/><stop stop-opacity="1" stop-color="rgb(12.918091%, 12.420654%, 49.934387%)" offset="0.621094"/><stop stop-opacity="1" stop-color="rgb(12.998962%, 12.498474%, 50.248718%)" offset="0.625"/><stop stop-opacity="1" stop-color="rgb(13.079834%, 12.576294%, 50.563049%)" offset="0.628906"/><stop stop-opacity="1" stop-color="rgb(13.162231%, 12.65564%, 50.87738%)" offset="0.632812"/><stop stop-opacity="1" stop-color="rgb(13.243103%, 12.733459%, 51.191711%)" offset="0.636719"/><stop stop-opacity="1" stop-color="rgb(13.323975%, 12.811279%, 51.506042%)" offset="0.640625"/><stop stop-opacity="1" stop-color="rgb(13.404846%, 12.889099%, 51.818848%)" offset="0.644531"/><stop stop-opacity="1" stop-color="rgb(13.487244%, 12.968445%, 52.133179%)" offset="0.648437"/><stop stop-opacity="1" stop-color="rgb(13.568115%, 13.046265%, 52.44751%)" offset="0.652344"/><stop stop-opacity="1" stop-color="rgb(13.648987%, 13.124084%, 52.761841%)" offset="0.65625"/><stop stop-opacity="1" stop-color="rgb(13.729858%, 13.201904%, 53.076172%)" offset="0.660156"/><stop stop-opacity="1" stop-color="rgb(13.812256%, 13.279724%, 53.390503%)" offset="0.664062"/><stop stop-opacity="1" stop-color="rgb(13.893127%, 13.357544%, 53.703308%)" offset="0.667969"/><stop stop-opacity="1" stop-color="rgb(13.973999%, 13.43689%, 54.017639%)" offset="0.671875"/><stop stop-opacity="1" stop-color="rgb(14.054871%, 13.514709%, 54.33197%)" offset="0.675781"/><stop stop-opacity="1" stop-color="rgb(14.137268%, 13.592529%, 54.646301%)" offset="0.679687"/><stop stop-opacity="1" stop-color="rgb(14.21814%, 13.670349%, 54.960632%)" offset="0.683594"/><stop stop-opacity="1" stop-color="rgb(14.299011%, 13.749695%, 55.274963%)" offset="0.6875"/><stop stop-opacity="1" stop-color="rgb(14.379883%, 13.827515%, 55.587769%)" offset="0.691406"/><stop stop-opacity="1" stop-color="rgb(14.46228%, 13.905334%, 55.9021%)" offset="0.695312"/><stop stop-opacity="1" stop-color="rgb(14.543152%, 13.983154%, 56.216431%)" offset="0.699219"/><stop stop-opacity="1" stop-color="rgb(14.624023%, 14.060974%, 56.530762%)" offset="0.703125"/><stop stop-opacity="1" stop-color="rgb(14.704895%, 14.138794%, 56.843567%)" offset="0.707031"/><stop stop-opacity="1" stop-color="rgb(14.787292%, 14.21814%, 57.157898%)" offset="0.710937"/><stop stop-opacity="1" stop-color="rgb(14.868164%, 14.295959%, 57.472229%)" offset="0.714844"/><stop stop-opacity="1" stop-color="rgb(14.949036%, 14.373779%, 57.78656%)" offset="0.71875"/><stop stop-opacity="1" stop-color="rgb(15.029907%, 14.451599%, 58.100891%)" offset="0.722656"/><stop stop-opacity="1" stop-color="rgb(15.112305%, 14.530945%, 58.415222%)" offset="0.726562"/><stop stop-opacity="1" stop-color="rgb(15.193176%, 14.608765%, 58.728027%)" offset="0.730469"/><stop stop-opacity="1" stop-color="rgb(15.274048%, 14.686584%, 59.042358%)" offset="0.734375"/><stop stop-opacity="1" stop-color="rgb(15.354919%, 14.764404%, 59.356689%)" offset="0.738281"/><stop stop-opacity="1" stop-color="rgb(15.437317%, 14.842224%, 59.671021%)" offset="0.742187"/><stop stop-opacity="1" stop-color="rgb(15.518188%, 14.920044%, 59.985352%)" offset="0.746094"/><stop stop-opacity="1" stop-color="rgb(15.59906%, 14.99939%, 60.299683%)" offset="0.75"/><stop stop-opacity="1" stop-color="rgb(15.679932%, 15.077209%, 60.612488%)" offset="0.753906"/><stop stop-opacity="1" stop-color="rgb(15.762329%, 15.155029%, 60.926819%)" offset="0.757812"/><stop stop-opacity="1" stop-color="rgb(15.843201%, 15.232849%, 61.24115%)" offset="0.761719"/><stop stop-opacity="1" stop-color="rgb(15.924072%, 15.312195%, 61.555481%)" offset="0.765625"/><stop stop-opacity="1" stop-color="rgb(16.004944%, 15.390015%, 61.869812%)" offset="0.769531"/><stop stop-opacity="1" stop-color="rgb(16.087341%, 15.467834%, 62.184143%)" offset="0.773438"/><stop stop-opacity="1" stop-color="rgb(16.168213%, 15.545654%, 62.496948%)" offset="0.777344"/><stop stop-opacity="1" stop-color="rgb(16.249084%, 15.623474%, 62.811279%)" offset="0.78125"/><stop stop-opacity="1" stop-color="rgb(16.329956%, 15.701294%, 63.12561%)" offset="0.785156"/><stop stop-opacity="1" stop-color="rgb(16.412354%, 15.78064%, 63.439941%)" offset="0.789062"/><stop stop-opacity="1" stop-color="rgb(16.493225%, 15.858459%, 63.754272%)" offset="0.792969"/><stop stop-opacity="1" stop-color="rgb(16.574097%, 15.936279%, 64.068604%)" offset="0.796875"/><stop stop-opacity="1" stop-color="rgb(16.654968%, 16.014099%, 64.381409%)" offset="0.800781"/><stop stop-opacity="1" stop-color="rgb(16.737366%, 16.093445%, 64.69574%)" offset="0.804688"/><stop stop-opacity="1" stop-color="rgb(16.818237%, 16.171265%, 65.010071%)" offset="0.808594"/><stop stop-opacity="1" stop-color="rgb(16.899109%, 16.249084%, 65.324402%)" offset="0.8125"/><stop stop-opacity="1" stop-color="rgb(16.97998%, 16.326904%, 65.638733%)" offset="0.816406"/><stop stop-opacity="1" stop-color="rgb(17.062378%, 16.404724%, 65.953064%)" offset="0.820312"/><stop stop-opacity="1" stop-color="rgb(17.14325%, 16.482544%, 66.265869%)" offset="0.824219"/><stop stop-opacity="1" stop-color="rgb(17.224121%, 16.56189%, 66.5802%)" offset="0.828125"/><stop stop-opacity="1" stop-color="rgb(17.304993%, 16.639709%, 66.894531%)" offset="0.832031"/><stop stop-opacity="1" stop-color="rgb(17.38739%, 16.717529%, 67.208862%)" offset="0.835938"/><stop stop-opacity="1" stop-color="rgb(17.468262%, 16.795349%, 67.521667%)" offset="0.839844"/><stop stop-opacity="1" stop-color="rgb(17.549133%, 16.874695%, 67.835999%)" offset="0.84375"/><stop stop-opacity="1" stop-color="rgb(17.630005%, 16.952515%, 68.15033%)" offset="0.847656"/><stop stop-opacity="1" stop-color="rgb(17.712402%, 17.030334%, 68.464661%)" offset="0.851562"/><stop stop-opacity="1" stop-color="rgb(17.793274%, 17.108154%, 68.778992%)" offset="0.855469"/><stop stop-opacity="1" stop-color="rgb(17.874146%, 17.185974%, 69.093323%)" offset="0.859375"/><stop stop-opacity="1" stop-color="rgb(17.955017%, 17.263794%, 69.406128%)" offset="0.863281"/><stop stop-opacity="1" stop-color="rgb(18.037415%, 17.34314%, 69.720459%)" offset="0.867188"/><stop stop-opacity="1" stop-color="rgb(18.118286%, 17.420959%, 70.03479%)" offset="0.871094"/><stop stop-opacity="1" stop-color="rgb(18.199158%, 17.498779%, 70.349121%)" offset="0.875"/><stop stop-opacity="1" stop-color="rgb(18.280029%, 17.576599%, 70.663452%)" offset="0.878906"/><stop stop-opacity="1" stop-color="rgb(18.362427%, 17.655945%, 70.977783%)" offset="0.882812"/><stop stop-opacity="1" stop-color="rgb(18.443298%, 17.733765%, 71.290588%)" offset="0.886719"/><stop stop-opacity="1" stop-color="rgb(18.52417%, 17.811584%, 71.604919%)" offset="0.890625"/><stop stop-opacity="1" stop-color="rgb(18.605042%, 17.889404%, 71.91925%)" offset="0.894531"/><stop stop-opacity="1" stop-color="rgb(18.687439%, 17.967224%, 72.233582%)" offset="0.898438"/><stop stop-opacity="1" stop-color="rgb(18.768311%, 18.045044%, 72.547913%)" offset="0.902344"/><stop stop-opacity="1" stop-color="rgb(18.849182%, 18.12439%, 72.862244%)" offset="0.90625"/><stop stop-opacity="1" stop-color="rgb(18.930054%, 18.202209%, 73.175049%)" offset="0.910156"/><stop stop-opacity="1" stop-color="rgb(19.012451%, 18.280029%, 73.48938%)" offset="0.914062"/><stop stop-opacity="1" stop-color="rgb(19.093323%, 18.357849%, 73.803711%)" offset="0.917969"/><stop stop-opacity="1" stop-color="rgb(19.174194%, 18.437195%, 74.118042%)" offset="0.921875"/><stop stop-opacity="1" stop-color="rgb(19.255066%, 18.515015%, 74.432373%)" offset="0.925781"/><stop stop-opacity="1" stop-color="rgb(19.337463%, 18.592834%, 74.746704%)" offset="0.929688"/><stop stop-opacity="1" stop-color="rgb(19.418335%, 18.670654%, 75.059509%)" offset="0.933594"/><stop stop-opacity="1" stop-color="rgb(19.499207%, 18.748474%, 75.37384%)" offset="0.9375"/><stop stop-opacity="1" stop-color="rgb(19.580078%, 18.826294%, 75.688171%)" offset="0.941406"/><stop stop-opacity="1" stop-color="rgb(19.662476%, 18.90564%, 76.002502%)" offset="0.945312"/><stop stop-opacity="1" stop-color="rgb(19.743347%, 18.983459%, 76.316833%)" offset="0.949219"/><stop stop-opacity="1" stop-color="rgb(19.824219%, 19.061279%, 76.631165%)" offset="0.953125"/><stop stop-opacity="1" stop-color="rgb(19.90509%, 19.139099%, 76.94397%)" offset="0.957031"/><stop stop-opacity="1" stop-color="rgb(19.987488%, 19.218445%, 77.258301%)" offset="0.960938"/><stop stop-opacity="1" stop-color="rgb(20.068359%, 19.296265%, 77.572632%)" offset="0.964844"/><stop stop-opacity="1" stop-color="rgb(20.149231%, 19.374084%, 77.886963%)" offset="0.96875"/><stop stop-opacity="1" stop-color="rgb(20.230103%, 19.451904%, 78.199768%)" offset="0.972656"/><stop stop-opacity="1" stop-color="rgb(20.310974%, 19.529724%, 78.514099%)" offset="0.976562"/><stop stop-opacity="1" stop-color="rgb(20.391846%, 19.607544%, 78.82843%)" offset="0.980469"/><stop stop-opacity="1" stop-color="rgb(20.474243%, 19.68689%, 79.142761%)" offset="0.984375"/><stop stop-opacity="1" stop-color="rgb(20.555115%, 19.764709%, 79.457092%)" offset="0.988281"/><stop stop-opacity="1" stop-color="rgb(20.635986%, 19.842529%, 79.771423%)" offset="0.992188"/><stop stop-opacity="1" stop-color="rgb(20.716858%, 19.920349%, 80.084229%)" offset="0.996094"/><stop stop-opacity="1" stop-color="rgb(20.799255%, 19.999695%, 80.39856%)" offset="1"/></linearGradient><clipPath id="478d3a6531"><path d="M 104.296875 122 L 164 122 L 164 193.589844 L 104.296875 193.589844 Z M 104.296875 122 " clip-rule="nonzero"/></clipPath><clipPath id="f3885840f2"><path d="M 123 103 L 194 103 L 194 193.589844 L 123 193.589844 Z M 123 103 " clip-rule="nonzero"/></clipPath><clipPath id="215b5bd7fc"><path d="M 179 103 L 251 103 L 251 193.589844 L 179 193.589844 Z M 179 103 " clip-rule="nonzero"/></clipPath><clipPath id="fb85b1bf55"><path d="M 233 155 L 270.796875 155 L 270.796875 193 L 233 193 Z M 233 155 " clip-rule="nonzero"/></clipPath></defs><rect x="-37.5" fill="url(#42dc334f7c)" width="450" y="-37.499999" height="449.999989"/><g clip-path="url(#478d3a6531)"><path fill="#ffffff" d="M 115.148438 124.996094 C 115.761719 124.640625 116.394531 124.320312 117.042969 124.027344 C 117.6875 123.734375 118.347656 123.472656 119.023438 123.246094 C 119.695312 123.019531 120.378906 122.824219 121.070312 122.664062 C 121.761719 122.5 122.460938 122.375 123.164062 122.28125 C 123.871094 122.191406 124.578125 122.132812 125.289062 122.109375 C 126 122.085938 126.707031 122.097656 127.417969 122.144531 C 128.125 122.1875 128.832031 122.269531 129.535156 122.386719 C 130.234375 122.5 130.929688 122.648438 131.613281 122.832031 C 132.300781 123.015625 132.976562 123.230469 133.644531 123.480469 C 134.308594 123.730469 134.960938 124.011719 135.597656 124.324219 C 136.234375 124.636719 136.855469 124.980469 137.457031 125.355469 C 138.0625 125.730469 138.644531 126.132812 139.210938 126.5625 C 139.773438 126.992188 140.316406 127.453125 140.835938 127.933594 C 141.351562 128.417969 141.847656 128.925781 142.316406 129.460938 C 142.785156 129.992188 143.226562 130.546875 143.640625 131.121094 C 144.050781 131.695312 144.4375 132.292969 144.792969 132.90625 L 161.042969 160.964844 C 161.398438 161.578125 161.726562 162.207031 162.019531 162.851562 C 162.3125 163.496094 162.574219 164.152344 162.800781 164.824219 C 163.03125 165.492188 163.226562 166.171875 163.386719 166.863281 C 163.546875 167.550781 163.675781 168.25 163.769531 168.949219 C 163.863281 169.652344 163.921875 170.355469 163.945312 171.0625 C 163.96875 171.773438 163.957031 172.480469 163.910156 173.183594 C 163.863281 173.890625 163.78125 174.59375 163.667969 175.292969 C 163.550781 175.992188 163.402344 176.683594 163.214844 177.367188 C 163.03125 178.050781 162.816406 178.722656 162.566406 179.386719 C 162.316406 180.046875 162.03125 180.695312 161.71875 181.332031 C 161.402344 181.96875 161.058594 182.585938 160.683594 183.1875 C 160.308594 183.789062 159.902344 184.367188 159.472656 184.929688 C 159.039062 185.492188 158.578125 186.03125 158.09375 186.546875 C 157.605469 187.0625 157.097656 187.554688 156.5625 188.023438 C 156.027344 188.488281 155.472656 188.929688 154.894531 189.339844 C 154.316406 189.753906 153.71875 190.136719 153.105469 190.488281 C 152.488281 190.84375 151.855469 191.167969 151.210938 191.460938 C 150.5625 191.753906 149.902344 192.011719 149.230469 192.242188 C 148.554688 192.46875 147.875 192.664062 147.179688 192.824219 C 146.488281 192.984375 145.789062 193.109375 145.085938 193.203125 C 144.382812 193.296875 143.671875 193.355469 142.964844 193.378906 C 142.253906 193.402344 141.542969 193.390625 140.832031 193.34375 C 140.125 193.296875 139.417969 193.214844 138.71875 193.101562 C 138.015625 192.984375 137.324219 192.835938 136.636719 192.652344 C 135.949219 192.46875 135.273438 192.253906 134.609375 192.003906 C 133.941406 191.753906 133.292969 191.472656 132.652344 191.160156 C 132.015625 190.847656 131.394531 190.503906 130.792969 190.128906 C 130.1875 189.757812 129.605469 189.355469 129.039062 188.921875 C 128.476562 188.492188 127.9375 188.035156 127.417969 187.550781 C 126.898438 187.066406 126.40625 186.558594 125.9375 186.027344 C 125.46875 185.492188 125.027344 184.941406 124.613281 184.363281 C 124.199219 183.789062 123.8125 183.195312 123.457031 182.582031 L 107.207031 154.511719 C 106.851562 153.898438 106.527344 153.269531 106.234375 152.625 C 105.9375 151.980469 105.679688 151.324219 105.449219 150.652344 C 105.21875 149.980469 105.023438 149.300781 104.863281 148.613281 C 104.703125 147.921875 104.574219 147.226562 104.480469 146.527344 C 104.390625 145.824219 104.332031 145.117188 104.308594 144.410156 C 104.285156 143.703125 104.296875 142.996094 104.339844 142.289062 C 104.386719 141.585938 104.46875 140.882812 104.585938 140.183594 C 104.699219 139.484375 104.851562 138.792969 105.035156 138.109375 C 105.21875 137.425781 105.433594 136.753906 105.6875 136.089844 C 105.9375 135.425781 106.21875 134.777344 106.53125 134.144531 C 106.847656 133.507812 107.191406 132.890625 107.566406 132.289062 C 107.941406 131.6875 108.347656 131.105469 108.78125 130.546875 C 109.210938 129.984375 109.671875 129.445312 110.15625 128.929688 C 110.644531 128.410156 111.152344 127.917969 111.6875 127.453125 C 112.222656 126.988281 112.777344 126.546875 113.355469 126.132812 C 113.933594 125.722656 114.53125 125.339844 115.148438 124.984375 Z M 115.148438 124.996094 " fill-opacity="1" fill-rule="evenodd"/></g><g clip-path="url(#f3885840f2)"><path fill="#ffffff" d="M 183.046875 105.953125 C 182.429688 105.597656 181.796875 105.273438 181.152344 104.980469 C 180.503906 104.691406 179.84375 104.429688 179.171875 104.203125 C 178.496094 103.972656 177.816406 103.78125 177.121094 103.617188 C 176.429688 103.457031 175.730469 103.332031 175.027344 103.238281 C 174.324219 103.144531 173.613281 103.085938 172.90625 103.066406 C 172.195312 103.042969 171.484375 103.050781 170.773438 103.097656 C 170.066406 103.144531 169.359375 103.226562 168.660156 103.339844 C 167.957031 103.457031 167.265625 103.605469 166.578125 103.789062 C 165.890625 103.972656 165.214844 104.1875 164.550781 104.4375 C 163.882812 104.6875 163.234375 104.96875 162.59375 105.28125 C 161.957031 105.59375 161.335938 105.9375 160.734375 106.3125 C 160.128906 106.683594 159.546875 107.085938 158.984375 107.519531 C 158.417969 107.949219 157.878906 108.40625 157.359375 108.890625 C 156.839844 109.375 156.347656 109.882812 155.878906 110.414062 C 155.410156 110.949219 154.96875 111.503906 154.554688 112.078125 C 154.140625 112.652344 153.753906 113.246094 153.398438 113.859375 L 126.105469 160.964844 C 125.75 161.578125 125.425781 162.207031 125.132812 162.851562 C 124.839844 163.496094 124.578125 164.152344 124.351562 164.824219 C 124.121094 165.492188 123.925781 166.175781 123.765625 166.863281 C 123.605469 167.550781 123.476562 168.25 123.382812 168.949219 C 123.292969 169.652344 123.234375 170.355469 123.210938 171.0625 C 123.1875 171.769531 123.199219 172.476562 123.246094 173.183594 C 123.292969 173.890625 123.371094 174.59375 123.488281 175.292969 C 123.605469 175.988281 123.753906 176.679688 123.9375 177.363281 C 124.121094 178.046875 124.339844 178.722656 124.589844 179.382812 C 124.839844 180.046875 125.121094 180.695312 125.433594 181.332031 C 125.75 181.964844 126.09375 182.582031 126.46875 183.183594 C 126.84375 183.785156 127.25 184.367188 127.679688 184.929688 C 128.113281 185.492188 128.574219 186.03125 129.058594 186.546875 C 129.542969 187.0625 130.054688 187.554688 130.589844 188.019531 C 131.121094 188.488281 131.679688 188.929688 132.257812 189.339844 C 132.835938 189.753906 133.429688 190.136719 134.046875 190.488281 C 134.660156 190.84375 135.292969 191.167969 135.941406 191.460938 C 136.585938 191.75 137.246094 192.011719 137.921875 192.238281 C 138.59375 192.464844 139.277344 192.660156 139.96875 192.820312 C 140.660156 192.980469 141.359375 193.109375 142.0625 193.199219 C 142.769531 193.292969 143.476562 193.351562 144.1875 193.375 C 144.898438 193.398438 145.605469 193.386719 146.316406 193.339844 C 147.023438 193.292969 147.730469 193.210938 148.429688 193.097656 C 149.132812 192.980469 149.828125 192.832031 150.511719 192.648438 C 151.199219 192.464844 151.875 192.25 152.539062 192 C 153.207031 191.75 153.855469 191.46875 154.496094 191.15625 C 155.132812 190.84375 155.753906 190.5 156.355469 190.128906 C 156.960938 189.753906 157.542969 189.351562 158.105469 188.921875 C 158.671875 188.488281 159.210938 188.03125 159.730469 187.546875 C 160.25 187.066406 160.742188 186.558594 161.210938 186.023438 C 161.679688 185.492188 162.121094 184.9375 162.535156 184.363281 C 162.949219 183.789062 163.335938 183.195312 163.691406 182.582031 L 190.984375 135.46875 C 191.34375 134.855469 191.667969 134.226562 191.960938 133.582031 C 192.253906 132.9375 192.515625 132.277344 192.746094 131.609375 C 192.972656 130.9375 193.167969 130.257812 193.332031 129.570312 C 193.492188 128.878906 193.621094 128.183594 193.714844 127.480469 C 193.808594 126.78125 193.867188 126.074219 193.890625 125.367188 C 193.914062 124.660156 193.902344 123.953125 193.855469 123.246094 C 193.808594 122.539062 193.726562 121.835938 193.613281 121.136719 C 193.496094 120.441406 193.347656 119.75 193.164062 119.066406 C 192.980469 118.378906 192.761719 117.707031 192.511719 117.042969 C 192.261719 116.382812 191.976562 115.734375 191.664062 115.097656 C 191.347656 114.464844 191.003906 113.84375 190.628906 113.242188 C 190.253906 112.644531 189.847656 112.0625 189.414062 111.5 C 188.984375 110.9375 188.523438 110.398438 188.035156 109.882812 C 187.550781 109.367188 187.039062 108.875 186.503906 108.40625 C 185.972656 107.941406 185.414062 107.503906 184.835938 107.089844 C 184.257812 106.679688 183.660156 106.296875 183.046875 105.941406 Z M 183.046875 105.953125 " fill-opacity="1" fill-rule="evenodd"/></g><g clip-path="url(#215b5bd7fc)"><path fill="#ff914d" d="M 239.679688 105.953125 C 239.0625 105.597656 238.429688 105.273438 237.785156 104.980469 C 237.136719 104.691406 236.476562 104.429688 235.804688 104.203125 C 235.128906 103.972656 234.449219 103.78125 233.753906 103.617188 C 233.0625 103.457031 232.363281 103.332031 231.660156 103.238281 C 230.957031 103.144531 230.25 103.085938 229.539062 103.066406 C 228.828125 103.042969 228.117188 103.050781 227.40625 103.097656 C 226.699219 103.144531 225.992188 103.226562 225.292969 103.339844 C 224.589844 103.457031 223.898438 103.605469 223.210938 103.789062 C 222.523438 103.972656 221.847656 104.1875 221.183594 104.4375 C 220.515625 104.6875 219.867188 104.96875 219.226562 105.28125 C 218.589844 105.59375 217.96875 105.9375 217.367188 106.3125 C 216.761719 106.683594 216.179688 107.085938 215.617188 107.519531 C 215.050781 107.949219 214.511719 108.40625 213.992188 108.890625 C 213.472656 109.375 212.980469 109.882812 212.511719 110.414062 C 212.042969 110.949219 211.601562 111.503906 211.1875 112.078125 C 210.773438 112.652344 210.386719 113.246094 210.03125 113.859375 L 182.738281 160.964844 C 182.382812 161.578125 182.058594 162.207031 181.765625 162.851562 C 181.472656 163.496094 181.210938 164.152344 180.980469 164.824219 C 180.753906 165.492188 180.558594 166.171875 180.394531 166.863281 C 180.234375 167.550781 180.105469 168.25 180.011719 168.949219 C 179.921875 169.652344 179.863281 170.355469 179.839844 171.0625 C 179.816406 171.773438 179.828125 172.480469 179.875 173.183594 C 179.917969 173.890625 180 174.59375 180.117188 175.292969 C 180.230469 175.992188 180.382812 176.683594 180.566406 177.367188 C 180.75 178.050781 180.96875 178.722656 181.21875 179.386719 C 181.46875 180.046875 181.75 180.695312 182.0625 181.332031 C 182.378906 181.96875 182.722656 182.585938 183.097656 183.1875 C 183.472656 183.789062 183.878906 184.367188 184.3125 184.929688 C 184.742188 185.492188 185.203125 186.03125 185.6875 186.546875 C 186.175781 187.0625 186.6875 187.554688 187.21875 188.023438 C 187.753906 188.488281 188.3125 188.929688 188.886719 189.339844 C 189.464844 189.753906 190.0625 190.136719 190.679688 190.488281 C 191.292969 190.84375 191.925781 191.167969 192.574219 191.460938 C 193.21875 191.753906 193.878906 192.011719 194.554688 192.242188 C 195.226562 192.46875 195.910156 192.664062 196.601562 192.824219 C 197.292969 192.984375 197.992188 193.109375 198.695312 193.203125 C 199.402344 193.296875 200.109375 193.355469 200.820312 193.378906 C 201.53125 193.402344 202.238281 193.390625 202.949219 193.34375 C 203.660156 193.296875 204.363281 193.214844 205.066406 193.101562 C 205.765625 192.984375 206.460938 192.835938 207.148438 192.652344 C 207.832031 192.46875 208.507812 192.253906 209.175781 192.003906 C 209.839844 191.753906 210.492188 191.472656 211.128906 191.160156 C 211.765625 190.847656 212.386719 190.503906 212.992188 190.128906 C 213.59375 189.757812 214.179688 189.355469 214.742188 188.921875 C 215.304688 188.492188 215.847656 188.035156 216.367188 187.550781 C 216.882812 187.066406 217.378906 186.558594 217.847656 186.027344 C 218.316406 185.492188 218.757812 184.941406 219.171875 184.363281 C 219.585938 183.789062 219.96875 183.195312 220.324219 182.582031 L 247.628906 135.476562 C 247.984375 134.863281 248.308594 134.234375 248.601562 133.589844 C 248.898438 132.945312 249.15625 132.289062 249.386719 131.617188 C 249.617188 130.949219 249.8125 130.269531 249.972656 129.578125 C 250.132812 128.890625 250.261719 128.195312 250.355469 127.492188 C 250.445312 126.789062 250.503906 126.085938 250.527344 125.378906 C 250.550781 124.671875 250.539062 123.964844 250.496094 123.257812 C 250.449219 122.550781 250.367188 121.847656 250.25 121.148438 C 250.136719 120.453125 249.984375 119.761719 249.800781 119.078125 C 249.617188 118.390625 249.402344 117.71875 249.148438 117.054688 C 248.898438 116.394531 248.617188 115.746094 248.304688 115.109375 C 247.988281 114.476562 247.644531 113.855469 247.269531 113.257812 C 246.894531 112.65625 246.488281 112.074219 246.054688 111.511719 C 245.625 110.949219 245.164062 110.410156 244.679688 109.894531 C 244.191406 109.378906 243.683594 108.886719 243.148438 108.417969 C 242.613281 107.953125 242.058594 107.511719 241.480469 107.101562 C 240.902344 106.6875 240.304688 106.304688 239.6875 105.953125 Z M 239.679688 105.953125 " fill-opacity="1" fill-rule="evenodd"/></g><g clip-path="url(#fb85b1bf55)"><path fill="#ff914d" d="M 233.292969 174.242188 C 233.292969 173.628906 233.324219 173.019531 233.382812 172.410156 C 233.445312 171.800781 233.535156 171.195312 233.652344 170.597656 C 233.773438 169.996094 233.921875 169.40625 234.101562 168.820312 C 234.28125 168.234375 234.484375 167.660156 234.722656 167.09375 C 234.957031 166.527344 235.21875 165.976562 235.507812 165.4375 C 235.796875 164.898438 236.113281 164.375 236.453125 163.867188 C 236.796875 163.355469 237.160156 162.867188 237.550781 162.394531 C 237.941406 161.921875 238.351562 161.46875 238.785156 161.035156 C 239.21875 160.601562 239.675781 160.191406 240.148438 159.804688 C 240.625 159.417969 241.117188 159.050781 241.628906 158.710938 C 242.136719 158.375 242.664062 158.058594 243.207031 157.769531 C 243.746094 157.480469 244.300781 157.222656 244.867188 156.988281 C 245.4375 156.753906 246.015625 156.546875 246.601562 156.371094 C 247.1875 156.191406 247.785156 156.042969 248.386719 155.925781 C 248.988281 155.804688 249.59375 155.714844 250.207031 155.65625 C 250.816406 155.59375 251.429688 155.566406 252.042969 155.566406 C 252.660156 155.566406 253.269531 155.59375 253.882812 155.65625 C 254.492188 155.714844 255.101562 155.804688 255.703125 155.925781 C 256.304688 156.042969 256.898438 156.191406 257.488281 156.371094 C 258.074219 156.546875 258.652344 156.753906 259.21875 156.988281 C 259.789062 157.222656 260.34375 157.480469 260.882812 157.769531 C 261.425781 158.058594 261.949219 158.375 262.460938 158.710938 C 262.972656 159.050781 263.464844 159.417969 263.941406 159.804688 C 264.414062 160.191406 264.867188 160.601562 265.304688 161.035156 C 265.738281 161.46875 266.148438 161.921875 266.539062 162.394531 C 266.929688 162.867188 267.292969 163.355469 267.636719 163.867188 C 267.976562 164.375 268.292969 164.898438 268.582031 165.4375 C 268.871094 165.976562 269.132812 166.527344 269.367188 167.09375 C 269.601562 167.660156 269.808594 168.234375 269.988281 168.820312 C 270.164062 169.40625 270.316406 169.996094 270.433594 170.597656 C 270.554688 171.195312 270.644531 171.800781 270.703125 172.410156 C 270.765625 173.019531 270.796875 173.628906 270.796875 174.242188 C 270.796875 174.851562 270.765625 175.460938 270.703125 176.070312 C 270.644531 176.679688 270.554688 177.285156 270.433594 177.882812 C 270.316406 178.484375 270.164062 179.078125 269.988281 179.660156 C 269.808594 180.246094 269.601562 180.820312 269.367188 181.386719 C 269.132812 181.953125 268.871094 182.503906 268.582031 183.042969 C 268.292969 183.582031 267.976562 184.105469 267.636719 184.617188 C 267.292969 185.125 266.929688 185.613281 266.539062 186.085938 C 266.148438 186.558594 265.738281 187.011719 265.304688 187.445312 C 264.867188 187.878906 264.414062 188.289062 263.941406 188.675781 C 263.464844 189.0625 262.972656 189.429688 262.460938 189.769531 C 261.949219 190.109375 261.425781 190.421875 260.882812 190.710938 C 260.34375 191 259.789062 191.261719 259.21875 191.492188 C 258.652344 191.726562 258.074219 191.933594 257.488281 192.109375 C 256.898438 192.289062 256.304688 192.4375 255.703125 192.554688 C 255.101562 192.675781 254.492188 192.765625 253.882812 192.824219 C 253.269531 192.886719 252.660156 192.914062 252.042969 192.914062 C 251.429688 192.914062 250.816406 192.886719 250.207031 192.824219 C 249.59375 192.765625 248.988281 192.675781 248.386719 192.554688 C 247.785156 192.4375 247.1875 192.289062 246.601562 192.109375 C 246.015625 191.933594 245.4375 191.726562 244.867188 191.492188 C 244.300781 191.261719 243.746094 191 243.207031 190.710938 C 242.664062 190.421875 242.136719 190.109375 241.628906 189.769531 C 241.117188 189.429688 240.625 189.0625 240.148438 188.675781 C 239.675781 188.289062 239.21875 187.878906 238.785156 187.445312 C 238.351562 187.011719 237.941406 186.558594 237.550781 186.085938 C 237.160156 185.613281 236.796875 185.125 236.453125 184.617188 C 236.113281 184.105469 235.796875 183.582031 235.507812 183.042969 C 235.21875 182.503906 234.957031 181.953125 234.722656 181.386719 C 234.484375 180.820312 234.28125 180.246094 234.101562 179.660156 C 233.921875 179.078125 233.773438 178.484375 233.652344 177.882812 C 233.535156 177.285156 233.445312 176.679688 233.382812 176.070312 C 233.324219 175.460938 233.292969 174.851562 233.292969 174.242188 Z M 233.292969 174.242188 " fill-opacity="1" fill-rule="evenodd"/></g><g fill="#ffffff" fill-opacity="1"><g transform="translate(96.303946, 244.503394)"><g><path d="M 1.109375 0 L 13.484375 -33.828125 L 20.4375 -33.828125 L 32.8125 0 L 26.25 0 L 23.53125 -7.828125 L 10.34375 -7.828125 L 7.59375 0 Z M 12.03125 -12.65625 L 21.84375 -12.65625 L 16.921875 -26.71875 Z M 12.03125 -12.65625 "/></g></g></g><g fill="#ffffff" fill-opacity="1"><g transform="translate(128.007309, 244.503394)"><g><path d="M 3.140625 0 L 3.140625 -34.796875 L 9.328125 -34.796875 L 9.328125 0 Z M 3.140625 0 "/></g></g></g><g fill="#ffffff" fill-opacity="1"><g transform="translate(138.349564, 244.503394)"><g><path d="M 3.140625 0 L 3.140625 -34.796875 L 9.328125 -34.796875 L 9.328125 0 Z M 3.140625 0 "/></g></g></g><g fill="#ffffff" fill-opacity="1"><g transform="translate(148.691821, 244.503394)"><g><path d="M 3.140625 0 L 3.140625 -23.96875 L 8.65625 -23.96875 L 9.234375 -19.46875 C 10.097656 -21.019531 11.28125 -22.253906 12.78125 -23.171875 C 14.28125 -24.085938 16.046875 -24.546875 18.078125 -24.546875 L 18.078125 -18.03125 L 16.328125 -18.03125 C 14.984375 -18.03125 13.773438 -17.816406 12.703125 -17.390625 C 11.640625 -16.972656 10.8125 -16.25 10.21875 -15.21875 C 9.625 -14.1875 9.328125 -12.753906 9.328125 -10.921875 L 9.328125 0 Z M 3.140625 0 "/></g></g></g><g fill="#ffffff" fill-opacity="1"><g transform="translate(165.655055, 244.503394)"><g><path d="M 14.640625 0.578125 C 12.316406 0.578125 10.226562 0.046875 8.375 -1.015625 C 6.53125 -2.078125 5.066406 -3.550781 3.984375 -5.4375 C 2.910156 -7.320312 2.375 -9.503906 2.375 -11.984375 C 2.375 -14.460938 2.921875 -16.644531 4.015625 -18.53125 C 5.109375 -20.414062 6.582031 -21.890625 8.4375 -22.953125 C 10.289062 -24.015625 12.375 -24.546875 14.6875 -24.546875 C 16.976562 -24.546875 19.050781 -24.015625 20.90625 -22.953125 C 22.757812 -21.890625 24.222656 -20.414062 25.296875 -18.53125 C 26.378906 -16.644531 26.921875 -14.460938 26.921875 -11.984375 C 26.921875 -9.503906 26.378906 -7.320312 25.296875 -5.4375 C 24.222656 -3.550781 22.75 -2.078125 20.875 -1.015625 C 19.007812 0.046875 16.929688 0.578125 14.640625 0.578125 Z M 14.640625 -4.78125 C 16.253906 -4.78125 17.65625 -5.382812 18.84375 -6.59375 C 20.039062 -7.800781 20.640625 -9.597656 20.640625 -11.984375 C 20.640625 -14.367188 20.039062 -16.164062 18.84375 -17.375 C 17.65625 -18.582031 16.269531 -19.1875 14.6875 -19.1875 C 13.050781 -19.1875 11.644531 -18.582031 10.46875 -17.375 C 9.289062 -16.164062 8.703125 -14.367188 8.703125 -11.984375 C 8.703125 -9.597656 9.289062 -7.800781 10.46875 -6.59375 C 11.644531 -5.382812 13.035156 -4.78125 14.640625 -4.78125 Z M 14.640625 -4.78125 "/></g></g></g><g fill="#ffffff" fill-opacity="1"><g transform="translate(192.767229, 244.503394)"><g><path d="M 12.125 0.578125 C 9.132812 0.578125 6.820312 -0.351562 5.1875 -2.21875 C 3.5625 -4.09375 2.75 -6.832031 2.75 -10.4375 L 2.75 -23.96875 L 8.890625 -23.96875 L 8.890625 -11.015625 C 8.890625 -8.953125 9.304688 -7.375 10.140625 -6.28125 C 10.984375 -5.1875 12.304688 -4.640625 14.109375 -4.640625 C 15.816406 -4.640625 17.226562 -5.25 18.34375 -6.46875 C 19.457031 -7.695312 20.015625 -9.40625 20.015625 -11.59375 L 20.015625 -23.96875 L 26.1875 -23.96875 L 26.1875 0 L 20.734375 0 L 20.25 -4.0625 C 19.507812 -2.644531 18.4375 -1.515625 17.03125 -0.671875 C 15.632812 0.160156 14 0.578125 12.125 0.578125 Z M 12.125 0.578125 "/></g></g></g><g fill="#ffffff" fill-opacity="1"><g transform="translate(219.976064, 244.503394)"><g><path d="M 3.140625 0 L 3.140625 -23.96875 L 8.609375 -23.96875 L 9.078125 -19.90625 C 9.828125 -21.320312 10.898438 -22.445312 12.296875 -23.28125 C 13.703125 -24.125 15.351562 -24.546875 17.25 -24.546875 C 20.21875 -24.546875 22.519531 -23.609375 24.15625 -21.734375 C 25.800781 -19.867188 26.625 -17.132812 26.625 -13.53125 L 26.625 0 L 20.4375 0 L 20.4375 -12.953125 C 20.4375 -15.015625 20.019531 -16.59375 19.1875 -17.6875 C 18.351562 -18.78125 17.046875 -19.328125 15.265625 -19.328125 C 13.523438 -19.328125 12.097656 -18.710938 10.984375 -17.484375 C 9.878906 -16.265625 9.328125 -14.5625 9.328125 -12.375 L 9.328125 0 Z M 3.140625 0 "/></g></g></g><g fill="#ffffff" fill-opacity="1"><g transform="translate(247.1849, 244.503394)"><g><path d="M 14.15625 0.578125 C 11.90625 0.578125 9.894531 0.03125 8.125 -1.0625 C 6.351562 -2.15625 4.953125 -3.648438 3.921875 -5.546875 C 2.890625 -7.453125 2.375 -9.613281 2.375 -12.03125 C 2.375 -14.445312 2.890625 -16.597656 3.921875 -18.484375 C 4.953125 -20.367188 6.351562 -21.847656 8.125 -22.921875 C 9.894531 -24.003906 11.90625 -24.546875 14.15625 -24.546875 C 15.957031 -24.546875 17.535156 -24.207031 18.890625 -23.53125 C 20.242188 -22.851562 21.34375 -21.90625 22.1875 -20.6875 L 22.1875 -34.796875 L 28.375 -34.796875 L 28.375 0 L 22.859375 0 L 22.1875 -3.4375 C 21.40625 -2.375 20.378906 -1.4375 19.109375 -0.625 C 17.835938 0.175781 16.1875 0.578125 14.15625 0.578125 Z M 15.46875 -4.828125 C 17.46875 -4.828125 19.101562 -5.492188 20.375 -6.828125 C 21.644531 -8.171875 22.28125 -9.890625 22.28125 -11.984375 C 22.28125 -14.078125 21.644531 -15.789062 20.375 -17.125 C 19.101562 -18.46875 17.46875 -19.140625 15.46875 -19.140625 C 13.5 -19.140625 11.867188 -18.476562 10.578125 -17.15625 C 9.296875 -15.832031 8.65625 -14.125 8.65625 -12.03125 C 8.65625 -9.9375 9.296875 -8.210938 10.578125 -6.859375 C 11.867188 -5.503906 13.5 -4.828125 15.46875 -4.828125 Z M 15.46875 -4.828125 "/></g></g></g><g fill="#ffffff" fill-opacity="1"><g transform="translate(87.778915, 268.813926)"><g><path d="M 7.28125 -7.203125 L 7.28125 0 L 6.25 0 L 6.25 -3.21875 L 2.109375 -3.21875 L 2.109375 0 L 1.078125 0 L 1.078125 -7.203125 L 2.109375 -7.203125 L 2.109375 -4.109375 L 6.25 -4.109375 L 6.25 -7.203125 Z M 7.28125 -7.203125 "/></g></g></g><g fill="#ffffff" fill-opacity="1"><g transform="translate(99.01554, 268.813926)"><g><path d="M 4.328125 0.078125 C 3.609375 0.078125 2.957031 -0.078125 2.375 -0.390625 C 1.789062 -0.710938 1.332031 -1.15625 1 -1.71875 C 0.664062 -2.28125 0.5 -2.910156 0.5 -3.609375 C 0.5 -4.296875 0.664062 -4.921875 1 -5.484375 C 1.332031 -6.046875 1.789062 -6.488281 2.375 -6.8125 C 2.957031 -7.132812 3.609375 -7.296875 4.328125 -7.296875 C 5.054688 -7.296875 5.710938 -7.132812 6.296875 -6.8125 C 6.878906 -6.488281 7.332031 -6.046875 7.65625 -5.484375 C 7.988281 -4.929688 8.15625 -4.304688 8.15625 -3.609375 C 8.15625 -2.898438 7.988281 -2.265625 7.65625 -1.703125 C 7.332031 -1.148438 6.878906 -0.710938 6.296875 -0.390625 C 5.710938 -0.078125 5.054688 0.078125 4.328125 0.078125 Z M 4.328125 -0.828125 C 4.859375 -0.828125 5.332031 -0.945312 5.75 -1.1875 C 6.175781 -1.4375 6.507812 -1.769531 6.75 -2.1875 C 7 -2.613281 7.125 -3.085938 7.125 -3.609375 C 7.125 -4.128906 7 -4.597656 6.75 -5.015625 C 6.507812 -5.441406 6.175781 -5.773438 5.75 -6.015625 C 5.332031 -6.253906 4.859375 -6.375 4.328125 -6.375 C 3.804688 -6.375 3.328125 -6.253906 2.890625 -6.015625 C 2.460938 -5.773438 2.128906 -5.441406 1.890625 -5.015625 C 1.648438 -4.597656 1.53125 -4.128906 1.53125 -3.609375 C 1.53125 -3.085938 1.648438 -2.613281 1.890625 -2.1875 C 2.128906 -1.769531 2.460938 -1.4375 2.890625 -1.1875 C 3.328125 -0.945312 3.804688 -0.828125 4.328125 -0.828125 Z M 4.328125 -0.828125 "/></g></g></g><g fill="#ffffff" fill-opacity="1"><g transform="translate(110.540252, 268.813926)"><g><path d="M 7.765625 0 L 7.75 -5.25 L 5.140625 -0.875 L 4.671875 -0.875 L 2.0625 -5.21875 L 2.0625 0 L 1.078125 0 L 1.078125 -7.203125 L 1.921875 -7.203125 L 4.9375 -2.140625 L 7.890625 -7.203125 L 8.734375 -7.203125 L 8.75 0 Z M 7.765625 0 "/></g></g></g><g fill="#ffffff" fill-opacity="1"><g transform="translate(123.24819, 268.813926)"><g><path d="M 6.3125 -0.890625 L 6.3125 0 L 1.078125 0 L 1.078125 -7.203125 L 6.171875 -7.203125 L 6.171875 -6.3125 L 2.109375 -6.3125 L 2.109375 -4.09375 L 5.71875 -4.09375 L 5.71875 -3.21875 L 2.109375 -3.21875 L 2.109375 -0.890625 Z M 6.3125 -0.890625 "/></g></g></g><g fill="#ffffff" fill-opacity="1"><g transform="translate(133.023785, 268.813926)"><g/></g></g><g fill="#ffffff" fill-opacity="1"><g transform="translate(138.673533, 268.813926)"><g><path d="M 3.1875 0.078125 C 2.644531 0.078125 2.117188 -0.00390625 1.609375 -0.171875 C 1.109375 -0.335938 0.710938 -0.554688 0.421875 -0.828125 L 0.796875 -1.625 C 1.078125 -1.375 1.429688 -1.171875 1.859375 -1.015625 C 2.285156 -0.867188 2.726562 -0.796875 3.1875 -0.796875 C 3.78125 -0.796875 4.222656 -0.894531 4.515625 -1.09375 C 4.816406 -1.300781 4.96875 -1.570312 4.96875 -1.90625 C 4.96875 -2.15625 4.882812 -2.351562 4.71875 -2.5 C 4.5625 -2.65625 4.363281 -2.773438 4.125 -2.859375 C 3.882812 -2.941406 3.550781 -3.035156 3.125 -3.140625 C 2.582031 -3.273438 2.144531 -3.40625 1.8125 -3.53125 C 1.476562 -3.664062 1.191406 -3.867188 0.953125 -4.140625 C 0.710938 -4.410156 0.59375 -4.773438 0.59375 -5.234375 C 0.59375 -5.617188 0.691406 -5.960938 0.890625 -6.265625 C 1.097656 -6.578125 1.40625 -6.828125 1.8125 -7.015625 C 2.226562 -7.203125 2.742188 -7.296875 3.359375 -7.296875 C 3.785156 -7.296875 4.203125 -7.238281 4.609375 -7.125 C 5.023438 -7.007812 5.378906 -6.851562 5.671875 -6.65625 L 5.328125 -5.828125 C 5.023438 -6.015625 4.703125 -6.160156 4.359375 -6.265625 C 4.015625 -6.367188 3.679688 -6.421875 3.359375 -6.421875 C 2.773438 -6.421875 2.335938 -6.3125 2.046875 -6.09375 C 1.753906 -5.882812 1.609375 -5.609375 1.609375 -5.265625 C 1.609375 -5.023438 1.6875 -4.828125 1.84375 -4.671875 C 2.007812 -4.515625 2.210938 -4.394531 2.453125 -4.3125 C 2.703125 -4.226562 3.035156 -4.132812 3.453125 -4.03125 C 3.992188 -3.90625 4.429688 -3.773438 4.765625 -3.640625 C 5.097656 -3.515625 5.378906 -3.316406 5.609375 -3.046875 C 5.847656 -2.773438 5.96875 -2.414062 5.96875 -1.96875 C 5.96875 -1.59375 5.863281 -1.25 5.65625 -0.9375 C 5.457031 -0.625 5.144531 -0.375 4.71875 -0.1875 C 4.300781 -0.0078125 3.789062 0.078125 3.1875 0.078125 Z M 3.1875 0.078125 "/></g></g></g><g fill="#ffffff" fill-opacity="1"><g transform="translate(147.944974, 268.813926)"><g><path d="M 6.3125 -0.890625 L 6.3125 0 L 1.078125 0 L 1.078125 -7.203125 L 6.171875 -7.203125 L 6.171875 -6.3125 L 2.109375 -6.3125 L 2.109375 -4.09375 L 5.71875 -4.09375 L 5.71875 -3.21875 L 2.109375 -3.21875 L 2.109375 -0.890625 Z M 6.3125 -0.890625 "/></g></g></g><g fill="#ffffff" fill-opacity="1"><g transform="translate(157.720572, 268.813926)"><g><path d="M 5.90625 0 L 4.34375 -2.21875 C 4.15625 -2.195312 4.003906 -2.1875 3.890625 -2.1875 L 2.109375 -2.1875 L 2.109375 0 L 1.078125 0 L 1.078125 -7.203125 L 3.890625 -7.203125 C 4.828125 -7.203125 5.5625 -6.976562 6.09375 -6.53125 C 6.632812 -6.09375 6.90625 -5.484375 6.90625 -4.703125 C 6.90625 -4.140625 6.765625 -3.660156 6.484375 -3.265625 C 6.210938 -2.878906 5.820312 -2.597656 5.3125 -2.421875 L 7.015625 0 Z M 3.859375 -3.0625 C 4.515625 -3.0625 5.015625 -3.203125 5.359375 -3.484375 C 5.703125 -3.765625 5.875 -4.171875 5.875 -4.703125 C 5.875 -5.222656 5.703125 -5.617188 5.359375 -5.890625 C 5.015625 -6.171875 4.515625 -6.3125 3.859375 -6.3125 L 2.109375 -6.3125 L 2.109375 -3.0625 Z M 3.859375 -3.0625 "/></g></g></g><g fill="#ffffff" fill-opacity="1"><g transform="translate(168.082641, 268.813926)"><g><path d="M 7.34375 -7.203125 L 4.1875 0 L 3.15625 0 L -0.015625 -7.203125 L 1.109375 -7.203125 L 3.703125 -1.28125 L 6.3125 -7.203125 Z M 7.34375 -7.203125 "/></g></g></g><g fill="#ffffff" fill-opacity="1"><g transform="translate(178.290377, 268.813926)"><g><path d="M 1.078125 -7.203125 L 2.109375 -7.203125 L 2.109375 0 L 1.078125 0 Z M 1.078125 -7.203125 "/></g></g></g><g fill="#ffffff" fill-opacity="1"><g transform="translate(184.361967, 268.813926)"><g><path d="M 4.296875 0.078125 C 3.578125 0.078125 2.925781 -0.078125 2.34375 -0.390625 C 1.769531 -0.710938 1.316406 -1.148438 0.984375 -1.703125 C 0.660156 -2.265625 0.5 -2.898438 0.5 -3.609375 C 0.5 -4.304688 0.660156 -4.929688 0.984375 -5.484375 C 1.316406 -6.046875 1.773438 -6.488281 2.359375 -6.8125 C 2.941406 -7.132812 3.59375 -7.296875 4.3125 -7.296875 C 4.875 -7.296875 5.390625 -7.195312 5.859375 -7 C 6.328125 -6.8125 6.722656 -6.535156 7.046875 -6.171875 L 6.390625 -5.515625 C 5.847656 -6.085938 5.171875 -6.375 4.359375 -6.375 C 3.816406 -6.375 3.328125 -6.253906 2.890625 -6.015625 C 2.460938 -5.773438 2.128906 -5.441406 1.890625 -5.015625 C 1.648438 -4.597656 1.53125 -4.128906 1.53125 -3.609375 C 1.53125 -3.085938 1.648438 -2.613281 1.890625 -2.1875 C 2.128906 -1.769531 2.460938 -1.4375 2.890625 -1.1875 C 3.328125 -0.945312 3.816406 -0.828125 4.359375 -0.828125 C 5.160156 -0.828125 5.835938 -1.117188 6.390625 -1.703125 L 7.046875 -1.046875 C 6.722656 -0.679688 6.320312 -0.398438 5.84375 -0.203125 C 5.375 -0.015625 4.859375 0.078125 4.296875 0.078125 Z M 4.296875 0.078125 "/></g></g></g><g fill="#ffffff" fill-opacity="1"><g transform="translate(194.682879, 268.813926)"><g><path d="M 6.3125 -0.890625 L 6.3125 0 L 1.078125 0 L 1.078125 -7.203125 L 6.171875 -7.203125 L 6.171875 -6.3125 L 2.109375 -6.3125 L 2.109375 -4.09375 L 5.71875 -4.09375 L 5.71875 -3.21875 L 2.109375 -3.21875 L 2.109375 -0.890625 Z M 6.3125 -0.890625 "/></g></g></g><g fill="#ffffff" fill-opacity="1"><g transform="translate(204.458477, 268.813926)"><g/></g></g><g fill="#ffffff" fill-opacity="1"><g transform="translate(210.108224, 268.813926)"><g><path d="M 3.890625 -7.203125 C 4.828125 -7.203125 5.5625 -6.976562 6.09375 -6.53125 C 6.632812 -6.09375 6.90625 -5.484375 6.90625 -4.703125 C 6.90625 -3.910156 6.632812 -3.289062 6.09375 -2.84375 C 5.5625 -2.40625 4.828125 -2.1875 3.890625 -2.1875 L 2.109375 -2.1875 L 2.109375 0 L 1.078125 0 L 1.078125 -7.203125 Z M 3.859375 -3.078125 C 4.515625 -3.078125 5.015625 -3.210938 5.359375 -3.484375 C 5.703125 -3.765625 5.875 -4.171875 5.875 -4.703125 C 5.875 -5.222656 5.703125 -5.617188 5.359375 -5.890625 C 5.015625 -6.171875 4.515625 -6.3125 3.859375 -6.3125 L 2.109375 -6.3125 L 2.109375 -3.078125 Z M 3.859375 -3.078125 "/></g></g></g><g fill="#ffffff" fill-opacity="1"><g transform="translate(220.418841, 268.813926)"><g><path d="M 5.90625 0 L 4.34375 -2.21875 C 4.15625 -2.195312 4.003906 -2.1875 3.890625 -2.1875 L 2.109375 -2.1875 L 2.109375 0 L 1.078125 0 L 1.078125 -7.203125 L 3.890625 -7.203125 C 4.828125 -7.203125 5.5625 -6.976562 6.09375 -6.53125 C 6.632812 -6.09375 6.90625 -5.484375 6.90625 -4.703125 C 6.90625 -4.140625 6.765625 -3.660156 6.484375 -3.265625 C 6.210938 -2.878906 5.820312 -2.597656 5.3125 -2.421875 L 7.015625 0 Z M 3.859375 -3.0625 C 4.515625 -3.0625 5.015625 -3.203125 5.359375 -3.484375 C 5.703125 -3.765625 5.875 -4.171875 5.875 -4.703125 C 5.875 -5.222656 5.703125 -5.617188 5.359375 -5.890625 C 5.015625 -6.171875 4.515625 -6.3125 3.859375 -6.3125 L 2.109375 -6.3125 L 2.109375 -3.0625 Z M 3.859375 -3.0625 "/></g></g></g><g fill="#ffffff" fill-opacity="1"><g transform="translate(230.78091, 268.813926)"><g><path d="M 4.328125 0.078125 C 3.609375 0.078125 2.957031 -0.078125 2.375 -0.390625 C 1.789062 -0.710938 1.332031 -1.15625 1 -1.71875 C 0.664062 -2.28125 0.5 -2.910156 0.5 -3.609375 C 0.5 -4.296875 0.664062 -4.921875 1 -5.484375 C 1.332031 -6.046875 1.789062 -6.488281 2.375 -6.8125 C 2.957031 -7.132812 3.609375 -7.296875 4.328125 -7.296875 C 5.054688 -7.296875 5.710938 -7.132812 6.296875 -6.8125 C 6.878906 -6.488281 7.332031 -6.046875 7.65625 -5.484375 C 7.988281 -4.929688 8.15625 -4.304688 8.15625 -3.609375 C 8.15625 -2.898438 7.988281 -2.265625 7.65625 -1.703125 C 7.332031 -1.148438 6.878906 -0.710938 6.296875 -0.390625 C 5.710938 -0.078125 5.054688 0.078125 4.328125 0.078125 Z M 4.328125 -0.828125 C 4.859375 -0.828125 5.332031 -0.945312 5.75 -1.1875 C 6.175781 -1.4375 6.507812 -1.769531 6.75 -2.1875 C 7 -2.613281 7.125 -3.085938 7.125 -3.609375 C 7.125 -4.128906 7 -4.597656 6.75 -5.015625 C 6.507812 -5.441406 6.175781 -5.773438 5.75 -6.015625 C 5.332031 -6.253906 4.859375 -6.375 4.328125 -6.375 C 3.804688 -6.375 3.328125 -6.253906 2.890625 -6.015625 C 2.460938 -5.773438 2.128906 -5.441406 1.890625 -5.015625 C 1.648438 -4.597656 1.53125 -4.128906 1.53125 -3.609375 C 1.53125 -3.085938 1.648438 -2.613281 1.890625 -2.1875 C 2.128906 -1.769531 2.460938 -1.4375 2.890625 -1.1875 C 3.328125 -0.945312 3.804688 -0.828125 4.328125 -0.828125 Z M 4.328125 -0.828125 "/></g></g></g><g fill="#ffffff" fill-opacity="1"><g transform="translate(242.305626, 268.813926)"><g><path d="M 7.34375 -7.203125 L 4.1875 0 L 3.15625 0 L -0.015625 -7.203125 L 1.109375 -7.203125 L 3.703125 -1.28125 L 6.3125 -7.203125 Z M 7.34375 -7.203125 "/></g></g></g><g fill="#ffffff" fill-opacity="1"><g transform="translate(252.513362, 268.813926)"><g><path d="M 1.078125 -7.203125 L 2.109375 -7.203125 L 2.109375 0 L 1.078125 0 Z M 1.078125 -7.203125 "/></g></g></g><g fill="#ffffff" fill-opacity="1"><g transform="translate(258.584951, 268.813926)"><g><path d="M 1.078125 -7.203125 L 4.125 -7.203125 C 4.882812 -7.203125 5.554688 -7.050781 6.140625 -6.75 C 6.734375 -6.445312 7.191406 -6.023438 7.515625 -5.484375 C 7.847656 -4.941406 8.015625 -4.316406 8.015625 -3.609375 C 8.015625 -2.898438 7.847656 -2.269531 7.515625 -1.71875 C 7.191406 -1.175781 6.734375 -0.753906 6.140625 -0.453125 C 5.554688 -0.148438 4.882812 0 4.125 0 L 1.078125 0 Z M 4.0625 -0.890625 C 4.644531 -0.890625 5.15625 -1.003906 5.59375 -1.234375 C 6.039062 -1.460938 6.382812 -1.78125 6.625 -2.1875 C 6.863281 -2.59375 6.984375 -3.066406 6.984375 -3.609375 C 6.984375 -4.140625 6.863281 -4.609375 6.625 -5.015625 C 6.382812 -5.421875 6.039062 -5.738281 5.59375 -5.96875 C 5.15625 -6.195312 4.644531 -6.3125 4.0625 -6.3125 L 2.109375 -6.3125 L 2.109375 -0.890625 Z M 4.0625 -0.890625 "/></g></g></g><g fill="#ffffff" fill-opacity="1"><g transform="translate(269.965617, 268.813926)"><g><path d="M 6.3125 -0.890625 L 6.3125 0 L 1.078125 0 L 1.078125 -7.203125 L 6.171875 -7.203125 L 6.171875 -6.3125 L 2.109375 -6.3125 L 2.109375 -4.09375 L 5.71875 -4.09375 L 5.71875 -3.21875 L 2.109375 -3.21875 L 2.109375 -0.890625 Z M 6.3125 -0.890625 "/></g></g></g><g fill="#ffffff" fill-opacity="1"><g transform="translate(279.741215, 268.813926)"><g><path d="M 5.90625 0 L 4.34375 -2.21875 C 4.15625 -2.195312 4.003906 -2.1875 3.890625 -2.1875 L 2.109375 -2.1875 L 2.109375 0 L 1.078125 0 L 1.078125 -7.203125 L 3.890625 -7.203125 C 4.828125 -7.203125 5.5625 -6.976562 6.09375 -6.53125 C 6.632812 -6.09375 6.90625 -5.484375 6.90625 -4.703125 C 6.90625 -4.140625 6.765625 -3.660156 6.484375 -3.265625 C 6.210938 -2.878906 5.820312 -2.597656 5.3125 -2.421875 L 7.015625 0 Z M 3.859375 -3.0625 C 4.515625 -3.0625 5.015625 -3.203125 5.359375 -3.484375 C 5.703125 -3.765625 5.875 -4.171875 5.875 -4.703125 C 5.875 -5.222656 5.703125 -5.617188 5.359375 -5.890625 C 5.015625 -6.171875 4.515625 -6.3125 3.859375 -6.3125 L 2.109375 -6.3125 L 2.109375 -3.0625 Z M 3.859375 -3.0625 "/></g></g></g></svg>