<svg xmlns="http://www.w3.org/2000/svg" xmlns:xlink="http://www.w3.org/1999/xlink" width="500" zoomAndPan="magnify" viewBox="0 0 375 374.999991" height="500" preserveAspectRatio="xMidYMid meet" version="1.0"><defs><linearGradient x1="0" gradientTransform="matrix(0.75, 0, 0, 0.75, 0.0000045, 0)" y1="0" x2="499.999979" gradientUnits="userSpaceOnUse" y2="0" id="984b242780"><stop stop-opacity="1" stop-color="rgb(0%, 0%, 0%)" offset="0"/><stop stop-opacity="1" stop-color="rgb(0.0808716%, 0.0778198%, 0.312805%)" offset="0.00390625"/><stop stop-opacity="1" stop-color="rgb(0.161743%, 0.15564%, 0.627136%)" offset="0.0078125"/><stop stop-opacity="1" stop-color="rgb(0.242615%, 0.233459%, 0.941467%)" offset="0.0117187"/><stop stop-opacity="1" stop-color="rgb(0.323486%, 0.311279%, 1.255798%)" offset="0.015625"/><stop stop-opacity="1" stop-color="rgb(0.404358%, 0.389099%, 1.568604%)" offset="0.0195312"/><stop stop-opacity="1" stop-color="rgb(0.486755%, 0.468445%, 1.882935%)" offset="0.0234375"/><stop stop-opacity="1" stop-color="rgb(0.567627%, 0.546265%, 2.197266%)" offset="0.0273438"/><stop stop-opacity="1" stop-color="rgb(0.648499%, 0.624084%, 2.511597%)" offset="0.03125"/><stop stop-opacity="1" stop-color="rgb(0.72937%, 0.701904%, 2.825928%)" offset="0.0351562"/><stop stop-opacity="1" stop-color="rgb(0.811768%, 0.779724%, 3.140259%)" offset="0.0390625"/><stop stop-opacity="1" stop-color="rgb(0.892639%, 0.857544%, 3.453064%)" offset="0.0429687"/><stop stop-opacity="1" stop-color="rgb(0.973511%, 0.93689%, 3.767395%)" offset="0.046875"/><stop stop-opacity="1" stop-color="rgb(1.054382%, 1.014709%, 4.081726%)" offset="0.0507812"/><stop stop-opacity="1" stop-color="rgb(1.13678%, 1.092529%, 4.396057%)" offset="0.0546875"/><stop stop-opacity="1" stop-color="rgb(1.217651%, 1.170349%, 4.710388%)" offset="0.0585938"/><stop stop-opacity="1" stop-color="rgb(1.298523%, 1.249695%, 5.024719%)" offset="0.0625"/><stop stop-opacity="1" stop-color="rgb(1.379395%, 1.327515%, 5.337524%)" offset="0.0664062"/><stop stop-opacity="1" stop-color="rgb(1.461792%, 1.405334%, 5.651855%)" offset="0.0703125"/><stop stop-opacity="1" stop-color="rgb(1.542664%, 1.483154%, 5.966187%)" offset="0.0742187"/><stop stop-opacity="1" stop-color="rgb(1.623535%, 1.560974%, 6.280518%)" offset="0.078125"/><stop stop-opacity="1" stop-color="rgb(1.704407%, 1.638794%, 6.594849%)" offset="0.0820312"/><stop stop-opacity="1" stop-color="rgb(1.786804%, 1.71814%, 6.90918%)" offset="0.0859375"/><stop stop-opacity="1" stop-color="rgb(1.867676%, 1.795959%, 7.221985%)" offset="0.0898437"/><stop stop-opacity="1" stop-color="rgb(1.948547%, 1.873779%, 7.536316%)" offset="0.09375"/><stop stop-opacity="1" stop-color="rgb(2.029419%, 1.951599%, 7.850647%)" offset="0.0976562"/><stop stop-opacity="1" stop-color="rgb(2.111816%, 2.030945%, 8.164978%)" offset="0.101562"/><stop stop-opacity="1" stop-color="rgb(2.192688%, 2.108765%, 8.479309%)" offset="0.105469"/><stop stop-opacity="1" stop-color="rgb(2.27356%, 2.186584%, 8.79364%)" offset="0.109375"/><stop stop-opacity="1" stop-color="rgb(2.354431%, 2.264404%, 9.106445%)" offset="0.113281"/><stop stop-opacity="1" stop-color="rgb(2.436829%, 2.342224%, 9.420776%)" offset="0.117188"/><stop stop-opacity="1" stop-color="rgb(2.5177%, 2.420044%, 9.735107%)" offset="0.121094"/><stop stop-opacity="1" stop-color="rgb(2.598572%, 2.49939%, 10.049438%)" offset="0.125"/><stop stop-opacity="1" stop-color="rgb(2.679443%, 2.577209%, 10.36377%)" offset="0.128906"/><stop stop-opacity="1" stop-color="rgb(2.761841%, 2.655029%, 10.678101%)" offset="0.132812"/><stop stop-opacity="1" stop-color="rgb(2.842712%, 2.732849%, 10.990906%)" offset="0.136719"/><stop stop-opacity="1" stop-color="rgb(2.923584%, 2.812195%, 11.305237%)" offset="0.140625"/><stop stop-opacity="1" stop-color="rgb(3.004456%, 2.890015%, 11.619568%)" offset="0.144531"/><stop stop-opacity="1" stop-color="rgb(3.086853%, 2.967834%, 11.933899%)" offset="0.148437"/><stop stop-opacity="1" stop-color="rgb(3.167725%, 3.045654%, 12.246704%)" offset="0.152344"/><stop stop-opacity="1" stop-color="rgb(3.248596%, 3.123474%, 12.561035%)" offset="0.15625"/><stop stop-opacity="1" stop-color="rgb(3.329468%, 3.201294%, 12.875366%)" offset="0.160156"/><stop stop-opacity="1" stop-color="rgb(3.411865%, 3.28064%, 13.189697%)" offset="0.164062"/><stop stop-opacity="1" stop-color="rgb(3.492737%, 3.358459%, 13.504028%)" offset="0.167969"/><stop stop-opacity="1" stop-color="rgb(3.573608%, 3.436279%, 13.818359%)" offset="0.171875"/><stop stop-opacity="1" stop-color="rgb(3.65448%, 3.514099%, 14.131165%)" offset="0.175781"/><stop stop-opacity="1" stop-color="rgb(3.736877%, 3.593445%, 14.445496%)" offset="0.179687"/><stop stop-opacity="1" stop-color="rgb(3.817749%, 3.671265%, 14.759827%)" offset="0.183594"/><stop stop-opacity="1" stop-color="rgb(3.898621%, 3.749084%, 15.074158%)" offset="0.1875"/><stop stop-opacity="1" stop-color="rgb(3.979492%, 3.826904%, 15.388489%)" offset="0.191406"/><stop stop-opacity="1" stop-color="rgb(4.06189%, 3.904724%, 15.70282%)" offset="0.195312"/><stop stop-opacity="1" stop-color="rgb(4.142761%, 3.982544%, 16.015625%)" offset="0.199219"/><stop stop-opacity="1" stop-color="rgb(4.223633%, 4.06189%, 16.329956%)" offset="0.203125"/><stop stop-opacity="1" stop-color="rgb(4.304504%, 4.139709%, 16.644287%)" offset="0.207031"/><stop stop-opacity="1" stop-color="rgb(4.386902%, 4.217529%, 16.958618%)" offset="0.210938"/><stop stop-opacity="1" stop-color="rgb(4.467773%, 4.295349%, 17.272949%)" offset="0.214844"/><stop stop-opacity="1" stop-color="rgb(4.548645%, 4.374695%, 17.58728%)" offset="0.21875"/><stop stop-opacity="1" stop-color="rgb(4.629517%, 4.452515%, 17.900085%)" offset="0.222656"/><stop stop-opacity="1" stop-color="rgb(4.711914%, 4.530334%, 18.214417%)" offset="0.226562"/><stop stop-opacity="1" stop-color="rgb(4.792786%, 4.608154%, 18.528748%)" offset="0.230469"/><stop stop-opacity="1" stop-color="rgb(4.873657%, 4.685974%, 18.843079%)" offset="0.234375"/><stop stop-opacity="1" stop-color="rgb(4.954529%, 4.763794%, 19.15741%)" offset="0.238281"/><stop stop-opacity="1" stop-color="rgb(5.036926%, 4.84314%, 19.471741%)" offset="0.242188"/><stop stop-opacity="1" stop-color="rgb(5.117798%, 4.920959%, 19.784546%)" offset="0.246094"/><stop stop-opacity="1" stop-color="rgb(5.198669%, 4.998779%, 20.098877%)" offset="0.25"/><stop stop-opacity="1" stop-color="rgb(5.279541%, 5.076599%, 20.413208%)" offset="0.253906"/><stop stop-opacity="1" stop-color="rgb(5.361938%, 5.155945%, 20.727539%)" offset="0.257812"/><stop stop-opacity="1" stop-color="rgb(5.44281%, 5.233765%, 21.04187%)" offset="0.261719"/><stop stop-opacity="1" stop-color="rgb(5.523682%, 5.311584%, 21.356201%)" offset="0.265625"/><stop stop-opacity="1" stop-color="rgb(5.604553%, 5.389404%, 21.669006%)" offset="0.269531"/><stop stop-opacity="1" stop-color="rgb(5.686951%, 5.467224%, 21.983337%)" offset="0.273437"/><stop stop-opacity="1" stop-color="rgb(5.767822%, 5.545044%, 22.297668%)" offset="0.277344"/><stop stop-opacity="1" stop-color="rgb(5.848694%, 5.62439%, 22.612%)" offset="0.28125"/><stop stop-opacity="1" stop-color="rgb(5.929565%, 5.702209%, 22.924805%)" offset="0.285156"/><stop stop-opacity="1" stop-color="rgb(6.011963%, 5.780029%, 23.239136%)" offset="0.289062"/><stop stop-opacity="1" stop-color="rgb(6.092834%, 5.857849%, 23.553467%)" offset="0.292969"/><stop stop-opacity="1" stop-color="rgb(6.173706%, 5.937195%, 23.867798%)" offset="0.296875"/><stop stop-opacity="1" stop-color="rgb(6.254578%, 6.015015%, 24.182129%)" offset="0.300781"/><stop stop-opacity="1" stop-color="rgb(6.336975%, 6.092834%, 24.49646%)" offset="0.304687"/><stop stop-opacity="1" stop-color="rgb(6.417847%, 6.170654%, 24.809265%)" offset="0.308594"/><stop stop-opacity="1" stop-color="rgb(6.498718%, 6.248474%, 25.123596%)" offset="0.3125"/><stop stop-opacity="1" stop-color="rgb(6.57959%, 6.326294%, 25.437927%)" offset="0.316406"/><stop stop-opacity="1" stop-color="rgb(6.661987%, 6.40564%, 25.752258%)" offset="0.320312"/><stop stop-opacity="1" stop-color="rgb(6.742859%, 6.483459%, 26.066589%)" offset="0.324219"/><stop stop-opacity="1" stop-color="rgb(6.82373%, 6.561279%, 26.38092%)" offset="0.328125"/><stop stop-opacity="1" stop-color="rgb(6.904602%, 6.639099%, 26.693726%)" offset="0.332031"/><stop stop-opacity="1" stop-color="rgb(6.987%, 6.718445%, 27.008057%)" offset="0.335937"/><stop stop-opacity="1" stop-color="rgb(7.067871%, 6.796265%, 27.322388%)" offset="0.339844"/><stop stop-opacity="1" stop-color="rgb(7.148743%, 6.874084%, 27.636719%)" offset="0.34375"/><stop stop-opacity="1" stop-color="rgb(7.229614%, 6.951904%, 27.95105%)" offset="0.347656"/><stop stop-opacity="1" stop-color="rgb(7.312012%, 7.029724%, 28.265381%)" offset="0.351562"/><stop stop-opacity="1" stop-color="rgb(7.392883%, 7.107544%, 28.578186%)" offset="0.355469"/><stop stop-opacity="1" stop-color="rgb(7.473755%, 7.18689%, 28.892517%)" offset="0.359375"/><stop stop-opacity="1" stop-color="rgb(7.554626%, 7.264709%, 29.206848%)" offset="0.363281"/><stop stop-opacity="1" stop-color="rgb(7.637024%, 7.342529%, 29.521179%)" offset="0.367187"/><stop stop-opacity="1" stop-color="rgb(7.717896%, 7.420349%, 29.83551%)" offset="0.371094"/><stop stop-opacity="1" stop-color="rgb(7.798767%, 7.499695%, 30.149841%)" offset="0.375"/><stop stop-opacity="1" stop-color="rgb(7.879639%, 7.577515%, 30.462646%)" offset="0.378906"/><stop stop-opacity="1" stop-color="rgb(7.962036%, 7.655334%, 30.776978%)" offset="0.382812"/><stop stop-opacity="1" stop-color="rgb(8.042908%, 7.733154%, 31.091309%)" offset="0.386719"/><stop stop-opacity="1" stop-color="rgb(8.123779%, 7.810974%, 31.40564%)" offset="0.390625"/><stop stop-opacity="1" stop-color="rgb(8.204651%, 7.888794%, 31.719971%)" offset="0.394531"/><stop stop-opacity="1" stop-color="rgb(8.287048%, 7.96814%, 32.034302%)" offset="0.398438"/><stop stop-opacity="1" stop-color="rgb(8.36792%, 8.045959%, 32.347107%)" offset="0.402344"/><stop stop-opacity="1" stop-color="rgb(8.448792%, 8.123779%, 32.661438%)" offset="0.40625"/><stop stop-opacity="1" stop-color="rgb(8.529663%, 8.201599%, 32.975769%)" offset="0.410156"/><stop stop-opacity="1" stop-color="rgb(8.612061%, 8.280945%, 33.2901%)" offset="0.414062"/><stop stop-opacity="1" stop-color="rgb(8.692932%, 8.358765%, 33.602905%)" offset="0.417969"/><stop stop-opacity="1" stop-color="rgb(8.773804%, 8.436584%, 33.917236%)" offset="0.421875"/><stop stop-opacity="1" stop-color="rgb(8.854675%, 8.514404%, 34.231567%)" offset="0.425781"/><stop stop-opacity="1" stop-color="rgb(8.937073%, 8.592224%, 34.545898%)" offset="0.429688"/><stop stop-opacity="1" stop-color="rgb(9.017944%, 8.670044%, 34.860229%)" offset="0.433594"/><stop stop-opacity="1" stop-color="rgb(9.098816%, 8.74939%, 35.174561%)" offset="0.4375"/><stop stop-opacity="1" stop-color="rgb(9.179688%, 8.827209%, 35.487366%)" offset="0.441406"/><stop stop-opacity="1" stop-color="rgb(9.262085%, 8.905029%, 35.801697%)" offset="0.445312"/><stop stop-opacity="1" stop-color="rgb(9.342957%, 8.982849%, 36.116028%)" offset="0.449219"/><stop stop-opacity="1" stop-color="rgb(9.423828%, 9.062195%, 36.430359%)" offset="0.453125"/><stop stop-opacity="1" stop-color="rgb(9.5047%, 9.140015%, 36.74469%)" offset="0.457031"/><stop stop-opacity="1" stop-color="rgb(9.587097%, 9.217834%, 37.059021%)" offset="0.460938"/><stop stop-opacity="1" stop-color="rgb(9.667969%, 9.295654%, 37.371826%)" offset="0.464844"/><stop stop-opacity="1" stop-color="rgb(9.74884%, 9.373474%, 37.686157%)" offset="0.46875"/><stop stop-opacity="1" stop-color="rgb(9.829712%, 9.451294%, 38.000488%)" offset="0.472656"/><stop stop-opacity="1" stop-color="rgb(9.912109%, 9.53064%, 38.314819%)" offset="0.476562"/><stop stop-opacity="1" stop-color="rgb(9.992981%, 9.608459%, 38.62915%)" offset="0.480469"/><stop stop-opacity="1" stop-color="rgb(10.073853%, 9.686279%, 38.943481%)" offset="0.484375"/><stop stop-opacity="1" stop-color="rgb(10.154724%, 9.764099%, 39.256287%)" offset="0.488281"/><stop stop-opacity="1" stop-color="rgb(10.237122%, 9.843445%, 39.570618%)" offset="0.492188"/><stop stop-opacity="1" stop-color="rgb(10.317993%, 9.921265%, 39.884949%)" offset="0.496094"/><stop stop-opacity="1" stop-color="rgb(10.398865%, 9.999084%, 40.19928%)" offset="0.5"/><stop stop-opacity="1" stop-color="rgb(10.479736%, 10.076904%, 40.513611%)" offset="0.503906"/><stop stop-opacity="1" stop-color="rgb(10.562134%, 10.154724%, 40.827942%)" offset="0.507812"/><stop stop-opacity="1" stop-color="rgb(10.643005%, 10.232544%, 41.140747%)" offset="0.511719"/><stop stop-opacity="1" stop-color="rgb(10.723877%, 10.31189%, 41.455078%)" offset="0.515625"/><stop stop-opacity="1" stop-color="rgb(10.804749%, 10.389709%, 41.769409%)" offset="0.519531"/><stop stop-opacity="1" stop-color="rgb(10.887146%, 10.467529%, 42.08374%)" offset="0.523437"/><stop stop-opacity="1" stop-color="rgb(10.968018%, 10.545349%, 42.398071%)" offset="0.527344"/><stop stop-opacity="1" stop-color="rgb(11.048889%, 10.624695%, 42.712402%)" offset="0.53125"/><stop stop-opacity="1" stop-color="rgb(11.129761%, 10.702515%, 43.025208%)" offset="0.535156"/><stop stop-opacity="1" stop-color="rgb(11.212158%, 10.780334%, 43.339539%)" offset="0.539062"/><stop stop-opacity="1" stop-color="rgb(11.29303%, 10.858154%, 43.65387%)" offset="0.542969"/><stop stop-opacity="1" stop-color="rgb(11.373901%, 10.935974%, 43.968201%)" offset="0.546875"/><stop stop-opacity="1" stop-color="rgb(11.454773%, 11.013794%, 44.282532%)" offset="0.550781"/><stop stop-opacity="1" stop-color="rgb(11.53717%, 11.09314%, 44.596863%)" offset="0.554687"/><stop stop-opacity="1" stop-color="rgb(11.618042%, 11.170959%, 44.909668%)" offset="0.558594"/><stop stop-opacity="1" stop-color="rgb(11.698914%, 11.248779%, 45.223999%)" offset="0.5625"/><stop stop-opacity="1" stop-color="rgb(11.779785%, 11.326599%, 45.53833%)" offset="0.566406"/><stop stop-opacity="1" stop-color="rgb(11.862183%, 11.405945%, 45.852661%)" offset="0.570312"/><stop stop-opacity="1" stop-color="rgb(11.943054%, 11.483765%, 46.165466%)" offset="0.574219"/><stop stop-opacity="1" stop-color="rgb(12.023926%, 11.561584%, 46.479797%)" offset="0.578125"/><stop stop-opacity="1" stop-color="rgb(12.104797%, 11.639404%, 46.794128%)" offset="0.582031"/><stop stop-opacity="1" stop-color="rgb(12.187195%, 11.717224%, 47.108459%)" offset="0.585937"/><stop stop-opacity="1" stop-color="rgb(12.268066%, 11.795044%, 47.422791%)" offset="0.589844"/><stop stop-opacity="1" stop-color="rgb(12.348938%, 11.87439%, 47.737122%)" offset="0.59375"/><stop stop-opacity="1" stop-color="rgb(12.42981%, 11.952209%, 48.049927%)" offset="0.597656"/><stop stop-opacity="1" stop-color="rgb(12.512207%, 12.030029%, 48.364258%)" offset="0.601562"/><stop stop-opacity="1" stop-color="rgb(12.593079%, 12.107849%, 48.678589%)" offset="0.605469"/><stop stop-opacity="1" stop-color="rgb(12.67395%, 12.187195%, 48.99292%)" offset="0.609375"/><stop stop-opacity="1" stop-color="rgb(12.754822%, 12.265015%, 49.307251%)" offset="0.613281"/><stop stop-opacity="1" stop-color="rgb(12.837219%, 12.342834%, 49.621582%)" offset="0.617187"/><stop stop-opacity="1" stop-color="rgb(12.918091%, 12.420654%, 49.934387%)" offset="0.621094"/><stop stop-opacity="1" stop-color="rgb(12.998962%, 12.498474%, 50.248718%)" offset="0.625"/><stop stop-opacity="1" stop-color="rgb(13.079834%, 12.576294%, 50.563049%)" offset="0.628906"/><stop stop-opacity="1" stop-color="rgb(13.162231%, 12.65564%, 50.87738%)" offset="0.632812"/><stop stop-opacity="1" stop-color="rgb(13.243103%, 12.733459%, 51.191711%)" offset="0.636719"/><stop stop-opacity="1" stop-color="rgb(13.323975%, 12.811279%, 51.506042%)" offset="0.640625"/><stop stop-opacity="1" stop-color="rgb(13.404846%, 12.889099%, 51.818848%)" offset="0.644531"/><stop stop-opacity="1" stop-color="rgb(13.487244%, 12.968445%, 52.133179%)" offset="0.648437"/><stop stop-opacity="1" stop-color="rgb(13.568115%, 13.046265%, 52.44751%)" offset="0.652344"/><stop stop-opacity="1" stop-color="rgb(13.648987%, 13.124084%, 52.761841%)" offset="0.65625"/><stop stop-opacity="1" stop-color="rgb(13.729858%, 13.201904%, 53.076172%)" offset="0.660156"/><stop stop-opacity="1" stop-color="rgb(13.812256%, 13.279724%, 53.390503%)" offset="0.664062"/><stop stop-opacity="1" stop-color="rgb(13.893127%, 13.357544%, 53.703308%)" offset="0.667969"/><stop stop-opacity="1" stop-color="rgb(13.973999%, 13.43689%, 54.017639%)" offset="0.671875"/><stop stop-opacity="1" stop-color="rgb(14.054871%, 13.514709%, 54.33197%)" offset="0.675781"/><stop stop-opacity="1" stop-color="rgb(14.137268%, 13.592529%, 54.646301%)" offset="0.679687"/><stop stop-opacity="1" stop-color="rgb(14.21814%, 13.670349%, 54.960632%)" offset="0.683594"/><stop stop-opacity="1" stop-color="rgb(14.299011%, 13.749695%, 55.274963%)" offset="0.6875"/><stop stop-opacity="1" stop-color="rgb(14.379883%, 13.827515%, 55.587769%)" offset="0.691406"/><stop stop-opacity="1" stop-color="rgb(14.46228%, 13.905334%, 55.9021%)" offset="0.695312"/><stop stop-opacity="1" stop-color="rgb(14.543152%, 13.983154%, 56.216431%)" offset="0.699219"/><stop stop-opacity="1" stop-color="rgb(14.624023%, 14.060974%, 56.530762%)" offset="0.703125"/><stop stop-opacity="1" stop-color="rgb(14.704895%, 14.138794%, 56.843567%)" offset="0.707031"/><stop stop-opacity="1" stop-color="rgb(14.787292%, 14.21814%, 57.157898%)" offset="0.710937"/><stop stop-opacity="1" stop-color="rgb(14.868164%, 14.295959%, 57.472229%)" offset="0.714844"/><stop stop-opacity="1" stop-color="rgb(14.949036%, 14.373779%, 57.78656%)" offset="0.71875"/><stop stop-opacity="1" stop-color="rgb(15.029907%, 14.451599%, 58.100891%)" offset="0.722656"/><stop stop-opacity="1" stop-color="rgb(15.112305%, 14.530945%, 58.415222%)" offset="0.726562"/><stop stop-opacity="1" stop-color="rgb(15.193176%, 14.608765%, 58.728027%)" offset="0.730469"/><stop stop-opacity="1" stop-color="rgb(15.274048%, 14.686584%, 59.042358%)" offset="0.734375"/><stop stop-opacity="1" stop-color="rgb(15.354919%, 14.764404%, 59.356689%)" offset="0.738281"/><stop stop-opacity="1" stop-color="rgb(15.437317%, 14.842224%, 59.671021%)" offset="0.742187"/><stop stop-opacity="1" stop-color="rgb(15.518188%, 14.920044%, 59.985352%)" offset="0.746094"/><stop stop-opacity="1" stop-color="rgb(15.59906%, 14.99939%, 60.299683%)" offset="0.75"/><stop stop-opacity="1" stop-color="rgb(15.679932%, 15.077209%, 60.612488%)" offset="0.753906"/><stop stop-opacity="1" stop-color="rgb(15.762329%, 15.155029%, 60.926819%)" offset="0.757812"/><stop stop-opacity="1" stop-color="rgb(15.843201%, 15.232849%, 61.24115%)" offset="0.761719"/><stop stop-opacity="1" stop-color="rgb(15.924072%, 15.312195%, 61.555481%)" offset="0.765625"/><stop stop-opacity="1" stop-color="rgb(16.004944%, 15.390015%, 61.869812%)" offset="0.769531"/><stop stop-opacity="1" stop-color="rgb(16.087341%, 15.467834%, 62.184143%)" offset="0.773438"/><stop stop-opacity="1" stop-color="rgb(16.168213%, 15.545654%, 62.496948%)" offset="0.777344"/><stop stop-opacity="1" stop-color="rgb(16.249084%, 15.623474%, 62.811279%)" offset="0.78125"/><stop stop-opacity="1" stop-color="rgb(16.329956%, 15.701294%, 63.12561%)" offset="0.785156"/><stop stop-opacity="1" stop-color="rgb(16.412354%, 15.78064%, 63.439941%)" offset="0.789062"/><stop stop-opacity="1" stop-color="rgb(16.493225%, 15.858459%, 63.754272%)" offset="0.792969"/><stop stop-opacity="1" stop-color="rgb(16.574097%, 15.936279%, 64.068604%)" offset="0.796875"/><stop stop-opacity="1" stop-color="rgb(16.654968%, 16.014099%, 64.381409%)" offset="0.800781"/><stop stop-opacity="1" stop-color="rgb(16.737366%, 16.093445%, 64.69574%)" offset="0.804688"/><stop stop-opacity="1" stop-color="rgb(16.818237%, 16.171265%, 65.010071%)" offset="0.808594"/><stop stop-opacity="1" stop-color="rgb(16.899109%, 16.249084%, 65.324402%)" offset="0.8125"/><stop stop-opacity="1" stop-color="rgb(16.97998%, 16.326904%, 65.638733%)" offset="0.816406"/><stop stop-opacity="1" stop-color="rgb(17.062378%, 16.404724%, 65.953064%)" offset="0.820312"/><stop stop-opacity="1" stop-color="rgb(17.14325%, 16.482544%, 66.265869%)" offset="0.824219"/><stop stop-opacity="1" stop-color="rgb(17.224121%, 16.56189%, 66.5802%)" offset="0.828125"/><stop stop-opacity="1" stop-color="rgb(17.304993%, 16.639709%, 66.894531%)" offset="0.832031"/><stop stop-opacity="1" stop-color="rgb(17.38739%, 16.717529%, 67.208862%)" offset="0.835938"/><stop stop-opacity="1" stop-color="rgb(17.468262%, 16.795349%, 67.521667%)" offset="0.839844"/><stop stop-opacity="1" stop-color="rgb(17.549133%, 16.874695%, 67.835999%)" offset="0.84375"/><stop stop-opacity="1" stop-color="rgb(17.630005%, 16.952515%, 68.15033%)" offset="0.847656"/><stop stop-opacity="1" stop-color="rgb(17.712402%, 17.030334%, 68.464661%)" offset="0.851562"/><stop stop-opacity="1" stop-color="rgb(17.793274%, 17.108154%, 68.778992%)" offset="0.855469"/><stop stop-opacity="1" stop-color="rgb(17.874146%, 17.185974%, 69.093323%)" offset="0.859375"/><stop stop-opacity="1" stop-color="rgb(17.955017%, 17.263794%, 69.406128%)" offset="0.863281"/><stop stop-opacity="1" stop-color="rgb(18.037415%, 17.34314%, 69.720459%)" offset="0.867188"/><stop stop-opacity="1" stop-color="rgb(18.118286%, 17.420959%, 70.03479%)" offset="0.871094"/><stop stop-opacity="1" stop-color="rgb(18.199158%, 17.498779%, 70.349121%)" offset="0.875"/><stop stop-opacity="1" stop-color="rgb(18.280029%, 17.576599%, 70.663452%)" offset="0.878906"/><stop stop-opacity="1" stop-color="rgb(18.362427%, 17.655945%, 70.977783%)" offset="0.882812"/><stop stop-opacity="1" stop-color="rgb(18.443298%, 17.733765%, 71.290588%)" offset="0.886719"/><stop stop-opacity="1" stop-color="rgb(18.52417%, 17.811584%, 71.604919%)" offset="0.890625"/><stop stop-opacity="1" stop-color="rgb(18.605042%, 17.889404%, 71.91925%)" offset="0.894531"/><stop stop-opacity="1" stop-color="rgb(18.687439%, 17.967224%, 72.233582%)" offset="0.898438"/><stop stop-opacity="1" stop-color="rgb(18.768311%, 18.045044%, 72.547913%)" offset="0.902344"/><stop stop-opacity="1" stop-color="rgb(18.849182%, 18.12439%, 72.862244%)" offset="0.90625"/><stop stop-opacity="1" stop-color="rgb(18.930054%, 18.202209%, 73.175049%)" offset="0.910156"/><stop stop-opacity="1" stop-color="rgb(19.012451%, 18.280029%, 73.48938%)" offset="0.914062"/><stop stop-opacity="1" stop-color="rgb(19.093323%, 18.357849%, 73.803711%)" offset="0.917969"/><stop stop-opacity="1" stop-color="rgb(19.174194%, 18.437195%, 74.118042%)" offset="0.921875"/><stop stop-opacity="1" stop-color="rgb(19.255066%, 18.515015%, 74.432373%)" offset="0.925781"/><stop stop-opacity="1" stop-color="rgb(19.337463%, 18.592834%, 74.746704%)" offset="0.929688"/><stop stop-opacity="1" stop-color="rgb(19.418335%, 18.670654%, 75.059509%)" offset="0.933594"/><stop stop-opacity="1" stop-color="rgb(19.499207%, 18.748474%, 75.37384%)" offset="0.9375"/><stop stop-opacity="1" stop-color="rgb(19.580078%, 18.826294%, 75.688171%)" offset="0.941406"/><stop stop-opacity="1" stop-color="rgb(19.662476%, 18.90564%, 76.002502%)" offset="0.945312"/><stop stop-opacity="1" stop-color="rgb(19.743347%, 18.983459%, 76.316833%)" offset="0.949219"/><stop stop-opacity="1" stop-color="rgb(19.824219%, 19.061279%, 76.631165%)" offset="0.953125"/><stop stop-opacity="1" stop-color="rgb(19.90509%, 19.139099%, 76.94397%)" offset="0.957031"/><stop stop-opacity="1" stop-color="rgb(19.987488%, 19.218445%, 77.258301%)" offset="0.960938"/><stop stop-opacity="1" stop-color="rgb(20.068359%, 19.296265%, 77.572632%)" offset="0.964844"/><stop stop-opacity="1" stop-color="rgb(20.149231%, 19.374084%, 77.886963%)" offset="0.96875"/><stop stop-opacity="1" stop-color="rgb(20.230103%, 19.451904%, 78.199768%)" offset="0.972656"/><stop stop-opacity="1" stop-color="rgb(20.310974%, 19.529724%, 78.514099%)" offset="0.976562"/><stop stop-opacity="1" stop-color="rgb(20.391846%, 19.607544%, 78.82843%)" offset="0.980469"/><stop stop-opacity="1" stop-color="rgb(20.474243%, 19.68689%, 79.142761%)" offset="0.984375"/><stop stop-opacity="1" stop-color="rgb(20.555115%, 19.764709%, 79.457092%)" offset="0.988281"/><stop stop-opacity="1" stop-color="rgb(20.635986%, 19.842529%, 79.771423%)" offset="0.992188"/><stop stop-opacity="1" stop-color="rgb(20.716858%, 19.920349%, 80.084229%)" offset="0.996094"/><stop stop-opacity="1" stop-color="rgb(20.799255%, 19.999695%, 80.39856%)" offset="1"/></linearGradient><clipPath id="b445c4b3eb"><path d="M 92.050781 140 L 161 140 L 161 222 L 92.050781 222 Z M 92.050781 140 " clip-rule="nonzero"/></clipPath><clipPath id="8501244d16"><path d="M 240 178 L 283.300781 178 L 283.300781 222 L 240 222 Z M 240 178 " clip-rule="nonzero"/></clipPath></defs><rect x="-37.5" fill="url(#984b242780)" width="450" y="-37.499999" height="449.999989"/><g clip-path="url(#b445c4b3eb)"><path fill="#ffffff" d="M 104.515625 143.367188 C 105.222656 142.960938 105.949219 142.589844 106.691406 142.253906 C 107.433594 141.917969 108.191406 141.617188 108.964844 141.355469 C 109.738281 141.097656 110.523438 140.871094 111.320312 140.6875 C 112.113281 140.503906 112.914062 140.355469 113.726562 140.25 C 114.535156 140.144531 115.347656 140.078125 116.164062 140.050781 C 116.980469 140.023438 117.796875 140.039062 118.609375 140.089844 C 119.425781 140.144531 120.234375 140.234375 121.039062 140.367188 C 121.847656 140.5 122.644531 140.671875 123.429688 140.882812 C 124.21875 141.09375 124.996094 141.339844 125.761719 141.628906 C 126.523438 141.914062 127.273438 142.238281 128.003906 142.597656 C 128.738281 142.957031 129.449219 143.351562 130.144531 143.78125 C 130.835938 144.210938 131.507812 144.671875 132.15625 145.167969 C 132.804688 145.664062 133.425781 146.1875 134.019531 146.746094 C 134.617188 147.300781 135.183594 147.882812 135.722656 148.496094 C 136.261719 149.105469 136.765625 149.742188 137.242188 150.40625 C 137.71875 151.066406 138.160156 151.75 138.566406 152.453125 L 157.234375 184.6875 C 157.644531 185.390625 158.015625 186.113281 158.355469 186.851562 C 158.691406 187.59375 158.992188 188.347656 159.253906 189.117188 C 159.515625 189.890625 159.742188 190.671875 159.925781 191.460938 C 160.113281 192.253906 160.257812 193.054688 160.363281 193.859375 C 160.472656 194.664062 160.539062 195.476562 160.566406 196.289062 C 160.59375 197.101562 160.578125 197.914062 160.527344 198.722656 C 160.472656 199.535156 160.378906 200.34375 160.246094 201.144531 C 160.113281 201.949219 159.941406 202.742188 159.730469 203.527344 C 159.519531 204.3125 159.269531 205.085938 158.980469 205.847656 C 158.695312 206.609375 158.371094 207.351562 158.007812 208.082031 C 157.648438 208.8125 157.253906 209.523438 156.820312 210.210938 C 156.390625 210.902344 155.925781 211.570312 155.429688 212.214844 C 154.929688 212.859375 154.402344 213.480469 153.84375 214.074219 C 153.289062 214.667969 152.699219 215.230469 152.085938 215.769531 C 151.472656 216.304688 150.835938 216.808594 150.171875 217.28125 C 149.507812 217.757812 148.820312 218.195312 148.113281 218.601562 C 147.40625 219.011719 146.683594 219.382812 145.9375 219.71875 C 145.195312 220.054688 144.4375 220.351562 143.664062 220.613281 C 142.890625 220.875 142.105469 221.097656 141.3125 221.285156 C 140.515625 221.46875 139.714844 221.613281 138.90625 221.71875 C 138.09375 221.828125 137.28125 221.894531 136.464844 221.917969 C 135.648438 221.945312 134.835938 221.933594 134.019531 221.878906 C 133.207031 221.828125 132.394531 221.734375 131.589844 221.601562 C 130.785156 221.46875 129.988281 221.296875 129.199219 221.089844 C 128.410156 220.878906 127.632812 220.628906 126.867188 220.34375 C 126.105469 220.054688 125.355469 219.734375 124.625 219.375 C 123.890625 219.015625 123.179688 218.621094 122.484375 218.191406 C 121.792969 217.761719 121.121094 217.296875 120.472656 216.804688 C 119.828125 216.308594 119.203125 215.78125 118.609375 215.226562 C 118.011719 214.671875 117.445312 214.085938 116.90625 213.476562 C 116.371094 212.863281 115.863281 212.226562 115.386719 211.566406 C 114.914062 210.90625 114.46875 210.222656 114.0625 209.519531 L 95.394531 177.273438 C 94.984375 176.570312 94.613281 175.847656 94.277344 175.105469 C 93.9375 174.363281 93.640625 173.609375 93.375 172.839844 C 93.113281 172.070312 92.890625 171.289062 92.703125 170.496094 C 92.519531 169.703125 92.371094 168.90625 92.265625 168.101562 C 92.15625 167.292969 92.089844 166.484375 92.0625 165.671875 C 92.039062 164.859375 92.050781 164.046875 92.105469 163.234375 C 92.15625 162.421875 92.25 161.617188 92.382812 160.8125 C 92.515625 160.011719 92.6875 159.21875 92.898438 158.433594 C 93.109375 157.644531 93.359375 156.871094 93.648438 156.113281 C 93.933594 155.351562 94.257812 154.605469 94.621094 153.875 C 94.980469 153.148438 95.378906 152.4375 95.808594 151.746094 C 96.238281 151.054688 96.703125 150.386719 97.203125 149.742188 C 97.699219 149.097656 98.226562 148.476562 98.785156 147.882812 C 99.34375 147.292969 99.929688 146.726562 100.542969 146.191406 C 101.15625 145.652344 101.796875 145.148438 102.460938 144.675781 C 103.121094 144.203125 103.808594 143.761719 104.515625 143.355469 Z M 104.515625 143.367188 " fill-opacity="1" fill-rule="evenodd"/></g><path fill="#ffffff" d="M 182.507812 121.492188 C 181.800781 121.085938 181.074219 120.714844 180.332031 120.378906 C 179.585938 120.042969 178.828125 119.742188 178.054688 119.480469 C 177.28125 119.21875 176.5 118.996094 175.703125 118.8125 C 174.910156 118.625 174.105469 118.480469 173.296875 118.375 C 172.488281 118.269531 171.675781 118.203125 170.859375 118.175781 C 170.042969 118.148438 169.226562 118.160156 168.414062 118.214844 C 167.597656 118.265625 166.789062 118.359375 165.980469 118.492188 C 165.175781 118.625 164.378906 118.796875 163.589844 119.007812 C 162.800781 119.214844 162.027344 119.464844 161.261719 119.75 C 160.496094 120.039062 159.75 120.359375 159.015625 120.722656 C 158.285156 121.082031 157.570312 121.476562 156.878906 121.90625 C 156.183594 122.332031 155.515625 122.796875 154.867188 123.292969 C 154.21875 123.785156 153.597656 124.3125 153 124.867188 C 152.40625 125.425781 151.839844 126.007812 151.300781 126.621094 C 150.761719 127.230469 150.253906 127.867188 149.78125 128.527344 C 149.304688 129.1875 148.863281 129.871094 148.453125 130.578125 L 117.101562 184.6875 C 116.695312 185.390625 116.320312 186.113281 115.984375 186.851562 C 115.648438 187.59375 115.347656 188.347656 115.085938 189.121094 C 114.824219 189.890625 114.601562 190.671875 114.414062 191.460938 C 114.230469 192.253906 114.082031 193.054688 113.976562 193.859375 C 113.871094 194.664062 113.804688 195.476562 113.777344 196.289062 C 113.75 197.101562 113.761719 197.914062 113.816406 198.722656 C 113.871094 199.535156 113.964844 200.339844 114.097656 201.144531 C 114.230469 201.945312 114.402344 202.738281 114.613281 203.527344 C 114.824219 204.3125 115.074219 205.085938 115.359375 205.84375 C 115.648438 206.605469 115.972656 207.351562 116.332031 208.082031 C 116.695312 208.808594 117.089844 209.519531 117.519531 210.210938 C 117.953125 210.902344 118.414062 211.570312 118.914062 212.214844 C 119.410156 212.859375 119.9375 213.480469 120.496094 214.074219 C 121.054688 214.664062 121.640625 215.230469 122.253906 215.765625 C 122.867188 216.304688 123.503906 216.808594 124.167969 217.28125 C 124.832031 217.757812 125.515625 218.195312 126.222656 218.601562 C 126.929688 219.007812 127.65625 219.378906 128.398438 219.714844 C 129.144531 220.050781 129.902344 220.351562 130.675781 220.609375 C 131.449219 220.871094 132.230469 221.09375 133.027344 221.28125 C 133.820312 221.464844 134.625 221.609375 135.433594 221.714844 C 136.242188 221.824219 137.054688 221.890625 137.871094 221.914062 C 138.6875 221.941406 139.503906 221.929688 140.316406 221.875 C 141.132812 221.824219 141.941406 221.730469 142.746094 221.597656 C 143.550781 221.464844 144.351562 221.292969 145.136719 221.082031 C 145.925781 220.871094 146.703125 220.625 147.46875 220.339844 C 148.230469 220.050781 148.980469 219.730469 149.710938 219.371094 C 150.445312 219.011719 151.15625 218.617188 151.851562 218.1875 C 152.542969 217.757812 153.214844 217.292969 153.863281 216.800781 C 154.507812 216.304688 155.132812 215.78125 155.726562 215.222656 C 156.324219 214.667969 156.890625 214.085938 157.429688 213.472656 C 157.96875 212.863281 158.472656 212.226562 158.949219 211.566406 C 159.425781 210.90625 159.867188 210.222656 160.277344 209.519531 L 191.628906 155.394531 C 192.035156 154.691406 192.410156 153.96875 192.746094 153.230469 C 193.085938 152.488281 193.386719 151.734375 193.648438 150.964844 C 193.910156 150.195312 194.136719 149.414062 194.320312 148.621094 C 194.507812 147.828125 194.652344 147.03125 194.761719 146.222656 C 194.867188 145.417969 194.933594 144.605469 194.960938 143.792969 C 194.988281 142.980469 194.976562 142.167969 194.921875 141.359375 C 194.871094 140.546875 194.777344 139.738281 194.644531 138.9375 C 194.511719 138.132812 194.339844 137.339844 194.128906 136.554688 C 193.917969 135.769531 193.667969 134.996094 193.378906 134.234375 C 193.089844 133.472656 192.765625 132.726562 192.40625 131.996094 C 192.042969 131.269531 191.648438 130.558594 191.21875 129.867188 C 190.785156 129.175781 190.320312 128.507812 189.824219 127.863281 C 189.328125 127.21875 188.800781 126.601562 188.242188 126.007812 C 187.683594 125.414062 187.09375 124.847656 186.480469 124.3125 C 185.867188 123.777344 185.226562 123.273438 184.5625 122.796875 C 183.898438 122.324219 183.214844 121.886719 182.507812 121.480469 Z M 182.507812 121.492188 " fill-opacity="1" fill-rule="evenodd"/><path fill="#ff914d" d="M 247.558594 121.492188 C 246.851562 121.085938 246.125 120.714844 245.382812 120.378906 C 244.636719 120.042969 243.878906 119.742188 243.105469 119.480469 C 242.335938 119.21875 241.550781 118.996094 240.753906 118.8125 C 239.960938 118.625 239.15625 118.480469 238.347656 118.375 C 237.539062 118.269531 236.726562 118.203125 235.910156 118.175781 C 235.09375 118.148438 234.277344 118.160156 233.464844 118.214844 C 232.648438 118.265625 231.839844 118.359375 231.035156 118.492188 C 230.226562 118.625 229.429688 118.796875 228.640625 119.007812 C 227.851562 119.214844 227.078125 119.464844 226.3125 119.75 C 225.546875 120.039062 224.800781 120.359375 224.066406 120.722656 C 223.335938 121.082031 222.625 121.476562 221.929688 121.90625 C 221.238281 122.332031 220.566406 122.796875 219.917969 123.292969 C 219.269531 123.785156 218.648438 124.3125 218.054688 124.867188 C 217.457031 125.425781 216.890625 126.007812 216.351562 126.621094 C 215.8125 127.230469 215.308594 127.867188 214.832031 128.527344 C 214.355469 129.1875 213.914062 129.871094 213.507812 130.578125 L 182.152344 184.6875 C 181.746094 185.390625 181.371094 186.113281 181.035156 186.851562 C 180.699219 187.59375 180.398438 188.347656 180.136719 189.117188 C 179.871094 189.890625 179.648438 190.671875 179.460938 191.460938 C 179.277344 192.253906 179.132812 193.054688 179.023438 193.859375 C 178.917969 194.664062 178.851562 195.476562 178.824219 196.289062 C 178.796875 197.101562 178.808594 197.914062 178.863281 198.722656 C 178.917969 199.535156 179.007812 200.34375 179.140625 201.144531 C 179.273438 201.949219 179.449219 202.742188 179.660156 203.527344 C 179.871094 204.3125 180.121094 205.085938 180.40625 205.847656 C 180.695312 206.609375 181.019531 207.351562 181.378906 208.082031 C 181.742188 208.8125 182.136719 209.523438 182.570312 210.210938 C 183 210.902344 183.464844 211.570312 183.960938 212.214844 C 184.457031 212.859375 184.984375 213.480469 185.542969 214.074219 C 186.101562 214.667969 186.6875 215.230469 187.300781 215.769531 C 187.914062 216.304688 188.554688 216.808594 189.21875 217.28125 C 189.882812 217.757812 190.566406 218.195312 191.273438 218.601562 C 191.980469 219.011719 192.707031 219.382812 193.449219 219.71875 C 194.195312 220.054688 194.953125 220.351562 195.726562 220.613281 C 196.5 220.875 197.28125 221.097656 198.078125 221.285156 C 198.871094 221.46875 199.675781 221.613281 200.484375 221.71875 C 201.292969 221.828125 202.105469 221.894531 202.921875 221.917969 C 203.738281 221.945312 204.554688 221.933594 205.367188 221.878906 C 206.183594 221.828125 206.992188 221.734375 207.800781 221.601562 C 208.605469 221.46875 209.402344 221.296875 210.191406 221.089844 C 210.980469 220.878906 211.757812 220.628906 212.519531 220.34375 C 213.285156 220.054688 214.03125 219.734375 214.765625 219.375 C 215.496094 219.015625 216.210938 218.621094 216.902344 218.191406 C 217.597656 217.761719 218.265625 217.296875 218.914062 216.804688 C 219.5625 216.308594 220.183594 215.78125 220.78125 215.226562 C 221.375 214.671875 221.941406 214.085938 222.480469 213.476562 C 223.019531 212.863281 223.527344 212.226562 224 211.566406 C 224.476562 210.90625 224.917969 210.222656 225.328125 209.519531 L 256.691406 155.410156 C 257.101562 154.703125 257.472656 153.980469 257.808594 153.242188 C 258.148438 152.5 258.445312 151.746094 258.710938 150.976562 C 258.972656 150.207031 259.195312 149.425781 259.382812 148.632812 C 259.566406 147.839844 259.714844 147.042969 259.820312 146.234375 C 259.925781 145.429688 259.996094 144.621094 260.019531 143.808594 C 260.046875 142.992188 260.035156 142.183594 259.980469 141.371094 C 259.929688 140.558594 259.835938 139.75 259.703125 138.949219 C 259.570312 138.148438 259.398438 137.351562 259.1875 136.566406 C 258.976562 135.78125 258.726562 135.007812 258.4375 134.246094 C 258.152344 133.488281 257.828125 132.742188 257.464844 132.011719 C 257.105469 131.28125 256.707031 130.574219 256.277344 129.882812 C 255.84375 129.191406 255.382812 128.523438 254.882812 127.878906 C 254.386719 127.234375 253.859375 126.613281 253.300781 126.019531 C 252.742188 125.425781 252.15625 124.863281 251.542969 124.324219 C 250.929688 123.789062 250.289062 123.285156 249.625 122.8125 C 248.960938 122.339844 248.277344 121.898438 247.570312 121.492188 Z M 247.558594 121.492188 " fill-opacity="1" fill-rule="evenodd"/><g clip-path="url(#8501244d16)"><path fill="#ff914d" d="M 240.222656 199.9375 C 240.222656 199.234375 240.257812 198.53125 240.328125 197.832031 C 240.398438 197.132812 240.5 196.441406 240.636719 195.75 C 240.777344 195.0625 240.945312 194.382812 241.152344 193.710938 C 241.355469 193.035156 241.59375 192.375 241.863281 191.726562 C 242.132812 191.078125 242.433594 190.445312 242.769531 189.824219 C 243.101562 189.203125 243.460938 188.601562 243.855469 188.019531 C 244.246094 187.433594 244.664062 186.871094 245.113281 186.328125 C 245.5625 185.785156 246.035156 185.265625 246.53125 184.765625 C 247.03125 184.269531 247.554688 183.800781 248.097656 183.355469 C 248.644531 182.90625 249.210938 182.488281 249.796875 182.097656 C 250.382812 181.710938 250.988281 181.347656 251.609375 181.015625 C 252.230469 180.6875 252.867188 180.386719 253.519531 180.117188 C 254.171875 179.847656 254.835938 179.613281 255.511719 179.40625 C 256.183594 179.203125 256.867188 179.035156 257.558594 178.894531 C 258.253906 178.757812 258.949219 178.65625 259.652344 178.585938 C 260.351562 178.519531 261.058594 178.484375 261.761719 178.484375 C 262.46875 178.484375 263.171875 178.519531 263.875 178.585938 C 264.574219 178.65625 265.273438 178.757812 265.964844 178.894531 C 266.65625 179.035156 267.339844 179.203125 268.015625 179.40625 C 268.691406 179.613281 269.351562 179.847656 270.003906 180.117188 C 270.65625 180.386719 271.292969 180.6875 271.914062 181.015625 C 272.539062 181.347656 273.140625 181.710938 273.726562 182.097656 C 274.316406 182.488281 274.878906 182.90625 275.425781 183.355469 C 275.972656 183.800781 276.492188 184.269531 276.992188 184.765625 C 277.492188 185.265625 277.964844 185.785156 278.410156 186.328125 C 278.859375 186.871094 279.277344 187.433594 279.671875 188.019531 C 280.0625 188.601562 280.425781 189.203125 280.757812 189.824219 C 281.089844 190.445312 281.390625 191.078125 281.660156 191.726562 C 281.929688 192.375 282.167969 193.035156 282.371094 193.710938 C 282.578125 194.382812 282.75 195.0625 282.886719 195.75 C 283.023438 196.441406 283.128906 197.132812 283.195312 197.832031 C 283.265625 198.53125 283.300781 199.234375 283.300781 199.9375 C 283.300781 200.640625 283.265625 201.339844 283.195312 202.039062 C 283.128906 202.738281 283.023438 203.433594 282.886719 204.121094 C 282.75 204.8125 282.578125 205.492188 282.371094 206.164062 C 282.167969 206.835938 281.929688 207.496094 281.660156 208.144531 C 281.390625 208.796875 281.089844 209.429688 280.757812 210.050781 C 280.425781 210.667969 280.0625 211.269531 279.671875 211.855469 C 279.277344 212.4375 278.859375 213.003906 278.410156 213.546875 C 277.964844 214.089844 277.492188 214.609375 276.992188 215.105469 C 276.492188 215.601562 275.972656 216.074219 275.425781 216.519531 C 274.878906 216.964844 274.316406 217.382812 273.726562 217.773438 C 273.140625 218.164062 272.539062 218.523438 271.914062 218.855469 C 271.292969 219.1875 270.65625 219.488281 270.003906 219.757812 C 269.351562 220.023438 268.691406 220.261719 268.015625 220.464844 C 267.339844 220.667969 266.65625 220.839844 265.964844 220.976562 C 265.273438 221.113281 264.574219 221.214844 263.875 221.285156 C 263.171875 221.355469 262.46875 221.390625 261.761719 221.390625 C 261.058594 221.390625 260.351562 221.355469 259.652344 221.285156 C 258.949219 221.214844 258.253906 221.113281 257.558594 220.976562 C 256.867188 220.839844 256.183594 220.667969 255.511719 220.464844 C 254.835938 220.261719 254.171875 220.023438 253.519531 219.757812 C 252.867188 219.488281 252.230469 219.1875 251.609375 218.855469 C 250.988281 218.523438 250.382812 218.164062 249.796875 217.773438 C 249.210938 217.382812 248.644531 216.964844 248.097656 216.519531 C 247.554688 216.074219 247.03125 215.601562 246.53125 215.105469 C 246.035156 214.609375 245.5625 214.089844 245.113281 213.546875 C 244.664062 213.003906 244.246094 212.4375 243.855469 211.855469 C 243.460938 211.269531 243.101562 210.667969 242.769531 210.050781 C 242.433594 209.429688 242.132812 208.796875 241.863281 208.144531 C 241.59375 207.496094 241.355469 206.835938 241.152344 206.164062 C 240.945312 205.492188 240.777344 204.8125 240.636719 204.121094 C 240.5 203.433594 240.398438 202.738281 240.328125 202.039062 C 240.257812 201.339844 240.222656 200.640625 240.222656 199.9375 Z M 240.222656 199.9375 " fill-opacity="1" fill-rule="evenodd"/></g></svg>