<svg width="964" height="520" viewBox="0 0 964 520" fill="none" xmlns="http://www.w3.org/2000/svg">
<path d="M445.6 71.23V206.92H250.72L243.7 72.18L445.6 71.23Z" fill="#E0E0E0"/>
<path d="M243.7 72.18V206.63H438.58V72.18H243.7Z" fill="white"/>
<path d="M439.5 207.56H242.78V71.26H439.5V207.56ZM244.63 205.71H437.63V73.11H244.63V205.71Z" fill="#E0E0E0"/>
<path d="M417.47 88.89H264.81V189.93H417.47V88.89Z" fill="white"/>
<path d="M417.47 88.89H416.72H414.55L406.17 88.94L374.71 89.06L264.81 89.28L265.25 88.84C265.25 119.71 265.25 153.91 265.25 189.84L264.77 189.36L417.43 189.45L417.05 189.84C417.13 159.09 417.2 133.84 417.25 116.32C417.25 107.55 417.33 100.69 417.35 95.99C417.35 93.67 417.35 91.89 417.35 90.65C417.35 89.41 417.35 88.8 417.35 88.8C417.35 88.8 417.35 89.39 417.35 90.57C417.35 91.75 417.35 93.57 417.4 95.84C417.4 100.52 417.45 107.35 417.5 116.08C417.5 133.7 417.61 158.99 417.7 189.84V190.22H417.31L264.65 190.32H264.17V189.84C264.17 153.84 264.17 119.68 264.17 88.84V88.39H264.61L375 88.66L406.37 88.78L414.66 88.84H416.78C417.25 88.87 417.47 88.89 417.47 88.89Z" fill="#E0E0E0"/>
<path d="M243.7 71.81C243.78 71.7 245.06 72.54 247.05 73.98C249.04 75.42 251.76 77.46 254.69 79.8C257.62 82.14 260.2 84.37 262 86C263.046 86.833 263.983 87.7939 264.79 88.86C264.61 89.06 259.92 85.2 254.07 80.52C248.22 75.84 243.53 72 243.7 71.81Z" fill="#E0E0E0"/>
<path d="M438.58 72.18C438.74 72.39 434.15 76.3 428.33 80.91C422.51 85.52 417.64 89.1 417.47 88.91C417.3 88.72 421.9 84.79 427.73 80.18C433.56 75.57 438.41 72 438.58 72.18Z" fill="#E0E0E0"/>
<path d="M438.43 206.65L416.7 189Z" fill="white"/>
<path d="M416.7 189C416.86 188.79 421.86 192.57 427.86 197.43C433.86 202.29 438.59 206.43 438.43 206.61C438.27 206.79 433.26 203.04 427.26 198.18C421.26 193.32 416.53 189.25 416.7 189Z" fill="#E0E0E0"/>
<path d="M243.7 206.63C243.54 206.42 248.08 202.56 253.85 197.99C259.62 193.42 264.43 189.9 264.59 190.11C264.75 190.32 260.22 194.19 254.45 198.75C248.68 203.31 243.87 206.84 243.7 206.63Z" fill="#E0E0E0"/>
<path d="M295.8 120.37V154.2H391.86V120.37H295.8Z" fill="#E0E0E0"/>
<path d="M659.3 238.15H527.68V486.95H659.3V238.15Z" fill="#E0E0E0"/>
<path d="M620.24 238.15H488.62V486.95H620.24V238.15Z" fill="#F5F5F5"/>
<path d="M610.55 289.37H497.55V249.93H610.55V289.37ZM499 288H609.2V251.32H499V288Z" fill="#E0E0E0"/>
<path d="M533.39 250.62H576.26V253.53C576.26 254.843 575.738 256.102 574.81 257.03C573.882 257.958 572.623 258.48 571.31 258.48H538.31C537.66 258.48 537.016 258.352 536.416 258.103C535.815 257.854 535.269 257.49 534.81 257.03C534.35 256.571 533.986 256.025 533.737 255.424C533.488 254.824 533.36 254.18 533.36 253.53V250.62H533.39Z" fill="#EBEBEB"/>
<path d="M610.55 339.46H497.55V300H610.55V339.46ZM499 338.07H609.2V301.41H499V338.07Z" fill="#E0E0E0"/>
<path d="M533.39 300.72H576.26V303.63C576.26 304.943 575.738 306.202 574.81 307.13C573.882 308.058 572.623 308.58 571.31 308.58H538.31C537.66 308.58 537.016 308.452 536.416 308.203C535.815 307.954 535.269 307.59 534.81 307.13C534.35 306.671 533.986 306.125 533.737 305.524C533.488 304.924 533.36 304.28 533.36 303.63V300.72H533.39Z" fill="#EBEBEB"/>
<path d="M610.55 389.56H497.55V350.12H610.55V389.56ZM499 388.17H609.2V351.51H499V388.17Z" fill="#E0E0E0"/>
<path d="M533.39 350.81H576.26V353.72C576.26 355.033 575.738 356.292 574.81 357.22C573.882 358.149 572.623 358.67 571.31 358.67H538.31C537.66 358.67 537.016 358.542 536.416 358.293C535.815 358.045 535.269 357.68 534.81 357.22C534.35 356.761 533.986 356.215 533.737 355.614C533.488 355.014 533.36 354.37 533.36 353.72V350.81H533.39Z" fill="#EBEBEB"/>
<path d="M610.55 439.66H497.55V400.22H610.55V439.66ZM499 438.27H609.2V401.61H499V438.27Z" fill="#E0E0E0"/>
<path d="M533.39 400.91H576.26V403.82C576.26 405.133 575.738 406.392 574.81 407.32C573.882 408.248 572.623 408.77 571.31 408.77H538.31C537.66 408.77 537.016 408.642 536.416 408.393C535.815 408.144 535.269 407.78 534.81 407.32C534.35 406.86 533.986 406.315 533.737 405.714C533.488 405.114 533.36 404.47 533.36 403.82V400.91H533.39Z" fill="#EBEBEB"/>
<path d="M625.74 228.84H482.78V241.23H625.74V228.84Z" fill="#EBEBEB"/>
<path d="M668.73 228.84H625.74V241.23H668.73V228.84Z" fill="#E0E0E0"/>
<path d="M495.54 486.95H488.62V499.66H495.54V486.95Z" fill="#E0E0E0"/>
<path d="M538.27 486.95H531.35V499.66H538.27V486.95Z" fill="#E0E0E0"/>
<path d="M616.34 486.95H609.42V499.66H616.34V486.95Z" fill="#E0E0E0"/>
<path d="M655.37 486.95H648.45V499.66H655.37V486.95Z" fill="#E0E0E0"/>
<path d="M610.48 195.76L623.8 229.84L615.52 229.8L608.88 208.86L610.48 195.76Z" fill="#E0E0E0"/>
<path d="M564.98 164.26L560.4 229.57L607.68 230.56L613 164.26H564.98Z" fill="#EBEBEB"/>
<path d="M569.71 169.52L565.9 223.88L601.05 225.53L605.96 169.2L569.71 169.52Z" fill="#FAFAFA"/>
<path d="M577.43 177.21L574.58 215.42H593.96L597.38 177.21H577.43Z" fill="#E0E0E0"/>
<path d="M227.8 349.45H26.86V442.12H227.8V349.45Z" fill="#F5F5F5"/>
<path d="M223 437.76H31.46V354.33H223V437.76ZM32.71 436.51H221.77V355.58H32.71V436.51Z" fill="#E0E0E0"/>
<path d="M276.89 349.45H227.8V442.12H276.89V349.45Z" fill="#E0E0E0"/>
<path d="M32.09 380.15H222.39C222.449 380.138 222.502 380.106 222.54 380.06C222.578 380.013 222.599 379.955 222.599 379.895C222.599 379.835 222.578 379.776 222.54 379.73C222.502 379.683 222.449 379.652 222.39 379.64H32.09C32.031 379.652 31.9779 379.683 31.9398 379.73C31.9016 379.776 31.8807 379.835 31.8807 379.895C31.8807 379.955 31.9016 380.013 31.9398 380.06C31.9779 380.106 32.031 380.138 32.09 380.15Z" fill="#E0E0E0"/>
<path d="M127.86 379.9C128.388 371.516 128.412 363.107 127.93 354.72C127.93 354.651 127.903 354.585 127.854 354.536C127.805 354.487 127.739 354.46 127.67 354.46C127.601 354.46 127.535 354.487 127.486 354.536C127.437 354.585 127.41 354.651 127.41 354.72C126.928 363.107 126.952 371.516 127.48 379.9C127.48 379.95 127.5 379.999 127.536 380.034C127.571 380.07 127.62 380.09 127.67 380.09C127.72 380.09 127.769 380.07 127.804 380.034C127.84 379.999 127.86 379.95 127.86 379.9Z" fill="#E0E0E0"/>
<path d="M179.09 367.31C179.092 367.825 178.941 368.328 178.657 368.757C178.372 369.186 177.967 369.521 177.492 369.719C177.017 369.918 176.494 369.97 175.989 369.871C175.484 369.772 175.02 369.525 174.655 369.162C174.29 368.799 174.042 368.336 173.941 367.831C173.84 367.326 173.89 366.803 174.087 366.327C174.283 365.852 174.617 365.445 175.044 365.159C175.472 364.873 175.975 364.72 176.49 364.72C176.831 364.719 177.169 364.785 177.484 364.914C177.8 365.044 178.086 365.234 178.328 365.475C178.569 365.716 178.761 366.002 178.892 366.317C179.023 366.631 179.09 366.969 179.09 367.31Z" fill="#E0E0E0"/>
<path d="M79.21 367.31C79.21 367.822 79.0581 368.323 78.7735 368.749C78.4889 369.175 78.0844 369.507 77.6111 369.703C77.1379 369.899 76.6171 369.95 76.1147 369.85C75.6123 369.75 75.1508 369.504 74.7886 369.141C74.4263 368.779 74.1797 368.318 74.0797 367.815C73.9798 367.313 74.0311 366.792 74.2271 366.319C74.4232 365.846 74.7551 365.441 75.181 365.156C75.607 364.872 76.1077 364.72 76.62 364.72C76.9601 364.72 77.2969 364.787 77.6111 364.917C77.9254 365.047 78.2109 365.238 78.4514 365.479C78.6919 365.719 78.8827 366.005 79.0128 366.319C79.143 366.633 79.21 366.97 79.21 367.31Z" fill="#E0E0E0"/>
<path d="M127.24 398.63C128.67 398.63 129.83 397.47 129.83 396.04C129.83 394.61 128.67 393.45 127.24 393.45C125.81 393.45 124.65 394.61 124.65 396.04C124.65 397.47 125.81 398.63 127.24 398.63Z" fill="#E0E0E0"/>
<path d="M50.89 442.12L40.54 500.3H46.36L65.44 442.12H50.89Z" fill="#E0E0E0"/>
<path d="M213.59 442.12L222.24 500.4H216.42L199.04 442.12H213.59Z" fill="#E0E0E0"/>
<path d="M252.43 442.12L262.23 500.4H256.41L237.88 442.12H252.43Z" fill="#E0E0E0"/>
<path d="M129.66 422.27C129.662 422.785 129.511 423.289 129.226 423.718C128.941 424.147 128.535 424.482 128.06 424.68C127.584 424.878 127.061 424.93 126.555 424.83C126.05 424.73 125.586 424.483 125.222 424.118C124.857 423.754 124.609 423.29 124.509 422.785C124.409 422.279 124.462 421.756 124.66 421.28C124.858 420.805 125.193 420.399 125.622 420.114C126.051 419.829 126.555 419.678 127.07 419.68C127.757 419.68 128.416 419.953 128.901 420.439C129.387 420.924 129.66 421.583 129.66 422.27Z" fill="#E0E0E0"/>
<path d="M32.09 408.84H222.39C222.456 408.84 222.52 408.814 222.567 408.767C222.614 408.72 222.64 408.656 222.64 408.59C222.64 408.524 222.614 408.46 222.567 408.413C222.52 408.366 222.456 408.34 222.39 408.34H32.09C32.0237 408.34 31.9601 408.366 31.9132 408.413C31.8663 408.46 31.84 408.524 31.84 408.59C31.84 408.656 31.8663 408.72 31.9132 408.767C31.9601 408.814 32.0237 408.84 32.09 408.84Z" fill="#E0E0E0"/>
<path d="M187.67 349.41C187.67 349.41 187.5 349.41 187.18 349.32C186.86 349.23 186.37 349.16 185.73 349.08C183.864 348.879 181.986 348.813 180.11 348.88C178.88 348.88 177.52 348.88 176.02 348.76C174.389 348.654 172.786 348.289 171.27 347.68C169.503 346.963 168.015 345.693 167.03 344.06C166.491 343.147 166.176 342.119 166.11 341.06C166.048 339.968 166.362 338.888 167 338C167.692 337.052 168.67 336.351 169.79 336C170.379 335.807 171.005 335.759 171.616 335.86C172.227 335.961 172.805 336.208 173.3 336.58C173.789 336.99 174.189 337.497 174.475 338.068C174.76 338.639 174.925 339.262 174.96 339.9C175.042 341.222 174.691 342.535 173.96 343.64C173.224 344.758 172.288 345.731 171.2 346.51C170.099 347.331 168.896 348.003 167.62 348.51C164.947 349.581 162.048 349.959 159.19 349.61C156.176 349.278 153.322 348.084 150.97 346.17C148.54 344.152 146.716 341.501 145.7 338.51C144.617 335.415 144.499 332.064 145.36 328.9C145.818 327.284 146.593 325.774 147.64 324.46C148.703 323.103 150.138 322.085 151.77 321.53C153.413 320.99 155.186 320.99 156.83 321.53C157.649 321.79 158.404 322.22 159.045 322.792C159.686 323.364 160.199 324.066 160.55 324.85C161.209 326.403 161.328 328.131 160.89 329.76C160.506 331.366 159.673 332.829 158.49 333.98C156.081 336.07 152.989 337.202 149.8 337.16C146.786 337.187 143.797 336.623 141 335.5C135.879 333.383 131.398 329.967 128 325.59C125.002 321.819 122.674 317.56 121.12 313C119.839 309.258 118.879 305.415 118.25 301.51C117.68 298.07 117.36 295.08 117.13 292.64C116.9 290.2 116.75 288.31 116.66 287.02C116.66 286.39 116.59 285.91 116.56 285.55C116.53 285.19 116.56 285.05 116.56 285.05C116.56 285.05 116.56 285.22 116.63 285.55C116.7 285.88 116.71 286.38 116.77 287.01C116.91 288.32 117.09 290.2 117.34 292.62C117.59 295.04 117.95 298.04 118.55 301.46C119.204 305.339 120.184 309.156 121.48 312.87C123.025 317.38 125.339 321.589 128.32 325.31C131.695 329.617 136.134 332.971 141.2 335.04C143.939 336.123 146.865 336.656 149.81 336.61C152.873 336.653 155.845 335.567 158.16 333.56C159.273 332.466 160.053 331.079 160.41 329.56C160.82 328.041 160.711 326.43 160.1 324.98C159.773 324.269 159.301 323.635 158.713 323.118C158.126 322.601 157.437 322.214 156.69 321.98C155.15 321.475 153.49 321.475 151.95 321.98C150.414 322.5 149.062 323.456 148.06 324.73C147.058 325.991 146.317 327.439 145.88 328.99C145.038 332.054 145.149 335.301 146.2 338.3C147.189 341.199 148.953 343.772 151.3 345.74C153.589 347.602 156.367 348.762 159.3 349.08C162.078 349.431 164.9 349.069 167.5 348.03C169.972 347.13 172.113 345.502 173.64 343.36C174.345 342.345 174.697 341.125 174.64 339.89C174.615 339.307 174.469 338.735 174.213 338.21C173.956 337.685 173.595 337.219 173.15 336.84C172.703 336.507 172.183 336.285 171.633 336.195C171.083 336.104 170.52 336.147 169.99 336.32C168.952 336.64 168.044 337.285 167.4 338.16C166.786 338.998 166.485 340.024 166.55 341.06C166.609 342.052 166.904 343.015 167.41 343.87C168.349 345.452 169.772 346.69 171.47 347.4C172.961 348.004 174.536 348.375 176.14 348.5C177.61 348.64 178.97 348.64 180.2 348.65C182.085 348.608 183.971 348.712 185.84 348.96C186.462 349.054 187.075 349.205 187.67 349.41Z" fill="#E0E0E0"/>
<path d="M91.73 285.54L75.85 349.52H82.29L98.77 285.54H91.73Z" fill="#F5F5F5"/>
<path d="M137.77 285.54L153.65 349.52H147.21L130.73 285.54H137.77Z" fill="#F5F5F5"/>
<path d="M117.73 268.15H110.24V349.52H117.73V268.15Z" fill="#F5F5F5"/>
<path d="M166.64 202.89H60.97V270.59H166.64V202.89Z" fill="#E0E0E0"/>
<path d="M140.35 284.51H87.31V291.05H140.35V284.51Z" fill="#F5F5F5"/>
<path d="M68 261.75C68.0557 262.161 68.0791 262.575 68.07 262.99H67.93C67.82 259.68 67.74 248.71 67.74 235.71C67.74 227.87 67.8 220.77 67.82 215.55C67.82 213.02 67.88 210.95 67.9 209.44C67.9 208.76 67.9 208.21 67.9 207.77C67.8716 207.581 67.8716 207.389 67.9 207.2C67.9385 207.387 67.9553 207.579 67.95 207.77C67.95 208.21 67.95 208.77 67.95 209.44C67.95 210.95 67.95 213.02 68.03 215.55C68.03 220.77 68.03 227.87 68.11 235.71C68.11 248.71 68.03 259.71 67.92 262.99H67.78C67.8134 262.571 67.8871 262.155 68 261.75Z" fill="#F5F5F5"/>
<path d="M75.85 261.75C75.9133 262.16 75.9401 262.575 75.93 262.99H75.78C75.67 259.68 75.59 248.71 75.59 235.71C75.59 227.87 75.65 220.77 75.67 215.55C75.67 213.02 75.73 210.95 75.75 209.44C75.75 208.76 75.75 208.21 75.75 207.77C75.7346 207.58 75.7346 207.39 75.75 207.2C75.7961 207.386 75.8162 207.578 75.81 207.77C75.81 208.21 75.81 208.77 75.81 209.44C75.81 210.95 75.81 213.02 75.89 215.55C75.89 220.77 75.89 227.87 75.96 235.71C75.96 248.71 75.88 259.71 75.78 262.99H75.63C75.6703 262.571 75.7439 262.157 75.85 261.75Z" fill="#F5F5F5"/>
<path d="M83.72 261.75C83.7757 262.161 83.7991 262.575 83.79 262.99H83.65C83.54 259.68 83.46 248.71 83.46 235.71C83.46 227.87 83.51 220.77 83.53 215.55C83.53 213.02 83.6 210.95 83.62 209.44C83.62 208.76 83.62 208.21 83.62 207.77C83.5916 207.581 83.5916 207.389 83.62 207.2C83.6418 207.389 83.6418 207.581 83.62 207.77C83.62 208.21 83.62 208.77 83.62 209.44C83.62 210.95 83.67 213.02 83.7 215.55C83.7 220.77 83.7 227.87 83.78 235.71C83.78 248.71 83.7 259.71 83.59 262.99H83.45C83.4997 262.569 83.5902 262.154 83.72 261.75Z" fill="#F5F5F5"/>
<path d="M91.58 261.75C91.6424 262.16 91.6659 262.575 91.65 262.99H91.51C91.4 259.68 91.32 248.71 91.32 235.71C91.32 227.87 91.38 220.77 91.4 215.55C91.4 213.02 91.46 210.95 91.48 209.44C91.48 208.76 91.48 208.21 91.53 207.77C91.5247 207.579 91.5415 207.387 91.58 207.2C91.6261 207.386 91.6463 207.578 91.64 207.77C91.64 208.21 91.64 208.77 91.64 209.44C91.64 210.95 91.64 213.02 91.73 215.55C91.73 220.77 91.73 227.87 91.8 235.71C91.8 248.71 91.72 259.71 91.61 262.99H91.47C91.4741 262.574 91.5109 262.16 91.58 261.75Z" fill="#F5F5F5"/>
<path d="M99.45 261.75C99.5057 262.161 99.5291 262.575 99.52 262.99H99.37C99.27 259.68 99.19 248.71 99.19 235.71C99.19 227.87 99.24 220.77 99.26 215.55C99.26 213.02 99.33 210.95 99.35 209.44C99.35 208.76 99.35 208.21 99.35 207.77C99.3437 207.578 99.3639 207.386 99.41 207.2C99.442 207.388 99.4587 207.579 99.46 207.77C99.46 208.21 99.46 208.77 99.51 209.44C99.51 210.95 99.51 213.02 99.59 215.55C99.59 220.77 99.64 227.87 99.67 235.71C99.67 248.71 99.59 259.71 99.48 262.99H99.33C99.3331 262.574 99.3732 262.159 99.45 261.75Z" fill="#F5F5F5"/>
<path d="M107.31 261.75C107.372 262.16 107.396 262.575 107.38 262.99H107.24C107.13 259.68 107.05 248.71 107.05 235.71C107.05 227.87 107.11 220.77 107.13 215.55C107.13 213.02 107.19 210.95 107.21 209.44C107.21 208.76 107.21 208.21 107.21 207.77C107.205 207.579 107.221 207.387 107.26 207.2C107.305 207.386 107.322 207.579 107.31 207.77C107.31 208.21 107.31 208.77 107.31 209.44C107.31 210.95 107.36 213.02 107.4 215.55C107.4 220.77 107.4 227.87 107.47 235.71C107.47 248.71 107.39 259.71 107.28 262.99H107.14C107.164 262.573 107.221 262.158 107.31 261.75Z" fill="#F5F5F5"/>
<path d="M115.18 261.75C115.236 262.161 115.259 262.575 115.25 262.99H115.1C114.99 259.68 114.92 248.71 114.92 235.71C114.92 227.87 114.97 220.77 114.99 215.55C114.99 213.02 115.05 210.95 115.07 209.44C115.07 208.76 115.07 208.21 115.12 207.77C115.114 207.578 115.134 207.386 115.18 207.2C115.195 207.39 115.195 207.58 115.18 207.77C115.18 208.21 115.18 208.77 115.23 209.44C115.23 210.95 115.28 213.02 115.31 215.55C115.31 220.77 115.31 227.87 115.39 235.71C115.39 248.71 115.31 259.71 115.2 262.99H115.05C115.056 262.574 115.1 262.159 115.18 261.75Z" fill="#F5F5F5"/>
<path d="M123 261.75C123.062 262.16 123.086 262.575 123.07 262.99H123C122.89 259.68 122.81 248.71 122.81 235.71C122.81 227.87 122.87 220.77 122.89 215.55C122.89 213.02 122.95 210.95 122.97 209.44C122.97 208.76 122.97 208.21 123.02 207.77C122.992 207.581 122.992 207.389 123.02 207.2C123.065 207.386 123.082 207.579 123.07 207.77C123.07 208.21 123.07 208.77 123.07 209.44C123.07 210.95 123.12 213.02 123.15 215.55C123.15 220.77 123.2 227.87 123.23 235.71C123.23 248.71 123.15 259.71 123.04 262.99H123C122.961 262.578 122.961 262.162 123 261.75Z" fill="#F5F5F5"/>
<path d="M130.9 261.75C130.971 262.163 131.004 262.581 131 263H130.85C130.74 259.69 130.66 248.72 130.66 235.72C130.66 227.88 130.72 220.78 130.74 215.56C130.74 213.03 130.8 210.96 130.82 209.45C130.82 208.77 130.82 208.22 130.82 207.78C130.821 207.589 130.838 207.398 130.87 207.21C130.916 207.396 130.936 207.588 130.93 207.78C130.93 208.22 130.93 208.78 130.93 209.45C130.93 210.96 130.93 213.03 131.01 215.56C131.01 220.78 131.01 227.88 131.08 235.72C131.08 248.72 131.01 259.72 130.9 263H130.75C130.774 262.581 130.824 262.163 130.9 261.75Z" fill="#F5F5F5"/>
<path d="M138.77 261.75C138.826 262.161 138.849 262.575 138.84 262.99H138.7C138.59 259.68 138.51 248.71 138.51 235.71C138.51 227.87 138.56 220.77 138.58 215.55C138.58 213.02 138.65 210.95 138.67 209.44C138.67 208.76 138.67 208.21 138.72 207.77C138.708 207.579 138.725 207.386 138.77 207.2C138.792 207.389 138.792 207.581 138.77 207.77C138.77 208.21 138.77 208.77 138.82 209.44C138.82 210.95 138.82 213.02 138.9 215.55C138.9 220.77 138.95 227.87 138.98 235.71C138.98 248.71 138.9 259.71 138.79 262.99H138.65C138.651 262.574 138.691 262.159 138.77 261.75Z" fill="#F5F5F5"/>
<path d="M146.63 261.75C146.693 262.16 146.72 262.575 146.71 262.99H146.56C146.45 259.68 146.37 248.71 146.37 235.71C146.37 227.87 146.43 220.77 146.45 215.55C146.45 213.02 146.51 210.95 146.53 209.44C146.53 208.76 146.53 208.21 146.58 207.77C146.565 207.58 146.565 207.39 146.58 207.2C146.626 207.386 146.646 207.578 146.64 207.77C146.64 208.21 146.64 208.77 146.64 209.44C146.64 210.95 146.69 213.02 146.73 215.55C146.73 220.77 146.73 227.87 146.8 235.71C146.8 248.71 146.72 259.71 146.62 262.99H146.47C146.491 262.573 146.544 262.158 146.63 261.75Z" fill="#F5F5F5"/>
<path d="M154.5 261.75C154.556 262.161 154.579 262.575 154.57 262.99H154.43C154.32 259.68 154.24 248.71 154.24 235.71C154.24 227.87 154.24 220.77 154.31 215.55C154.31 213.02 154.38 210.95 154.4 209.44C154.4 208.76 154.4 208.21 154.4 207.77C154.388 207.579 154.405 207.386 154.45 207.2C154.488 207.387 154.505 207.579 154.5 207.77C154.5 208.21 154.5 208.77 154.5 209.44C154.5 210.95 154.55 213.02 154.58 215.55C154.58 220.77 154.58 227.87 154.66 235.71C154.66 248.71 154.58 259.71 154.47 262.99H154.33C154.347 262.572 154.404 262.157 154.5 261.75Z" fill="#F5F5F5"/>
<path d="M162.36 261.75C162.422 262.16 162.446 262.575 162.43 262.99H162.29C162.18 259.68 162.1 248.71 162.1 235.71C162.1 227.87 162.16 220.77 162.18 215.55C162.18 213.02 162.24 210.95 162.26 209.44C162.26 208.76 162.26 208.21 162.31 207.77C162.305 207.579 162.321 207.387 162.36 207.2C162.388 207.389 162.388 207.581 162.36 207.77C162.36 208.21 162.36 208.77 162.41 209.44C162.41 210.95 162.41 213.02 162.5 215.55C162.5 220.77 162.5 227.87 162.57 235.71C162.57 248.71 162.49 259.71 162.38 262.99H162.24C162.247 262.574 162.288 262.16 162.36 261.75Z" fill="#F5F5F5"/>
<path d="M136.35 417.84C140.73 415.58 145.88 415.28 150.74 416.09C153.36 416.52 156.08 417.3 157.86 419.26C159.64 421.22 159.97 424.68 157.93 426.36C156.617 427.255 155.031 427.658 153.45 427.5C149.64 427.5 145.45 426.79 142.38 429.08C140.64 430.38 139.49 432.56 137.38 433.2C136.343 433.441 135.255 433.338 134.282 432.905C133.309 432.471 132.505 431.732 131.99 430.8C130.995 428.893 130.776 426.675 131.38 424.61C131.627 423.173 132.204 421.814 133.067 420.639C133.929 419.464 135.053 418.506 136.35 417.84Z" fill="#F98C8C"/>
<path d="M126.31 398.47C128.99 402.29 134.19 401.02 136.61 398.69C139.03 396.36 140 393 141 389.74C143.12 382.37 145.26 374.64 143.68 367.13C143.302 364.853 142.301 362.725 140.79 360.98C140.026 360.12 139.049 359.476 137.957 359.113C136.865 358.749 135.697 358.679 134.57 358.91C131.95 359.6 130.32 362.17 129.14 364.62C125.667 371.838 123.846 379.74 123.81 387.75C123.81 391.48 124.24 395.39 126.34 398.47" fill="#F98C8C"/>
<path d="M119 404.14C121.9 400.68 122.46 395.65 121.16 391.33C119.86 387.01 116.95 383.33 113.58 380.33C109.614 376.805 104.997 374.087 99.99 372.33C98.0497 371.559 95.9651 371.217 93.88 371.33C92.8388 371.391 91.8282 371.706 90.936 372.246C90.0438 372.786 89.2968 373.536 88.76 374.43C87.33 377.16 88.7 380.43 90.18 383.17C92.7929 387.924 95.7754 392.464 99.1 396.75C101.78 400.2 104.84 403.6 108.92 405.16C113 406.72 117.22 406.53 119.39 403.71" fill="#F98C8C"/>
<path d="M126.13 456.35C126.27 455.78 126.35 455.197 126.37 454.61C126.5 453.34 126.65 451.76 126.83 449.87C127.067 447.52 127.424 445.184 127.9 442.87C128.521 440.07 129.367 437.324 130.43 434.66C131.469 431.998 132.879 429.496 134.62 427.23C136.037 425.385 137.848 423.878 139.92 422.82C141.327 422.123 142.836 421.654 144.39 421.43C144.974 421.41 145.554 421.326 146.12 421.18C145.535 421.115 144.945 421.115 144.36 421.18C142.747 421.304 141.169 421.714 139.7 422.39C137.519 423.424 135.607 424.947 134.11 426.84C132.296 429.14 130.83 431.694 129.76 434.42C128.684 437.122 127.844 439.913 127.25 442.76C126.806 445.09 126.499 447.444 126.33 449.81C126.18 451.81 126.12 453.45 126.09 454.58C126.041 455.17 126.054 455.763 126.13 456.35Z" fill="#263238"/>
<path d="M126.46 452.7C126.49 452.431 126.49 452.159 126.46 451.89V449.58C126.46 447.58 126.46 444.69 126.56 441.11C126.74 433.96 127.35 426.26 128.56 415.41C129.69 405.2 131.2 393.32 132.8 385.6C133.14 383.84 133.48 382.26 133.8 380.88C134.12 379.5 134.37 378.3 134.63 377.33C134.89 376.36 135.02 375.68 135.17 375.09C135.242 374.829 135.289 374.561 135.31 374.29C135.186 374.531 135.092 374.786 135.03 375.05C134.85 375.63 134.63 376.36 134.36 377.26C134.09 378.16 133.76 379.4 133.41 380.79C133.06 382.18 132.67 383.74 132.29 385.49C130.313 394.624 128.828 403.857 127.84 413.15C126.65 424.03 126.11 433.93 126.06 441.15C126.06 444.74 126.06 447.64 126.19 449.64C126.25 450.58 126.29 451.34 126.33 451.95C126.342 452.204 126.386 452.456 126.46 452.7Z" fill="#263238"/>
<path d="M126.5 433.6C126.568 432.798 126.568 431.992 126.5 431.19C126.41 429.64 126.2 427.4 125.76 424.66C125.232 421.453 124.524 418.278 123.64 415.15C122.594 411.304 121.257 407.543 119.64 403.9C116.892 397.183 112.948 391.02 108 385.71C107.142 384.803 106.227 383.951 105.26 383.16C104.83 382.8 104.46 382.45 104.08 382.16L103.02 381.42C102.382 380.944 101.714 380.509 101.02 380.12C100.9 380.28 103.89 382.04 107.67 386.06C112.446 391.414 116.278 397.542 119 404.18C120.582 407.803 121.918 411.528 123 415.33C124 418.83 124.74 422.04 125.26 424.75C125.78 427.46 126.05 429.68 126.26 431.21C126.284 432.011 126.365 432.81 126.5 433.6Z" fill="#263238"/>
<path d="M108.04 467.29L109.96 493.51H143.64L145.56 467.29H108.04Z" fill="#263238"/>
<path d="M149.58 456.95H104.79V467.28H149.58V456.95Z" fill="#263238"/>
<path d="M104.79 492.51V495.37H106.89H148.84V492.51H104.79Z" fill="#455A64"/>
<path d="M108.96 500.41L106.89 495.37H147.23L144.82 500.41H108.96Z" fill="#455A64"/>
<path d="M144.93 475.86C144.93 475.86 144.88 475.95 144.77 476.1L144.27 476.77L142.27 479.28L142.18 479.39L142.1 479.27C140.86 477.57 139.22 475.27 137.28 472.61H137.55L132.81 479.33L132.66 479.54L132.49 479.34L126.86 472.64H127.19C127.09 472.76 126.98 472.89 126.88 473.03L121.88 479.34L121.72 479.55L121.56 479.33C119.85 476.91 118.26 474.65 116.81 472.61H117.09L111.24 479.28L111.14 479.39L111.06 479.26L109.23 476.18C109.03 475.85 108.88 475.58 108.76 475.37C108.695 475.279 108.644 475.177 108.61 475.07C108.685 475.15 108.752 475.237 108.81 475.33L109.33 476.12L111.25 479.12H111.07L116.82 472.37L116.97 472.2L117.1 472.39L121.89 479.07H121.57L126.57 472.75C126.67 472.61 126.78 472.48 126.88 472.36L127.04 472.16L127.2 472.35L132.82 479.06H132.5L137.29 472.37L137.44 472.17L137.57 472.37L142.29 479.11H142.12L144.12 476.67L144.67 476.03C144.85 475.92 144.92 475.85 144.93 475.86Z" fill="#E0E0E0"/>
<path d="M146 467.12C146 467.23 137.56 467.33 127.16 467.33C116.76 467.33 108.3 467.23 108.3 467.12C108.3 467.01 116.74 466.91 127.16 466.91C137.58 466.91 146 467 146 467.12Z" fill="#455A64"/>
<path d="M147.73 495.65C147.73 495.77 138.55 495.86 127.24 495.86C115.93 495.86 106.75 495.77 106.75 495.65C106.75 495.53 115.92 495.44 127.24 495.44C138.56 495.44 147.73 495.54 147.73 495.65Z" fill="#263238"/>
<path d="M653.34 500.47C653.34 500.62 507.16 500.73 326.88 500.73C146.6 500.73 0.390015 500.62 0.390015 500.47C0.390015 500.32 146.54 500.21 326.88 500.21C507.22 500.21 653.34 500.33 653.34 500.47Z" fill="#263238"/>
<path d="M360.88 238.73C356.49 238.29 352.78 235.25 350.01 231.81C347.24 228.37 345.15 224.42 342.26 221.09C340.1 218.61 339.76 213.57 336.57 212.76C332.57 211.76 330.63 206.04 330.89 202.76C331.17 199.2 334.06 195.61 333.97 194.54C333.73 191.74 330.52 189.73 330.47 186.92C330.35 180.31 335.47 179.4 335.47 179.4C336.74 175.97 338.47 171.4 342.88 168.47C347.64 165.28 355.01 161.58 360.63 162.7C366.25 163.82 370.31 164.45 373.63 169.12" fill="#263238"/>
<path d="M408.45 236.46L404.06 259.12L394.2 279.53L381.05 270.42L376.71 258.13L373.07 247.83C373.07 247.83 358.71 250.72 353.54 237.2C351.04 230.68 347 216.82 343.48 204.2C341.664 197.675 342.367 190.706 345.449 184.674C348.532 178.643 353.768 173.991 360.12 171.64L361.43 171.16C375.86 166.78 387.65 176.58 391.63 191.16L408.45 236.46Z" fill="#FFBE9D"/>
<path d="M351 212.94C351.184 213.448 351.558 213.864 352.043 214.101C352.528 214.338 353.087 214.377 353.6 214.21C353.852 214.135 354.088 214.012 354.292 213.846C354.497 213.681 354.666 213.476 354.792 213.245C354.917 213.014 354.996 212.76 355.023 212.498C355.05 212.237 355.025 211.972 354.95 211.72C354.769 211.213 354.396 210.798 353.912 210.562C353.428 210.327 352.871 210.29 352.36 210.46C352.108 210.533 351.873 210.656 351.668 210.82C351.463 210.985 351.293 211.188 351.166 211.418C351.04 211.649 350.96 211.901 350.932 212.163C350.903 212.424 350.926 212.688 351 212.94Z" fill="#263238"/>
<path d="M348.38 209.16C348.71 209.32 349.78 207.69 351.87 206.93C353.96 206.17 355.87 206.65 356 206.31C356.07 206.15 355.66 205.79 354.81 205.55C353.679 205.257 352.484 205.32 351.39 205.73C350.303 206.125 349.371 206.857 348.73 207.82C348.27 208.55 348.22 209.09 348.38 209.16Z" fill="#263238"/>
<path d="M370.56 205.59C370.742 206.097 371.114 206.513 371.597 206.75C372.081 206.988 372.638 207.027 373.15 206.86C373.403 206.786 373.639 206.664 373.845 206.499C374.051 206.333 374.222 206.129 374.348 205.898C374.474 205.666 374.554 205.412 374.582 205.15C374.609 204.888 374.585 204.623 374.51 204.37C374.326 203.864 373.954 203.45 373.471 203.213C372.988 202.976 372.432 202.936 371.92 203.1C371.667 203.173 371.431 203.296 371.225 203.461C371.019 203.626 370.848 203.831 370.722 204.062C370.596 204.293 370.516 204.548 370.488 204.81C370.461 205.072 370.485 205.337 370.56 205.59Z" fill="#263238"/>
<path d="M369 200.91C369.32 201.11 370.56 199.6 372.72 199.07C374.88 198.54 376.72 199.22 376.89 198.9C376.98 198.76 376.61 198.35 375.79 198.02C374.697 197.605 373.502 197.539 372.37 197.83C371.245 198.107 370.237 198.734 369.49 199.62C368.91 200.29 368.8 200.82 369 200.91Z" fill="#263238"/>
<path d="M367.63 220.89C366.401 220.951 365.185 221.166 364.01 221.53C363.46 221.67 362.91 221.75 362.69 221.42C362.439 220.887 362.359 220.29 362.46 219.71C362.46 218.24 362.52 216.71 362.55 215.07C362.61 208.49 362.44 203.16 362.17 203.16C361.9 203.16 361.64 208.49 361.59 215.07C361.59 216.69 361.59 218.24 361.59 219.71C361.493 220.478 361.666 221.256 362.08 221.91C362.227 222.069 362.41 222.193 362.613 222.271C362.815 222.349 363.033 222.379 363.25 222.36C363.574 222.331 363.893 222.26 364.2 222.15C365.392 221.877 366.545 221.454 367.63 220.89Z" fill="#263238"/>
<path d="M374.3 220.07C373.95 220.18 374.78 222.44 373.44 224.77C372.1 227.1 369.59 227.77 369.69 228.05C369.69 228.2 370.39 228.29 371.41 227.95C372.746 227.479 373.873 226.551 374.59 225.33C375.283 224.162 375.491 222.769 375.17 221.45C374.91 220.47 374.45 220 374.3 220.07Z" fill="#263238"/>
<path d="M366.68 193.94C367.05 194.47 369.11 193.6 371.68 193.21C374.25 192.82 376.5 192.95 376.68 192.33C376.76 192.04 376.26 191.59 375.28 191.25C373.995 190.859 372.639 190.767 371.313 190.98C369.987 191.193 368.727 191.706 367.63 192.48C366.85 193.11 366.51 193.69 366.68 193.94Z" fill="#263238"/>
<path d="M347.38 203.47C347.93 203.81 349.18 202.79 350.9 202.13C352.62 201.47 354.21 201.27 354.37 200.65C354.42 200.36 354.02 199.97 353.21 199.76C352.154 199.54 351.056 199.638 350.055 200.042C349.055 200.446 348.197 201.138 347.59 202.03C347.16 202.74 347.14 203.3 347.38 203.47Z" fill="#263238"/>
<path d="M372.27 168.5C372.802 170.019 372.995 171.636 372.834 173.238C372.673 174.84 372.163 176.386 371.339 177.769C370.515 179.152 369.397 180.337 368.065 181.241C366.733 182.145 365.219 182.745 363.63 183C361.17 183.38 358.23 183.1 356.63 185C355.03 186.9 356 190.22 354.7 192.49C352.84 195.74 347.85 195.05 344.81 197.23C342.47 198.92 341.71 201.99 340.71 204.69C339.71 207.39 337.81 210.31 334.92 210.44C334.176 208.058 333.707 205.599 333.52 203.11C333.359 200.597 334.065 198.105 335.52 196.05C336.35 194.97 337.46 194.1 338.18 192.94C339.74 190.43 339.18 187.21 339.66 184.29C339.992 182.41 340.767 180.636 341.922 179.116C343.077 177.596 344.578 176.374 346.3 175.55C349.17 174.21 352.54 174.03 355.19 172.29C357.14 171 358.53 168.95 360.55 167.78C364.5 165.5 369.49 167.16 373.61 169.11" fill="#263238"/>
<path d="M360.83 179.24C362.54 178.04 365.99 175.46 366.43 173.46C367.43 169.12 370.43 165.32 374.49 164.15C376.605 163.592 378.844 163.734 380.872 164.554C382.9 165.374 384.607 166.829 385.74 168.7C388.242 167.926 390.906 167.841 393.453 168.453C395.999 169.065 398.334 170.353 400.21 172.18C402.162 174.106 403.614 176.478 404.442 179.092C405.27 181.706 405.448 184.482 404.96 187.18C404.69 188.57 404.24 190.01 404.69 191.38C405.25 193.07 406.96 193.97 408.33 195.05C412.05 198.05 413.69 203.28 413.28 208.05C412.87 212.82 412.07 214.74 409.73 216.49C405.13 219.91 415 228.02 406.42 231.02L392.84 201.35C392.632 201.572 392.397 201.767 392.14 201.93C387.46 204.85 383.33 195.16 383.47 191.93C380.996 191.034 378.645 189.831 376.47 188.35C374.34 186.77 371.14 181.55 370.55 178.9C368.78 179.62 360.09 179.77 360.83 179.24Z" fill="#263238"/>
<path d="M392.2 201.78C392.39 201.59 400.51 195.58 403.63 204.97C406.75 214.36 396.68 215.57 396.58 215.3C396.48 215.03 392.2 201.78 392.2 201.78Z" fill="#FFBE9D"/>
<path d="M398.26 210.79C398.26 210.79 398.46 210.85 398.78 210.88C399 210.902 399.222 210.879 399.433 210.814C399.645 210.749 399.841 210.642 400.01 210.5C400.89 209.81 401.2 207.95 400.68 206.25C400.439 205.435 400.015 204.686 399.44 204.06C399.254 203.795 399.007 203.58 398.72 203.432C398.432 203.284 398.113 203.208 397.79 203.21C397.586 203.223 397.393 203.307 397.245 203.448C397.097 203.588 397.003 203.777 396.98 203.98C396.98 204.28 397.06 204.45 396.98 204.48C396.9 204.51 396.72 204.39 396.67 203.98C396.645 203.731 396.705 203.481 396.84 203.27C397.037 202.99 397.334 202.796 397.67 202.73C398.081 202.679 398.498 202.734 398.881 202.889C399.264 203.045 399.601 203.297 399.86 203.62C400.532 204.3 401.026 205.134 401.3 206.05C401.87 207.96 401.49 210.05 400.3 210.9C400.071 211.055 399.811 211.158 399.538 211.201C399.265 211.245 398.986 211.227 398.72 211.15C398.35 211 398.24 210.82 398.26 210.79Z" fill="#EB996E"/>
<path d="M373.05 247.83C379.363 245.634 384.88 241.61 388.9 236.27C388.9 236.27 388.32 247.59 374.32 251.36L373.05 247.83Z" fill="#EB996E"/>
<path d="M370.68 179C375.642 180.008 380.718 180.344 385.77 180C394.12 179.43 395.27 174.81 397.97 170.42C399.723 171.454 401.232 172.852 402.397 174.521C403.562 176.189 404.354 178.088 404.72 180.09C404.72 180.09 400 193.52 383.47 191.91C383.47 191.91 371.42 188.57 370.68 179Z" fill="#E0E0E0"/>
<path d="M404.35 190.81C404.6 191.03 403.98 192.31 402.25 193.76C399.929 195.633 397.082 196.736 394.105 196.916C391.128 197.095 388.169 196.341 385.64 194.76C383.75 193.53 382.99 192.33 383.21 192.08C383.43 191.83 384.6 192.43 386.48 193.08C388.852 194.027 391.403 194.44 393.952 194.289C396.501 194.139 398.986 193.429 401.23 192.21C403 191.32 404.07 190.54 404.35 190.81Z" fill="#E0E0E0"/>
<path d="M381.83 197.77C381.97 197.77 381.6 198.99 380.44 199.9C380.124 200.202 379.747 200.433 379.336 200.58C378.924 200.726 378.486 200.784 378.05 200.75C378.05 200.6 379.05 200.31 380.12 199.49C381.19 198.67 381.7 197.71 381.83 197.77Z" fill="#EB996E"/>
<path d="M383.58 200.37C382.916 200.796 382.164 201.066 381.38 201.16C380.637 201.425 379.845 201.524 379.06 201.45C380.469 200.761 382.012 200.392 383.58 200.37Z" fill="#EB996E"/>
<path d="M364.09 196.43C364.09 196.51 363.77 196.65 363.27 196.94C362.77 197.23 362.09 197.68 361.27 198.15C360.592 198.579 359.839 198.874 359.05 199.02C358.43 199.11 358.05 199.02 358.05 198.94C358.05 198.86 358.42 198.83 358.97 198.66C359.674 198.407 360.345 198.071 360.97 197.66C361.631 197.238 362.327 196.873 363.05 196.57C363.68 196.39 364.07 196.37 364.09 196.43Z" fill="#EB996E"/>
<path d="M367.1 190.84C367.1 190.92 366.48 191.11 365.61 191.71C364.518 192.539 363.512 193.477 362.61 194.51C361.666 195.581 360.53 196.466 359.26 197.12C358.735 197.418 358.131 197.547 357.53 197.49C357.53 197.4 358.18 197.3 359.09 196.79C360.26 196.064 361.321 195.175 362.24 194.15C363.17 193.078 364.256 192.151 365.46 191.4C365.94 191.056 366.51 190.861 367.1 190.84Z" fill="#EB996E"/>
<path d="M350.58 213C350.65 213.12 349.95 213.58 348.95 213.62C347.95 213.66 347.22 213.27 347.27 213.15C347.32 213.03 348.05 213.15 348.93 213.1C349.81 213.05 350.52 212.83 350.58 213Z" fill="#EB996E"/>
<path d="M349.94 214.09C349.99 214.22 349.54 214.53 349.15 215.09C348.76 215.65 348.58 216.09 348.43 216.09C348.28 216.09 348.25 215.4 348.74 214.76C349.23 214.12 349.9 214 349.94 214.09Z" fill="#EB996E"/>
<path d="M377.36 220.16C377.23 220.22 376.83 219.56 376 219.21C375.17 218.86 374.42 219.01 374.37 218.87C374.32 218.73 374.52 218.66 374.86 218.59C375.31 218.493 375.78 218.542 376.2 218.73C376.615 218.916 376.963 219.222 377.2 219.61C377.41 219.91 377.42 220.14 377.36 220.16Z" fill="#EB996E"/>
<path d="M379.29 220.38C379.14 220.43 378.8 219.69 378.08 219.06C377.36 218.43 376.59 218.14 376.63 218C376.67 217.86 377.63 217.91 378.42 218.67C379.21 219.43 379.42 220.36 379.29 220.38Z" fill="#EB996E"/>
<path d="M378.65 205.24C378.431 206.244 377.846 207.132 377.01 207.73C376.289 208.467 375.311 208.897 374.28 208.93C374.28 208.79 375.48 208.36 376.67 207.33C377.86 206.3 378.51 205.17 378.65 205.24Z" fill="#EB996E"/>
<path d="M360.92 446.73L362.28 481.15C362.28 481.15 327.74 494.09 327.38 500.47L394.21 500.25L394.3 446.53L360.92 446.73Z" fill="#455A64"/>
<path d="M382.93 478.19C383.575 478.379 384.126 478.801 384.477 479.374C384.828 479.947 384.954 480.63 384.83 481.29C384.662 481.94 384.25 482.5 383.681 482.855C383.112 483.211 382.428 483.334 381.77 483.2C381.087 482.995 380.505 482.544 380.136 481.934C379.766 481.325 379.636 480.6 379.77 479.9C380.21 478.63 382 477.64 383.18 478.27" fill="#E0E0E0"/>
<g opacity="0.6">
<path d="M394.21 500.25L394.01 494.83L330.01 497.07C330.01 497.07 327.01 498.38 327.39 500.47L394.21 500.25Z" fill="white"/>
</g>
<path d="M361.19 480.81C361.19 481.14 362.84 481.28 364.45 482.33C366.06 483.38 366.91 484.74 367.21 484.61C367.51 484.48 367.02 482.61 365.05 481.37C363.08 480.13 361.12 480.52 361.19 480.81Z" fill="#263238"/>
<path d="M354.19 483.74C354.12 484.05 355.53 484.6 356.65 485.98C357.77 487.36 358.09 488.82 358.41 488.8C358.73 488.78 358.94 486.94 357.52 485.25C356.1 483.56 354.2 483.43 354.19 483.74Z" fill="#263238"/>
<path d="M350.24 492.14C350.54 492.21 350.98 490.58 350.14 488.79C349.3 487 347.77 486.3 347.63 486.57C347.49 486.84 348.44 487.8 349.11 489.28C349.78 490.76 349.91 492.11 350.24 492.14Z" fill="#263238"/>
<path d="M361.75 472.94C361.89 473.23 363.39 472.78 365.23 472.94C367.07 473.1 368.52 473.63 368.69 473.35C368.86 473.07 367.47 471.91 365.29 471.8C363.11 471.69 361.59 472.68 361.75 472.94Z" fill="#263238"/>
<path d="M541.55 491.74L575.62 486.64C575.62 486.64 592.24 519.56 598.62 519.23L591.1 452.82L537.7 458.59L541.55 491.74Z" fill="#455A64"/>
<path d="M570.42 466.43C570.541 465.77 570.903 465.178 571.434 464.768C571.966 464.358 572.631 464.159 573.3 464.21C573.964 464.309 574.565 464.659 574.979 465.187C575.394 465.715 575.591 466.381 575.53 467.05C575.399 467.749 575.014 468.375 574.449 468.807C573.884 469.239 573.179 469.447 572.47 469.39C571.16 469.09 569.98 467.39 570.47 466.18" fill="#E0E0E0"/>
<g opacity="0.6">
<path d="M591.12 452.82L585.75 453.61L595 517C595 517 596.62 519.81 598.67 519.24L591.12 452.82Z" fill="white"/>
</g>
<path d="M575.4 487.76C575.72 487.71 575.69 486.07 576.55 484.36C577.41 482.65 578.68 481.64 578.55 481.36C578.42 481.08 576.55 481.77 575.55 483.86C574.55 485.95 575.11 487.86 575.4 487.76Z" fill="#263238"/>
<path d="M579.07 494.4C579.39 494.4 579.79 492.97 581.07 491.71C582.35 490.45 583.73 489.97 583.68 489.65C583.63 489.33 581.78 489.33 580.26 490.92C578.74 492.51 578.76 494.42 579.07 494.4Z" fill="#263238"/>
<path d="M587.85 497.41C587.85 497.11 586.22 496.84 584.54 497.87C582.86 498.9 582.32 500.5 582.61 500.61C582.9 500.72 583.74 499.67 585.13 498.84C586.52 498.01 587.86 497.74 587.85 497.41Z" fill="#263238"/>
<path d="M567.51 488.06C567.79 487.89 567.17 486.45 567.09 484.6C567.01 482.75 567.42 481.26 567.09 481.13C566.76 481 565.79 482.49 565.92 484.67C566.05 486.85 567.27 488.25 567.51 488.06Z" fill="#263238"/>
<path d="M325.84 306.25L373.8 317.79L359.11 347.5L316.36 323.27L325.84 306.25Z" fill="#FFBE9D"/>
<path d="M309.64 298.94L301.44 297.37L290.19 302.67L285.42 313.27C285.114 313.952 285.019 314.709 285.147 315.445C285.275 316.181 285.621 316.862 286.14 317.4C288.14 319.52 291.49 322.73 293.21 323C293.21 323 293.46 326.72 296.96 326.9C296.96 326.9 295.96 328.62 300.01 329.27C304.06 329.92 316.85 327.55 316.85 327.55C316.85 327.55 317.6 325.32 314.11 322.55L318.28 319.19C318.28 319.19 318.03 316.53 314.13 315.86L318.31 309L309.64 298.94Z" fill="#F98C8C"/>
<path d="M313.41 323.43L327.46 331.96L338.92 308.83L321.3 302.39L310.69 322.94L313.41 323.43Z" fill="#F98C8C"/>
<path d="M291.54 304.16L290.61 306.65L261.32 295.62L257.69 294.68L256.05 293.28L257.23 291.04L259.17 291.28L262.33 293.3L291.54 304.16Z" fill="#E0E0E0"/>
<path d="M314.11 322.59C313.354 323.061 312.54 323.434 311.69 323.7C309.685 324.472 307.635 325.12 305.55 325.64C303.466 326.16 301.352 326.554 299.22 326.82C298.342 326.969 297.45 327.023 296.56 326.98C297.414 326.731 298.287 326.554 299.17 326.45C300.78 326.17 303 325.74 305.42 325.13C307.84 324.52 310 323.86 311.56 323.36C312.388 323.035 313.241 322.778 314.11 322.59Z" fill="#263238"/>
<path d="M294.11 322.55C299.883 321.808 305.564 320.468 311.06 318.55C311.766 318.334 312.439 318.021 313.06 317.62C313.706 317.191 314.167 316.534 314.35 315.78" fill="#F98C8C"/>
<path d="M314.38 315.79C314.39 316.093 314.31 316.392 314.15 316.65C313.745 317.362 313.121 317.923 312.37 318.25C309.971 319.231 307.509 320.05 305 320.7C302.487 321.363 299.94 321.887 297.37 322.27C296.308 322.463 295.23 322.557 294.15 322.55C295.188 322.265 296.244 322.048 297.31 321.9C299.31 321.53 301.94 320.97 304.86 320.19C307.78 319.41 310.43 318.61 312.25 317.92C312.96 317.638 313.574 317.16 314.02 316.54C314.27 316.09 314.33 315.78 314.38 315.79Z" fill="#263238"/>
<path d="M315.83 318.73L289.91 309.09L292.6 301.85L318.52 311.49C318.999 311.667 319.439 311.937 319.813 312.285C320.187 312.632 320.488 313.051 320.699 313.516C320.91 313.981 321.027 314.483 321.043 314.994C321.058 315.504 320.972 316.013 320.79 316.49C320.429 317.444 319.704 318.217 318.774 318.637C317.844 319.057 316.785 319.09 315.83 318.73Z" fill="#455A64"/>
<path d="M291.06 314.17C297.554 312.848 304.154 312.122 310.78 312C311.567 311.911 312.363 312.053 313.07 312.41C313.413 312.657 313.696 312.979 313.897 313.352C314.098 313.724 314.212 314.137 314.23 314.56C314.24 315.29 314.034 316.006 313.637 316.618C313.24 317.23 312.67 317.711 312 318H311.94" fill="#F98C8C"/>
<path d="M311.92 318.06C311.92 318.06 312.27 317.85 312.82 317.37C313.207 317.054 313.52 316.656 313.734 316.205C313.948 315.753 314.06 315.26 314.06 314.76C314.038 314.08 313.78 313.43 313.33 312.92C313.044 312.665 312.707 312.472 312.342 312.355C311.977 312.238 311.591 312.199 311.21 312.24C309.48 312.24 307.55 312.35 305.55 312.49C301.55 312.76 297.91 313.2 295.3 313.59L292.21 314.05C291.833 314.137 291.447 314.178 291.06 314.17C291.419 314.027 291.79 313.92 292.17 313.85C292.89 313.68 293.94 313.46 295.24 313.22C298.639 312.628 302.067 312.22 305.51 312C307.51 311.86 309.45 311.8 311.21 311.8C311.654 311.762 312.102 311.82 312.522 311.968C312.943 312.116 313.327 312.352 313.65 312.66C314.153 313.252 314.429 314.003 314.43 314.78C314.433 315.411 314.245 316.028 313.89 316.55C313.636 316.937 313.314 317.276 312.94 317.55C312.34 318 311.92 318.1 311.92 318.06Z" fill="#263238"/>
<path d="M326.53 306.86C326.53 306.86 318.28 299.53 315.01 297.72C312.601 296.252 309.73 295.735 306.96 296.27C305.13 296.72 291.53 306.55 291.53 306.55C291.53 306.55 292.86 309.74 297.37 309.28C299.997 309.054 302.467 307.935 304.37 306.11C304.37 306.11 305.22 310.58 310.8 312.01C317.21 313.66 326.53 306.86 326.53 306.86Z" fill="#F98C8C"/>
<path d="M304.24 297.91C303.959 298.184 303.651 298.429 303.32 298.64L300.67 300.56L291.39 307.06L291.44 306.71C292.154 307.579 293.08 308.247 294.13 308.65C295.261 309.052 296.474 309.166 297.66 308.98C300.067 308.554 302.319 307.502 304.19 305.93L304.47 305.7L304.58 306.04C305.158 307.783 306.256 309.307 307.725 310.408C309.194 311.509 310.965 312.134 312.8 312.2C313.862 312.237 314.923 312.099 315.94 311.79C316.3 311.65 316.667 311.53 317.04 311.43C316.96 311.493 316.872 311.547 316.78 311.59C316.525 311.725 316.261 311.842 315.99 311.94C314.967 312.321 313.882 312.51 312.79 312.5C311.105 312.494 309.456 312.016 308.03 311.12C306.199 309.972 304.816 308.232 304.11 306.19L304.5 306.3C302.575 307.958 300.234 309.061 297.73 309.49C296.46 309.694 295.159 309.57 293.95 309.13C292.812 308.699 291.81 307.97 291.05 307.02L290.88 306.81L291.11 306.66C294.86 304.11 298.11 301.92 300.5 300.3L303.23 298.5C303.545 298.268 303.884 298.071 304.24 297.91Z" fill="#263238"/>
<path d="M316.3 327.86C316.669 327.426 316.864 326.872 316.847 326.303C316.83 325.734 316.603 325.191 316.21 324.78C315.397 323.982 314.396 323.401 313.3 323.09C314.006 322.876 314.642 322.475 315.14 321.93C315.507 321.563 315.743 321.085 315.81 320.57C315.807 320.15 315.685 319.739 315.458 319.385C315.232 319.032 314.91 318.749 314.53 318.57C313.828 318.304 313.079 318.189 312.33 318.23" fill="#F98C8C"/>
<path d="M312.33 318.23C312.526 318.178 312.728 318.158 312.93 318.17C313.497 318.095 314.074 318.175 314.6 318.4C315.011 318.58 315.364 318.871 315.62 319.24C315.876 319.609 316.025 320.042 316.05 320.49C316.025 321.025 315.821 321.536 315.47 321.94C315.118 322.347 314.695 322.686 314.22 322.94C313.955 323.093 313.673 323.214 313.38 323.3V322.81C314.255 323.089 315.079 323.507 315.82 324.05C316.455 324.519 316.878 325.22 317 326C317.09 326.508 316.991 327.031 316.72 327.47C316.52 327.77 316.34 327.86 316.32 327.84C316.494 327.581 316.613 327.291 316.672 326.985C316.73 326.679 316.726 326.364 316.66 326.06C316.507 325.402 316.115 324.825 315.56 324.44C314.843 323.953 314.058 323.575 313.23 323.32L312.51 323.06L313.24 322.83C313.496 322.746 313.744 322.639 313.98 322.51C314.385 322.324 314.742 322.047 315.021 321.7C315.301 321.353 315.495 320.945 315.59 320.51C315.568 320.144 315.452 319.791 315.252 319.484C315.052 319.177 314.775 318.928 314.45 318.76C313.979 318.531 313.464 318.408 312.94 318.4C312.53 318.33 312.32 318.27 312.33 318.23Z" fill="#263238"/>
<path d="M331.87 306.25L320.7 327.86L324.81 330.35L335.31 307.51L331.87 306.25Z" fill="#E0E0E0"/>
<path d="M382.53 248.13C382.53 248.13 387.02 234.13 395.43 233.01C403.84 231.89 413.82 232.25 420.64 234.74C432.94 239.24 484.37 293.62 484.37 293.62C484.37 293.62 500 314.75 494.82 323L451.53 339.39H415C415 339.39 388.46 304.62 389 303.75C389.54 302.88 382.53 248.13 382.53 248.13Z" fill="#E0E0E0"/>
<path d="M436.61 390.34C436.61 390.34 437.88 477.48 440.84 484.67C443.8 491.86 447.61 497.36 460.3 499.9C472.99 502.44 568.17 495.67 568.17 495.67L563.52 453L495.7 446.78C495.7 446.78 495.41 427.62 495.83 418.73C496.25 409.84 506.18 393.21 507.44 373.35C508.7 353.49 436.61 390.34 436.61 390.34Z" fill="#F98C8C"/>
<path d="M497.36 446C497.36 446.08 496.13 446.64 494.21 447.72C491.718 449.152 489.373 450.827 487.21 452.72C485.044 454.621 483.074 456.735 481.33 459.03C480 460.79 479.33 461.96 479.2 461.92C479.299 461.609 479.44 461.313 479.62 461.04C480.055 460.273 480.529 459.529 481.04 458.81C482.709 456.421 484.664 454.245 486.86 452.33C489.057 450.413 491.478 448.767 494.07 447.43C494.851 447.022 495.652 446.655 496.47 446.33C496.752 446.184 497.051 446.074 497.36 446Z" fill="#263238"/>
<path d="M485.47 471.26C485.478 470.899 485.528 470.54 485.62 470.19C485.74 469.52 485.96 468.54 486.28 467.35C487.119 464.243 488.209 461.21 489.54 458.28C490.877 455.352 492.453 452.54 494.25 449.87C494.94 448.87 495.53 448.05 495.96 447.51C496.163 447.212 496.401 446.94 496.67 446.7C496.73 446.75 495.85 447.99 494.55 450.08C492.852 452.785 491.332 455.598 490 458.5C488.682 461.409 487.55 464.398 486.61 467.45C485.92 469.8 485.55 471.28 485.47 471.26Z" fill="#263238"/>
<g opacity="0.3">
<path d="M437.05 408.84L437 409.2C444.306 414.827 453.38 417.663 462.59 417.2C472.344 416.374 481.54 412.304 488.71 405.64C472.51 410.25 453.85 410.06 437.05 408.84Z" fill="black"/>
</g>
<path d="M539 450.7L541.51 497.43L556.27 496.48L553.47 452.03L539 450.7Z" fill="#E0E0E0"/>
<path d="M399.22 311.41L452.67 337.07L495.87 317.13C495.87 317.13 503.95 326.68 505.53 330.65C507.11 334.62 507.64 348.17 507.64 348.17L452.06 355.39H404.11L395.43 340.66L399.22 311.41Z" fill="#F98C8C"/>
<path d="M507.05 339.41C501.97 333.49 433.23 345.92 433.23 345.92C433.23 345.92 365.12 348.92 354.97 350.58C344.82 352.24 335.31 369.92 335.31 380.49C335.31 391.06 344.41 471.26 344.41 471.26L402 465.4C401.58 457.79 395.61 403.03 395.61 403.03C395.61 403.03 448.48 412.34 462.02 410.64C475.56 408.94 498.02 393.72 503.02 386.53C508.02 379.34 512.12 345.33 507.05 339.41Z" fill="#F98C8C"/>
<path d="M399.46 347.5C399.46 347.5 483.1 336.67 509.29 356.5C509.29 356.5 514.18 345.21 507.05 339.44C499.92 333.67 396.51 342.54 396.51 342.54L399.46 347.5Z" fill="#455A64"/>
<path d="M374.69 383.49C375.096 383.517 375.499 383.587 375.89 383.7C376.358 383.793 376.819 383.916 377.27 384.07C377.88 384.242 378.481 384.446 379.07 384.68C380.605 385.275 382.084 386.005 383.49 386.86C386.956 388.965 389.946 391.767 392.27 395.09C393.215 396.44 394.035 397.872 394.72 399.37C395.04 400 395.24 400.6 395.45 401.12C395.629 401.56 395.779 402.011 395.9 402.47C396.045 402.853 396.139 403.253 396.18 403.66C396.08 403.66 395.62 402.02 394.39 399.53C393.663 398.078 392.821 396.687 391.87 395.37C390.701 393.761 389.389 392.262 387.95 390.89C386.49 389.546 384.914 388.335 383.24 387.27C381.864 386.409 380.423 385.657 378.93 385.02C376.37 384 374.67 383.59 374.69 383.49Z" fill="#263238"/>
<path d="M375.79 392.38C376.087 392.378 376.383 392.415 376.67 392.49C377.455 392.621 378.232 392.791 379 393C381.553 393.732 384.026 394.721 386.38 395.95C388.736 397.176 390.958 398.644 393.01 400.33C393.79 400.98 394.4 401.53 394.8 401.94C395.2 402.35 395.42 402.57 395.39 402.6C395.36 402.63 394.39 401.84 392.78 400.6C390.683 399.021 388.463 397.613 386.14 396.39C383.81 395.178 381.386 394.158 378.89 393.34C377 392.77 375.77 392.46 375.79 392.38Z" fill="#263238"/>
<path d="M489.87 405.76L489.63 405.83L488.93 405.99L486.22 406.56C485.04 406.81 483.6 407.1 481.91 407.36C480.22 407.62 478.31 407.98 476.17 408.22L472.82 408.63C471.66 408.77 470.44 408.85 469.18 408.97C466.66 409.24 463.96 409.35 461.12 409.51C455.44 409.73 449.18 409.74 442.62 409.43C431.429 408.818 420.284 407.556 409.24 405.65C405 404.93 401.58 404.3 399.24 403.82L396.53 403.26L395.82 403.1C395.66 403.1 395.58 403.04 395.59 403.03H395.83L396.54 403.14L399.27 403.6C401.64 404.02 405.07 404.6 409.27 405.27C420.311 407.065 431.44 408.274 442.61 408.89C449.16 409.2 455.4 409.2 461.07 409.01C463.9 408.87 466.6 408.77 469.07 408.52C470.33 408.41 471.54 408.34 472.71 408.21L476.06 407.83C478.19 407.62 480.06 407.29 481.8 407.05C483.54 406.81 484.93 406.56 486.11 406.34L488.84 405.87L489.55 405.76H489.87Z" fill="#263238"/>
<path d="M422.16 391.44C421.944 391.543 421.72 391.626 421.49 391.69L419.54 392.3L412.37 394.44L412.18 394.5L412.12 394.3C410.76 389.3 409.46 382.54 408.12 375.15C407.12 369.53 406.03 364.29 404.93 359.95L404.86 359.68H405.13C408.594 359.576 412.059 359.83 415.47 360.44C416.7 360.66 417.65 360.88 418.3 361.04C418.642 361.107 418.977 361.208 419.3 361.34C418.963 361.309 418.629 361.256 418.3 361.18C417.65 361.05 416.69 360.87 415.46 360.69C412.058 360.186 408.617 359.995 405.18 360.12L405.39 359.84C406.54 364.19 407.61 369.43 408.66 375.05C410.03 382.45 411.28 389.21 412.56 394.2L412.32 394.06L419.54 392.06L421.54 391.55C421.743 391.494 421.95 391.457 422.16 391.44Z" fill="#263238"/>
<path d="M423.69 390.71C423.609 390.332 423.575 389.946 423.59 389.56C423.59 388.71 423.52 387.67 423.47 386.43C423.162 379.545 422.12 372.713 420.36 366.05L419.55 363.05C419.42 362.684 419.333 362.305 419.29 361.92C419.488 362.254 419.639 362.614 419.74 362.99C420 363.68 420.34 364.71 420.74 365.99C422.695 372.642 423.745 379.527 423.86 386.46C423.86 387.79 423.86 388.86 423.86 389.6C423.841 389.975 423.784 390.347 423.69 390.71Z" fill="#263238"/>
<g opacity="0.3">
<path d="M412.46 394.39C410.14 384.21 408.57 374.83 406.25 364.65L406.13 364.54C407.41 376.21 408.46 387.88 409.75 399.54C414.168 397.707 418.161 394.984 421.48 391.54L412.46 394.39Z" fill="black"/>
</g>
<path d="M385.87 408.72C385.951 408.946 386.005 409.181 386.03 409.42C386.11 409.94 386.22 410.61 386.35 411.42C386.61 413.24 386.98 415.75 387.43 418.82V419.02H387.23C382.09 419.64 375.23 419.95 367.7 420.24C361.99 420.47 356.7 420.74 352.2 421.24H351.93V420.97C352.326 417.527 353.08 414.136 354.18 410.85C354.57 409.66 354.93 408.75 355.18 408.13C355.296 407.811 355.44 407.503 355.61 407.21C355.533 407.551 355.43 407.885 355.3 408.21C355.09 408.84 354.77 409.77 354.41 410.96C353.443 414.239 352.777 417.6 352.42 421L352.18 420.76C356.64 420.25 361.98 419.95 367.7 419.76C375.22 419.47 382.08 419.21 387.21 418.67L387.04 418.89C386.66 415.81 386.35 413.29 386.13 411.46C386.04 410.63 385.97 409.96 385.91 409.46C385.88 409.215 385.866 408.967 385.87 408.72Z" fill="#263238"/>
<path d="M385.38 407.1C384.995 407.125 384.608 407.098 384.23 407.02L381.11 406.69C374.251 406.007 367.34 406.05 360.49 406.82L357.38 407.19C357.001 407.26 356.615 407.291 356.23 407.28C356.586 407.135 356.959 407.037 357.34 406.99C358.07 406.83 359.13 406.64 360.44 406.45C363.869 405.968 367.327 405.715 370.79 405.69C374.254 405.667 377.715 405.881 381.15 406.33C382.47 406.5 383.53 406.68 384.26 406.82C384.642 406.875 385.017 406.969 385.38 407.1Z" fill="#263238"/>
<g opacity="0.3">
<path d="M387.39 418.74C376.99 419.56 362.61 420.2 352.2 421.02L356.2 423.68C367.93 424.1 390.48 422.3 390.48 422.3L385.88 409.41C386.4 412.517 386.903 415.627 387.39 418.74Z" fill="black"/>
</g>
<path d="M468.25 310.35C468.019 310.705 467.758 311.04 467.47 311.35C466.94 312.01 466.15 312.94 465.15 314.07C463.15 316.32 460.29 319.35 456.91 322.47C453.53 325.59 450.28 328.2 447.91 330.01C446.7 330.91 445.71 331.63 445.01 332.1C444.665 332.368 444.293 332.6 443.9 332.79C444.206 332.473 444.541 332.185 444.9 331.93L447.69 329.72C450.04 327.84 453.23 325.19 456.6 322.08C459.97 318.97 462.87 316.01 464.93 313.82L467.36 311.22C467.623 310.898 467.922 310.606 468.25 310.35Z" fill="#263238"/>
<path d="M444.28 309.61C444.22 310.652 444.066 311.686 443.82 312.7C443.45 314.59 442.87 317.18 442.08 320.02C441.29 322.86 440.45 325.38 439.79 327.18C439.476 328.174 439.074 329.137 438.59 330.06C438.793 329.039 439.077 328.036 439.44 327.06C440.01 325.22 440.79 322.69 441.58 319.87C442.37 317.05 443 314.47 443.46 312.61C443.661 311.592 443.935 310.589 444.28 309.61Z" fill="#263238"/>
<path d="M466.41 343.59L464.75 388.3C464.617 391.922 465.926 395.45 468.389 398.109C470.852 400.769 474.268 402.344 477.89 402.49L497.94 403.29C501.482 403.435 504.942 402.199 507.591 399.843C510.24 397.487 511.871 394.195 512.14 390.66C513.24 376.34 514.22 354.07 510.92 343.59H466.41Z" fill="#455A64"/>
<path d="M511.35 347.43C510.793 347.575 510.224 347.672 509.65 347.72C508.56 347.88 506.97 348.06 505 348.23C494.719 349.102 484.369 348.689 474.19 347C472.19 346.67 470.67 346.36 469.59 346.11C469.026 346.011 468.471 345.867 467.93 345.68C468.502 345.709 469.071 345.786 469.63 345.91C470.72 346.1 472.3 346.35 474.25 346.64C479.334 347.353 484.45 347.807 489.58 348C494.709 348.207 499.846 348.151 504.97 347.83C506.97 347.71 508.53 347.59 509.63 347.49C510.201 347.429 510.776 347.409 511.35 347.43Z" fill="#263238"/>
<path d="M511.54 365.11C511.06 365.378 510.554 365.596 510.03 365.76C509.54 365.96 508.93 366.19 508.21 366.41C507.49 366.63 506.68 366.93 505.76 367.16C503.617 367.759 501.44 368.23 499.24 368.57C496.541 368.974 493.819 369.198 491.09 369.24C488.362 369.253 485.637 369.09 482.93 368.75C480.724 368.459 478.537 368.038 476.38 367.49C475.46 367.28 474.64 367.01 473.92 366.79C473.2 366.57 472.58 366.37 472.08 366.18C471.556 366.015 471.044 365.811 470.55 365.57C471.092 365.662 471.624 365.803 472.14 365.99C472.65 366.15 473.27 366.33 474 366.51C474.73 366.69 475.54 366.94 476.47 367.13C478.622 367.626 480.798 368.009 482.99 368.28C488.368 368.927 493.808 368.866 499.17 368.1C501.355 367.785 503.521 367.354 505.66 366.81C506.59 366.6 507.4 366.34 508.12 366.14C508.84 365.94 509.46 365.74 509.96 365.57C510.476 365.381 511.004 365.228 511.54 365.11Z" fill="#263238"/>
<path d="M436.44 333.57C436.092 333.84 435.721 334.077 435.33 334.28C434.6 334.72 433.52 335.28 432.15 335.94C428.581 337.624 424.843 338.925 421 339.82C417.148 340.707 413.213 341.186 409.26 341.25C407.74 341.25 406.51 341.25 405.67 341.16C405.229 341.153 404.79 341.099 404.36 341C404.798 340.943 405.239 340.927 405.68 340.95C406.52 340.95 407.74 340.95 409.25 340.88C413.166 340.714 417.059 340.192 420.88 339.32C424.69 338.416 428.411 337.175 432 335.61C433.38 335 434.48 334.48 435.23 334.1C435.614 333.883 436.02 333.705 436.44 333.57Z" fill="#263238"/>
<path d="M343.76 465.4C343.7 464.87 342.19 451.21 342.19 451.21L400.14 446L401.45 459L343.76 465.4Z" fill="#E0E0E0"/>
<path d="M492.71 376.3L486.48 385.84H490.53L487.79 394.19L495.62 383.36H491.44L492.71 376.3Z" fill="#E0E0E0"/>
<path d="M376.47 283.69C376.47 283.69 364.83 303.23 364.81 315.5L309.68 342.35L315.55 358.47C315.55 358.47 381.03 350.67 385.48 348.29C389.93 345.91 401.6 336.29 404.89 328.86C408.18 321.43 413.41 299.05 413.41 299.05L376.47 283.69Z" fill="#FFBE9D"/>
<path d="M379.31 317.93C379.26 318 378.56 317.5 377.31 316.93C375.708 316.144 373.994 315.608 372.23 315.34C370.467 315.065 368.673 315.065 366.91 315.34C365.56 315.57 364.74 315.84 364.72 315.76C365.372 315.37 366.091 315.105 366.84 314.98C368.635 314.577 370.49 314.509 372.31 314.78C374.13 315.047 375.884 315.654 377.48 316.57C378.172 316.9 378.794 317.362 379.31 317.93Z" fill="#EB996E"/>
<path d="M268.51 335.76L254.39 351.41L297.3 360.51L296.56 341.18L268.51 335.76Z" fill="#455A64"/>
<path d="M310.64 341.18C310.64 341.18 302.4 339.18 298.43 339.56C294.46 339.94 276.49 343.92 276.49 343.92C276.49 343.92 275.11 347.16 279.6 348.54C284.09 349.92 290.14 348.54 290.14 348.54C290.14 348.54 279.08 357.35 278.91 358.04C278.74 358.73 277.36 360.29 279.08 361.5C280.8 362.71 285.99 361.5 285.99 361.5C285.99 361.5 285.99 365.3 287.55 366.33C289.11 367.36 290.48 368.23 290.48 368.23C290.48 368.23 293.25 371.17 294.97 371.69C296.69 372.21 300.16 372.9 300.16 372.9H305.34L319.34 361.07L331.4 358.47L323.72 335.12L310.64 341.18Z" fill="#F98C8C"/>
<path d="M294.45 358.92C293.237 359.763 291.882 360.38 290.45 360.74C289.061 361.275 287.588 361.559 286.1 361.58C287.468 361.05 288.867 360.606 290.29 360.25C291.65 359.728 293.039 359.284 294.45 358.92Z" fill="#263238"/>
<path d="M318.73 348.93C318.935 351.033 319.002 353.148 318.93 355.26C319.032 357.37 319.002 359.484 318.84 361.59C318.303 357.389 318.267 353.139 318.73 348.93Z" fill="#263238"/>
<path d="M316.85 338.3L324.24 360.01L329.27 358.92L320.7 336.51L316.85 338.3Z" fill="#E0E0E0"/>
<path d="M402.22 237C402.22 237 385.49 241.38 382.22 248.79C378.95 256.2 368.64 292.49 368.64 292.49L413.43 308.3C413.43 308.3 419.19 282.52 421.66 272.65C424.13 262.78 431.85 243.85 402.22 237Z" fill="#E0E0E0"/>
<path d="M368.62 292.49C368.703 292.478 368.787 292.478 368.87 292.49L369.57 292.71L372.24 293.59L382.05 296.91L414.46 308.08L414.12 308.28C414.12 308.02 414.21 307.73 414.26 307.44C416.46 294.03 418.45 281.89 419.91 273.05C420.65 268.69 421.25 265.14 421.68 262.64C421.89 261.45 422.06 260.5 422.19 259.81L422.33 259.08C422.344 258.994 422.368 258.911 422.4 258.83C422.411 258.916 422.411 259.004 422.4 259.09C422.4 259.29 422.35 259.53 422.31 259.83C422.21 260.52 422.07 261.47 421.9 262.67C421.51 265.18 420.96 268.74 420.29 273.11C418.88 281.96 416.93 294.11 414.79 307.53C414.79 307.81 414.7 308.1 414.65 308.36L414.6 308.67L414.31 308.57L381.93 297.3L372.17 293.83L369.53 292.83L368.85 292.56L368.62 292.49Z" fill="#263238"/>
<path d="M425 264.16C425.021 264.461 425.004 264.763 424.95 265.06C424.89 265.63 424.76 266.45 424.58 267.47C423.587 272.746 421.864 277.859 419.46 282.66C419 283.58 418.6 284.31 418.3 284.8C418 285.29 417.83 285.56 417.8 285.54C418.188 284.516 418.632 283.515 419.13 282.54C419.97 280.68 421.06 278.07 422.05 275.11C423.04 272.15 423.76 269.42 424.22 267.43C424.417 266.326 424.677 265.234 425 264.16Z" fill="#263238"/>
<path d="M371.44 293.54C371.405 293.683 371.351 293.821 371.28 293.95L370.74 295.11C370.27 296.11 369.58 297.59 368.81 299.48C366.721 304.581 365.455 309.982 365.06 315.48V315.62L364.93 315.68L354.81 320.57C346.28 324.75 338.58 328.57 332.97 331.23C330.17 332.58 327.88 333.64 326.3 334.36L324.47 335.18C324.263 335.287 324.045 335.371 323.82 335.43C324.008 335.289 324.213 335.171 324.43 335.08L326.22 334.18L332.81 330.9L354.58 320.11C358.14 318.37 361.58 316.72 364.72 315.24L364.58 315.44C365.008 309.882 366.36 304.434 368.58 299.32C369.39 297.44 370.13 295.98 370.64 294.99L371.25 293.87C371.303 293.754 371.366 293.644 371.44 293.54Z" fill="#EB996E"/>
<path d="M397.17 270.59L390.94 280.12H394.99L392.25 288.47L400.08 277.64H395.9L397.17 270.59Z" fill="#F98C8C"/>
<path d="M399.84 294.17C397.025 293.465 394.254 292.597 391.54 291.57C388.774 290.7 386.062 289.665 383.42 288.47C386.231 289.176 388.999 290.044 391.71 291.07C394.48 291.939 397.195 292.974 399.84 294.17Z" fill="#F98C8C"/>
<path d="M218.54 295.28H187.16V326.66H218.54V295.28Z" fill="#455A64"/>
<path d="M213.55 311C213.458 310.146 213.317 309.298 213.13 308.46C212.52 306.207 211.176 304.222 209.31 302.82C207.942 301.786 206.335 301.113 204.638 300.863C202.941 300.613 201.208 300.794 199.6 301.39C197.695 302.073 196.042 303.318 194.86 304.96C193.568 306.707 192.871 308.822 192.871 310.995C192.871 313.168 193.568 315.283 194.86 317.03C195.456 317.866 196.182 318.602 197.01 319.21C197.797 319.804 198.67 320.273 199.6 320.6C201.208 321.196 202.941 321.377 204.638 321.127C206.335 320.877 207.942 320.204 209.31 319.17C211.177 317.769 212.522 315.784 213.13 313.53C213.316 312.695 213.456 311.85 213.55 311C213.612 311.867 213.534 312.738 213.32 313.58C212.847 315.554 211.816 317.35 210.349 318.752C208.883 320.155 207.043 321.106 205.05 321.49C203.171 321.852 201.229 321.7 199.43 321.05C198.458 320.712 197.544 320.227 196.72 319.61C195.845 318.975 195.075 318.205 194.44 317.33C193.082 315.495 192.35 313.273 192.35 310.99C192.35 308.707 193.082 306.485 194.44 304.65C195.078 303.78 195.847 303.014 196.72 302.38C197.544 301.763 198.458 301.278 199.43 300.94C201.229 300.29 203.171 300.138 205.05 300.5C207.043 300.884 208.883 301.835 210.349 303.238C211.816 304.64 212.847 306.436 213.32 308.41C213.534 309.256 213.612 310.13 213.55 311Z" fill="#263238"/>
<path d="M200.76 310.73C200.76 311.067 200.66 311.396 200.473 311.676C200.286 311.955 200.019 312.173 199.708 312.302C199.397 312.43 199.055 312.463 198.725 312.397C198.395 312.33 198.092 312.167 197.854 311.929C197.617 311.69 197.456 311.386 197.391 311.056C197.327 310.725 197.362 310.383 197.492 310.073C197.622 309.762 197.842 309.497 198.123 309.312C198.404 309.126 198.733 309.028 199.07 309.03C199.293 309.03 199.513 309.074 199.719 309.16C199.925 309.245 200.111 309.371 200.269 309.529C200.426 309.687 200.55 309.874 200.634 310.08C200.719 310.286 200.761 310.507 200.76 310.73Z" fill="#263238"/>
<path d="M209 310.73C209 311.067 208.9 311.396 208.713 311.676C208.526 311.955 208.26 312.173 207.948 312.302C207.637 312.43 207.295 312.463 206.965 312.397C206.635 312.33 206.332 312.167 206.094 311.929C205.857 311.69 205.696 311.386 205.632 311.056C205.567 310.725 205.602 310.383 205.732 310.073C205.863 309.762 206.082 309.497 206.363 309.312C206.644 309.126 206.973 309.028 207.31 309.03C207.533 309.03 207.753 309.074 207.959 309.16C208.165 309.245 208.352 309.371 208.509 309.529C208.666 309.687 208.79 309.874 208.874 310.08C208.959 310.286 209.001 310.507 209 310.73Z" fill="#263238"/>
<path d="M192.61 323.63C192.612 323.924 192.527 324.211 192.365 324.456C192.203 324.701 191.972 324.892 191.701 325.005C191.43 325.119 191.132 325.149 190.844 325.092C190.556 325.035 190.291 324.894 190.083 324.686C189.876 324.479 189.735 324.214 189.678 323.926C189.621 323.638 189.651 323.34 189.765 323.069C189.878 322.798 190.069 322.567 190.314 322.405C190.559 322.243 190.846 322.158 191.14 322.16C191.53 322.16 191.904 322.315 192.179 322.59C192.455 322.866 192.61 323.24 192.61 323.63Z" fill="#E0E0E0"/>
<path d="M191.78 322.89C191.83 323.03 191.52 323.27 191.23 323.63C190.94 323.99 190.75 324.33 190.6 324.3C190.45 324.27 190.44 323.76 190.83 323.3C191.22 322.84 191.74 322.76 191.78 322.89Z" fill="#263238"/>
<path d="M191.79 324.06C191.65 324.11 191.41 323.8 191.03 323.54C190.65 323.28 190.29 323.15 190.29 323C190.29 322.85 190.82 322.75 191.34 323.12C191.86 323.49 191.93 324 191.79 324.06Z" fill="#263238"/>
<path d="M217.07 323.63C217.072 323.923 216.987 324.21 216.826 324.455C216.664 324.7 216.434 324.891 216.163 325.004C215.893 325.118 215.595 325.149 215.308 325.093C215.02 325.037 214.755 324.897 214.547 324.69C214.339 324.484 214.197 324.22 214.139 323.932C214.081 323.645 214.11 323.347 214.222 323.076C214.334 322.805 214.523 322.573 214.767 322.41C215.01 322.247 215.297 322.16 215.59 322.16C215.981 322.16 216.356 322.315 216.633 322.59C216.91 322.865 217.067 323.239 217.07 323.63Z" fill="#E0E0E0"/>
<path d="M216.24 322.89C216.24 323.03 215.98 323.27 215.69 323.63C215.4 323.99 215.21 324.33 215.06 324.3C214.91 324.27 214.9 323.76 215.29 323.3C215.68 322.84 216.2 322.76 216.24 322.89Z" fill="#263238"/>
<path d="M216.25 324.06C216.11 324.11 215.87 323.8 215.49 323.54C215.11 323.28 214.75 323.15 214.75 323C214.75 322.85 215.28 322.75 215.75 323.12C216.22 323.49 216.39 324 216.25 324.06Z" fill="#263238"/>
<path d="M217.07 298.23C217.07 298.523 216.983 298.809 216.821 299.052C216.658 299.296 216.427 299.485 216.156 299.597C215.886 299.709 215.588 299.739 215.301 299.682C215.014 299.624 214.75 299.484 214.543 299.277C214.336 299.07 214.196 298.806 214.138 298.519C214.081 298.232 214.111 297.934 214.223 297.664C214.335 297.393 214.524 297.162 214.768 296.999C215.011 296.837 215.297 296.75 215.59 296.75C215.982 296.75 216.359 296.906 216.637 297.183C216.914 297.461 217.07 297.837 217.07 298.23Z" fill="#E0E0E0"/>
<path d="M216.24 297.49C216.24 297.62 215.98 297.87 215.69 298.22C215.4 298.57 215.21 298.92 215.06 298.89C214.91 298.86 214.9 298.35 215.29 297.89C215.68 297.43 216.2 297.35 216.24 297.49Z" fill="#263238"/>
<path d="M216.25 298.66C216.11 298.66 215.87 298.39 215.49 298.14C215.11 297.89 214.75 297.74 214.75 297.6C214.75 297.46 215.28 297.35 215.75 297.71C216.22 298.07 216.39 298.62 216.25 298.66Z" fill="#263238"/>
<path d="M192.6 298.23C192.6 298.523 192.513 298.81 192.35 299.053C192.187 299.297 191.955 299.487 191.684 299.598C191.413 299.71 191.115 299.739 190.828 299.681C190.54 299.623 190.277 299.481 190.07 299.273C189.863 299.065 189.723 298.8 189.667 298.513C189.611 298.225 189.642 297.927 189.756 297.657C189.869 297.386 190.06 297.156 190.305 296.995C190.55 296.833 190.837 296.748 191.13 296.75C191.324 296.75 191.516 296.788 191.695 296.863C191.874 296.937 192.036 297.047 192.173 297.184C192.31 297.322 192.418 297.485 192.491 297.664C192.564 297.844 192.601 298.036 192.6 298.23Z" fill="#E0E0E0"/>
<path d="M191.77 297.49C191.77 297.62 191.51 297.87 191.22 298.22C190.93 298.57 190.74 298.92 190.59 298.89C190.44 298.86 190.43 298.35 190.82 297.89C191.21 297.43 191.73 297.35 191.77 297.49Z" fill="#263238"/>
<path d="M191.78 298.66C191.64 298.66 191.4 298.39 191.03 298.14C190.66 297.89 190.28 297.74 190.28 297.6C190.28 297.46 190.81 297.35 191.33 297.71C191.85 298.07 191.92 298.62 191.78 298.66Z" fill="#263238"/>
<path d="M253.95 295.28H222.57V326.66H253.95V295.28Z" fill="#263238"/>
<path d="M231.23 295.28C231.325 295.583 231.438 295.881 231.57 296.17C232.017 296.968 232.599 297.682 233.29 298.28C235.872 300.465 238.709 302.329 241.74 303.83C243.63 304.83 245.74 305.89 248.01 306.97L251.55 308.62C252.835 309.167 254.073 309.819 255.25 310.57C257.845 312.175 259.822 314.61 260.86 317.48C261.375 319.034 261.553 320.68 261.382 322.308C261.211 323.936 260.696 325.509 259.87 326.922C259.044 328.335 257.926 329.557 256.592 330.505C255.258 331.453 253.736 332.106 252.13 332.42C249.124 332.911 246.04 332.45 243.31 331.1C240.867 329.907 238.64 328.315 236.72 326.39C234.88 324.63 233.34 322.85 231.93 321.23C229.08 318.03 226.63 315.56 225.02 313.78C224.21 312.9 223.58 312.2 223.17 311.72L222.71 311.17C222.655 311.11 222.608 311.043 222.57 310.97C222.57 310.97 222.64 310.97 222.75 311.13L223.25 311.65L225.17 313.65C226.83 315.39 229.31 317.81 232.17 321C233.61 322.6 235.17 324.36 236.98 326.09C238.881 327.962 241.077 329.51 243.48 330.67C246.12 331.965 249.098 332.405 252 331.93C253.537 331.632 254.992 331.009 256.269 330.104C257.546 329.198 258.615 328.031 259.404 326.679C260.194 325.327 260.685 323.822 260.847 322.265C261.008 320.708 260.835 319.135 260.34 317.65C259.359 314.896 257.477 312.553 255 311C253.849 310.258 252.638 309.612 251.38 309.07L247.84 307.39C245.57 306.29 243.47 305.22 241.58 304.19C238.544 302.646 235.718 300.72 233.17 298.46C232.478 297.83 231.908 297.077 231.49 296.24C231.391 296.02 231.32 295.788 231.28 295.55C231.247 295.464 231.23 295.372 231.23 295.28Z" fill="#455A64"/>
<path d="M243.67 295.28C243.607 295.603 243.499 295.916 243.35 296.21C242.993 297.039 242.536 297.821 241.99 298.54C240.131 300.911 237.563 302.624 234.66 303.43C233.045 303.792 231.376 303.85 229.74 303.6C228.416 303.398 227.116 303.063 225.86 302.6C225.012 302.308 224.189 301.947 223.4 301.52C223.096 301.39 222.816 301.211 222.57 300.99C222.57 300.91 223.84 301.59 225.98 302.25C227.226 302.639 228.505 302.916 229.8 303.08C231.377 303.286 232.978 303.215 234.53 302.87C237.328 302.086 239.826 300.48 241.7 298.26C242.415 297.307 243.073 296.311 243.67 295.28Z" fill="#455A64"/>
<path d="M234.49 309.53H233.49C229.56 309.33 225.56 307.72 222.16 306.17L222.99 304.35C226.22 305.82 229.99 307.35 233.59 307.54C237.119 307.823 240.628 306.798 243.45 304.66C244.786 303.609 245.819 302.222 246.443 300.64C247.067 299.059 247.259 297.34 247 295.66L249 295.26C249.339 297.296 249.124 299.385 248.376 301.309C247.628 303.232 246.375 304.918 244.75 306.19C241.815 308.449 238.192 309.628 234.49 309.53Z" fill="#455A64"/>
<path d="M237.06 295.28C236.94 295.535 236.793 295.777 236.62 296C236.125 296.651 235.539 297.227 234.88 297.71C233.828 298.432 232.74 299.099 231.62 299.71C230.159 300.53 228.852 301.599 227.76 302.87C227.13 303.602 226.639 304.442 226.31 305.35C225.961 306.315 225.933 307.368 226.23 308.35C226.85 310.41 229.08 311.84 231.44 312.17C233.8 312.5 236.44 311.74 238.96 310.91C241.48 310.08 244.34 309.19 247.29 309.75C248.745 310.036 250.074 310.77 251.09 311.85C251.605 312.371 251.996 313.001 252.233 313.693C252.47 314.386 252.548 315.123 252.46 315.85C252.218 317.23 251.513 318.486 250.46 319.41C249.503 320.288 248.421 321.019 247.25 321.58C243.227 323.506 238.798 324.432 234.34 324.28C231.353 324.223 228.392 323.71 225.56 322.76C224.791 322.497 224.037 322.193 223.3 321.85C223.043 321.739 222.792 321.612 222.55 321.47C222.822 321.538 223.086 321.632 223.34 321.75C223.85 321.97 224.62 322.24 225.62 322.56C228.448 323.435 231.389 323.894 234.35 323.92C238.736 324.009 243.081 323.06 247.03 321.15C248.156 320.607 249.194 319.9 250.11 319.05C251.075 318.2 251.721 317.047 251.94 315.78C252.012 315.131 251.938 314.474 251.721 313.857C251.505 313.241 251.152 312.682 250.69 312.22C249.744 311.227 248.515 310.55 247.17 310.28C244.4 309.75 241.65 310.62 239.1 311.42C236.55 312.22 233.92 313.01 231.35 312.66C230.107 312.491 228.924 312.024 227.9 311.3C226.91 310.625 226.171 309.64 225.8 308.5C225.484 307.427 225.523 306.28 225.91 305.23C226.262 304.283 226.784 303.409 227.45 302.65C228.588 301.365 229.941 300.288 231.45 299.47C232.76 298.73 233.89 298.14 234.74 297.53C235.629 296.909 236.412 296.15 237.06 295.28Z" fill="#455A64"/>
<path d="M267.72 307C267.291 307.205 266.842 307.366 266.38 307.48C265.137 307.844 263.861 308.086 262.57 308.2C258.28 308.552 253.969 307.866 250 306.2C246.059 304.523 242.452 302.152 239.35 299.2C238.16 298.08 237.26 297.11 236.66 296.42C236.33 296.077 236.035 295.702 235.78 295.3C236.139 295.607 236.473 295.941 236.78 296.3C237.42 296.95 238.35 297.87 239.57 298.95C242.7 301.797 246.282 304.102 250.17 305.77C254.069 307.404 258.289 308.129 262.51 307.89C264.265 307.709 266.005 307.412 267.72 307Z" fill="#455A64"/>
<path d="M272.77 303C272.3 303.925 271.635 304.738 270.82 305.38C270.005 306.022 269.06 306.48 268.05 306.72C267.99 306.58 269.22 306 270.5 304.97C271.78 303.94 272.65 302.88 272.77 303Z" fill="#F98C8C"/>
<path d="M274.62 308.55C273.572 308.024 272.486 307.58 271.37 307.22C270.217 307.025 269.049 306.928 267.88 306.93C269.014 306.409 270.301 306.33 271.49 306.71C272.723 306.921 273.836 307.576 274.62 308.55Z" fill="#F98C8C"/>
<path d="M270.84 312.24C270.77 312.24 270.98 311.85 271.05 311.24C271.117 310.445 270.909 309.65 270.46 308.99C269.98 308.336 269.371 307.788 268.67 307.38C268.13 307.04 267.77 306.85 267.79 306.78C267.81 306.71 268.23 306.78 268.79 307.05C269.611 307.402 270.32 307.973 270.84 308.7C271.101 309.074 271.282 309.498 271.372 309.946C271.461 310.393 271.457 310.854 271.36 311.3C271.23 312 270.88 312.28 270.84 312.24Z" fill="#F98C8C"/>
<path d="M963.08 0H696.02V352.84H963.08V0Z" fill="#EBEBEB"/>
<path d="M950.53 14.1499H834.88V171.1H950.53V14.1499Z" fill="white"/>
<path d="M824.18 14.1499H708.53V171.1H824.18V14.1499Z" fill="white"/>
<path d="M950.53 181.77H834.88V338.72H950.53V181.77Z" fill="white"/>
<path d="M824.18 181.77H708.53V338.72H824.18V181.77Z" fill="white"/>
<path d="M785.24 0.0198975H696V504.81H747.65L711.61 247.95L785.24 0.0198975Z" fill="#DBDBDB"/>
<path d="M769.78 13.6699L755.67 72.3299L741.29 130.95L712.5 248.17L712.52 247.84L725.83 370.35L732.46 431.59L738.8 492.87L731.56 431.68L724.59 370.48L710.69 248.04L710.67 247.89L710.7 247.73L740.1 130.65L754.8 72.1299L769.78 13.6699Z" fill="#EBEBEB"/>
<path d="M729.57 480.64L723.69 422.56L718 364.47C714.39 325.73 710.59 287.01 707.12 248.25V248.01L723.69 157.55L732.11 112.34L740.66 67.1599L732.87 112.48L724.95 157.77L708.87 248.32V248.08C712.57 286.82 715.98 325.58 719.56 364.34L724.66 422.47L729.57 480.64Z" fill="#EBEBEB"/>
<path d="M873.62 0.0198975H962.86V504.81H911.21L947.27 247.95L873.62 0.0198975Z" fill="#DBDBDB"/>
<path d="M889.08 13.6699L904.06 72.1299L918.76 130.65L948.16 247.73L948.19 247.89L948.18 248.04L934.27 370.48L927.3 431.68L920.06 492.87L926.39 431.59L933.05 370.35L946.34 247.84L946.36 248.17L917.57 130.95L903.19 72.3299L889.08 13.6699Z" fill="#EBEBEB"/>
<path d="M929.25 480.64L934.16 422.47L939.28 364.34C942.84 325.58 946.28 286.82 949.95 248.08V248.32L933.95 157.77L926.04 112.48L918.25 67.1599L926.81 112.34L935.23 157.55L951.78 248V248.25C948.3 287.01 944.52 325.73 940.88 364.47L935.21 422.56L929.25 480.64Z" fill="#EBEBEB"/>
</svg>
