 <!DOCTYPE svg PUBLIC "-//W3C//DTD SVG 1.1//EN" "http://www.w3.org/Graphics/SVG/1.1/DTD/svg11.dtd">
<svg id="bca8e3c2-2828-4942-b9d7-b99c472683a6" data-name="Layer 1" xmlns="http://www.w3.org/2000/svg" width="865.76" height="682.89" viewBox="0 0 865.76 682.89">
<defs>
<style xmlns="http://www.w3.org/1999/xhtml">*, ::after, ::before { box-sizing: border-box; }
img, svg { vertical-align: middle; }
</style>
<style xmlns="http://www.w3.org/1999/xhtml">*, body, html { -webkit-font-smoothing: antialiased; }
img, svg { max-width: 100%; }
</style>
</defs>
<g id="af2c760f-7536-4c0e-b661-f18915b13f26" data-name="freepik--Gears--inject-27">
<g id="b2dd66c0-24b6-4814-9d61-150e78e151a9" data-name="freepik--gears--inject-27">
<path d="M164.72,68.18h0a1.36,1.36,0,0,0-1.4.12l-2.87,1.85-.64,1.64a3.28,3.28,0,0,0,.79,3.12,15,15,0,0,1,1.31,1.56,2,2,0,0,0,2.69.57l6.71-4.3a1.4,1.4,0,0,1,1.37-.13Zm-10.34,24c-.94-5.29-4.4-7.94-8.9-7.58a13.38,13.38,0,0,1,.94,3.1c1.48,8.38-4,20.28-12.19,26.58a17,17,0,0,1-8.62,3.7c2.71,5.62,9.52,6.15,16.61.72C150.42,112.44,155.87,100.54,154.38,92.16Zm.15-35.86h0a1.73,1.73,0,0,0-.53-.21L149,55a2.72,2.72,0,0,0-2.86,1.28l-4.77,8.84a4.13,4.13,0,0,1-1,1.19h0a7,7,0,0,1-.81.52l1.48,4.81a1.73,1.73,0,0,0,2.17,1.15l.22-.08a24.66,24.66,0,0,1,3.12-1,5.2,5.2,0,0,0,1.73-.9,4.14,4.14,0,0,0,1.08-1.2L154,60.76a2.79,2.79,0,0,1,2.87-1.28l5.07,1.1a2.3,2.3,0,0,1,.5.18Zm-14.25,85.34a1.39,1.39,0,0,1-.47-.74l-1.65-5.53a1.72,1.72,0,0,0-2.16-1.13,1.3,1.3,0,0,0-.3.13,22.32,22.32,0,0,1-3.1,1,4,4,0,0,0-1,.41l.23.71a1.4,1.4,0,0,0,.64.85h0ZM130.6,60.7a1.35,1.35,0,0,0-.56-.13,1.44,1.44,0,0,0-.93.34l-7.59,5.8a1.75,1.75,0,0,0-.29.26,1.5,1.5,0,0,0-.2.23,5.15,5.15,0,0,0-.67,1.16v.28h0a3,3,0,0,0-.21,1.18l.39,7.11a5.53,5.53,0,0,1-1.18,3.4,57,57,0,0,0-3.51,4.53,3.94,3.94,0,0,1-1.64,1.24,2.52,2.52,0,0,1-.66.2.91.91,0,0,1-.33,0,1.62,1.62,0,0,1-.44,0l-4.93-.23h-.11a1.41,1.41,0,0,0-.41,0,1.47,1.47,0,0,0-.35.08h0a3.12,3.12,0,0,0-.39.15,3.55,3.55,0,0,0-.7.43,2.93,2.93,0,0,0-.79,1L100.58,97.8a1.86,1.86,0,0,0,.76,2.4l5.35,3a2.18,2.18,0,0,1,.11,1.36,45.11,45.11,0,0,0-.83,4.76,5.94,5.94,0,0,1-1.64,3.28h-.09l-6.56,5.94a1.52,1.52,0,0,0-.33.34h0a1.45,1.45,0,0,0-.26.43,3.74,3.74,0,0,0-.51,2.38l1.26,7.12a1.39,1.39,0,0,0,.59,1l7.85,4.6a1.43,1.43,0,0,1-.56-1l-1.26-7.12a3.46,3.46,0,0,1,0-1.36,3.88,3.88,0,0,1,1.05-1.87l6.56-5.93h0a5.94,5.94,0,0,0,1.64-3.28,45.21,45.21,0,0,1,.86-4.76,2.37,2.37,0,0,0-1.12-2.62l-4-1.64a1.89,1.89,0,0,1-1-2.46l0-.07,4.58-10a2.72,2.72,0,0,1,.78-1,3.06,3.06,0,0,1,2-.71l4.93.23a3.29,3.29,0,0,0,1.41-.28,3.8,3.8,0,0,0,1.64-1.24,47.35,47.35,0,0,1,3.51-4.53,5.47,5.47,0,0,0,1.13-3.42l-.46-7a3.57,3.57,0,0,1,.18-1.22,4.09,4.09,0,0,1,1.27-1.92l7.61-5.81a1.3,1.3,0,0,1,1.5-.21Zm-11.37,74.47a3.17,3.17,0,0,0-.81-3.1,13.69,13.69,0,0,1-1.29-1.64,2,2,0,0,0-2.69-.61l-3.83,2.46-2.79,7.34a1.64,1.64,0,0,0,.67,2h0l8,4.5a1.66,1.66,0,0,1-.69-2Z" fill="#e0e0e0"/>
<path d="M112.22,117.15l-6.56,5.93a3.88,3.88,0,0,0-1,1.87l-8-4.47a4.18,4.18,0,0,1,.41-1,1.45,1.45,0,0,1,.26-.43h0a1.52,1.52,0,0,1,.33-.34l6.56-5.94Z" fill="#fafafa"/>
<path d="M122.15,90.57a3.62,3.62,0,0,1-1.41.28l-4.93-.23a3,3,0,0,0-2,.7l-7.93-4.54a3.87,3.87,0,0,1,.7-.43,2.74,2.74,0,0,1,.4-.15h0a1.3,1.3,0,0,1,.34-.08,1.41,1.41,0,0,1,.41,0h.12l4.92.23a1.62,1.62,0,0,0,.44,0h.33a2.19,2.19,0,0,0,.63-.2h0Z" fill="#fafafa"/>
<path d="M172.68,72.63a1.35,1.35,0,0,0-1.37.16l-6.72,4.3a2,2,0,0,1-2.7-.59,12.08,12.08,0,0,0-1.31-1.64,3.19,3.19,0,0,1-.79-3.1l.64-1.64,2.88-1.84a1.32,1.32,0,0,1,1.39-.13h0Z" fill="#fafafa"/>
<path d="M162.49,60.76a3,3,0,0,0-.5-.18l-5.07-1.1a2.79,2.79,0,0,0-2.87,1.28l-4.74,8.83a4,4,0,0,1-1.09,1.2l-7.95-4.49a4.13,4.13,0,0,0,1-1.19l4.77-8.83A2.75,2.75,0,0,1,149,55L154,56.1a1.75,1.75,0,0,1,.53.22h0Z" fill="#fafafa"/>
<path d="M138.58,65.24a1.3,1.3,0,0,0-1.5.22l-7.58,5.79a4,4,0,0,0-1.26,1.92l-8-4.45v-.28a5,5,0,0,1,.67-1.16,1.43,1.43,0,0,1,.2-.23,2.35,2.35,0,0,1,.29-.26L129,61a1.49,1.49,0,0,1,.94-.34,1.39,1.39,0,0,1,.56.13Z" fill="#fafafa"/>
<path d="M174.56,80.75l-1.26-7.1A1.21,1.21,0,0,0,172,72.51a1.25,1.25,0,0,0-.73.3l-6.72,4.28a2,2,0,0,1-2.7-.59,12.89,12.89,0,0,0-1.31-1.56,3.27,3.27,0,0,1-.79-3.11l3.43-9a1.63,1.63,0,0,0-.82-2.17,1.28,1.28,0,0,0-.42-.13l-5.06-1.1a2.75,2.75,0,0,0-2.85,1.3l-4.76,8.81a5,5,0,0,1-2.87,2.1,24.11,24.11,0,0,0-3.12,1,1.74,1.74,0,0,1-2.31-.84,2.18,2.18,0,0,1-.09-.23l-1.64-5.51a1.25,1.25,0,0,0-1.48-1,1.18,1.18,0,0,0-.65.34l-7.58,5.8a4.1,4.1,0,0,0-1.45,3.13l.36,7.07a5.44,5.44,0,0,1-1.18,3.4,54.78,54.78,0,0,0-3.51,4.53,4,4,0,0,1-3.09,1.53l-4.92-.23A3.11,3.11,0,0,0,113,92.26l-4.57,10a1.88,1.88,0,0,0,.9,2.52l.2.08,3.93,1.64a2.37,2.37,0,0,1,1.37,2.64,42.78,42.78,0,0,0-.86,4.76,5.81,5.81,0,0,1-1.64,3.28l-6.71,6a3.89,3.89,0,0,0-1.13,3.28l1.26,7.12a1.22,1.22,0,0,0,1.28,1.15,1.25,1.25,0,0,0,.72-.29l6.72-4.3a2,2,0,0,1,2.69.59,12.9,12.9,0,0,0,1.31,1.64,3.19,3.19,0,0,1,.79,3.1l-3.43,8.76a1.64,1.64,0,0,0,.91,2.14,1.78,1.78,0,0,0,.33.09l5.06,1.1a2.74,2.74,0,0,0,2.87-1.28l4.76-8.83a5,5,0,0,1,2.87-2.1,21.38,21.38,0,0,0,3.12-1,1.74,1.74,0,0,1,2.3.87,1.19,1.19,0,0,1,.08.2l1.64,5.53a1.28,1.28,0,0,0,2.13.66l7.59-5.81a4.06,4.06,0,0,0,1.42-3.12l-.44-7a5.5,5.5,0,0,1,1.18-3.4c1.23-1.45,2.41-3,3.51-4.53a4,4,0,0,1,3.09-1.53l4.92.25a3.14,3.14,0,0,0,2.79-1.64l4.61-10a1.85,1.85,0,0,0-.85-2.48l-.18-.08-3.94-1.64A2.36,2.36,0,0,1,164.22,98a37.91,37.91,0,0,0,.84-4.76,6,6,0,0,1,1.64-3.28l6.73-6A3.91,3.91,0,0,0,174.56,80.75Zm-32.36,38c-8.2,6.28-16.06,4.58-17.56-3.83s4-20.28,12.18-26.48,16.08-4.58,17.56,3.82S150.42,112.44,142.2,118.73Z" fill="#f0f0f0"/>
<path d="M174.33,181.76h0a1.66,1.66,0,0,0-1.64.13L169.41,184l-.72,1.94a3.69,3.69,0,0,0,.9,3.61,16.27,16.27,0,0,1,1.51,1.81,2.32,2.32,0,0,0,3.12.67l7.76-4.92a1.51,1.51,0,0,1,1.64-.17ZM162.4,209.48c-1.1-6.11-5.1-9.18-10.29-8.75a14.92,14.92,0,0,1,1.07,3.58c1.64,9.7-4.59,23.45-14.1,30.72a19.41,19.41,0,0,1-9.94,4.36c3.12,6.57,11,7.11,19.18.84C157.81,232.94,164.11,219.18,162.4,209.48Zm.17-41.44h0a2,2,0,0,0-.63-.25l-5.84-1.28a3.17,3.17,0,0,0-3.28,1.5l-5.51,10.21a4.73,4.73,0,0,1-1.22,1.34h0a5.19,5.19,0,0,1-.93.62l1.64,5.57a2,2,0,0,0,2.47,1.32,1.36,1.36,0,0,0,.28-.11,32.9,32.9,0,0,1,3.61-1.15,6.05,6.05,0,0,0,2.09-1.05,4.71,4.71,0,0,0,1.25-1.38l5.48-10.2a3.27,3.27,0,0,1,3.28-1.5l5.86,1.3a1.94,1.94,0,0,1,.57.2Zm-16.41,98.73a1.63,1.63,0,0,1-.54-.87l-2-6.39a2,2,0,0,0-2.47-1.34l-.29.11a25.41,25.41,0,0,1-3.59,1.15,4.83,4.83,0,0,0-1.15.48l.26.82a1.66,1.66,0,0,0,.76,1h0ZM135,173.23a1.46,1.46,0,0,0-.64-.17,1.7,1.7,0,0,0-1.07.41l-8.78,6.7a3.19,3.19,0,0,0-.33.31,2.85,2.85,0,0,0-.23.26,5.19,5.19,0,0,0-.77,1.33.41.41,0,0,1-.1.33h0a3.81,3.81,0,0,0-.23,1.38l.51,8.12a6.19,6.19,0,0,1-1.36,3.92,65.92,65.92,0,0,0-4,5.24,4.6,4.6,0,0,1-2.71,1.64,1.09,1.09,0,0,1-.36,0,2.17,2.17,0,0,1-.51,0l-5.63-.26h-.13a1.77,1.77,0,0,0-.46,0,1.26,1.26,0,0,0-.43.08h0a2.68,2.68,0,0,0-.47.18,4.16,4.16,0,0,0-.81.49,3.62,3.62,0,0,0-.9,1.12l-5.28,11.49a2.15,2.15,0,0,0,.88,2.77l6.26,3.51a2.63,2.63,0,0,1,.13,1.64,51.46,51.46,0,0,0-1,5.5,6.87,6.87,0,0,1-1.89,3.76h-.1l-7.68,6.86a3.6,3.6,0,0,0-.37.41h0a2.3,2.3,0,0,0-.32.49,4.26,4.26,0,0,0-.57,2.77L97,251.72a1.61,1.61,0,0,0,.67,1.11L106.9,258a1.48,1.48,0,0,1-.64-1.08l-1.46-8.21a3.5,3.5,0,0,1,.1-1.64,4.51,4.51,0,0,1,1.2-2.15l7.61-6.51h.1a6.9,6.9,0,0,0,1.91-3.75,47.1,47.1,0,0,1,1-5.51,2.74,2.74,0,0,0-1.64-3.05l-4.55-1.89a2.18,2.18,0,0,1-1.21-2.84l0-.08,5.29-11.49a3,3,0,0,1,.9-1.13,3.84,3.84,0,0,1,2.33-.82l5.64.28a3.81,3.81,0,0,0,1.64-.31,4.27,4.27,0,0,0,1.94-1.46q1.92-2.72,4.07-5.24a6.21,6.21,0,0,0,1.36-3.92l-.52-8.11a3.64,3.64,0,0,1,.21-1.39,4.63,4.63,0,0,1,1.46-2.22l8.73-6.78a1.67,1.67,0,0,1,1.74-.23Zm-13.13,86.09a3.75,3.75,0,0,0-.92-3.6,13.71,13.71,0,0,1-1.51-1.8,2.28,2.28,0,0,0-3.1-.69l-4.43,2.84-3.28,8.48a1.83,1.83,0,0,0,.78,2.3h0l9.28,5.18a1.86,1.86,0,0,1-.77-2.33Z" fill="#e0e0e0"/>
<path d="M113.71,238.38l-7.66,6.86a4.47,4.47,0,0,0-1.2,2.15l-9.19-5.17a6.2,6.2,0,0,1,.46-1.2,2.71,2.71,0,0,1,.31-.49h0a3.76,3.76,0,0,1,.38-.41l7.68-6.86Z" fill="#fafafa"/>
<path d="M125.2,207.66a3.86,3.86,0,0,1-1.64.31l-5.65-.28a3.82,3.82,0,0,0-2.33.82l-9.27-5.22a4.16,4.16,0,0,1,.81-.49,2.07,2.07,0,0,1,.47-.18h0a1.26,1.26,0,0,1,.43-.08,1.77,1.77,0,0,1,.46,0h.13l5.63.26a2.17,2.17,0,0,0,.51,0h.36a6.44,6.44,0,0,0,.74-.25h0Z" fill="#fafafa"/>
<path d="M183.54,186.88a1.51,1.51,0,0,0-1.64.18L174.14,192a2.29,2.29,0,0,1-3.12-.69,16.17,16.17,0,0,0-1.51-1.8,3.59,3.59,0,0,1-.9-3.59l.72-1.92,3.28-2.14a1.51,1.51,0,0,1,1.64-.15h0Z" fill="#fafafa"/>
<path d="M171.76,173.19a2,2,0,0,0-.58-.19l-5.86-1.3a3.3,3.3,0,0,0-3.28,1.49l-5.48,10.21a4.58,4.58,0,0,1-1.25,1.38l-9.2-5.2a4.59,4.59,0,0,0,1.21-1.35L152.84,168a3.17,3.17,0,0,1,3.28-1.49l5.84,1.28a2,2,0,0,1,.62.25h0Z" fill="#fafafa"/>
<path d="M144.12,178.38a1.63,1.63,0,0,0-1.74.23l-8.74,6.71a4.56,4.56,0,0,0-1.46,2.22L123,182.37a.44.44,0,0,1,.1-.33,4.67,4.67,0,0,1,.77-1.33,1.43,1.43,0,0,1,.23-.26,1.93,1.93,0,0,1,.33-.31l8.78-6.7a1.6,1.6,0,0,1,1.06-.41,1.38,1.38,0,0,1,.64.16Z" fill="#fafafa"/>
<path d="M185.72,196.32l-1.46-8.21a1.39,1.39,0,0,0-1.45-1.33,1.43,1.43,0,0,0-.86.35l-7.75,4.92a2.3,2.3,0,0,1-3.12-.69,15.25,15.25,0,0,0-1.51-1.81,3.66,3.66,0,0,1-.9-3.59l4-10.4a1.91,1.91,0,0,0-1-2.48,1.85,1.85,0,0,0-.4-.12l-5.86-1.26a3.18,3.18,0,0,0-3.28,1.49l-5.48,10.19a5.73,5.73,0,0,1-3.28,2.43,30,30,0,0,0-3.59,1.15A2,2,0,0,1,147,186c0-.09-.08-.18-.11-.27l-2-6.37a1.47,1.47,0,0,0-1.73-1.16,1.4,1.4,0,0,0-.74.39l-8.75,6.71a4.64,4.64,0,0,0-1.64,3.61l.52,8.11a6.21,6.21,0,0,1-1.36,3.92,64.32,64.32,0,0,0-4.07,5.25,4.56,4.56,0,0,1-3.56,1.76l-5.63-.28a3.62,3.62,0,0,0-3.28,1.93l-5.3,11.49a2.19,2.19,0,0,0,1.09,2.89l.09,0,4.55,1.89a2.75,2.75,0,0,1,1.64,3.05,49,49,0,0,0-1,5.52,6.84,6.84,0,0,1-2,3.8l-7.76,7a4.51,4.51,0,0,0-1.3,3.72l1.47,8.21a1.39,1.39,0,0,0,2.31,1l7.74-4.92a2.31,2.31,0,0,1,3.12.67,13.8,13.8,0,0,0,1.51,1.81,3.69,3.69,0,0,1,.91,3.59l-4,10.42a1.91,1.91,0,0,0,1.46,2.58l5.84,1.28a3.26,3.26,0,0,0,3.28-1.49l5.5-10.19a5.62,5.62,0,0,1,3.28-2.43,28,28,0,0,0,3.6-1.17,2,2,0,0,1,2.68,1,2.34,2.34,0,0,1,.09.24l2,6.39a1.48,1.48,0,0,0,2.48.75l8.75-6.69a4.76,4.76,0,0,0,1.64-3.63l-.53-8.11a6.35,6.35,0,0,1,1.36-3.92,63,63,0,0,0,4.07-5.23,4.56,4.56,0,0,1,3.56-1.76l5.63.26a3.59,3.59,0,0,0,3.29-1.93l5.3-11.49a2.19,2.19,0,0,0-1.1-2.89l-.09,0-4.54-1.89a2.71,2.71,0,0,1-1.64-3.05,54.1,54.1,0,0,0,1-5.5,6.76,6.76,0,0,1,1.9-3.74l7.76-7A4.48,4.48,0,0,0,185.72,196.32Zm-37.4,43.88c-9.5,7.27-18.59,5.3-20.3-4.42s4.58-23.45,14.08-30.72,18.58-5.28,20.3,4.42S157.81,232.94,148.32,240.2Z" fill="#f0f0f0"/>
<path d="M216.56,163.49a3.56,3.56,0,0,0-.2-3.28,28.72,28.72,0,0,1-3-6.56,1.65,1.65,0,0,0-2.05-1.1l-.22.08-3.28,1.45a18.12,18.12,0,0,0,1.08,1.92,3.62,3.62,0,0,1,.2,3.28L200,177a2,2,0,0,0,.8,2.6l7.44,4.16a2,2,0,0,1-.72-2.56Zm40.2-123.62a1.08,1.08,0,0,0-.47-.11,1.45,1.45,0,0,0-.76.21l-15.26,8.57-.23.15-.23.18-.21.19c-.14.16-.27.31-.4.48a3.6,3.6,0,0,0-.73,1.77l-1.55,16.51a5.33,5.33,0,0,1-1.64,3.1A94.06,94.06,0,0,0,227,79.65a3,3,0,0,1-3,.82l-9.84-3.28a1.84,1.84,0,0,0-.77-.1h0a.24.24,0,0,0-.12,0,.38.38,0,0,0-.15,0h-.28a2.18,2.18,0,0,0-.85.45.4.4,0,0,0-.16.13,1.16,1.16,0,0,0-.38.44L200.18,97a2.23,2.23,0,0,0-.25,1.39,2.14,2.14,0,0,0,.76,1.51l7.86,6.57a2.8,2.8,0,0,1,.75,2.94,88.44,88.44,0,0,0-3.52,11.48,5,5,0,0,1-.87,1.76,1.76,1.76,0,0,1-.27.34l-.24.3a6.82,6.82,0,0,1-.58.49l-13.93,9.55a.86.86,0,0,0-.26.2.92.92,0,0,0-.23.25,3.89,3.89,0,0,0-1.07,2.46v17.15a1.25,1.25,0,0,0,.54,1.1l7.52,4.21a1.22,1.22,0,0,1-.56-1.11V140.45a3.81,3.81,0,0,1,.61-1.9,3.73,3.73,0,0,1,.95-1L211.32,128a4.56,4.56,0,0,0,1.09-1.1,5.52,5.52,0,0,0,.87-1.79,88.44,88.44,0,0,1,3.52-11.48,2.8,2.8,0,0,0-.75-2.94l-7.86-6.56a2.2,2.2,0,0,1-.74-1.45,2,2,0,0,1,.25-1.38l11.2-18.89a2.37,2.37,0,0,1,1.88-1.1,2,2,0,0,1,.88.1l9.85,3.28a3,3,0,0,0,3-.83A88.38,88.38,0,0,1,243,75.11,5.41,5.41,0,0,0,244.64,72L246,55.6a2.8,2.8,0,0,1,.27-1,4,4,0,0,1,1.53-1.79l15.28-8.71A1.41,1.41,0,0,1,264.2,44Zm-10.32,147a1.28,1.28,0,0,1-.51-1l-1.47-14.41a1.64,1.64,0,0,0-1.83-1.44l-.23,0a29.07,29.07,0,0,1-5.1.67l1.13,11a1.22,1.22,0,0,0,.59,1h0Zm23.9-103.39c2.18,2.94,3.28,7.44,3.28,13.31,0,16-11.49,35.43-25.78,43.44-5.55,3.12-10.28,4.15-14,3.28,4.62,5.24,12.51,5.94,21.49.91,14.24-8,25.78-27.44,25.78-43.44C281.18,91.27,276.9,85.13,270.34,83.49ZM285.1,37.41a2.09,2.09,0,0,0-2.69.63L271.12,54.45a2.35,2.35,0,0,1-.42.47.87.87,0,0,1-.15.13l-.17.12a4,4,0,0,1-2.21.72,20.74,20.74,0,0,0-2.23,0l.36,3.5a1.63,1.63,0,0,0,1.82,1.43l.21,0a32.53,32.53,0,0,1,7.36-.72,3.77,3.77,0,0,0,2.19-.71,2.42,2.42,0,0,0,.74-.72l11.29-16.51a2.08,2.08,0,0,1,2.66-.62ZM307,68.07h-.25a1.43,1.43,0,0,0-.93.11L295.48,72.7a14.39,14.39,0,0,1,.7,1.42,13.64,13.64,0,0,1,.54,1.3.64.64,0,0,1,.1.26,11.72,11.72,0,0,1,.51,1.4,2.44,2.44,0,0,1,.1.24,1.75,1.75,0,0,0,.39.69l.2.17h.13a.94.94,0,0,0,.4.16h.13a1.43,1.43,0,0,0,.65,0h0a1,1,0,0,0,.3-.1l13.59-6a1.33,1.33,0,0,1,1,0,.54.54,0,0,1,.18,0Z" fill="#e0e0e0"/>
<path d="M292.59,41.63a2.07,2.07,0,0,0-2.66.62L278.64,58.76a2.54,2.54,0,0,1-.74.72l-7.5-4.21h0a1.78,1.78,0,0,0,.31-.23.87.87,0,0,0,.27-.27,1.16,1.16,0,0,0,.16-.21l11.29-16.41a2.08,2.08,0,0,1,2.69-.62Z" fill="#fafafa"/>
<path d="M212.32,126.88a4.34,4.34,0,0,1-1.08,1.1l-13.93,9.54a3.59,3.59,0,0,0-.95,1l-7.47-4.18a3,3,0,0,1,.43-.58,1,1,0,0,1,.23-.24.86.86,0,0,1,.26-.2l13.93-9.55.58-.49.24-.3.26-.34h0Z" fill="#fafafa"/>
<path d="M220.69,81.26a2.36,2.36,0,0,0-1.87,1.1l-11.21,18.89a2,2,0,0,0-.24,1.38l-7.5-4.2a2.2,2.2,0,0,1,.24-1.4l11.21-18.89a1.33,1.33,0,0,1,.38-.44.4.4,0,0,1,.16-.13,2.13,2.13,0,0,1,.86-.44h.42a.13.13,0,0,1,.12,0h0Z" fill="#fafafa"/>
<path d="M264.18,44.11a1.38,1.38,0,0,0-1.15.15l-15.26,8.58a3.93,3.93,0,0,0-1.53,1.79l-7.48-4.22a4.69,4.69,0,0,1,.44-.79c.13-.16.26-.32.4-.47l.21-.2.23-.18.23-.15,15.26-8.57a1.55,1.55,0,0,1,.76-.21,1,1,0,0,1,.47.12Z" fill="#fafafa"/>
<path d="M307,68.08l7.5,4.24a.28.28,0,0,0-.18,0,1.24,1.24,0,0,0-1,0l-13.59,6a1.62,1.62,0,0,1-1.85-.32,1.92,1.92,0,0,1-.4-.69,1.06,1.06,0,0,0-.09-.25,11.57,11.57,0,0,0-.51-1.39.79.79,0,0,0-.1-.27c-.16-.44-.35-.88-.54-1.29a14.63,14.63,0,0,0-.71-1.43l10.29-4.51a1.52,1.52,0,0,1,.94-.12l.24.1Z" fill="#fafafa"/>
<rect x="314.51" y="72.32" width="0.02" height="0.02" fill="#fafafa"/>
<path d="M315.07,90.55V73.42a1.14,1.14,0,0,0-1-1.28,1.17,1.17,0,0,0-.77.18l-13.59,6a1.63,1.63,0,0,1-2.16-.83,1.34,1.34,0,0,1-.07-.18,29,29,0,0,0-3-6.57,3.61,3.61,0,0,1-.21-3.2l9.06-17.75a2,2,0,0,0-.81-2.6l-9.84-5.51a2.07,2.07,0,0,0-2.71.61L278.69,58.75a3.7,3.7,0,0,1-2.94,1.42,31.3,31.3,0,0,0-7.35.73,1.65,1.65,0,0,1-2-1.19c0-.07,0-.14,0-.21l-1.49-14.42a1.13,1.13,0,0,0-1.06-1.21,1.17,1.17,0,0,0-.76.24l-15.26,8.58A4,4,0,0,0,246,55.46L244.42,72a5.36,5.36,0,0,1-1.64,3.08,92,92,0,0,0-8.48,8.73,3,3,0,0,1-3,.84l-9.85-3.28a2.41,2.41,0,0,0-2.75,1L207.5,101.27a2.28,2.28,0,0,0,.49,2.82l7.86,6.56a2.79,2.79,0,0,1,.76,2.94,86.64,86.64,0,0,0-3.53,11.49,5.5,5.5,0,0,1-2,2.87l-13.94,9.55a4,4,0,0,0-1.64,2.92v17.13a1.13,1.13,0,0,0,1.74,1.1l13.57-6a1.63,1.63,0,0,1,2.18.79,1,1,0,0,1,.09.22,28.8,28.8,0,0,0,3,6.57,3.56,3.56,0,0,1,.2,3.28l-9,17.77a2,2,0,0,0,.79,2.58l9.84,5.51a2.08,2.08,0,0,0,2.71-.6l11.27-16.51a3.8,3.8,0,0,1,3-1.43,31.29,31.29,0,0,0,7.35-.72,1.64,1.64,0,0,1,2,1.18c0,.07,0,.14,0,.21L245.75,186a1.16,1.16,0,0,0,1.15,1.15,1.14,1.14,0,0,0,.69-.23l15.26-8.59a3.91,3.91,0,0,0,1.82-2.77L266.33,159A5.54,5.54,0,0,1,268,155.9a90.64,90.64,0,0,0,8.47-8.73,2.93,2.93,0,0,1,3-.82l9.85,3.28a2.4,2.4,0,0,0,2.74-1l11.21-18.9a2.27,2.27,0,0,0-.48-2.82l-7.86-6.57a2.81,2.81,0,0,1-.77-2.94,84.06,84.06,0,0,0,3.53-11.48,5.79,5.79,0,0,1,1.95-2.88l13.95-9.55A4,4,0,0,0,315.07,90.55ZM255.4,144.46c-14.23,8-25.76,1.52-25.76-14.48s11.48-35.44,25.76-43.43S281.18,85,281.18,101,269.61,136.47,255.4,144.46Z" fill="#f0f0f0"/>
</g>
</g>
<path d="M596.23,29,211.65,251.09c0,38.66,0,326.87,0,357.2l-8.73-5V246.09L587.55,24Z" fill="#e6e6e6"/>
<path d="M596.23,29V331.83L224.65,546.35c-2.86,1.68-10.2,5.89-13,7.52V251.09Z" fill="#f0f0f0"/>
<polygon points="587.55 24.04 596.23 29.04 211.65 251.09 202.97 246.07 587.55 24.04" fill="#f0f0f0"/>
<path d="M599.35,27.3c-3.82,2.21-384.8,222.19-388.91,224.53V607.56l-2.14-1.23V250.62c4.27-2.44,384.9-222.23,388.93-224.55Z" fill="#2f2e41" data-secondary="true"/>
<path d="M596.18,29.11l-384.53,222-1.21.69V607.56l1.26.73L599.33,385.1V27.35Z" fill="#2f2e41" data-secondary="true"/>
<polygon points="597.22 26.09 599.35 27.3 210.44 251.85 208.3 250.62 597.22 26.09" fill="#3f3d56"/>
<path d="M602.75,29.26c-75,43.28-310.43,179.22-388.92,224.53V609.52l-2.13-1.23V252.57C216.08,250,596.6,30.38,600.63,28Z" fill="#2f2e41" data-secondary="true"/>
<path d="M599.35,31.21C526.85,73.06,290,209.84,213.82,253.82v355.7l2.15,1.24,8.45-5.12L602.75,387.09V29.34Z" fill="#2f2e41" data-secondary="true"/>
<polygon points="600.63 28.04 602.75 29.26 213.83 253.8 211.7 252.59 600.63 28.04" fill="#3f3d56"/>
<path d="M609.25,36.58l-9.9,5.72c-3.91,2.18-370.85,214.12-374.7,216.31V615.77l-8.67-5V253.61c6.13-3.54,378.72-218.67,384.58-222Z" fill="#e6e6e6"/>
<polygon points="600.57 31.55 609.25 36.56 224.66 258.61 215.98 253.59 600.57 31.55" fill="#f0f0f0"/>
<polygon points="224.65 258.61 224.65 615.77 609.25 393.74 609.25 36.56 224.65 258.61" fill="#fafafa"/>
<path d="M264.12,247.34c7.38-3.05,4.27,8.81,0,10.47C256.69,260.86,259.83,249,264.12,247.34Z" fill="#e0e0e0"/>
<path d="M251.35,211.17c-13.08-8.29-22.1,5-18.18,17.39l3-1.75c-3-38.85,44.14,8.75,24.86,23.68a9.7,9.7,0,0,0-1.43,3.95C278.87,247.53,264.1,218.05,251.35,211.17Z" fill="#2f2e41" data-secondary="true"/>
<path d="M286.14,234.62c7.4-3,4.26,8.81,0,10.48C278.71,248.14,281.86,236.28,286.14,234.62Z" fill="#e0e0e0"/>
<path d="M273.37,198.45c-13.08-8.29-22.09,5-18.18,17.39l3-1.75c-4-36.71,44.81,3.42,23.43,27.63C300.72,234.68,286.14,205.35,273.37,198.45Z" fill="#2f2e41" data-secondary="true"/>
<path d="M242.09,260c7.4-3.05,4.29,8.82,0,10.47C234.69,273.55,237.83,261.7,242.09,260Z" fill="#e0e0e0"/>
<path d="M229.33,223.87c-13.08-8.28-22.1,5-18.19,17.39l3-1.75c-4-36.7,44.85,3.4,23.42,27.62C256.87,260.27,242.08,230.73,229.33,223.87Z" fill="#2f2e41" data-secondary="true"/>
<path d="M308.16,221.92c7.4-3.07,4.27,8.81,0,10.47C300.74,235.42,303.87,223.57,308.16,221.92Z" fill="#e0e0e0"/>
<path d="M295.39,185.75c-13.08-8.31-22.1,4.93-18.18,17.38l3-1.76c-4-36.68,44.82,3.41,23.44,27.64C322.92,222.12,308.13,192.61,295.39,185.75Z" fill="#2f2e41" data-secondary="true"/>
<path d="M330.17,209.2c11.6-3.75-2,19.79-4.53,7.87A10,10,0,0,1,330.17,209.2Z" fill="#e0e0e0"/>
<path d="M317.42,173c-13.07-8.29-22.11,4.94-18.19,17.38l3-1.74c-4-36.69,44.82,3.4,23.44,27.62C344.94,209.41,330.15,179.89,317.42,173Z" fill="#2f2e41" data-secondary="true"/>
<path d="M352.19,196.48c7.43-3,4.29,8.81,0,10.47C344.79,210,347.92,198.14,352.19,196.48Z" fill="#e0e0e0"/>
<path d="M339.44,160.31c-13.09-8.3-22.09,4.95-18.17,17.4l3-1.76c-3-38.82,44.14,8.7,24.87,23.68a9.81,9.81,0,0,0-1.43,3.94C366.82,196.55,352.19,167.2,339.44,160.31Z" fill="#2f2e41" data-secondary="true"/>
<path d="M374.21,183.76c7.42-3,4.3,8.82,0,10.47C366.81,197.28,370,185.43,374.21,183.76Z" fill="#e0e0e0"/>
<path d="M361.51,147.59c-13.06-8.28-22.15,5-18.18,17.4l3-1.76c-3.07-38.83,44.15,8.71,24.86,23.68a10,10,0,0,0-1.43,3.94C389.07,184,374.16,154.46,361.51,147.59Z" fill="#2f2e41" data-secondary="true"/>
<path d="M396.24,171c7.39-3,4.28,8.82,0,10.47C388.84,184.58,392,172.71,396.24,171Z" fill="#e0e0e0"/>
<path d="M383.49,134.87c-13.07-8.28-22.15,5-18.19,17.4l3-1.76c-4-36.68,44.82,3.37,23.44,27.64C410.84,171.09,396.25,141.78,383.49,134.87Z" fill="#2f2e41" data-secondary="true"/>
<path d="M418.26,158.34c7.4-3.07,4.28,8.82,0,10.47C410.87,171.84,414,160,418.26,158.34Z" fill="#e0e0e0"/>
<path d="M405.51,122.16c-13.07-8.29-22.15,5-18.18,17.39l3-1.75c-4-36.66,44.82,3.35,23.43,27.63C433,158.53,418.24,129,405.51,122.16Z" fill="#2f2e41" data-secondary="true"/>
<path d="M440.28,145.62c7.41-3,4.28,8.82,0,10.47C432.89,159.13,436,147.28,440.28,145.62Z" fill="#e0e0e0"/>
<path d="M427.53,109.45c-13-8.29-22.15,5-18.18,17.38l3-1.74c-4-36.68,44.82,3.34,23.43,27.62C455.1,145.81,440.19,116.33,427.53,109.45Z" fill="#2f2e41" data-secondary="true"/>
<path d="M462.31,132.91c7.4-3,4.27,8.81,0,10.46C454.91,146.42,458,134.57,462.31,132.91Z" fill="#e0e0e0"/>
<path d="M449.56,96.74c-13.06-8.3-22.16,5-18.19,17.39l3-1.75c-4-36.66,44.83,3.34,23.44,27.61C477.07,133.11,462.29,103.6,449.56,96.74Z" fill="#2f2e41" data-secondary="true"/>
<path d="M484.33,120.19c7.39-3,4.28,8.82,0,10.47C476.93,133.7,480.06,121.85,484.33,120.19Z" fill="#e0e0e0"/>
<path d="M471.56,84c-13.08-8.28-22.09,5-18.18,17.39l3-1.75c-4-36.7,44.85,3.4,23.42,27.62C499.05,120.4,484.33,90.88,471.56,84Z" fill="#2f2e41" data-secondary="true"/>
<path d="M506.34,107.49c7.39-3.07,4.27,8.8,0,10.46C498.92,121,502,109.14,506.34,107.49Z" fill="#e0e0e0"/>
<path d="M493.57,71.32C480.5,63,471.46,76.26,475.39,88.7l3-1.76c-3.94-36.68,44.82,3.42,23.44,27.63C521.09,107.69,506.29,78.18,493.57,71.32Z" fill="#2f2e41" data-secondary="true"/>
<path d="M528.34,94.77c7.43-3,4.29,8.81,0,10.47C521,108.28,524.06,96.43,528.34,94.77Z" fill="#e0e0e0"/>
<path d="M515.59,58.6c-13.07-8.29-22.11,4.94-18.18,17.38l3-1.74c-3-38.79,44,8.59,24.93,23.68a9.75,9.75,0,0,0-1.43,3.94C543.22,95,528.29,65.46,515.59,58.6Z" fill="#2f2e41" data-secondary="true"/>
<path d="M550.37,82.05c7.42-3,4.29,8.81,0,10.47C543,95.56,546.1,83.71,550.37,82.05Z" fill="#e0e0e0"/>
<path d="M537.61,45.88c-13.08-8.28-22.1,4.95-18.18,17.4l3-1.76c-3-38.83,44.14,8.7,24.86,23.68a10,10,0,0,0-1.43,3.94C565,82.12,550.37,52.77,537.61,45.88Z" fill="#2f2e41" data-secondary="true"/>
<path d="M572.39,69.33c7.41-3,4.29,8.82,0,10.47C565,82.85,568.12,71,572.39,69.33Z" fill="#e0e0e0"/>
<path d="M559.64,33.16c-13.07-8.28-22.15,5-18.19,17.4l3-1.76c-3-38.84,44.14,8.72,24.87,23.68a9.81,9.81,0,0,0-1.43,3.94C587.17,69.56,572.37,40,559.64,33.16Z" fill="#2f2e41" data-secondary="true"/>
<path d="M594.41,56.61c7.4-3,4.28,8.82,0,10.47C587,70.15,590.15,58.28,594.41,56.61Z" fill="#e0e0e0"/>
<path d="M581.66,20.44c-13.06-8.28-22.15,5-18.18,17.4l3-1.76c-4-36.68,44.82,3.37,23.43,27.64C609.15,56.82,594.46,27.32,581.66,20.44Z" fill="#2f2e41" data-secondary="true"/>
<path d="M273.47,287.26l27.5-16c2-1.19,3.7-.35,3.71,1.85,1.16,6.86-27.44,18.59-31.21,22C267.44,297.73,270.05,288.54,273.47,287.26Z" fill="#d1d3d4"/>
<path d="M320.49,260.12l27.5-16c2-1.17,3.69-.35,3.71,1.87,1.11,6.85-27.43,18.62-31.21,22.07C314.45,270.66,317.05,261.39,320.49,260.12Z" fill="#d1d3d4"/>
<path d="M367.52,233,395,217c6-2.58,3.47,6.7,0,8l-27.53,16C361.49,243.48,364.1,234.25,367.52,233Z" fill="#d1d3d4"/>
<path d="M414.55,205.82l27.51-16c6-2.59,3.5,6.7,0,8l-27.55,16C408.53,216.34,411.14,207.09,414.55,205.82Z" fill="#d1d3d4"/>
<path d="M461.62,178.67l27.5-16c6-2.59,3.49,6.69.05,8l-27.55,15.94C455.58,189.2,458.19,180,461.62,178.67Z" fill="#d1d3d4"/>
<path d="M508.62,151.5l27.5-16c6-2.58,3.5,6.71,0,8l-27.53,16C502.57,162,505.2,152.78,508.62,151.5Z" fill="#d1d3d4"/>
<path d="M555.65,124.36l27.5-16c6-2.54,3.47,6.66,0,7.94l-27.54,16C549.62,134.84,552.23,125.63,555.65,124.36Z" fill="#d1d3d4"/>
<path d="M590.21,145.69l-.38,229L270.14,559.5v-229l320-184.8m3.29-5.7L266.86,328.58V565.19L593.11,376.6l.4-236.61Z" fill="#e0e0e0"/>
<path d="M313.46,538.31c-3.13-1.24-3.13-235.47,0-236.72C316.59,302.84,316.59,537.07,313.46,538.31Z" fill="#e0e0e0"/>
<path d="M360.08,511.37c-3.13-1.25-3-235.48.1-236.73C363.31,275.89,363.21,510.12,360.08,511.37Z" fill="#e0e0e0"/>
<path d="M406.69,484.44c-3.13-1.25-3-235.5.16-236.74C410,248.94,409.82,483.19,406.69,484.44Z" fill="#e0e0e0"/>
<path d="M453.3,457.49c-3.14-1.25-2.91-235.49.21-236.74C456.64,222,456.42,456.23,453.3,457.49Z" fill="#e0e0e0"/>
<path d="M499.9,430.54c-3.13-1.24-2.84-235.47.28-236.72C503.32,195.07,503,429.3,499.9,430.54Z" fill="#e0e0e0"/>
<path d="M546.51,403.6c-3.14-1.25-2.8-235.48.33-236.72C550,168.11,549.63,402.37,546.51,403.6Z" fill="#e0e0e0"/>
<path d="M268.78,388.22c-7.6-3.82,323.25-190.36,324.47-189C595.19,203.46,270.31,386.19,268.78,388.22Z" fill="#e0e0e0"/>
<path d="M268.78,447.38C261.21,443.52,592,256.9,593.24,258.48,595,262.61,270.25,445.37,268.78,447.38Z" fill="#e0e0e0"/>
<path d="M268.78,506.52c-7.55-3.84,323.24-190.4,324.49-189C595.21,321.72,270.31,504.51,268.78,506.52Z" fill="#e0e0e0"/>
<g id="bb983a0d-58af-4bdf-b682-5be7f0817ed7" data-name="freepik--note--inject-27">
<polygon points="504.22 198.97 504.22 257.4 552.63 229.45 552.63 171.03 504.22 198.97" fill="#2f2e41" opacity="0.1" style="isolation:isolate" data-secondary="true"/>
<path d="M564.72,226.27c-1.76,5.69-47.23,29.22-53.48,33.49L506.12,209l48.4-27.89C557.17,192.66,553.28,218.31,564.72,226.27Z" fill="#2f2e41" data-secondary="true"/>
<polygon points="554.57 180.96 506.17 208.9 506.17 199.94 554.57 172 554.57 180.96" fill="#2f2e41" data-secondary="true"/>
<polygon points="554.57 180.96 506.17 208.9 506.17 199.94 554.57 172 554.57 180.96" fill="#2f2e41" opacity="0.1" style="isolation:isolate" data-secondary="true"/>
</g>
<path d="M549.76,205.87a32.23,32.23,0,0,0-1.28-4.47c1.73-4.55-3.41-6.54-1.23-.51-1.13,2.25-5,9.25-7.6,5.58,7-8.66-2.73-10.43-1.25-.44a5.63,5.63,0,0,1-1.51,1.71c-.85-3.55-2.53,2-3.49,2.87-.28.25-.32.28-.45,0-.58-2.86-2.21-2.32-2.67.23-2.61-2.05-4,2.65-5.32,4.2a24.2,24.2,0,0,1,0-2.95h0c.19-.75-1.4-1.26-1.43-.43-.13,3.37-3.24,7.31-6.68,7.42-1.68-3,.64-10.49,4.73-10.46.77.28.69,1.17.49,1.81,1,2.32,1.88-4.42-2.51-2.82-8.61,5.28-4.61,20.48,4.37,8,2.56,2.86,3.54-3.08,5.4-4.11h0c.31,6,1.94,2.68,2.52-.92,1.46,3.3,3.6-.05,4.3-2.14.82,1.45,2.45,0,3-.95,3.19,3.93,7.45-1.79,9-4.64a23.67,23.67,0,0,1,.87,5.92c-3.28-1.53-7.86,3.73-4.27,6C549.56,215.6,550.94,209.49,549.76,205.87Zm-10.11-3.38c.21-.82.58-2,1.39-2.2a13.63,13.63,0,0,1-1.67,4,10,10,0,0,1,.28-1.82Zm6.56,10.71c-3.84,1.51.2-5.08,2.5-3.35A4.62,4.62,0,0,1,546.21,213.2Z" fill="#fafafa"/>
<path d="M520.17,226.79c-.61,3-2.95,5-4.07,7.57.8,1.24,2.72-2.1,3.48-2.86v-.15c.07,2-3.48,15.92-.3,13.87C518.75,242.1,523.46,226,520.17,226.79Z" fill="#fafafa"/>
<path d="M531,226.82c-.57-.95-1.89-2-3-1.47-3.15-1-4.27,3.69-5.2,5.87C518.6,247.14,536.16,237.29,531,226.82Zm-2.43,9c-7.34,9.1-5.67-8.19-.67-9.73,3.87,1.4,2.1,7,.67,9.73Z" fill="#fafafa"/>
<path d="M556.26,226.49c-1.47-4.81-4.15-12.66-6-2.8-.59-1.17-1.87-1.44-2.36,0-4.43-7.78-2.87,8.08-5.09,5.76a5.82,5.82,0,0,1-.82-3.2h0c-1.93-3.2-1.2,3.72-2.56,4.62-4.93,6.37-3.23-3.56.68-4.59-.21-2.36-4,1.42-4.37,2.53-3.3,6.77,4.38,6.87,6,.95v.11c4.3,4.39,3.62-4.33,4.58-6.64,1.27,3.05,1.91,7.11,3,1.05,3.36,5.93,1.76-1.56,3.53-3.76C553.86,221.46,554.67,228.87,556.26,226.49Z" fill="#fafafa"/>
<path d="M499,202.47c.26-4.68,4.46-12.11,9.93-10.19l2.61,1.54c-1.91,4.22-2.1,9.49-6.81,12h0l-1.2,2.1-2.84-1.64h-.1A4,4,0,0,1,499,202.47Z" fill="#ccc"/>
<path d="M513.34,197.5c.89,5.73-10.17,16.65-11.52,6.64C501,198.47,512,187.57,513.34,197.5Z" fill="#e0e0e0"/>
<g id="b60d2a1e-98b4-4854-8c1c-51c5959d0e0b" data-name="freepik--note--inject-27">
<polygon points="367.32 398.94 367.32 457.36 415.72 429.41 415.72 370.99 367.32 398.94" fill="#d1d3d4" opacity="0.1" style="isolation:isolate"/>
<path d="M427.81,426.16c-1.76,5.7-47.22,29.23-53.46,33.5l-5.12-50.88,48.41-27.89C420.24,392.2,416.5,418.74,427.81,426.16Z" fill="#d1d3d4"/>
<polygon points="417.67 380.92 369.26 408.87 369.26 399.9 417.67 371.96 417.67 380.92" fill="#d1d3d4"/>
<polygon points="417.67 380.92 369.26 408.87 369.26 399.9 417.67 371.96 417.67 380.92" fill="#d1d3d4" opacity="0.1" style="isolation:isolate"/>
</g>
<path d="M411.78,413c1.36,0,.67-1.42-.38-1.15-3.17-6.46-5.9-15.7-7.43-2.53h0c-3.31-10.26.93,14.08-5,12h0c4.32-17.59-9.15-12.79-1.43.41-2.88,6.67-6-8.87-7,4.44-1.32-.78-2.55,1.37-2.43,2.55-1.14-2.78-4.15-1.53-4.84.82-1.26-9.63-9.85-2.68-6.14,3.36.33.05.44-.24.35-.54-1.19-5.54,4-10.53,4.61-2,.64,1.4.56,9.42,2.72,7.14-1.11-4.35.24-14.8,3.51-5,2.82,2.14,0-4.14,1.6-5.07,3.39,5.62,1-3.68,2.49-5.27,1.6,2.23,5.24,3.52,6.12.1,5.93,1.36,5.28-8.11,5.47-11.92,2.3-.13,1.76-4.41,2.34-6.22a30.74,30.74,0,0,1,3.86,7.68C399.37,417.26,417.13,427.94,411.78,413Zm-15.31,3.66a12,12,0,0,1,.55-5.75c2.81,2,1,6.88.71,9.65A8.18,8.18,0,0,1,396.47,416.63Zm14.13,3.28c-3.38-.58-3.11-5.62.09-6.56C411.14,415.24,412.57,418.58,410.6,419.91Z" fill="#fafafa"/>
<path d="M413.76,401.09c-.94-1.63-4-11.19-5.66-9.51.49,3.45,2.63,6.4,3.63,9.7.24.81.33,2,1.44,1.91S414,401.86,413.76,401.09Z" fill="#fafafa"/>
<path d="M416.83,408.24a1.23,1.23,0,0,0-.23-.62h0c-.21-.72-2-1.56-1.8-.25C413.6,409.05,417.4,410.54,416.83,408.24Z" fill="#fafafa"/>
<path d="M362.1,402.45c.24-4.69,4.44-12.22,9.93-10.26l2.63,1.56c-2,4.28-2,9.34-6.81,12h0l-1.18,2.1-2.86-1.64h-.1A4,4,0,0,1,362.1,402.45Z" fill="#ccc"/>
<path d="M376.43,397.48c.84,5.71-10.19,16.54-11.52,6.56C364,398.26,375.07,387.44,376.43,397.48Z" fill="#e0e0e0"/>
<path d="M476,345.08l87.72-50.66c5.84-3.37,10.58-1.13,10.58,4.92s-4.74,13.84-10.58,17.2L476,367.18C458.73,374.68,466,349,476,345.08Z" fill="#d1d3d4"/>
<path d="M351.27,506.16a3.06,3.06,0,0,1-1.64-.44l-27.9-16.13a3.28,3.28,0,1,1,3.29-5.68L352.91,500c2.88,1.55,1.62,6.22-1.64,6.12Z" fill="#d1d3d4"/>
<path d="M324.56,520.18a3.31,3.31,0,0,1-2.88-4.93l24.73-44.73c2-3.74,7.87-.52,5.75,3.18h0C351,474.4,326.79,523,324.56,520.18Z" fill="#d1d3d4"/>
<path d="M499,404.22c-2.77-15.73-23.17-7.84-30.15.64-.57.44.26,1.35.82,1,36.76-27.69,32.42,21.32,4,29-16.45,4-19.06-12.87-12.23-24.12a40.27,40.27,0,0,1,26.31-20.21.87.87,0,0,0-.33-1.64c-18.88,1.9-42.42,29.24-27.49,46.33C478.67,445.51,499.86,422.69,499,404.22Z" fill="#d1d3d4"/>
<path d="M291.75,328c.38.24,3.26,8.21,4.06,7.47.89.23,10.45-5.65,8.12-1-5.21,10.07-6.75,9.06-4.45,20.83.37,4.71-7.44-.17-9,1.84-.5-.11-8.31,12.7-8.15,8.09-.14-.4,1.86-11.94,1-11.74l-5.47-3.94c-1.8-3.14,8.29-6.87,8.81-9.43C287.37,339.41,289.67,325.88,291.75,328Z" fill="#d1d3d4"/>
<path d="M367.35,285.34c.83.52,28.72-18.94,27.61-13.77,1.42,3.45-26,16.3-27.6,18.06C364.13,291,365.52,286,367.35,285.34Z" fill="#d1d3d4"/>
<path d="M367.35,295.83,385,285.62c3.23-1.4,1.83,3.59,0,4.27C383.87,290,357.74,308.08,367.35,295.83Z" fill="#d1d3d4"/>
<path d="M459,284.15c.83.51,28.69-18.95,27.58-13.77,1.42,3.44-25.93,16.29-27.58,18.05C455.78,289.8,457.18,284.83,459,284.15Z" fill="#d1d3d4"/>
<path d="M459,294.68c.95.3,20.43-14,19.64-9.21C479.41,289.19,461,297.08,459,299,455.77,300.35,457.18,295.36,459,294.68Z" fill="#d1d3d4"/>
<path d="M277.61,448c.82.51,28.7-18.94,27.58-13.79,1.42,3.45-25.93,16.29-27.58,18.05C274.37,453.69,275.78,448.72,277.61,448Z" fill="#d1d3d4"/>
<path d="M277.61,458.57c.95.31,20.42-14,19.64-9.2.75,3.71-17.68,11.6-19.64,13.49C274.38,464.22,275.77,459.25,277.61,458.57Z" fill="#d1d3d4"/>
<path d="M507,374.81c.82.51,28.71-18.93,27.59-13.78,1.42,3.45-25.94,16.29-27.59,18.05C503.81,380.47,505.22,375.49,507,374.81Z" fill="#d1d3d4"/>
<path d="M507,385.35c.95.3,20.43-14,19.64-9.21.76,3.72-17.67,11.61-19.64,13.49C503.81,391,505.2,386,507,385.35Z" fill="#d1d3d4"/>
<polygon points="360.18 334.08 394.96 313.73 359.97 370.99 360.18 334.08" fill="#d1d3d4"/>
<path d="M235.4,354.37,257,341.88c3.36-1.45,2,3.77,0,4.48L235.4,358.85C232,360.27,233.48,355.08,235.4,354.37Z" fill="#d1d3d4"/>
<path d="M235.4,363.87c1.06.22,18.64-13,18-8.16.64,3.9-15.87,10.65-18,12.62C232,369.79,233.48,364.58,235.4,363.87Z" fill="#d1d3d4"/>
<path d="M235.4,413.43,257,400.94c3.36-1.45,2,3.77,0,4.48L235.4,417.91C232,419.35,233.48,414.15,235.4,413.43Z" fill="#d1d3d4"/>
<path d="M235.4,422.93c1.06.22,18.64-13,18-8.16.64,3.9-15.87,10.67-18,12.64C232,428.84,233.48,423.64,235.4,422.93Z" fill="#d1d3d4"/>
<path d="M235.4,472.6,257,460.12c3.36-1.45,2,3.77,0,4.48L235.4,477.08C232,478.51,233.48,473.32,235.4,472.6Z" fill="#d1d3d4"/>
<path d="M235.4,482.11c1.06.22,18.64-13,18-8.16.64,3.9-15.87,10.65-18,12.62C232,488,233.48,482.82,235.4,482.11Z" fill="#d1d3d4"/>
<path d="M235.4,531.63,257,519.14c3.37-1.46,2,3.78,0,4.48L235.4,536.11C232,537.54,233.48,532.35,235.4,531.63Z" fill="#d1d3d4"/>
<path d="M235.4,541.13c1.06.23,18.65-13,18-8.15.64,3.9-15.87,10.65-18,12.62C232,547,233.48,541.85,235.4,541.13Z" fill="#d1d3d4"/>
<path id="ba626ce5-8abd-4b97-a49e-8ae0da633a86" data-name="freepik--shadow--inject-27" d="M269.09,661.23c-9.73,4.92,14.77,22.27,27,15.59l213-124.72,25.56-27a1.64,1.64,0,1,0-1.74-2.79h0l-49.31,15Z" fill="#e0e0e0"/>
<path d="M485.54,518.37l45.38-8.89a1.41,1.41,0,0,1,1.26,2.33L501.4,546.66Z" fill="#d1d3d4"/>
<path d="M532.18,511.81a1.42,1.42,0,0,0-1.33-2.32L522,511.23h0a7.77,7.77,0,0,1,3.66,7.24v.81Z" fill="#2f2e41" data-secondary="true"/>
<path d="M332.25,643.72l3.73-2.14,4.48-2.54,161-92.34a20.65,20.65,0,0,0-1.26-15.05c-3.28-7.21-9.47-12.9-14.64-13.23l-160.82,92.3-8.57,4.92C321.82,612.75,338,640.76,332.25,643.72Z" fill="#2f2e41" data-secondary="true"/>
<path d="M346.41,635.66l8.21-4.78c2.45-1.29,1.05-7.3-1.82-13.52-3.78-8.2-11.23-16.25-14.48-14.54l-6.1,3.51-2.17,1.3c3.29-1.72,10.7,6.27,14.48,14.54,2.74,6,4.13,11.75,2.05,13.33h0A.52.52,0,0,1,346.41,635.66Z" fill="#ebebeb"/>
<path d="M348.48,634.44c5.68-3-10.6-31-16.29-28l-8.31,4.74c5.7-3,22,25,16.28,28Z" fill="#3f3d56"/>
<path d="M332.25,643.72l8.21-4.68c5.61-2.92-9.85-30.11-15.81-28.32a1.09,1.09,0,0,0-.34.13l-8.21,4.77C321.82,612.75,338,640.76,332.25,643.72Z" fill="#ebebeb"/>
<path d="M297.51,663.62l34.78-19.9c2.44-1.27,1.09-7.21-1.65-13.39-3.75-8.29-11.17-16.41-14.44-14.77h0l-35.1,20.07c-6.92,4-.56,19,7.17,25.76C291.21,663.93,294.43,665.05,297.51,663.62Z" fill="#e0e0e0"/>
<path d="M299.55,652.84c-2-7.84-8.34-15.52-14.18-17.18a5.7,5.7,0,0,0-5.2.7c-5.24,4.93.85,18.68,8.2,25,2.81,2.5,6,3.61,9,2.3C299.91,662.16,300.91,658.16,299.55,652.84Z" opacity="0.1" style="isolation:isolate"/>
<path d="M755.37,504.7c1.08.43,1.31,2.53,1.37,6.67,0,3.13.61,8.61-3.08,9.63s-9.06.33-11.34-2.68c-2.86-3.75-4.76-7-8.85-11.63-3.54-4-7.4-7.71-8.74-13.21-1.22-4.93,0-7.09,3.28-8.45,4.68-1.87,11.81,4.74,15.43,5.84C746.57,491.82,754.23,504.26,755.37,504.7Z" fill="#0071f2" data-primary="true"/>
<path d="M755.37,500.86l-.12,5.09a12.46,12.46,0,0,1-12.85,0c-.21-.49-1.16-7.3-1.16-7.3Z" fill="#f9b499"/>
<path d="M713.5,533.14s1.35,4.45,2,8.34c.56,3.08,1.33,8.2.22,10.52s-5.37,3.69-11.87,3.49c-4.22-.13-10.85,2.58-15.41,4.93s-14.37,3.28-19.28,2.61c-5.78-.81-11.68-4.3-12.57-6.72s.41-4.92,14.19-10.38c.12,0,19.11-5.75,25.87-12.89Z" fill="#0071f2" data-primary="true"/>
<path d="M713.62,527.56s-.1,3.78-.13,5.93-2.65,5.31-9.23,4.92c-4.62-.26-7.82-1.64-7.56-5.38l.13-5.5Z" fill="#f9b499"/>
<path d="M760.29,433.5a138.54,138.54,0,0,0-5.4-26.6s2.33-22.8,3.68-44.43c1.47-23.37,2.83-35.39-1.76-69.15,0,0-71.65-6.43-73.6,20.58s.82,95.92,1.44,107.81,2.45,22.44,4.47,41.75c2,19.06,7.77,64,7.77,64a17.77,17.77,0,0,0,16.79,0s6.57-53.94,6.29-67.66a117.72,117.72,0,0,0-4.53-30s1.94-22.27,3.64-41.63,3.28-28.64,3.73-37.08l1.64-.75s.9,33.48,1.52,45.37,2.27,23.34,5.21,45.48c2.54,19.2,10.5,59.88,10.5,59.88,8.52,4.92,13.78-.3,13.78-.3S762.18,450.15,760.29,433.5Z" fill="#2f2e41" data-secondary="true"/>
<polygon points="709.91 197.07 712.7 221.8 736.07 220.62 733.46 191.75 709.91 197.07" fill="#f9b499"/>
<path d="M744.86,206.57c8.7-.41,13.13.91,17,8.4s5.45,29.92,6.79,41.47,1.65,19.7-3,20.89S742.35,279,742.35,279Z" fill="#0071f2" data-primary="true"/>
<path d="M744.86,206.57c8.7-.41,13.13.91,17,8.4s5.45,29.92,6.79,41.47,1.65,19.7-3,20.89S742.35,279,742.35,279Z" opacity="0.2"/>
<path d="M759.55,219.36c-1.26-6.93-10.37-14.2-18.89-12.82l-5.77,1c-1,4.16-12.43,6.77-23.32,4.21-3.29.85-14.1,2.88-16.82,3.79-7.85,2.59-11.07,10.3-12.3,35.84,0,0,.63,57.81.33,69.33,19.33,8.21,39.62,8.37,50.87,6.19,23.46-4.58,26.49-14.2,26.49-14.2l-3.49-26.45S762.39,235,759.55,219.36Z" fill="#0071f2" data-primary="true"/>
<path d="M710.83,205.23l.18,1.56a35,35,0,0,0,14.34,0c7.58-1.65,9.12-3.84,9.12-3.84l-.16-1.78s1.89-.69,2.89,2.22a36.24,36.24,0,0,1,1.1,3.54s.87,5.32-8.06,8A27.63,27.63,0,0,1,708,212.53l-3.49.74s3-7,3.93-8.39a2.36,2.36,0,0,1,2.2-1.21Z" fill="#0071f2" data-primary="true"/>
<path d="M710.83,205.23l.18,1.56a35,35,0,0,0,14.34,0c7.58-1.65,9.12-3.84,9.12-3.84l-.16-1.78s1.89-.69,2.89,2.22a36.24,36.24,0,0,1,1.1,3.54s.87,5.32-8.06,8A27.63,27.63,0,0,1,708,212.53l-3.49.74s3-7,3.93-8.39a2.36,2.36,0,0,1,2.2-1.21Z" opacity="0.2"/>
<path d="M611.71,250.29l-.71-.38a3.11,3.11,0,0,1-1.33-1.33L595,207.41a.79.79,0,0,1,.42-1l0,0,19.4-10.78a2.6,2.6,0,0,1,1.79.29l.71.36a3.08,3.08,0,0,1,1.32,1.35l14.64,41.17a.8.8,0,0,1-.44,1.05h0L613.5,250.59A2.83,2.83,0,0,1,611.71,250.29Z" fill="#2f2e41" data-secondary="true"/>
<path d="M613.35,250.62a3.09,3.09,0,0,1-1.64-.33l-.71-.38a3,3,0,0,1-1.33-1.34L595,207.41a1,1,0,0,1,0-.64l2.79,1.46a.88.88,0,0,0,0,.64L612.46,250A.88.88,0,0,0,613.35,250.62Z" fill="#2f2e41" data-secondary="true"/>
<path d="M597.82,208.87,612.48,250a.84.84,0,0,0,1,.56l19.4-10.79a.79.79,0,0,0,.46-1v0l-14.64-41.17a.83.83,0,0,0-1-.54L598.28,207.8a.83.83,0,0,0-.46,1.07Z" fill="#2f2e41" data-secondary="true"/>
<path d="M600.53,211.22l17.27-9.57a.71.71,0,0,1,.88.48l11.78,33.18a.69.69,0,0,1-.39.9l-17.2,9.85a.7.7,0,0,1-.88-.46h0l-11.87-33.42a.7.7,0,0,1,.34-.93S600.51,211.23,600.53,211.22Z" fill="#fff"/>
<path d="M607.52,203.7a.56.56,0,0,1,.74.25.5.5,0,0,1-.13.7.1.1,0,0,1,0,0,.57.57,0,0,1-.73-.35.59.59,0,0,1,.17-.64Z" fill="#263238"/>
<path d="M606.74,206c1-.51,2.64-1.48,3.56-2a.34.34,0,0,1,.46.13.33.33,0,0,1-.14.44l-3.57,2a.35.35,0,0,1-.45-.13.31.31,0,0,1,.09-.43Z" fill="#263238"/>
<path d="M605.83,206.47a.34.34,0,0,1,.43.14.31.31,0,0,1-.1.42.32.32,0,0,1-.42-.19A.34.34,0,0,1,605.83,206.47Z" fill="#263238"/>
<path d="M622.7,241.94a1.12,1.12,0,0,1,1.38.72,1.05,1.05,0,0,1-.58,1.39l0,0a1.12,1.12,0,0,1-1.4-.72,1.08,1.08,0,0,1,.62-1.4Z" fill="#263238"/>
<path d="M612.28,211.25l2.81,3.71a.37.37,0,0,0,.42.15l3.47-1.5c.36-.16.69.41.56,1l-1.3,5.28a1,1,0,0,0,0,.68l2,4.79c.22.51,0,1.16-.41,1.12l-3.61-.43a.38.38,0,0,0-.37.26l-2.22,4.47c-.23.45-.71.29-.8-.28l-.92-5.57a.78.78,0,0,0-.3-.51l-3.4-2a1,1,0,0,1-.09-1.3l3-3a.92.92,0,0,0,.22-.57l.09-5.73C611.56,211.17,612,210.86,612.28,211.25Z" fill="#e0e0e0"/>
<path d="M694.75,215.52c-10.7.92-15.27,2.87-23.29,17.34C662.74,248.58,646,277,643.87,280.6c-3,4.92-3.51,12.59-1,17.18,2.38,4.29,9.85,6.24,18.5-3.44,10.19-11.49,29.14-39.62,29.14-39.62S706.68,233.49,694.75,215.52Z" fill="#d1d3d4"/>
<path d="M647.35,301.06c-8.2-1-27.34-27-32.82-35.44a60.44,60.44,0,0,0-16.59-17.5,11.91,11.91,0,0,1-3.28-3.28,8.6,8.6,0,0,1-.94-4.13,35.17,35.17,0,0,0-.1-5.62,14,14,0,0,1-.49-3.28c.1-1.06.64-2.05.82-3.12a18.38,18.38,0,0,0-.13-3.92,4.86,4.86,0,0,1,.51-2.54,10.2,10.2,0,0,1,1.74-2,22.66,22.66,0,0,1,2.72-2l2.83,7.75,2.72,7.41c1,1,2.77,2.86,3.92.92a3.79,3.79,0,0,0,.44-1.64c.2-1.89,0-3.82.38-5.68a7.35,7.35,0,0,1,1.41-3.28c.5-.59,2-2,2.76-1.25a1.54,1.54,0,0,1,.43.86,24.86,24.86,0,0,1,0,2.59c.14,1.1.54,2.2.75,3.28a46.51,46.51,0,0,1,.79,6.76,34.18,34.18,0,0,0,.25,5,11.25,11.25,0,0,0,2,5.41c2.13,3.06,30.71,30.43,30.71,30.43Z" fill="#f9b499"/>
<path d="M696.8,215c-6.49-.17-14.26.87-20.3,8.7s-30.17,50.44-30.17,50.44L632.8,262a23.54,23.54,0,0,0-10.41,14.77,146.68,146.68,0,0,0,12.26,16.64c5.73,6.28,12.11,10.63,17.35,8.71s10.56-6.09,21.84-21.77,23.58-34.22,23.58-34.22S705.18,227.91,696.8,215Z" fill="#0071f2" data-primary="true"/>
<path d="M710.52,202.49l-.43-3.79s8-1.54,12.9-4.46C723,194.24,718.9,201.65,710.52,202.49Z" fill="#f4a48e"/>
<path d="M709.65,142.31c-11.8,2.48-15.22,7.68-16.32,26.42-1.16,19.59.84,25.75,3.4,28.39,1.74,1.77,11.49,2.1,16.26.75,6.11-1.64,19.88-6.56,26.26-16.41,7.6-11.6,9.58-27.3,1.46-33.75C729.35,138.63,714.45,141.29,709.65,142.31Z" fill="#f9b499"/>
<path d="M692.6,150.07a8.24,8.24,0,0,0,.91,5.22,8.42,8.42,0,0,0,7.9,4.17c-.54,0,1.49,2.64,1.64,2.79a4.26,4.26,0,0,0,3.08,1.2c.43,2.62.23,5.36,3.15,6.56,0,0,1.86-7.24,8-6.32s7,8.75,3.11,13.49-7.44,3-7.47,2.94c.34.18.47,2.49.59,2.92a21.43,21.43,0,0,0,1.64,4,19,19,0,0,0,5.53,6.47,16.08,16.08,0,0,0,6.66,3.25c2.22.36,4.81-.64,7-.94A123.52,123.52,0,0,0,748.47,171a34,34,0,0,0,3.4-12.37c0-3.5-.1-7.24-2.25-10.19a11.35,11.35,0,0,0-7.65-4.56,12.14,12.14,0,0,0-6.56-9,22.23,22.23,0,0,0-11.26-2.23c-3.87.1-7.71.77-11.48,1.16a125.06,125.06,0,0,1-23.93-.5,1.35,1.35,0,0,0-.84.09,1.32,1.32,0,0,0-.47.86c-1.25,5.33,1.23,10.84,6.77,12.16A8,8,0,0,0,692.6,150.07Z" fill="#2f2e41" data-secondary="true"/>
<path d="M709.2,174.19l.22-8.2a4.1,4.1,0,0,0-.22,8.2Z" fill="#2f2e41" data-secondary="true"/>
</svg>